%TF.GenerationSoftware,KiCad,Pcbnew,5.1.6-c6e7f7d~87~ubuntu20.04.1*%
%TF.CreationDate,2020-11-01T20:39:10-05:00*%
%TF.ProjectId,STM32 Driver v1,53544d33-3220-4447-9269-766572207631,rev?*%
%TF.SameCoordinates,Original*%
%TF.FileFunction,Soldermask,Top*%
%TF.FilePolarity,Negative*%
%FSLAX46Y46*%
G04 Gerber Fmt 4.6, Leading zero omitted, Abs format (unit mm)*
G04 Created by KiCad (PCBNEW 5.1.6-c6e7f7d~87~ubuntu20.04.1) date 2020-11-01 20:39:10*
%MOMM*%
%LPD*%
G01*
G04 APERTURE LIST*
%ADD10R,1.100000X1.300000*%
%ADD11C,0.850000*%
%ADD12C,3.300000*%
%ADD13C,1.800000*%
%ADD14R,0.850000X2.200000*%
%ADD15R,2.700000X2.700000*%
%ADD16C,2.700000*%
%ADD17R,1.800000X1.800000*%
%ADD18O,1.800000X1.800000*%
%ADD19R,1.100000X1.600000*%
%ADD20R,1.160000X0.750000*%
%ADD21R,1.700000X1.400000*%
G04 APERTURE END LIST*
D10*
%TO.C,SW1*%
X144614000Y-109480000D03*
X142914000Y-109480000D03*
X142914000Y-103880000D03*
X144514000Y-103880000D03*
D11*
X142389000Y-106680000D03*
X145139000Y-106680000D03*
%TD*%
%TO.C,R5*%
G36*
G01*
X146838750Y-107666500D02*
X147801250Y-107666500D01*
G75*
G02*
X148070000Y-107935250I0J-268750D01*
G01*
X148070000Y-108472750D01*
G75*
G02*
X147801250Y-108741500I-268750J0D01*
G01*
X146838750Y-108741500D01*
G75*
G02*
X146570000Y-108472750I0J268750D01*
G01*
X146570000Y-107935250D01*
G75*
G02*
X146838750Y-107666500I268750J0D01*
G01*
G37*
G36*
G01*
X146838750Y-105791500D02*
X147801250Y-105791500D01*
G75*
G02*
X148070000Y-106060250I0J-268750D01*
G01*
X148070000Y-106597750D01*
G75*
G02*
X147801250Y-106866500I-268750J0D01*
G01*
X146838750Y-106866500D01*
G75*
G02*
X146570000Y-106597750I0J268750D01*
G01*
X146570000Y-106060250D01*
G75*
G02*
X146838750Y-105791500I268750J0D01*
G01*
G37*
%TD*%
%TO.C,R4*%
G36*
G01*
X150341250Y-112805500D02*
X149378750Y-112805500D01*
G75*
G02*
X149110000Y-112536750I0J268750D01*
G01*
X149110000Y-111999250D01*
G75*
G02*
X149378750Y-111730500I268750J0D01*
G01*
X150341250Y-111730500D01*
G75*
G02*
X150610000Y-111999250I0J-268750D01*
G01*
X150610000Y-112536750D01*
G75*
G02*
X150341250Y-112805500I-268750J0D01*
G01*
G37*
G36*
G01*
X150341250Y-114680500D02*
X149378750Y-114680500D01*
G75*
G02*
X149110000Y-114411750I0J268750D01*
G01*
X149110000Y-113874250D01*
G75*
G02*
X149378750Y-113605500I268750J0D01*
G01*
X150341250Y-113605500D01*
G75*
G02*
X150610000Y-113874250I0J-268750D01*
G01*
X150610000Y-114411750D01*
G75*
G02*
X150341250Y-114680500I-268750J0D01*
G01*
G37*
%TD*%
D12*
%TO.C,REF\u002A\u002A*%
X203200000Y-117602000D03*
%TD*%
%TO.C,R3*%
G36*
G01*
X160411000Y-131796262D02*
X160411000Y-130839738D01*
G75*
G02*
X160682738Y-130568000I271738J0D01*
G01*
X161389262Y-130568000D01*
G75*
G02*
X161661000Y-130839738I0J-271738D01*
G01*
X161661000Y-131796262D01*
G75*
G02*
X161389262Y-132068000I-271738J0D01*
G01*
X160682738Y-132068000D01*
G75*
G02*
X160411000Y-131796262I0J271738D01*
G01*
G37*
G36*
G01*
X158361000Y-131796262D02*
X158361000Y-130839738D01*
G75*
G02*
X158632738Y-130568000I271738J0D01*
G01*
X159339262Y-130568000D01*
G75*
G02*
X159611000Y-130839738I0J-271738D01*
G01*
X159611000Y-131796262D01*
G75*
G02*
X159339262Y-132068000I-271738J0D01*
G01*
X158632738Y-132068000D01*
G75*
G02*
X158361000Y-131796262I0J271738D01*
G01*
G37*
%TD*%
%TO.C,C16*%
G36*
G01*
X178455500Y-113057250D02*
X178455500Y-112494750D01*
G75*
G02*
X178699250Y-112251000I243750J0D01*
G01*
X179186750Y-112251000D01*
G75*
G02*
X179430500Y-112494750I0J-243750D01*
G01*
X179430500Y-113057250D01*
G75*
G02*
X179186750Y-113301000I-243750J0D01*
G01*
X178699250Y-113301000D01*
G75*
G02*
X178455500Y-113057250I0J243750D01*
G01*
G37*
G36*
G01*
X180030500Y-113057250D02*
X180030500Y-112494750D01*
G75*
G02*
X180274250Y-112251000I243750J0D01*
G01*
X180761750Y-112251000D01*
G75*
G02*
X181005500Y-112494750I0J-243750D01*
G01*
X181005500Y-113057250D01*
G75*
G02*
X180761750Y-113301000I-243750J0D01*
G01*
X180274250Y-113301000D01*
G75*
G02*
X180030500Y-113057250I0J243750D01*
G01*
G37*
%TD*%
%TO.C,U5*%
G36*
G01*
X170721000Y-112897000D02*
X170721000Y-112647000D01*
G75*
G02*
X170846000Y-112522000I125000J0D01*
G01*
X172171000Y-112522000D01*
G75*
G02*
X172296000Y-112647000I0J-125000D01*
G01*
X172296000Y-112897000D01*
G75*
G02*
X172171000Y-113022000I-125000J0D01*
G01*
X170846000Y-113022000D01*
G75*
G02*
X170721000Y-112897000I0J125000D01*
G01*
G37*
G36*
G01*
X170721000Y-113547000D02*
X170721000Y-113297000D01*
G75*
G02*
X170846000Y-113172000I125000J0D01*
G01*
X172171000Y-113172000D01*
G75*
G02*
X172296000Y-113297000I0J-125000D01*
G01*
X172296000Y-113547000D01*
G75*
G02*
X172171000Y-113672000I-125000J0D01*
G01*
X170846000Y-113672000D01*
G75*
G02*
X170721000Y-113547000I0J125000D01*
G01*
G37*
G36*
G01*
X170721000Y-114197000D02*
X170721000Y-113947000D01*
G75*
G02*
X170846000Y-113822000I125000J0D01*
G01*
X172171000Y-113822000D01*
G75*
G02*
X172296000Y-113947000I0J-125000D01*
G01*
X172296000Y-114197000D01*
G75*
G02*
X172171000Y-114322000I-125000J0D01*
G01*
X170846000Y-114322000D01*
G75*
G02*
X170721000Y-114197000I0J125000D01*
G01*
G37*
G36*
G01*
X170721000Y-114847000D02*
X170721000Y-114597000D01*
G75*
G02*
X170846000Y-114472000I125000J0D01*
G01*
X172171000Y-114472000D01*
G75*
G02*
X172296000Y-114597000I0J-125000D01*
G01*
X172296000Y-114847000D01*
G75*
G02*
X172171000Y-114972000I-125000J0D01*
G01*
X170846000Y-114972000D01*
G75*
G02*
X170721000Y-114847000I0J125000D01*
G01*
G37*
G36*
G01*
X170721000Y-115497000D02*
X170721000Y-115247000D01*
G75*
G02*
X170846000Y-115122000I125000J0D01*
G01*
X172171000Y-115122000D01*
G75*
G02*
X172296000Y-115247000I0J-125000D01*
G01*
X172296000Y-115497000D01*
G75*
G02*
X172171000Y-115622000I-125000J0D01*
G01*
X170846000Y-115622000D01*
G75*
G02*
X170721000Y-115497000I0J125000D01*
G01*
G37*
G36*
G01*
X170721000Y-116147000D02*
X170721000Y-115897000D01*
G75*
G02*
X170846000Y-115772000I125000J0D01*
G01*
X172171000Y-115772000D01*
G75*
G02*
X172296000Y-115897000I0J-125000D01*
G01*
X172296000Y-116147000D01*
G75*
G02*
X172171000Y-116272000I-125000J0D01*
G01*
X170846000Y-116272000D01*
G75*
G02*
X170721000Y-116147000I0J125000D01*
G01*
G37*
G36*
G01*
X170721000Y-116797000D02*
X170721000Y-116547000D01*
G75*
G02*
X170846000Y-116422000I125000J0D01*
G01*
X172171000Y-116422000D01*
G75*
G02*
X172296000Y-116547000I0J-125000D01*
G01*
X172296000Y-116797000D01*
G75*
G02*
X172171000Y-116922000I-125000J0D01*
G01*
X170846000Y-116922000D01*
G75*
G02*
X170721000Y-116797000I0J125000D01*
G01*
G37*
G36*
G01*
X170721000Y-117447000D02*
X170721000Y-117197000D01*
G75*
G02*
X170846000Y-117072000I125000J0D01*
G01*
X172171000Y-117072000D01*
G75*
G02*
X172296000Y-117197000I0J-125000D01*
G01*
X172296000Y-117447000D01*
G75*
G02*
X172171000Y-117572000I-125000J0D01*
G01*
X170846000Y-117572000D01*
G75*
G02*
X170721000Y-117447000I0J125000D01*
G01*
G37*
G36*
G01*
X170721000Y-118097000D02*
X170721000Y-117847000D01*
G75*
G02*
X170846000Y-117722000I125000J0D01*
G01*
X172171000Y-117722000D01*
G75*
G02*
X172296000Y-117847000I0J-125000D01*
G01*
X172296000Y-118097000D01*
G75*
G02*
X172171000Y-118222000I-125000J0D01*
G01*
X170846000Y-118222000D01*
G75*
G02*
X170721000Y-118097000I0J125000D01*
G01*
G37*
G36*
G01*
X170721000Y-118747000D02*
X170721000Y-118497000D01*
G75*
G02*
X170846000Y-118372000I125000J0D01*
G01*
X172171000Y-118372000D01*
G75*
G02*
X172296000Y-118497000I0J-125000D01*
G01*
X172296000Y-118747000D01*
G75*
G02*
X172171000Y-118872000I-125000J0D01*
G01*
X170846000Y-118872000D01*
G75*
G02*
X170721000Y-118747000I0J125000D01*
G01*
G37*
G36*
G01*
X176446000Y-118747000D02*
X176446000Y-118497000D01*
G75*
G02*
X176571000Y-118372000I125000J0D01*
G01*
X177896000Y-118372000D01*
G75*
G02*
X178021000Y-118497000I0J-125000D01*
G01*
X178021000Y-118747000D01*
G75*
G02*
X177896000Y-118872000I-125000J0D01*
G01*
X176571000Y-118872000D01*
G75*
G02*
X176446000Y-118747000I0J125000D01*
G01*
G37*
G36*
G01*
X176446000Y-118097000D02*
X176446000Y-117847000D01*
G75*
G02*
X176571000Y-117722000I125000J0D01*
G01*
X177896000Y-117722000D01*
G75*
G02*
X178021000Y-117847000I0J-125000D01*
G01*
X178021000Y-118097000D01*
G75*
G02*
X177896000Y-118222000I-125000J0D01*
G01*
X176571000Y-118222000D01*
G75*
G02*
X176446000Y-118097000I0J125000D01*
G01*
G37*
G36*
G01*
X176446000Y-117447000D02*
X176446000Y-117197000D01*
G75*
G02*
X176571000Y-117072000I125000J0D01*
G01*
X177896000Y-117072000D01*
G75*
G02*
X178021000Y-117197000I0J-125000D01*
G01*
X178021000Y-117447000D01*
G75*
G02*
X177896000Y-117572000I-125000J0D01*
G01*
X176571000Y-117572000D01*
G75*
G02*
X176446000Y-117447000I0J125000D01*
G01*
G37*
G36*
G01*
X176446000Y-116797000D02*
X176446000Y-116547000D01*
G75*
G02*
X176571000Y-116422000I125000J0D01*
G01*
X177896000Y-116422000D01*
G75*
G02*
X178021000Y-116547000I0J-125000D01*
G01*
X178021000Y-116797000D01*
G75*
G02*
X177896000Y-116922000I-125000J0D01*
G01*
X176571000Y-116922000D01*
G75*
G02*
X176446000Y-116797000I0J125000D01*
G01*
G37*
G36*
G01*
X176446000Y-116147000D02*
X176446000Y-115897000D01*
G75*
G02*
X176571000Y-115772000I125000J0D01*
G01*
X177896000Y-115772000D01*
G75*
G02*
X178021000Y-115897000I0J-125000D01*
G01*
X178021000Y-116147000D01*
G75*
G02*
X177896000Y-116272000I-125000J0D01*
G01*
X176571000Y-116272000D01*
G75*
G02*
X176446000Y-116147000I0J125000D01*
G01*
G37*
G36*
G01*
X176446000Y-115497000D02*
X176446000Y-115247000D01*
G75*
G02*
X176571000Y-115122000I125000J0D01*
G01*
X177896000Y-115122000D01*
G75*
G02*
X178021000Y-115247000I0J-125000D01*
G01*
X178021000Y-115497000D01*
G75*
G02*
X177896000Y-115622000I-125000J0D01*
G01*
X176571000Y-115622000D01*
G75*
G02*
X176446000Y-115497000I0J125000D01*
G01*
G37*
G36*
G01*
X176446000Y-114847000D02*
X176446000Y-114597000D01*
G75*
G02*
X176571000Y-114472000I125000J0D01*
G01*
X177896000Y-114472000D01*
G75*
G02*
X178021000Y-114597000I0J-125000D01*
G01*
X178021000Y-114847000D01*
G75*
G02*
X177896000Y-114972000I-125000J0D01*
G01*
X176571000Y-114972000D01*
G75*
G02*
X176446000Y-114847000I0J125000D01*
G01*
G37*
G36*
G01*
X176446000Y-114197000D02*
X176446000Y-113947000D01*
G75*
G02*
X176571000Y-113822000I125000J0D01*
G01*
X177896000Y-113822000D01*
G75*
G02*
X178021000Y-113947000I0J-125000D01*
G01*
X178021000Y-114197000D01*
G75*
G02*
X177896000Y-114322000I-125000J0D01*
G01*
X176571000Y-114322000D01*
G75*
G02*
X176446000Y-114197000I0J125000D01*
G01*
G37*
G36*
G01*
X176446000Y-113547000D02*
X176446000Y-113297000D01*
G75*
G02*
X176571000Y-113172000I125000J0D01*
G01*
X177896000Y-113172000D01*
G75*
G02*
X178021000Y-113297000I0J-125000D01*
G01*
X178021000Y-113547000D01*
G75*
G02*
X177896000Y-113672000I-125000J0D01*
G01*
X176571000Y-113672000D01*
G75*
G02*
X176446000Y-113547000I0J125000D01*
G01*
G37*
G36*
G01*
X176446000Y-112897000D02*
X176446000Y-112647000D01*
G75*
G02*
X176571000Y-112522000I125000J0D01*
G01*
X177896000Y-112522000D01*
G75*
G02*
X178021000Y-112647000I0J-125000D01*
G01*
X178021000Y-112897000D01*
G75*
G02*
X177896000Y-113022000I-125000J0D01*
G01*
X176571000Y-113022000D01*
G75*
G02*
X176446000Y-112897000I0J125000D01*
G01*
G37*
%TD*%
%TO.C,FB2*%
G36*
G01*
X162078750Y-105380500D02*
X163041250Y-105380500D01*
G75*
G02*
X163310000Y-105649250I0J-268750D01*
G01*
X163310000Y-106186750D01*
G75*
G02*
X163041250Y-106455500I-268750J0D01*
G01*
X162078750Y-106455500D01*
G75*
G02*
X161810000Y-106186750I0J268750D01*
G01*
X161810000Y-105649250D01*
G75*
G02*
X162078750Y-105380500I268750J0D01*
G01*
G37*
G36*
G01*
X162078750Y-103505500D02*
X163041250Y-103505500D01*
G75*
G02*
X163310000Y-103774250I0J-268750D01*
G01*
X163310000Y-104311750D01*
G75*
G02*
X163041250Y-104580500I-268750J0D01*
G01*
X162078750Y-104580500D01*
G75*
G02*
X161810000Y-104311750I0J268750D01*
G01*
X161810000Y-103774250D01*
G75*
G02*
X162078750Y-103505500I268750J0D01*
G01*
G37*
%TD*%
D13*
%TO.C,J3*%
X185928000Y-131953000D03*
X188468000Y-131953000D03*
X191008000Y-131953000D03*
X193548000Y-131953000D03*
X196088000Y-131953000D03*
X198628000Y-131953000D03*
X201168000Y-131953000D03*
X203708000Y-131953000D03*
X185928000Y-129413000D03*
X188468000Y-129413000D03*
X191008000Y-129413000D03*
X193548000Y-129413000D03*
X196088000Y-129413000D03*
X198628000Y-129413000D03*
X201168000Y-129413000D03*
G36*
G01*
X203072706Y-128513000D02*
X204343294Y-128513000D01*
G75*
G02*
X204608000Y-128777706I0J-264706D01*
G01*
X204608000Y-130048294D01*
G75*
G02*
X204343294Y-130313000I-264706J0D01*
G01*
X203072706Y-130313000D01*
G75*
G02*
X202808000Y-130048294I0J264706D01*
G01*
X202808000Y-128777706D01*
G75*
G02*
X203072706Y-128513000I264706J0D01*
G01*
G37*
%TD*%
%TO.C,C1*%
G36*
G01*
X161009250Y-103867000D02*
X160046750Y-103867000D01*
G75*
G02*
X159778000Y-103598250I0J268750D01*
G01*
X159778000Y-103060750D01*
G75*
G02*
X160046750Y-102792000I268750J0D01*
G01*
X161009250Y-102792000D01*
G75*
G02*
X161278000Y-103060750I0J-268750D01*
G01*
X161278000Y-103598250D01*
G75*
G02*
X161009250Y-103867000I-268750J0D01*
G01*
G37*
G36*
G01*
X161009250Y-105742000D02*
X160046750Y-105742000D01*
G75*
G02*
X159778000Y-105473250I0J268750D01*
G01*
X159778000Y-104935750D01*
G75*
G02*
X160046750Y-104667000I268750J0D01*
G01*
X161009250Y-104667000D01*
G75*
G02*
X161278000Y-104935750I0J-268750D01*
G01*
X161278000Y-105473250D01*
G75*
G02*
X161009250Y-105742000I-268750J0D01*
G01*
G37*
%TD*%
%TO.C,C2*%
G36*
G01*
X159158250Y-103738500D02*
X158595750Y-103738500D01*
G75*
G02*
X158352000Y-103494750I0J243750D01*
G01*
X158352000Y-103007250D01*
G75*
G02*
X158595750Y-102763500I243750J0D01*
G01*
X159158250Y-102763500D01*
G75*
G02*
X159402000Y-103007250I0J-243750D01*
G01*
X159402000Y-103494750D01*
G75*
G02*
X159158250Y-103738500I-243750J0D01*
G01*
G37*
G36*
G01*
X159158250Y-105313500D02*
X158595750Y-105313500D01*
G75*
G02*
X158352000Y-105069750I0J243750D01*
G01*
X158352000Y-104582250D01*
G75*
G02*
X158595750Y-104338500I243750J0D01*
G01*
X159158250Y-104338500D01*
G75*
G02*
X159402000Y-104582250I0J-243750D01*
G01*
X159402000Y-105069750D01*
G75*
G02*
X159158250Y-105313500I-243750J0D01*
G01*
G37*
%TD*%
%TO.C,C3*%
G36*
G01*
X153770250Y-106328500D02*
X152807750Y-106328500D01*
G75*
G02*
X152539000Y-106059750I0J268750D01*
G01*
X152539000Y-105522250D01*
G75*
G02*
X152807750Y-105253500I268750J0D01*
G01*
X153770250Y-105253500D01*
G75*
G02*
X154039000Y-105522250I0J-268750D01*
G01*
X154039000Y-106059750D01*
G75*
G02*
X153770250Y-106328500I-268750J0D01*
G01*
G37*
G36*
G01*
X153770250Y-104453500D02*
X152807750Y-104453500D01*
G75*
G02*
X152539000Y-104184750I0J268750D01*
G01*
X152539000Y-103647250D01*
G75*
G02*
X152807750Y-103378500I268750J0D01*
G01*
X153770250Y-103378500D01*
G75*
G02*
X154039000Y-103647250I0J-268750D01*
G01*
X154039000Y-104184750D01*
G75*
G02*
X153770250Y-104453500I-268750J0D01*
G01*
G37*
%TD*%
%TO.C,C4*%
G36*
G01*
X152877500Y-107723250D02*
X152877500Y-107160750D01*
G75*
G02*
X153121250Y-106917000I243750J0D01*
G01*
X153608750Y-106917000D01*
G75*
G02*
X153852500Y-107160750I0J-243750D01*
G01*
X153852500Y-107723250D01*
G75*
G02*
X153608750Y-107967000I-243750J0D01*
G01*
X153121250Y-107967000D01*
G75*
G02*
X152877500Y-107723250I0J243750D01*
G01*
G37*
G36*
G01*
X154452500Y-107723250D02*
X154452500Y-107160750D01*
G75*
G02*
X154696250Y-106917000I243750J0D01*
G01*
X155183750Y-106917000D01*
G75*
G02*
X155427500Y-107160750I0J-243750D01*
G01*
X155427500Y-107723250D01*
G75*
G02*
X155183750Y-107967000I-243750J0D01*
G01*
X154696250Y-107967000D01*
G75*
G02*
X154452500Y-107723250I0J243750D01*
G01*
G37*
%TD*%
%TO.C,C5*%
G36*
G01*
X144171750Y-125065500D02*
X145134250Y-125065500D01*
G75*
G02*
X145403000Y-125334250I0J-268750D01*
G01*
X145403000Y-125871750D01*
G75*
G02*
X145134250Y-126140500I-268750J0D01*
G01*
X144171750Y-126140500D01*
G75*
G02*
X143903000Y-125871750I0J268750D01*
G01*
X143903000Y-125334250D01*
G75*
G02*
X144171750Y-125065500I268750J0D01*
G01*
G37*
G36*
G01*
X144171750Y-126940500D02*
X145134250Y-126940500D01*
G75*
G02*
X145403000Y-127209250I0J-268750D01*
G01*
X145403000Y-127746750D01*
G75*
G02*
X145134250Y-128015500I-268750J0D01*
G01*
X144171750Y-128015500D01*
G75*
G02*
X143903000Y-127746750I0J268750D01*
G01*
X143903000Y-127209250D01*
G75*
G02*
X144171750Y-126940500I268750J0D01*
G01*
G37*
%TD*%
%TO.C,C6*%
G36*
G01*
X155093750Y-109601500D02*
X156056250Y-109601500D01*
G75*
G02*
X156325000Y-109870250I0J-268750D01*
G01*
X156325000Y-110407750D01*
G75*
G02*
X156056250Y-110676500I-268750J0D01*
G01*
X155093750Y-110676500D01*
G75*
G02*
X154825000Y-110407750I0J268750D01*
G01*
X154825000Y-109870250D01*
G75*
G02*
X155093750Y-109601500I268750J0D01*
G01*
G37*
G36*
G01*
X155093750Y-111476500D02*
X156056250Y-111476500D01*
G75*
G02*
X156325000Y-111745250I0J-268750D01*
G01*
X156325000Y-112282750D01*
G75*
G02*
X156056250Y-112551500I-268750J0D01*
G01*
X155093750Y-112551500D01*
G75*
G02*
X154825000Y-112282750I0J268750D01*
G01*
X154825000Y-111745250D01*
G75*
G02*
X155093750Y-111476500I268750J0D01*
G01*
G37*
%TD*%
%TO.C,C7*%
G36*
G01*
X163422250Y-110773500D02*
X162459750Y-110773500D01*
G75*
G02*
X162191000Y-110504750I0J268750D01*
G01*
X162191000Y-109967250D01*
G75*
G02*
X162459750Y-109698500I268750J0D01*
G01*
X163422250Y-109698500D01*
G75*
G02*
X163691000Y-109967250I0J-268750D01*
G01*
X163691000Y-110504750D01*
G75*
G02*
X163422250Y-110773500I-268750J0D01*
G01*
G37*
G36*
G01*
X163422250Y-112648500D02*
X162459750Y-112648500D01*
G75*
G02*
X162191000Y-112379750I0J268750D01*
G01*
X162191000Y-111842250D01*
G75*
G02*
X162459750Y-111573500I268750J0D01*
G01*
X163422250Y-111573500D01*
G75*
G02*
X163691000Y-111842250I0J-268750D01*
G01*
X163691000Y-112379750D01*
G75*
G02*
X163422250Y-112648500I-268750J0D01*
G01*
G37*
%TD*%
%TO.C,C8*%
G36*
G01*
X151229750Y-128849500D02*
X151792250Y-128849500D01*
G75*
G02*
X152036000Y-129093250I0J-243750D01*
G01*
X152036000Y-129580750D01*
G75*
G02*
X151792250Y-129824500I-243750J0D01*
G01*
X151229750Y-129824500D01*
G75*
G02*
X150986000Y-129580750I0J243750D01*
G01*
X150986000Y-129093250D01*
G75*
G02*
X151229750Y-128849500I243750J0D01*
G01*
G37*
G36*
G01*
X151229750Y-127274500D02*
X151792250Y-127274500D01*
G75*
G02*
X152036000Y-127518250I0J-243750D01*
G01*
X152036000Y-128005750D01*
G75*
G02*
X151792250Y-128249500I-243750J0D01*
G01*
X151229750Y-128249500D01*
G75*
G02*
X150986000Y-128005750I0J243750D01*
G01*
X150986000Y-127518250D01*
G75*
G02*
X151229750Y-127274500I243750J0D01*
G01*
G37*
%TD*%
%TO.C,C9*%
G36*
G01*
X150141250Y-120121500D02*
X149578750Y-120121500D01*
G75*
G02*
X149335000Y-119877750I0J243750D01*
G01*
X149335000Y-119390250D01*
G75*
G02*
X149578750Y-119146500I243750J0D01*
G01*
X150141250Y-119146500D01*
G75*
G02*
X150385000Y-119390250I0J-243750D01*
G01*
X150385000Y-119877750D01*
G75*
G02*
X150141250Y-120121500I-243750J0D01*
G01*
G37*
G36*
G01*
X150141250Y-118546500D02*
X149578750Y-118546500D01*
G75*
G02*
X149335000Y-118302750I0J243750D01*
G01*
X149335000Y-117815250D01*
G75*
G02*
X149578750Y-117571500I243750J0D01*
G01*
X150141250Y-117571500D01*
G75*
G02*
X150385000Y-117815250I0J-243750D01*
G01*
X150385000Y-118302750D01*
G75*
G02*
X150141250Y-118546500I-243750J0D01*
G01*
G37*
%TD*%
%TO.C,C10*%
G36*
G01*
X166035000Y-119407250D02*
X166035000Y-118844750D01*
G75*
G02*
X166278750Y-118601000I243750J0D01*
G01*
X166766250Y-118601000D01*
G75*
G02*
X167010000Y-118844750I0J-243750D01*
G01*
X167010000Y-119407250D01*
G75*
G02*
X166766250Y-119651000I-243750J0D01*
G01*
X166278750Y-119651000D01*
G75*
G02*
X166035000Y-119407250I0J243750D01*
G01*
G37*
G36*
G01*
X164460000Y-119407250D02*
X164460000Y-118844750D01*
G75*
G02*
X164703750Y-118601000I243750J0D01*
G01*
X165191250Y-118601000D01*
G75*
G02*
X165435000Y-118844750I0J-243750D01*
G01*
X165435000Y-119407250D01*
G75*
G02*
X165191250Y-119651000I-243750J0D01*
G01*
X164703750Y-119651000D01*
G75*
G02*
X164460000Y-119407250I0J243750D01*
G01*
G37*
%TD*%
%TO.C,C11*%
G36*
G01*
X161571250Y-115803500D02*
X161008750Y-115803500D01*
G75*
G02*
X160765000Y-115559750I0J243750D01*
G01*
X160765000Y-115072250D01*
G75*
G02*
X161008750Y-114828500I243750J0D01*
G01*
X161571250Y-114828500D01*
G75*
G02*
X161815000Y-115072250I0J-243750D01*
G01*
X161815000Y-115559750D01*
G75*
G02*
X161571250Y-115803500I-243750J0D01*
G01*
G37*
G36*
G01*
X161571250Y-114228500D02*
X161008750Y-114228500D01*
G75*
G02*
X160765000Y-113984750I0J243750D01*
G01*
X160765000Y-113497250D01*
G75*
G02*
X161008750Y-113253500I243750J0D01*
G01*
X161571250Y-113253500D01*
G75*
G02*
X161815000Y-113497250I0J-243750D01*
G01*
X161815000Y-113984750D01*
G75*
G02*
X161571250Y-114228500I-243750J0D01*
G01*
G37*
%TD*%
%TO.C,C12*%
G36*
G01*
X163520500Y-129313250D02*
X163520500Y-128750750D01*
G75*
G02*
X163764250Y-128507000I243750J0D01*
G01*
X164251750Y-128507000D01*
G75*
G02*
X164495500Y-128750750I0J-243750D01*
G01*
X164495500Y-129313250D01*
G75*
G02*
X164251750Y-129557000I-243750J0D01*
G01*
X163764250Y-129557000D01*
G75*
G02*
X163520500Y-129313250I0J243750D01*
G01*
G37*
G36*
G01*
X161945500Y-129313250D02*
X161945500Y-128750750D01*
G75*
G02*
X162189250Y-128507000I243750J0D01*
G01*
X162676750Y-128507000D01*
G75*
G02*
X162920500Y-128750750I0J-243750D01*
G01*
X162920500Y-129313250D01*
G75*
G02*
X162676750Y-129557000I-243750J0D01*
G01*
X162189250Y-129557000D01*
G75*
G02*
X161945500Y-129313250I0J243750D01*
G01*
G37*
%TD*%
%TO.C,C13*%
G36*
G01*
X155348250Y-115854500D02*
X154785750Y-115854500D01*
G75*
G02*
X154542000Y-115610750I0J243750D01*
G01*
X154542000Y-115123250D01*
G75*
G02*
X154785750Y-114879500I243750J0D01*
G01*
X155348250Y-114879500D01*
G75*
G02*
X155592000Y-115123250I0J-243750D01*
G01*
X155592000Y-115610750D01*
G75*
G02*
X155348250Y-115854500I-243750J0D01*
G01*
G37*
G36*
G01*
X155348250Y-114279500D02*
X154785750Y-114279500D01*
G75*
G02*
X154542000Y-114035750I0J243750D01*
G01*
X154542000Y-113548250D01*
G75*
G02*
X154785750Y-113304500I243750J0D01*
G01*
X155348250Y-113304500D01*
G75*
G02*
X155592000Y-113548250I0J-243750D01*
G01*
X155592000Y-114035750D01*
G75*
G02*
X155348250Y-114279500I-243750J0D01*
G01*
G37*
%TD*%
%TO.C,C14*%
G36*
G01*
X180030500Y-120296250D02*
X180030500Y-119733750D01*
G75*
G02*
X180274250Y-119490000I243750J0D01*
G01*
X180761750Y-119490000D01*
G75*
G02*
X181005500Y-119733750I0J-243750D01*
G01*
X181005500Y-120296250D01*
G75*
G02*
X180761750Y-120540000I-243750J0D01*
G01*
X180274250Y-120540000D01*
G75*
G02*
X180030500Y-120296250I0J243750D01*
G01*
G37*
G36*
G01*
X178455500Y-120296250D02*
X178455500Y-119733750D01*
G75*
G02*
X178699250Y-119490000I243750J0D01*
G01*
X179186750Y-119490000D01*
G75*
G02*
X179430500Y-119733750I0J-243750D01*
G01*
X179430500Y-120296250D01*
G75*
G02*
X179186750Y-120540000I-243750J0D01*
G01*
X178699250Y-120540000D01*
G75*
G02*
X178455500Y-120296250I0J243750D01*
G01*
G37*
%TD*%
%TO.C,C15*%
G36*
G01*
X179859250Y-127792500D02*
X179296750Y-127792500D01*
G75*
G02*
X179053000Y-127548750I0J243750D01*
G01*
X179053000Y-127061250D01*
G75*
G02*
X179296750Y-126817500I243750J0D01*
G01*
X179859250Y-126817500D01*
G75*
G02*
X180103000Y-127061250I0J-243750D01*
G01*
X180103000Y-127548750D01*
G75*
G02*
X179859250Y-127792500I-243750J0D01*
G01*
G37*
G36*
G01*
X179859250Y-126217500D02*
X179296750Y-126217500D01*
G75*
G02*
X179053000Y-125973750I0J243750D01*
G01*
X179053000Y-125486250D01*
G75*
G02*
X179296750Y-125242500I243750J0D01*
G01*
X179859250Y-125242500D01*
G75*
G02*
X180103000Y-125486250I0J-243750D01*
G01*
X180103000Y-125973750D01*
G75*
G02*
X179859250Y-126217500I-243750J0D01*
G01*
G37*
%TD*%
%TO.C,D1*%
G36*
G01*
X149225500Y-106526250D02*
X149225500Y-105563750D01*
G75*
G02*
X149494250Y-105295000I268750J0D01*
G01*
X150031750Y-105295000D01*
G75*
G02*
X150300500Y-105563750I0J-268750D01*
G01*
X150300500Y-106526250D01*
G75*
G02*
X150031750Y-106795000I-268750J0D01*
G01*
X149494250Y-106795000D01*
G75*
G02*
X149225500Y-106526250I0J268750D01*
G01*
G37*
G36*
G01*
X151100500Y-106526250D02*
X151100500Y-105563750D01*
G75*
G02*
X151369250Y-105295000I268750J0D01*
G01*
X151906750Y-105295000D01*
G75*
G02*
X152175500Y-105563750I0J-268750D01*
G01*
X152175500Y-106526250D01*
G75*
G02*
X151906750Y-106795000I-268750J0D01*
G01*
X151369250Y-106795000D01*
G75*
G02*
X151100500Y-106526250I0J268750D01*
G01*
G37*
%TD*%
%TO.C,F1*%
G36*
G01*
X163917000Y-106007000D02*
X163917000Y-103797000D01*
G75*
G02*
X164187000Y-103527000I270000J0D01*
G01*
X164997000Y-103527000D01*
G75*
G02*
X165267000Y-103797000I0J-270000D01*
G01*
X165267000Y-106007000D01*
G75*
G02*
X164997000Y-106277000I-270000J0D01*
G01*
X164187000Y-106277000D01*
G75*
G02*
X163917000Y-106007000I0J270000D01*
G01*
G37*
G36*
G01*
X166717000Y-106007000D02*
X166717000Y-103797000D01*
G75*
G02*
X166987000Y-103527000I270000J0D01*
G01*
X167797000Y-103527000D01*
G75*
G02*
X168067000Y-103797000I0J-270000D01*
G01*
X168067000Y-106007000D01*
G75*
G02*
X167797000Y-106277000I-270000J0D01*
G01*
X166987000Y-106277000D01*
G75*
G02*
X166717000Y-106007000I0J270000D01*
G01*
G37*
%TD*%
%TO.C,FB1*%
G36*
G01*
X153770250Y-115950500D02*
X152807750Y-115950500D01*
G75*
G02*
X152539000Y-115681750I0J268750D01*
G01*
X152539000Y-115144250D01*
G75*
G02*
X152807750Y-114875500I268750J0D01*
G01*
X153770250Y-114875500D01*
G75*
G02*
X154039000Y-115144250I0J-268750D01*
G01*
X154039000Y-115681750D01*
G75*
G02*
X153770250Y-115950500I-268750J0D01*
G01*
G37*
G36*
G01*
X153770250Y-114075500D02*
X152807750Y-114075500D01*
G75*
G02*
X152539000Y-113806750I0J268750D01*
G01*
X152539000Y-113269250D01*
G75*
G02*
X152807750Y-113000500I268750J0D01*
G01*
X153770250Y-113000500D01*
G75*
G02*
X154039000Y-113269250I0J-268750D01*
G01*
X154039000Y-113806750D01*
G75*
G02*
X153770250Y-114075500I-268750J0D01*
G01*
G37*
%TD*%
D14*
%TO.C,J1*%
X142875000Y-130280000D03*
X142875000Y-133880000D03*
X144145000Y-130280000D03*
X144145000Y-133880000D03*
X145415000Y-130280000D03*
X145415000Y-133880000D03*
X146685000Y-130280000D03*
X146685000Y-133880000D03*
X147955000Y-130280000D03*
X147955000Y-133880000D03*
%TD*%
D15*
%TO.C,J2*%
X176276000Y-106172000D03*
D16*
X171196000Y-106172000D03*
%TD*%
D17*
%TO.C,J4*%
X184150000Y-109220000D03*
D18*
X184150000Y-106680000D03*
X186690000Y-109220000D03*
X186690000Y-106680000D03*
X189230000Y-109220000D03*
X189230000Y-106680000D03*
X191770000Y-109220000D03*
X191770000Y-106680000D03*
X194310000Y-109220000D03*
X194310000Y-106680000D03*
X196850000Y-109220000D03*
X196850000Y-106680000D03*
X199390000Y-109220000D03*
X199390000Y-106680000D03*
X201930000Y-109220000D03*
X201930000Y-106680000D03*
X204470000Y-109220000D03*
X204470000Y-106680000D03*
%TD*%
D17*
%TO.C,J5*%
X143891000Y-123571000D03*
D18*
X143891000Y-121031000D03*
X143891000Y-118491000D03*
X143891000Y-115951000D03*
X143891000Y-113411000D03*
%TD*%
D17*
%TO.C,J6*%
X151257000Y-133477000D03*
D18*
X153797000Y-133477000D03*
X156337000Y-133477000D03*
%TD*%
D19*
%TO.C,JP1*%
X147036000Y-124079000D03*
X149636000Y-124079000D03*
X148336000Y-124079000D03*
%TD*%
%TO.C,JP2*%
X148336000Y-127381000D03*
X147036000Y-127381000D03*
X149636000Y-127381000D03*
%TD*%
%TO.C,R1*%
G36*
G01*
X157833750Y-113304500D02*
X158396250Y-113304500D01*
G75*
G02*
X158640000Y-113548250I0J-243750D01*
G01*
X158640000Y-114035750D01*
G75*
G02*
X158396250Y-114279500I-243750J0D01*
G01*
X157833750Y-114279500D01*
G75*
G02*
X157590000Y-114035750I0J243750D01*
G01*
X157590000Y-113548250D01*
G75*
G02*
X157833750Y-113304500I243750J0D01*
G01*
G37*
G36*
G01*
X157833750Y-114879500D02*
X158396250Y-114879500D01*
G75*
G02*
X158640000Y-115123250I0J-243750D01*
G01*
X158640000Y-115610750D01*
G75*
G02*
X158396250Y-115854500I-243750J0D01*
G01*
X157833750Y-115854500D01*
G75*
G02*
X157590000Y-115610750I0J243750D01*
G01*
X157590000Y-115123250D01*
G75*
G02*
X157833750Y-114879500I243750J0D01*
G01*
G37*
%TD*%
%TO.C,R2*%
G36*
G01*
X149225500Y-104621250D02*
X149225500Y-103658750D01*
G75*
G02*
X149494250Y-103390000I268750J0D01*
G01*
X150031750Y-103390000D01*
G75*
G02*
X150300500Y-103658750I0J-268750D01*
G01*
X150300500Y-104621250D01*
G75*
G02*
X150031750Y-104890000I-268750J0D01*
G01*
X149494250Y-104890000D01*
G75*
G02*
X149225500Y-104621250I0J268750D01*
G01*
G37*
G36*
G01*
X151100500Y-104621250D02*
X151100500Y-103658750D01*
G75*
G02*
X151369250Y-103390000I268750J0D01*
G01*
X151906750Y-103390000D01*
G75*
G02*
X152175500Y-103658750I0J-268750D01*
G01*
X152175500Y-104621250D01*
G75*
G02*
X151906750Y-104890000I-268750J0D01*
G01*
X151369250Y-104890000D01*
G75*
G02*
X151100500Y-104621250I0J268750D01*
G01*
G37*
%TD*%
D20*
%TO.C,U1*%
X157310000Y-105852000D03*
X157310000Y-104902000D03*
X157310000Y-103952000D03*
X155110000Y-103952000D03*
X155110000Y-105852000D03*
%TD*%
%TO.C,U2*%
G36*
G01*
X161135999Y-116371001D02*
X161335999Y-116371001D01*
G75*
G02*
X161435999Y-116471001I0J-100000D01*
G01*
X161435999Y-117921001D01*
G75*
G02*
X161335999Y-118021001I-100000J0D01*
G01*
X161135999Y-118021001D01*
G75*
G02*
X161035999Y-117921001I0J100000D01*
G01*
X161035999Y-116471001D01*
G75*
G02*
X161135999Y-116371001I100000J0D01*
G01*
G37*
G36*
G01*
X160635999Y-116371001D02*
X160835999Y-116371001D01*
G75*
G02*
X160935999Y-116471001I0J-100000D01*
G01*
X160935999Y-117921001D01*
G75*
G02*
X160835999Y-118021001I-100000J0D01*
G01*
X160635999Y-118021001D01*
G75*
G02*
X160535999Y-117921001I0J100000D01*
G01*
X160535999Y-116471001D01*
G75*
G02*
X160635999Y-116371001I100000J0D01*
G01*
G37*
G36*
G01*
X160135999Y-116371001D02*
X160335999Y-116371001D01*
G75*
G02*
X160435999Y-116471001I0J-100000D01*
G01*
X160435999Y-117921001D01*
G75*
G02*
X160335999Y-118021001I-100000J0D01*
G01*
X160135999Y-118021001D01*
G75*
G02*
X160035999Y-117921001I0J100000D01*
G01*
X160035999Y-116471001D01*
G75*
G02*
X160135999Y-116371001I100000J0D01*
G01*
G37*
G36*
G01*
X159635999Y-116371001D02*
X159835999Y-116371001D01*
G75*
G02*
X159935999Y-116471001I0J-100000D01*
G01*
X159935999Y-117921001D01*
G75*
G02*
X159835999Y-118021001I-100000J0D01*
G01*
X159635999Y-118021001D01*
G75*
G02*
X159535999Y-117921001I0J100000D01*
G01*
X159535999Y-116471001D01*
G75*
G02*
X159635999Y-116371001I100000J0D01*
G01*
G37*
G36*
G01*
X159135999Y-116371001D02*
X159335999Y-116371001D01*
G75*
G02*
X159435999Y-116471001I0J-100000D01*
G01*
X159435999Y-117921001D01*
G75*
G02*
X159335999Y-118021001I-100000J0D01*
G01*
X159135999Y-118021001D01*
G75*
G02*
X159035999Y-117921001I0J100000D01*
G01*
X159035999Y-116471001D01*
G75*
G02*
X159135999Y-116371001I100000J0D01*
G01*
G37*
G36*
G01*
X158635999Y-116371001D02*
X158835999Y-116371001D01*
G75*
G02*
X158935999Y-116471001I0J-100000D01*
G01*
X158935999Y-117921001D01*
G75*
G02*
X158835999Y-118021001I-100000J0D01*
G01*
X158635999Y-118021001D01*
G75*
G02*
X158535999Y-117921001I0J100000D01*
G01*
X158535999Y-116471001D01*
G75*
G02*
X158635999Y-116371001I100000J0D01*
G01*
G37*
G36*
G01*
X158135999Y-116371001D02*
X158335999Y-116371001D01*
G75*
G02*
X158435999Y-116471001I0J-100000D01*
G01*
X158435999Y-117921001D01*
G75*
G02*
X158335999Y-118021001I-100000J0D01*
G01*
X158135999Y-118021001D01*
G75*
G02*
X158035999Y-117921001I0J100000D01*
G01*
X158035999Y-116471001D01*
G75*
G02*
X158135999Y-116371001I100000J0D01*
G01*
G37*
G36*
G01*
X157635999Y-116371001D02*
X157835999Y-116371001D01*
G75*
G02*
X157935999Y-116471001I0J-100000D01*
G01*
X157935999Y-117921001D01*
G75*
G02*
X157835999Y-118021001I-100000J0D01*
G01*
X157635999Y-118021001D01*
G75*
G02*
X157535999Y-117921001I0J100000D01*
G01*
X157535999Y-116471001D01*
G75*
G02*
X157635999Y-116371001I100000J0D01*
G01*
G37*
G36*
G01*
X157135999Y-116371001D02*
X157335999Y-116371001D01*
G75*
G02*
X157435999Y-116471001I0J-100000D01*
G01*
X157435999Y-117921001D01*
G75*
G02*
X157335999Y-118021001I-100000J0D01*
G01*
X157135999Y-118021001D01*
G75*
G02*
X157035999Y-117921001I0J100000D01*
G01*
X157035999Y-116471001D01*
G75*
G02*
X157135999Y-116371001I100000J0D01*
G01*
G37*
G36*
G01*
X156635999Y-116371001D02*
X156835999Y-116371001D01*
G75*
G02*
X156935999Y-116471001I0J-100000D01*
G01*
X156935999Y-117921001D01*
G75*
G02*
X156835999Y-118021001I-100000J0D01*
G01*
X156635999Y-118021001D01*
G75*
G02*
X156535999Y-117921001I0J100000D01*
G01*
X156535999Y-116471001D01*
G75*
G02*
X156635999Y-116371001I100000J0D01*
G01*
G37*
G36*
G01*
X156135999Y-116371001D02*
X156335999Y-116371001D01*
G75*
G02*
X156435999Y-116471001I0J-100000D01*
G01*
X156435999Y-117921001D01*
G75*
G02*
X156335999Y-118021001I-100000J0D01*
G01*
X156135999Y-118021001D01*
G75*
G02*
X156035999Y-117921001I0J100000D01*
G01*
X156035999Y-116471001D01*
G75*
G02*
X156135999Y-116371001I100000J0D01*
G01*
G37*
G36*
G01*
X155635999Y-116371001D02*
X155835999Y-116371001D01*
G75*
G02*
X155935999Y-116471001I0J-100000D01*
G01*
X155935999Y-117921001D01*
G75*
G02*
X155835999Y-118021001I-100000J0D01*
G01*
X155635999Y-118021001D01*
G75*
G02*
X155535999Y-117921001I0J100000D01*
G01*
X155535999Y-116471001D01*
G75*
G02*
X155635999Y-116371001I100000J0D01*
G01*
G37*
G36*
G01*
X155135999Y-116371001D02*
X155335999Y-116371001D01*
G75*
G02*
X155435999Y-116471001I0J-100000D01*
G01*
X155435999Y-117921001D01*
G75*
G02*
X155335999Y-118021001I-100000J0D01*
G01*
X155135999Y-118021001D01*
G75*
G02*
X155035999Y-117921001I0J100000D01*
G01*
X155035999Y-116471001D01*
G75*
G02*
X155135999Y-116371001I100000J0D01*
G01*
G37*
G36*
G01*
X154635999Y-116371001D02*
X154835999Y-116371001D01*
G75*
G02*
X154935999Y-116471001I0J-100000D01*
G01*
X154935999Y-117921001D01*
G75*
G02*
X154835999Y-118021001I-100000J0D01*
G01*
X154635999Y-118021001D01*
G75*
G02*
X154535999Y-117921001I0J100000D01*
G01*
X154535999Y-116471001D01*
G75*
G02*
X154635999Y-116371001I100000J0D01*
G01*
G37*
G36*
G01*
X154135999Y-116371001D02*
X154335999Y-116371001D01*
G75*
G02*
X154435999Y-116471001I0J-100000D01*
G01*
X154435999Y-117921001D01*
G75*
G02*
X154335999Y-118021001I-100000J0D01*
G01*
X154135999Y-118021001D01*
G75*
G02*
X154035999Y-117921001I0J100000D01*
G01*
X154035999Y-116471001D01*
G75*
G02*
X154135999Y-116371001I100000J0D01*
G01*
G37*
G36*
G01*
X153635999Y-116371001D02*
X153835999Y-116371001D01*
G75*
G02*
X153935999Y-116471001I0J-100000D01*
G01*
X153935999Y-117921001D01*
G75*
G02*
X153835999Y-118021001I-100000J0D01*
G01*
X153635999Y-118021001D01*
G75*
G02*
X153535999Y-117921001I0J100000D01*
G01*
X153535999Y-116471001D01*
G75*
G02*
X153635999Y-116371001I100000J0D01*
G01*
G37*
G36*
G01*
X151085999Y-118921001D02*
X152535999Y-118921001D01*
G75*
G02*
X152635999Y-119021001I0J-100000D01*
G01*
X152635999Y-119221001D01*
G75*
G02*
X152535999Y-119321001I-100000J0D01*
G01*
X151085999Y-119321001D01*
G75*
G02*
X150985999Y-119221001I0J100000D01*
G01*
X150985999Y-119021001D01*
G75*
G02*
X151085999Y-118921001I100000J0D01*
G01*
G37*
G36*
G01*
X151085999Y-119421001D02*
X152535999Y-119421001D01*
G75*
G02*
X152635999Y-119521001I0J-100000D01*
G01*
X152635999Y-119721001D01*
G75*
G02*
X152535999Y-119821001I-100000J0D01*
G01*
X151085999Y-119821001D01*
G75*
G02*
X150985999Y-119721001I0J100000D01*
G01*
X150985999Y-119521001D01*
G75*
G02*
X151085999Y-119421001I100000J0D01*
G01*
G37*
G36*
G01*
X151085999Y-119921001D02*
X152535999Y-119921001D01*
G75*
G02*
X152635999Y-120021001I0J-100000D01*
G01*
X152635999Y-120221001D01*
G75*
G02*
X152535999Y-120321001I-100000J0D01*
G01*
X151085999Y-120321001D01*
G75*
G02*
X150985999Y-120221001I0J100000D01*
G01*
X150985999Y-120021001D01*
G75*
G02*
X151085999Y-119921001I100000J0D01*
G01*
G37*
G36*
G01*
X151085999Y-120421001D02*
X152535999Y-120421001D01*
G75*
G02*
X152635999Y-120521001I0J-100000D01*
G01*
X152635999Y-120721001D01*
G75*
G02*
X152535999Y-120821001I-100000J0D01*
G01*
X151085999Y-120821001D01*
G75*
G02*
X150985999Y-120721001I0J100000D01*
G01*
X150985999Y-120521001D01*
G75*
G02*
X151085999Y-120421001I100000J0D01*
G01*
G37*
G36*
G01*
X151085999Y-120921001D02*
X152535999Y-120921001D01*
G75*
G02*
X152635999Y-121021001I0J-100000D01*
G01*
X152635999Y-121221001D01*
G75*
G02*
X152535999Y-121321001I-100000J0D01*
G01*
X151085999Y-121321001D01*
G75*
G02*
X150985999Y-121221001I0J100000D01*
G01*
X150985999Y-121021001D01*
G75*
G02*
X151085999Y-120921001I100000J0D01*
G01*
G37*
G36*
G01*
X151085999Y-121421001D02*
X152535999Y-121421001D01*
G75*
G02*
X152635999Y-121521001I0J-100000D01*
G01*
X152635999Y-121721001D01*
G75*
G02*
X152535999Y-121821001I-100000J0D01*
G01*
X151085999Y-121821001D01*
G75*
G02*
X150985999Y-121721001I0J100000D01*
G01*
X150985999Y-121521001D01*
G75*
G02*
X151085999Y-121421001I100000J0D01*
G01*
G37*
G36*
G01*
X151085999Y-121921001D02*
X152535999Y-121921001D01*
G75*
G02*
X152635999Y-122021001I0J-100000D01*
G01*
X152635999Y-122221001D01*
G75*
G02*
X152535999Y-122321001I-100000J0D01*
G01*
X151085999Y-122321001D01*
G75*
G02*
X150985999Y-122221001I0J100000D01*
G01*
X150985999Y-122021001D01*
G75*
G02*
X151085999Y-121921001I100000J0D01*
G01*
G37*
G36*
G01*
X151085999Y-122421001D02*
X152535999Y-122421001D01*
G75*
G02*
X152635999Y-122521001I0J-100000D01*
G01*
X152635999Y-122721001D01*
G75*
G02*
X152535999Y-122821001I-100000J0D01*
G01*
X151085999Y-122821001D01*
G75*
G02*
X150985999Y-122721001I0J100000D01*
G01*
X150985999Y-122521001D01*
G75*
G02*
X151085999Y-122421001I100000J0D01*
G01*
G37*
G36*
G01*
X151085999Y-122921001D02*
X152535999Y-122921001D01*
G75*
G02*
X152635999Y-123021001I0J-100000D01*
G01*
X152635999Y-123221001D01*
G75*
G02*
X152535999Y-123321001I-100000J0D01*
G01*
X151085999Y-123321001D01*
G75*
G02*
X150985999Y-123221001I0J100000D01*
G01*
X150985999Y-123021001D01*
G75*
G02*
X151085999Y-122921001I100000J0D01*
G01*
G37*
G36*
G01*
X151085999Y-123421001D02*
X152535999Y-123421001D01*
G75*
G02*
X152635999Y-123521001I0J-100000D01*
G01*
X152635999Y-123721001D01*
G75*
G02*
X152535999Y-123821001I-100000J0D01*
G01*
X151085999Y-123821001D01*
G75*
G02*
X150985999Y-123721001I0J100000D01*
G01*
X150985999Y-123521001D01*
G75*
G02*
X151085999Y-123421001I100000J0D01*
G01*
G37*
G36*
G01*
X151085999Y-123921001D02*
X152535999Y-123921001D01*
G75*
G02*
X152635999Y-124021001I0J-100000D01*
G01*
X152635999Y-124221001D01*
G75*
G02*
X152535999Y-124321001I-100000J0D01*
G01*
X151085999Y-124321001D01*
G75*
G02*
X150985999Y-124221001I0J100000D01*
G01*
X150985999Y-124021001D01*
G75*
G02*
X151085999Y-123921001I100000J0D01*
G01*
G37*
G36*
G01*
X151085999Y-124421001D02*
X152535999Y-124421001D01*
G75*
G02*
X152635999Y-124521001I0J-100000D01*
G01*
X152635999Y-124721001D01*
G75*
G02*
X152535999Y-124821001I-100000J0D01*
G01*
X151085999Y-124821001D01*
G75*
G02*
X150985999Y-124721001I0J100000D01*
G01*
X150985999Y-124521001D01*
G75*
G02*
X151085999Y-124421001I100000J0D01*
G01*
G37*
G36*
G01*
X151085999Y-124921001D02*
X152535999Y-124921001D01*
G75*
G02*
X152635999Y-125021001I0J-100000D01*
G01*
X152635999Y-125221001D01*
G75*
G02*
X152535999Y-125321001I-100000J0D01*
G01*
X151085999Y-125321001D01*
G75*
G02*
X150985999Y-125221001I0J100000D01*
G01*
X150985999Y-125021001D01*
G75*
G02*
X151085999Y-124921001I100000J0D01*
G01*
G37*
G36*
G01*
X151085999Y-125421001D02*
X152535999Y-125421001D01*
G75*
G02*
X152635999Y-125521001I0J-100000D01*
G01*
X152635999Y-125721001D01*
G75*
G02*
X152535999Y-125821001I-100000J0D01*
G01*
X151085999Y-125821001D01*
G75*
G02*
X150985999Y-125721001I0J100000D01*
G01*
X150985999Y-125521001D01*
G75*
G02*
X151085999Y-125421001I100000J0D01*
G01*
G37*
G36*
G01*
X151085999Y-125921001D02*
X152535999Y-125921001D01*
G75*
G02*
X152635999Y-126021001I0J-100000D01*
G01*
X152635999Y-126221001D01*
G75*
G02*
X152535999Y-126321001I-100000J0D01*
G01*
X151085999Y-126321001D01*
G75*
G02*
X150985999Y-126221001I0J100000D01*
G01*
X150985999Y-126021001D01*
G75*
G02*
X151085999Y-125921001I100000J0D01*
G01*
G37*
G36*
G01*
X151085999Y-126421001D02*
X152535999Y-126421001D01*
G75*
G02*
X152635999Y-126521001I0J-100000D01*
G01*
X152635999Y-126721001D01*
G75*
G02*
X152535999Y-126821001I-100000J0D01*
G01*
X151085999Y-126821001D01*
G75*
G02*
X150985999Y-126721001I0J100000D01*
G01*
X150985999Y-126521001D01*
G75*
G02*
X151085999Y-126421001I100000J0D01*
G01*
G37*
G36*
G01*
X153635999Y-127721001D02*
X153835999Y-127721001D01*
G75*
G02*
X153935999Y-127821001I0J-100000D01*
G01*
X153935999Y-129271001D01*
G75*
G02*
X153835999Y-129371001I-100000J0D01*
G01*
X153635999Y-129371001D01*
G75*
G02*
X153535999Y-129271001I0J100000D01*
G01*
X153535999Y-127821001D01*
G75*
G02*
X153635999Y-127721001I100000J0D01*
G01*
G37*
G36*
G01*
X154135999Y-127721001D02*
X154335999Y-127721001D01*
G75*
G02*
X154435999Y-127821001I0J-100000D01*
G01*
X154435999Y-129271001D01*
G75*
G02*
X154335999Y-129371001I-100000J0D01*
G01*
X154135999Y-129371001D01*
G75*
G02*
X154035999Y-129271001I0J100000D01*
G01*
X154035999Y-127821001D01*
G75*
G02*
X154135999Y-127721001I100000J0D01*
G01*
G37*
G36*
G01*
X154635999Y-127721001D02*
X154835999Y-127721001D01*
G75*
G02*
X154935999Y-127821001I0J-100000D01*
G01*
X154935999Y-129271001D01*
G75*
G02*
X154835999Y-129371001I-100000J0D01*
G01*
X154635999Y-129371001D01*
G75*
G02*
X154535999Y-129271001I0J100000D01*
G01*
X154535999Y-127821001D01*
G75*
G02*
X154635999Y-127721001I100000J0D01*
G01*
G37*
G36*
G01*
X155135999Y-127721001D02*
X155335999Y-127721001D01*
G75*
G02*
X155435999Y-127821001I0J-100000D01*
G01*
X155435999Y-129271001D01*
G75*
G02*
X155335999Y-129371001I-100000J0D01*
G01*
X155135999Y-129371001D01*
G75*
G02*
X155035999Y-129271001I0J100000D01*
G01*
X155035999Y-127821001D01*
G75*
G02*
X155135999Y-127721001I100000J0D01*
G01*
G37*
G36*
G01*
X155635999Y-127721001D02*
X155835999Y-127721001D01*
G75*
G02*
X155935999Y-127821001I0J-100000D01*
G01*
X155935999Y-129271001D01*
G75*
G02*
X155835999Y-129371001I-100000J0D01*
G01*
X155635999Y-129371001D01*
G75*
G02*
X155535999Y-129271001I0J100000D01*
G01*
X155535999Y-127821001D01*
G75*
G02*
X155635999Y-127721001I100000J0D01*
G01*
G37*
G36*
G01*
X156135999Y-127721001D02*
X156335999Y-127721001D01*
G75*
G02*
X156435999Y-127821001I0J-100000D01*
G01*
X156435999Y-129271001D01*
G75*
G02*
X156335999Y-129371001I-100000J0D01*
G01*
X156135999Y-129371001D01*
G75*
G02*
X156035999Y-129271001I0J100000D01*
G01*
X156035999Y-127821001D01*
G75*
G02*
X156135999Y-127721001I100000J0D01*
G01*
G37*
G36*
G01*
X156635999Y-127721001D02*
X156835999Y-127721001D01*
G75*
G02*
X156935999Y-127821001I0J-100000D01*
G01*
X156935999Y-129271001D01*
G75*
G02*
X156835999Y-129371001I-100000J0D01*
G01*
X156635999Y-129371001D01*
G75*
G02*
X156535999Y-129271001I0J100000D01*
G01*
X156535999Y-127821001D01*
G75*
G02*
X156635999Y-127721001I100000J0D01*
G01*
G37*
G36*
G01*
X157135999Y-127721001D02*
X157335999Y-127721001D01*
G75*
G02*
X157435999Y-127821001I0J-100000D01*
G01*
X157435999Y-129271001D01*
G75*
G02*
X157335999Y-129371001I-100000J0D01*
G01*
X157135999Y-129371001D01*
G75*
G02*
X157035999Y-129271001I0J100000D01*
G01*
X157035999Y-127821001D01*
G75*
G02*
X157135999Y-127721001I100000J0D01*
G01*
G37*
G36*
G01*
X157635999Y-127721001D02*
X157835999Y-127721001D01*
G75*
G02*
X157935999Y-127821001I0J-100000D01*
G01*
X157935999Y-129271001D01*
G75*
G02*
X157835999Y-129371001I-100000J0D01*
G01*
X157635999Y-129371001D01*
G75*
G02*
X157535999Y-129271001I0J100000D01*
G01*
X157535999Y-127821001D01*
G75*
G02*
X157635999Y-127721001I100000J0D01*
G01*
G37*
G36*
G01*
X158135999Y-127721001D02*
X158335999Y-127721001D01*
G75*
G02*
X158435999Y-127821001I0J-100000D01*
G01*
X158435999Y-129271001D01*
G75*
G02*
X158335999Y-129371001I-100000J0D01*
G01*
X158135999Y-129371001D01*
G75*
G02*
X158035999Y-129271001I0J100000D01*
G01*
X158035999Y-127821001D01*
G75*
G02*
X158135999Y-127721001I100000J0D01*
G01*
G37*
G36*
G01*
X158635999Y-127721001D02*
X158835999Y-127721001D01*
G75*
G02*
X158935999Y-127821001I0J-100000D01*
G01*
X158935999Y-129271001D01*
G75*
G02*
X158835999Y-129371001I-100000J0D01*
G01*
X158635999Y-129371001D01*
G75*
G02*
X158535999Y-129271001I0J100000D01*
G01*
X158535999Y-127821001D01*
G75*
G02*
X158635999Y-127721001I100000J0D01*
G01*
G37*
G36*
G01*
X159135999Y-127721001D02*
X159335999Y-127721001D01*
G75*
G02*
X159435999Y-127821001I0J-100000D01*
G01*
X159435999Y-129271001D01*
G75*
G02*
X159335999Y-129371001I-100000J0D01*
G01*
X159135999Y-129371001D01*
G75*
G02*
X159035999Y-129271001I0J100000D01*
G01*
X159035999Y-127821001D01*
G75*
G02*
X159135999Y-127721001I100000J0D01*
G01*
G37*
G36*
G01*
X159635999Y-127721001D02*
X159835999Y-127721001D01*
G75*
G02*
X159935999Y-127821001I0J-100000D01*
G01*
X159935999Y-129271001D01*
G75*
G02*
X159835999Y-129371001I-100000J0D01*
G01*
X159635999Y-129371001D01*
G75*
G02*
X159535999Y-129271001I0J100000D01*
G01*
X159535999Y-127821001D01*
G75*
G02*
X159635999Y-127721001I100000J0D01*
G01*
G37*
G36*
G01*
X160135999Y-127721001D02*
X160335999Y-127721001D01*
G75*
G02*
X160435999Y-127821001I0J-100000D01*
G01*
X160435999Y-129271001D01*
G75*
G02*
X160335999Y-129371001I-100000J0D01*
G01*
X160135999Y-129371001D01*
G75*
G02*
X160035999Y-129271001I0J100000D01*
G01*
X160035999Y-127821001D01*
G75*
G02*
X160135999Y-127721001I100000J0D01*
G01*
G37*
G36*
G01*
X160635999Y-127721001D02*
X160835999Y-127721001D01*
G75*
G02*
X160935999Y-127821001I0J-100000D01*
G01*
X160935999Y-129271001D01*
G75*
G02*
X160835999Y-129371001I-100000J0D01*
G01*
X160635999Y-129371001D01*
G75*
G02*
X160535999Y-129271001I0J100000D01*
G01*
X160535999Y-127821001D01*
G75*
G02*
X160635999Y-127721001I100000J0D01*
G01*
G37*
G36*
G01*
X161135999Y-127721001D02*
X161335999Y-127721001D01*
G75*
G02*
X161435999Y-127821001I0J-100000D01*
G01*
X161435999Y-129271001D01*
G75*
G02*
X161335999Y-129371001I-100000J0D01*
G01*
X161135999Y-129371001D01*
G75*
G02*
X161035999Y-129271001I0J100000D01*
G01*
X161035999Y-127821001D01*
G75*
G02*
X161135999Y-127721001I100000J0D01*
G01*
G37*
G36*
G01*
X162435999Y-126421001D02*
X163885999Y-126421001D01*
G75*
G02*
X163985999Y-126521001I0J-100000D01*
G01*
X163985999Y-126721001D01*
G75*
G02*
X163885999Y-126821001I-100000J0D01*
G01*
X162435999Y-126821001D01*
G75*
G02*
X162335999Y-126721001I0J100000D01*
G01*
X162335999Y-126521001D01*
G75*
G02*
X162435999Y-126421001I100000J0D01*
G01*
G37*
G36*
G01*
X162435999Y-125921001D02*
X163885999Y-125921001D01*
G75*
G02*
X163985999Y-126021001I0J-100000D01*
G01*
X163985999Y-126221001D01*
G75*
G02*
X163885999Y-126321001I-100000J0D01*
G01*
X162435999Y-126321001D01*
G75*
G02*
X162335999Y-126221001I0J100000D01*
G01*
X162335999Y-126021001D01*
G75*
G02*
X162435999Y-125921001I100000J0D01*
G01*
G37*
G36*
G01*
X162435999Y-125421001D02*
X163885999Y-125421001D01*
G75*
G02*
X163985999Y-125521001I0J-100000D01*
G01*
X163985999Y-125721001D01*
G75*
G02*
X163885999Y-125821001I-100000J0D01*
G01*
X162435999Y-125821001D01*
G75*
G02*
X162335999Y-125721001I0J100000D01*
G01*
X162335999Y-125521001D01*
G75*
G02*
X162435999Y-125421001I100000J0D01*
G01*
G37*
G36*
G01*
X162435999Y-124921001D02*
X163885999Y-124921001D01*
G75*
G02*
X163985999Y-125021001I0J-100000D01*
G01*
X163985999Y-125221001D01*
G75*
G02*
X163885999Y-125321001I-100000J0D01*
G01*
X162435999Y-125321001D01*
G75*
G02*
X162335999Y-125221001I0J100000D01*
G01*
X162335999Y-125021001D01*
G75*
G02*
X162435999Y-124921001I100000J0D01*
G01*
G37*
G36*
G01*
X162435999Y-124421001D02*
X163885999Y-124421001D01*
G75*
G02*
X163985999Y-124521001I0J-100000D01*
G01*
X163985999Y-124721001D01*
G75*
G02*
X163885999Y-124821001I-100000J0D01*
G01*
X162435999Y-124821001D01*
G75*
G02*
X162335999Y-124721001I0J100000D01*
G01*
X162335999Y-124521001D01*
G75*
G02*
X162435999Y-124421001I100000J0D01*
G01*
G37*
G36*
G01*
X162435999Y-123921001D02*
X163885999Y-123921001D01*
G75*
G02*
X163985999Y-124021001I0J-100000D01*
G01*
X163985999Y-124221001D01*
G75*
G02*
X163885999Y-124321001I-100000J0D01*
G01*
X162435999Y-124321001D01*
G75*
G02*
X162335999Y-124221001I0J100000D01*
G01*
X162335999Y-124021001D01*
G75*
G02*
X162435999Y-123921001I100000J0D01*
G01*
G37*
G36*
G01*
X162435999Y-123421001D02*
X163885999Y-123421001D01*
G75*
G02*
X163985999Y-123521001I0J-100000D01*
G01*
X163985999Y-123721001D01*
G75*
G02*
X163885999Y-123821001I-100000J0D01*
G01*
X162435999Y-123821001D01*
G75*
G02*
X162335999Y-123721001I0J100000D01*
G01*
X162335999Y-123521001D01*
G75*
G02*
X162435999Y-123421001I100000J0D01*
G01*
G37*
G36*
G01*
X162435999Y-122921001D02*
X163885999Y-122921001D01*
G75*
G02*
X163985999Y-123021001I0J-100000D01*
G01*
X163985999Y-123221001D01*
G75*
G02*
X163885999Y-123321001I-100000J0D01*
G01*
X162435999Y-123321001D01*
G75*
G02*
X162335999Y-123221001I0J100000D01*
G01*
X162335999Y-123021001D01*
G75*
G02*
X162435999Y-122921001I100000J0D01*
G01*
G37*
G36*
G01*
X162435999Y-122421001D02*
X163885999Y-122421001D01*
G75*
G02*
X163985999Y-122521001I0J-100000D01*
G01*
X163985999Y-122721001D01*
G75*
G02*
X163885999Y-122821001I-100000J0D01*
G01*
X162435999Y-122821001D01*
G75*
G02*
X162335999Y-122721001I0J100000D01*
G01*
X162335999Y-122521001D01*
G75*
G02*
X162435999Y-122421001I100000J0D01*
G01*
G37*
G36*
G01*
X162435999Y-121921001D02*
X163885999Y-121921001D01*
G75*
G02*
X163985999Y-122021001I0J-100000D01*
G01*
X163985999Y-122221001D01*
G75*
G02*
X163885999Y-122321001I-100000J0D01*
G01*
X162435999Y-122321001D01*
G75*
G02*
X162335999Y-122221001I0J100000D01*
G01*
X162335999Y-122021001D01*
G75*
G02*
X162435999Y-121921001I100000J0D01*
G01*
G37*
G36*
G01*
X162435999Y-121421001D02*
X163885999Y-121421001D01*
G75*
G02*
X163985999Y-121521001I0J-100000D01*
G01*
X163985999Y-121721001D01*
G75*
G02*
X163885999Y-121821001I-100000J0D01*
G01*
X162435999Y-121821001D01*
G75*
G02*
X162335999Y-121721001I0J100000D01*
G01*
X162335999Y-121521001D01*
G75*
G02*
X162435999Y-121421001I100000J0D01*
G01*
G37*
G36*
G01*
X162435999Y-120921001D02*
X163885999Y-120921001D01*
G75*
G02*
X163985999Y-121021001I0J-100000D01*
G01*
X163985999Y-121221001D01*
G75*
G02*
X163885999Y-121321001I-100000J0D01*
G01*
X162435999Y-121321001D01*
G75*
G02*
X162335999Y-121221001I0J100000D01*
G01*
X162335999Y-121021001D01*
G75*
G02*
X162435999Y-120921001I100000J0D01*
G01*
G37*
G36*
G01*
X162435999Y-120421001D02*
X163885999Y-120421001D01*
G75*
G02*
X163985999Y-120521001I0J-100000D01*
G01*
X163985999Y-120721001D01*
G75*
G02*
X163885999Y-120821001I-100000J0D01*
G01*
X162435999Y-120821001D01*
G75*
G02*
X162335999Y-120721001I0J100000D01*
G01*
X162335999Y-120521001D01*
G75*
G02*
X162435999Y-120421001I100000J0D01*
G01*
G37*
G36*
G01*
X162435999Y-119921001D02*
X163885999Y-119921001D01*
G75*
G02*
X163985999Y-120021001I0J-100000D01*
G01*
X163985999Y-120221001D01*
G75*
G02*
X163885999Y-120321001I-100000J0D01*
G01*
X162435999Y-120321001D01*
G75*
G02*
X162335999Y-120221001I0J100000D01*
G01*
X162335999Y-120021001D01*
G75*
G02*
X162435999Y-119921001I100000J0D01*
G01*
G37*
G36*
G01*
X162435999Y-119421001D02*
X163885999Y-119421001D01*
G75*
G02*
X163985999Y-119521001I0J-100000D01*
G01*
X163985999Y-119721001D01*
G75*
G02*
X163885999Y-119821001I-100000J0D01*
G01*
X162435999Y-119821001D01*
G75*
G02*
X162335999Y-119721001I0J100000D01*
G01*
X162335999Y-119521001D01*
G75*
G02*
X162435999Y-119421001I100000J0D01*
G01*
G37*
G36*
G01*
X162435999Y-118921001D02*
X163885999Y-118921001D01*
G75*
G02*
X163985999Y-119021001I0J-100000D01*
G01*
X163985999Y-119221001D01*
G75*
G02*
X163885999Y-119321001I-100000J0D01*
G01*
X162435999Y-119321001D01*
G75*
G02*
X162335999Y-119221001I0J100000D01*
G01*
X162335999Y-119021001D01*
G75*
G02*
X162435999Y-118921001I100000J0D01*
G01*
G37*
%TD*%
%TO.C,U3*%
G36*
G01*
X176573000Y-120136000D02*
X176573000Y-119886000D01*
G75*
G02*
X176698000Y-119761000I125000J0D01*
G01*
X178023000Y-119761000D01*
G75*
G02*
X178148000Y-119886000I0J-125000D01*
G01*
X178148000Y-120136000D01*
G75*
G02*
X178023000Y-120261000I-125000J0D01*
G01*
X176698000Y-120261000D01*
G75*
G02*
X176573000Y-120136000I0J125000D01*
G01*
G37*
G36*
G01*
X176573000Y-120786000D02*
X176573000Y-120536000D01*
G75*
G02*
X176698000Y-120411000I125000J0D01*
G01*
X178023000Y-120411000D01*
G75*
G02*
X178148000Y-120536000I0J-125000D01*
G01*
X178148000Y-120786000D01*
G75*
G02*
X178023000Y-120911000I-125000J0D01*
G01*
X176698000Y-120911000D01*
G75*
G02*
X176573000Y-120786000I0J125000D01*
G01*
G37*
G36*
G01*
X176573000Y-121436000D02*
X176573000Y-121186000D01*
G75*
G02*
X176698000Y-121061000I125000J0D01*
G01*
X178023000Y-121061000D01*
G75*
G02*
X178148000Y-121186000I0J-125000D01*
G01*
X178148000Y-121436000D01*
G75*
G02*
X178023000Y-121561000I-125000J0D01*
G01*
X176698000Y-121561000D01*
G75*
G02*
X176573000Y-121436000I0J125000D01*
G01*
G37*
G36*
G01*
X176573000Y-122086000D02*
X176573000Y-121836000D01*
G75*
G02*
X176698000Y-121711000I125000J0D01*
G01*
X178023000Y-121711000D01*
G75*
G02*
X178148000Y-121836000I0J-125000D01*
G01*
X178148000Y-122086000D01*
G75*
G02*
X178023000Y-122211000I-125000J0D01*
G01*
X176698000Y-122211000D01*
G75*
G02*
X176573000Y-122086000I0J125000D01*
G01*
G37*
G36*
G01*
X176573000Y-122736000D02*
X176573000Y-122486000D01*
G75*
G02*
X176698000Y-122361000I125000J0D01*
G01*
X178023000Y-122361000D01*
G75*
G02*
X178148000Y-122486000I0J-125000D01*
G01*
X178148000Y-122736000D01*
G75*
G02*
X178023000Y-122861000I-125000J0D01*
G01*
X176698000Y-122861000D01*
G75*
G02*
X176573000Y-122736000I0J125000D01*
G01*
G37*
G36*
G01*
X176573000Y-123386000D02*
X176573000Y-123136000D01*
G75*
G02*
X176698000Y-123011000I125000J0D01*
G01*
X178023000Y-123011000D01*
G75*
G02*
X178148000Y-123136000I0J-125000D01*
G01*
X178148000Y-123386000D01*
G75*
G02*
X178023000Y-123511000I-125000J0D01*
G01*
X176698000Y-123511000D01*
G75*
G02*
X176573000Y-123386000I0J125000D01*
G01*
G37*
G36*
G01*
X176573000Y-124036000D02*
X176573000Y-123786000D01*
G75*
G02*
X176698000Y-123661000I125000J0D01*
G01*
X178023000Y-123661000D01*
G75*
G02*
X178148000Y-123786000I0J-125000D01*
G01*
X178148000Y-124036000D01*
G75*
G02*
X178023000Y-124161000I-125000J0D01*
G01*
X176698000Y-124161000D01*
G75*
G02*
X176573000Y-124036000I0J125000D01*
G01*
G37*
G36*
G01*
X176573000Y-124686000D02*
X176573000Y-124436000D01*
G75*
G02*
X176698000Y-124311000I125000J0D01*
G01*
X178023000Y-124311000D01*
G75*
G02*
X178148000Y-124436000I0J-125000D01*
G01*
X178148000Y-124686000D01*
G75*
G02*
X178023000Y-124811000I-125000J0D01*
G01*
X176698000Y-124811000D01*
G75*
G02*
X176573000Y-124686000I0J125000D01*
G01*
G37*
G36*
G01*
X176573000Y-125336000D02*
X176573000Y-125086000D01*
G75*
G02*
X176698000Y-124961000I125000J0D01*
G01*
X178023000Y-124961000D01*
G75*
G02*
X178148000Y-125086000I0J-125000D01*
G01*
X178148000Y-125336000D01*
G75*
G02*
X178023000Y-125461000I-125000J0D01*
G01*
X176698000Y-125461000D01*
G75*
G02*
X176573000Y-125336000I0J125000D01*
G01*
G37*
G36*
G01*
X176573000Y-125986000D02*
X176573000Y-125736000D01*
G75*
G02*
X176698000Y-125611000I125000J0D01*
G01*
X178023000Y-125611000D01*
G75*
G02*
X178148000Y-125736000I0J-125000D01*
G01*
X178148000Y-125986000D01*
G75*
G02*
X178023000Y-126111000I-125000J0D01*
G01*
X176698000Y-126111000D01*
G75*
G02*
X176573000Y-125986000I0J125000D01*
G01*
G37*
G36*
G01*
X170848000Y-125986000D02*
X170848000Y-125736000D01*
G75*
G02*
X170973000Y-125611000I125000J0D01*
G01*
X172298000Y-125611000D01*
G75*
G02*
X172423000Y-125736000I0J-125000D01*
G01*
X172423000Y-125986000D01*
G75*
G02*
X172298000Y-126111000I-125000J0D01*
G01*
X170973000Y-126111000D01*
G75*
G02*
X170848000Y-125986000I0J125000D01*
G01*
G37*
G36*
G01*
X170848000Y-125336000D02*
X170848000Y-125086000D01*
G75*
G02*
X170973000Y-124961000I125000J0D01*
G01*
X172298000Y-124961000D01*
G75*
G02*
X172423000Y-125086000I0J-125000D01*
G01*
X172423000Y-125336000D01*
G75*
G02*
X172298000Y-125461000I-125000J0D01*
G01*
X170973000Y-125461000D01*
G75*
G02*
X170848000Y-125336000I0J125000D01*
G01*
G37*
G36*
G01*
X170848000Y-124686000D02*
X170848000Y-124436000D01*
G75*
G02*
X170973000Y-124311000I125000J0D01*
G01*
X172298000Y-124311000D01*
G75*
G02*
X172423000Y-124436000I0J-125000D01*
G01*
X172423000Y-124686000D01*
G75*
G02*
X172298000Y-124811000I-125000J0D01*
G01*
X170973000Y-124811000D01*
G75*
G02*
X170848000Y-124686000I0J125000D01*
G01*
G37*
G36*
G01*
X170848000Y-124036000D02*
X170848000Y-123786000D01*
G75*
G02*
X170973000Y-123661000I125000J0D01*
G01*
X172298000Y-123661000D01*
G75*
G02*
X172423000Y-123786000I0J-125000D01*
G01*
X172423000Y-124036000D01*
G75*
G02*
X172298000Y-124161000I-125000J0D01*
G01*
X170973000Y-124161000D01*
G75*
G02*
X170848000Y-124036000I0J125000D01*
G01*
G37*
G36*
G01*
X170848000Y-123386000D02*
X170848000Y-123136000D01*
G75*
G02*
X170973000Y-123011000I125000J0D01*
G01*
X172298000Y-123011000D01*
G75*
G02*
X172423000Y-123136000I0J-125000D01*
G01*
X172423000Y-123386000D01*
G75*
G02*
X172298000Y-123511000I-125000J0D01*
G01*
X170973000Y-123511000D01*
G75*
G02*
X170848000Y-123386000I0J125000D01*
G01*
G37*
G36*
G01*
X170848000Y-122736000D02*
X170848000Y-122486000D01*
G75*
G02*
X170973000Y-122361000I125000J0D01*
G01*
X172298000Y-122361000D01*
G75*
G02*
X172423000Y-122486000I0J-125000D01*
G01*
X172423000Y-122736000D01*
G75*
G02*
X172298000Y-122861000I-125000J0D01*
G01*
X170973000Y-122861000D01*
G75*
G02*
X170848000Y-122736000I0J125000D01*
G01*
G37*
G36*
G01*
X170848000Y-122086000D02*
X170848000Y-121836000D01*
G75*
G02*
X170973000Y-121711000I125000J0D01*
G01*
X172298000Y-121711000D01*
G75*
G02*
X172423000Y-121836000I0J-125000D01*
G01*
X172423000Y-122086000D01*
G75*
G02*
X172298000Y-122211000I-125000J0D01*
G01*
X170973000Y-122211000D01*
G75*
G02*
X170848000Y-122086000I0J125000D01*
G01*
G37*
G36*
G01*
X170848000Y-121436000D02*
X170848000Y-121186000D01*
G75*
G02*
X170973000Y-121061000I125000J0D01*
G01*
X172298000Y-121061000D01*
G75*
G02*
X172423000Y-121186000I0J-125000D01*
G01*
X172423000Y-121436000D01*
G75*
G02*
X172298000Y-121561000I-125000J0D01*
G01*
X170973000Y-121561000D01*
G75*
G02*
X170848000Y-121436000I0J125000D01*
G01*
G37*
G36*
G01*
X170848000Y-120786000D02*
X170848000Y-120536000D01*
G75*
G02*
X170973000Y-120411000I125000J0D01*
G01*
X172298000Y-120411000D01*
G75*
G02*
X172423000Y-120536000I0J-125000D01*
G01*
X172423000Y-120786000D01*
G75*
G02*
X172298000Y-120911000I-125000J0D01*
G01*
X170973000Y-120911000D01*
G75*
G02*
X170848000Y-120786000I0J125000D01*
G01*
G37*
G36*
G01*
X170848000Y-120136000D02*
X170848000Y-119886000D01*
G75*
G02*
X170973000Y-119761000I125000J0D01*
G01*
X172298000Y-119761000D01*
G75*
G02*
X172423000Y-119886000I0J-125000D01*
G01*
X172423000Y-120136000D01*
G75*
G02*
X172298000Y-120261000I-125000J0D01*
G01*
X170973000Y-120261000D01*
G75*
G02*
X170848000Y-120136000I0J125000D01*
G01*
G37*
%TD*%
%TO.C,U4*%
G36*
G01*
X170848000Y-127375000D02*
X170848000Y-127125000D01*
G75*
G02*
X170973000Y-127000000I125000J0D01*
G01*
X172298000Y-127000000D01*
G75*
G02*
X172423000Y-127125000I0J-125000D01*
G01*
X172423000Y-127375000D01*
G75*
G02*
X172298000Y-127500000I-125000J0D01*
G01*
X170973000Y-127500000D01*
G75*
G02*
X170848000Y-127375000I0J125000D01*
G01*
G37*
G36*
G01*
X170848000Y-128025000D02*
X170848000Y-127775000D01*
G75*
G02*
X170973000Y-127650000I125000J0D01*
G01*
X172298000Y-127650000D01*
G75*
G02*
X172423000Y-127775000I0J-125000D01*
G01*
X172423000Y-128025000D01*
G75*
G02*
X172298000Y-128150000I-125000J0D01*
G01*
X170973000Y-128150000D01*
G75*
G02*
X170848000Y-128025000I0J125000D01*
G01*
G37*
G36*
G01*
X170848000Y-128675000D02*
X170848000Y-128425000D01*
G75*
G02*
X170973000Y-128300000I125000J0D01*
G01*
X172298000Y-128300000D01*
G75*
G02*
X172423000Y-128425000I0J-125000D01*
G01*
X172423000Y-128675000D01*
G75*
G02*
X172298000Y-128800000I-125000J0D01*
G01*
X170973000Y-128800000D01*
G75*
G02*
X170848000Y-128675000I0J125000D01*
G01*
G37*
G36*
G01*
X170848000Y-129325000D02*
X170848000Y-129075000D01*
G75*
G02*
X170973000Y-128950000I125000J0D01*
G01*
X172298000Y-128950000D01*
G75*
G02*
X172423000Y-129075000I0J-125000D01*
G01*
X172423000Y-129325000D01*
G75*
G02*
X172298000Y-129450000I-125000J0D01*
G01*
X170973000Y-129450000D01*
G75*
G02*
X170848000Y-129325000I0J125000D01*
G01*
G37*
G36*
G01*
X170848000Y-129975000D02*
X170848000Y-129725000D01*
G75*
G02*
X170973000Y-129600000I125000J0D01*
G01*
X172298000Y-129600000D01*
G75*
G02*
X172423000Y-129725000I0J-125000D01*
G01*
X172423000Y-129975000D01*
G75*
G02*
X172298000Y-130100000I-125000J0D01*
G01*
X170973000Y-130100000D01*
G75*
G02*
X170848000Y-129975000I0J125000D01*
G01*
G37*
G36*
G01*
X170848000Y-130625000D02*
X170848000Y-130375000D01*
G75*
G02*
X170973000Y-130250000I125000J0D01*
G01*
X172298000Y-130250000D01*
G75*
G02*
X172423000Y-130375000I0J-125000D01*
G01*
X172423000Y-130625000D01*
G75*
G02*
X172298000Y-130750000I-125000J0D01*
G01*
X170973000Y-130750000D01*
G75*
G02*
X170848000Y-130625000I0J125000D01*
G01*
G37*
G36*
G01*
X170848000Y-131275000D02*
X170848000Y-131025000D01*
G75*
G02*
X170973000Y-130900000I125000J0D01*
G01*
X172298000Y-130900000D01*
G75*
G02*
X172423000Y-131025000I0J-125000D01*
G01*
X172423000Y-131275000D01*
G75*
G02*
X172298000Y-131400000I-125000J0D01*
G01*
X170973000Y-131400000D01*
G75*
G02*
X170848000Y-131275000I0J125000D01*
G01*
G37*
G36*
G01*
X170848000Y-131925000D02*
X170848000Y-131675000D01*
G75*
G02*
X170973000Y-131550000I125000J0D01*
G01*
X172298000Y-131550000D01*
G75*
G02*
X172423000Y-131675000I0J-125000D01*
G01*
X172423000Y-131925000D01*
G75*
G02*
X172298000Y-132050000I-125000J0D01*
G01*
X170973000Y-132050000D01*
G75*
G02*
X170848000Y-131925000I0J125000D01*
G01*
G37*
G36*
G01*
X170848000Y-132575000D02*
X170848000Y-132325000D01*
G75*
G02*
X170973000Y-132200000I125000J0D01*
G01*
X172298000Y-132200000D01*
G75*
G02*
X172423000Y-132325000I0J-125000D01*
G01*
X172423000Y-132575000D01*
G75*
G02*
X172298000Y-132700000I-125000J0D01*
G01*
X170973000Y-132700000D01*
G75*
G02*
X170848000Y-132575000I0J125000D01*
G01*
G37*
G36*
G01*
X170848000Y-133225000D02*
X170848000Y-132975000D01*
G75*
G02*
X170973000Y-132850000I125000J0D01*
G01*
X172298000Y-132850000D01*
G75*
G02*
X172423000Y-132975000I0J-125000D01*
G01*
X172423000Y-133225000D01*
G75*
G02*
X172298000Y-133350000I-125000J0D01*
G01*
X170973000Y-133350000D01*
G75*
G02*
X170848000Y-133225000I0J125000D01*
G01*
G37*
G36*
G01*
X176573000Y-133225000D02*
X176573000Y-132975000D01*
G75*
G02*
X176698000Y-132850000I125000J0D01*
G01*
X178023000Y-132850000D01*
G75*
G02*
X178148000Y-132975000I0J-125000D01*
G01*
X178148000Y-133225000D01*
G75*
G02*
X178023000Y-133350000I-125000J0D01*
G01*
X176698000Y-133350000D01*
G75*
G02*
X176573000Y-133225000I0J125000D01*
G01*
G37*
G36*
G01*
X176573000Y-132575000D02*
X176573000Y-132325000D01*
G75*
G02*
X176698000Y-132200000I125000J0D01*
G01*
X178023000Y-132200000D01*
G75*
G02*
X178148000Y-132325000I0J-125000D01*
G01*
X178148000Y-132575000D01*
G75*
G02*
X178023000Y-132700000I-125000J0D01*
G01*
X176698000Y-132700000D01*
G75*
G02*
X176573000Y-132575000I0J125000D01*
G01*
G37*
G36*
G01*
X176573000Y-131925000D02*
X176573000Y-131675000D01*
G75*
G02*
X176698000Y-131550000I125000J0D01*
G01*
X178023000Y-131550000D01*
G75*
G02*
X178148000Y-131675000I0J-125000D01*
G01*
X178148000Y-131925000D01*
G75*
G02*
X178023000Y-132050000I-125000J0D01*
G01*
X176698000Y-132050000D01*
G75*
G02*
X176573000Y-131925000I0J125000D01*
G01*
G37*
G36*
G01*
X176573000Y-131275000D02*
X176573000Y-131025000D01*
G75*
G02*
X176698000Y-130900000I125000J0D01*
G01*
X178023000Y-130900000D01*
G75*
G02*
X178148000Y-131025000I0J-125000D01*
G01*
X178148000Y-131275000D01*
G75*
G02*
X178023000Y-131400000I-125000J0D01*
G01*
X176698000Y-131400000D01*
G75*
G02*
X176573000Y-131275000I0J125000D01*
G01*
G37*
G36*
G01*
X176573000Y-130625000D02*
X176573000Y-130375000D01*
G75*
G02*
X176698000Y-130250000I125000J0D01*
G01*
X178023000Y-130250000D01*
G75*
G02*
X178148000Y-130375000I0J-125000D01*
G01*
X178148000Y-130625000D01*
G75*
G02*
X178023000Y-130750000I-125000J0D01*
G01*
X176698000Y-130750000D01*
G75*
G02*
X176573000Y-130625000I0J125000D01*
G01*
G37*
G36*
G01*
X176573000Y-129975000D02*
X176573000Y-129725000D01*
G75*
G02*
X176698000Y-129600000I125000J0D01*
G01*
X178023000Y-129600000D01*
G75*
G02*
X178148000Y-129725000I0J-125000D01*
G01*
X178148000Y-129975000D01*
G75*
G02*
X178023000Y-130100000I-125000J0D01*
G01*
X176698000Y-130100000D01*
G75*
G02*
X176573000Y-129975000I0J125000D01*
G01*
G37*
G36*
G01*
X176573000Y-129325000D02*
X176573000Y-129075000D01*
G75*
G02*
X176698000Y-128950000I125000J0D01*
G01*
X178023000Y-128950000D01*
G75*
G02*
X178148000Y-129075000I0J-125000D01*
G01*
X178148000Y-129325000D01*
G75*
G02*
X178023000Y-129450000I-125000J0D01*
G01*
X176698000Y-129450000D01*
G75*
G02*
X176573000Y-129325000I0J125000D01*
G01*
G37*
G36*
G01*
X176573000Y-128675000D02*
X176573000Y-128425000D01*
G75*
G02*
X176698000Y-128300000I125000J0D01*
G01*
X178023000Y-128300000D01*
G75*
G02*
X178148000Y-128425000I0J-125000D01*
G01*
X178148000Y-128675000D01*
G75*
G02*
X178023000Y-128800000I-125000J0D01*
G01*
X176698000Y-128800000D01*
G75*
G02*
X176573000Y-128675000I0J125000D01*
G01*
G37*
G36*
G01*
X176573000Y-128025000D02*
X176573000Y-127775000D01*
G75*
G02*
X176698000Y-127650000I125000J0D01*
G01*
X178023000Y-127650000D01*
G75*
G02*
X178148000Y-127775000I0J-125000D01*
G01*
X178148000Y-128025000D01*
G75*
G02*
X178023000Y-128150000I-125000J0D01*
G01*
X176698000Y-128150000D01*
G75*
G02*
X176573000Y-128025000I0J125000D01*
G01*
G37*
G36*
G01*
X176573000Y-127375000D02*
X176573000Y-127125000D01*
G75*
G02*
X176698000Y-127000000I125000J0D01*
G01*
X178023000Y-127000000D01*
G75*
G02*
X178148000Y-127125000I0J-125000D01*
G01*
X178148000Y-127375000D01*
G75*
G02*
X178023000Y-127500000I-125000J0D01*
G01*
X176698000Y-127500000D01*
G75*
G02*
X176573000Y-127375000I0J125000D01*
G01*
G37*
%TD*%
D21*
%TO.C,Y1*%
X157607000Y-112014000D03*
X160907000Y-112014000D03*
X160907000Y-110014000D03*
X157607000Y-110014000D03*
%TD*%
M02*
