%TF.GenerationSoftware,KiCad,Pcbnew,5.1.6-c6e7f7d~87~ubuntu20.04.1*%
%TF.CreationDate,2020-11-01T20:39:10-05:00*%
%TF.ProjectId,STM32 Driver v1,53544d33-3220-4447-9269-766572207631,rev?*%
%TF.SameCoordinates,Original*%
%TF.FileFunction,Legend,Bot*%
%TF.FilePolarity,Positive*%
%FSLAX46Y46*%
G04 Gerber Fmt 4.6, Leading zero omitted, Abs format (unit mm)*
G04 Created by KiCad (PCBNEW 5.1.6-c6e7f7d~87~ubuntu20.04.1) date 2020-11-01 20:39:10*
%MOMM*%
%LPD*%
G01*
G04 APERTURE LIST*
%ADD10C,0.150000*%
G04 APERTURE END LIST*
D10*
X198246047Y-117816761D02*
X198103190Y-117864380D01*
X197865095Y-117864380D01*
X197769857Y-117816761D01*
X197722238Y-117769142D01*
X197674619Y-117673904D01*
X197674619Y-117578666D01*
X197722238Y-117483428D01*
X197769857Y-117435809D01*
X197865095Y-117388190D01*
X198055571Y-117340571D01*
X198150809Y-117292952D01*
X198198428Y-117245333D01*
X198246047Y-117150095D01*
X198246047Y-117054857D01*
X198198428Y-116959619D01*
X198150809Y-116912000D01*
X198055571Y-116864380D01*
X197817476Y-116864380D01*
X197674619Y-116912000D01*
X197388904Y-116864380D02*
X196817476Y-116864380D01*
X197103190Y-117864380D02*
X197103190Y-116864380D01*
X196484142Y-117864380D02*
X196484142Y-116864380D01*
X196150809Y-117578666D01*
X195817476Y-116864380D01*
X195817476Y-117864380D01*
X195436523Y-116864380D02*
X194817476Y-116864380D01*
X195150809Y-117245333D01*
X195007952Y-117245333D01*
X194912714Y-117292952D01*
X194865095Y-117340571D01*
X194817476Y-117435809D01*
X194817476Y-117673904D01*
X194865095Y-117769142D01*
X194912714Y-117816761D01*
X195007952Y-117864380D01*
X195293666Y-117864380D01*
X195388904Y-117816761D01*
X195436523Y-117769142D01*
X194436523Y-116959619D02*
X194388904Y-116912000D01*
X194293666Y-116864380D01*
X194055571Y-116864380D01*
X193960333Y-116912000D01*
X193912714Y-116959619D01*
X193865095Y-117054857D01*
X193865095Y-117150095D01*
X193912714Y-117292952D01*
X194484142Y-117864380D01*
X193865095Y-117864380D01*
X192674619Y-117864380D02*
X192674619Y-116864380D01*
X192674619Y-117340571D02*
X192103190Y-117340571D01*
X192103190Y-117864380D02*
X192103190Y-116864380D01*
X191627000Y-116864380D02*
X191627000Y-117673904D01*
X191579380Y-117769142D01*
X191531761Y-117816761D01*
X191436523Y-117864380D01*
X191246047Y-117864380D01*
X191150809Y-117816761D01*
X191103190Y-117769142D01*
X191055571Y-117673904D01*
X191055571Y-116864380D01*
X190246047Y-117340571D02*
X190103190Y-117388190D01*
X190055571Y-117435809D01*
X190007952Y-117531047D01*
X190007952Y-117673904D01*
X190055571Y-117769142D01*
X190103190Y-117816761D01*
X190198428Y-117864380D01*
X190579380Y-117864380D01*
X190579380Y-116864380D01*
X190246047Y-116864380D01*
X190150809Y-116912000D01*
X190103190Y-116959619D01*
X190055571Y-117054857D01*
X190055571Y-117150095D01*
X190103190Y-117245333D01*
X190150809Y-117292952D01*
X190246047Y-117340571D01*
X190579380Y-117340571D01*
X189674619Y-116864380D02*
X189007952Y-116864380D01*
X189436523Y-117864380D01*
X188150809Y-116864380D02*
X188627000Y-116864380D01*
X188674619Y-117340571D01*
X188627000Y-117292952D01*
X188531761Y-117245333D01*
X188293666Y-117245333D01*
X188198428Y-117292952D01*
X188150809Y-117340571D01*
X188103190Y-117435809D01*
X188103190Y-117673904D01*
X188150809Y-117769142D01*
X188198428Y-117816761D01*
X188293666Y-117864380D01*
X188531761Y-117864380D01*
X188627000Y-117816761D01*
X188674619Y-117769142D01*
X186912714Y-117864380D02*
X186912714Y-116864380D01*
X186674619Y-116864380D01*
X186531761Y-116912000D01*
X186436523Y-117007238D01*
X186388904Y-117102476D01*
X186341285Y-117292952D01*
X186341285Y-117435809D01*
X186388904Y-117626285D01*
X186436523Y-117721523D01*
X186531761Y-117816761D01*
X186674619Y-117864380D01*
X186912714Y-117864380D01*
X185912714Y-117864380D02*
X185912714Y-117197714D01*
X185912714Y-117388190D02*
X185865095Y-117292952D01*
X185817476Y-117245333D01*
X185722238Y-117197714D01*
X185627000Y-117197714D01*
X185293666Y-117864380D02*
X185293666Y-117197714D01*
X185293666Y-116864380D02*
X185341285Y-116912000D01*
X185293666Y-116959619D01*
X185246047Y-116912000D01*
X185293666Y-116864380D01*
X185293666Y-116959619D01*
X184912714Y-117197714D02*
X184674619Y-117864380D01*
X184436523Y-117197714D01*
X183674619Y-117816761D02*
X183769857Y-117864380D01*
X183960333Y-117864380D01*
X184055571Y-117816761D01*
X184103190Y-117721523D01*
X184103190Y-117340571D01*
X184055571Y-117245333D01*
X183960333Y-117197714D01*
X183769857Y-117197714D01*
X183674619Y-117245333D01*
X183627000Y-117340571D01*
X183627000Y-117435809D01*
X184103190Y-117531047D01*
X183198428Y-117864380D02*
X183198428Y-117197714D01*
X183198428Y-117388190D02*
X183150809Y-117292952D01*
X183103190Y-117245333D01*
X183007952Y-117197714D01*
X182912714Y-117197714D01*
X200031761Y-119514380D02*
X200031761Y-118514380D01*
X199650809Y-118514380D01*
X199555571Y-118562000D01*
X199507952Y-118609619D01*
X199460333Y-118704857D01*
X199460333Y-118847714D01*
X199507952Y-118942952D01*
X199555571Y-118990571D01*
X199650809Y-119038190D01*
X200031761Y-119038190D01*
X199031761Y-119514380D02*
X199031761Y-118847714D01*
X199031761Y-119038190D02*
X198984142Y-118942952D01*
X198936523Y-118895333D01*
X198841285Y-118847714D01*
X198746047Y-118847714D01*
X198269857Y-119514380D02*
X198365095Y-119466761D01*
X198412714Y-119419142D01*
X198460333Y-119323904D01*
X198460333Y-119038190D01*
X198412714Y-118942952D01*
X198365095Y-118895333D01*
X198269857Y-118847714D01*
X198127000Y-118847714D01*
X198031761Y-118895333D01*
X197984142Y-118942952D01*
X197936523Y-119038190D01*
X197936523Y-119323904D01*
X197984142Y-119419142D01*
X198031761Y-119466761D01*
X198127000Y-119514380D01*
X198269857Y-119514380D01*
X197650809Y-118847714D02*
X197269857Y-118847714D01*
X197507952Y-118514380D02*
X197507952Y-119371523D01*
X197460333Y-119466761D01*
X197365095Y-119514380D01*
X197269857Y-119514380D01*
X196793666Y-119514380D02*
X196888904Y-119466761D01*
X196936523Y-119419142D01*
X196984142Y-119323904D01*
X196984142Y-119038190D01*
X196936523Y-118942952D01*
X196888904Y-118895333D01*
X196793666Y-118847714D01*
X196650809Y-118847714D01*
X196555571Y-118895333D01*
X196507952Y-118942952D01*
X196460333Y-119038190D01*
X196460333Y-119323904D01*
X196507952Y-119419142D01*
X196555571Y-119466761D01*
X196650809Y-119514380D01*
X196793666Y-119514380D01*
X196174619Y-118847714D02*
X195793666Y-118847714D01*
X196031761Y-118514380D02*
X196031761Y-119371523D01*
X195984142Y-119466761D01*
X195888904Y-119514380D01*
X195793666Y-119514380D01*
X195555571Y-118847714D02*
X195317476Y-119514380D01*
X195079380Y-118847714D02*
X195317476Y-119514380D01*
X195412714Y-119752476D01*
X195460333Y-119800095D01*
X195555571Y-119847714D01*
X194698428Y-118847714D02*
X194698428Y-119847714D01*
X194698428Y-118895333D02*
X194603190Y-118847714D01*
X194412714Y-118847714D01*
X194317476Y-118895333D01*
X194269857Y-118942952D01*
X194222238Y-119038190D01*
X194222238Y-119323904D01*
X194269857Y-119419142D01*
X194317476Y-119466761D01*
X194412714Y-119514380D01*
X194603190Y-119514380D01*
X194698428Y-119466761D01*
X193412714Y-119466761D02*
X193507952Y-119514380D01*
X193698428Y-119514380D01*
X193793666Y-119466761D01*
X193841285Y-119371523D01*
X193841285Y-118990571D01*
X193793666Y-118895333D01*
X193698428Y-118847714D01*
X193507952Y-118847714D01*
X193412714Y-118895333D01*
X193365095Y-118990571D01*
X193365095Y-119085809D01*
X193841285Y-119181047D01*
X192269857Y-118847714D02*
X192031761Y-119514380D01*
X191793666Y-118847714D01*
X190888904Y-119514380D02*
X191460333Y-119514380D01*
X191174619Y-119514380D02*
X191174619Y-118514380D01*
X191269857Y-118657238D01*
X191365095Y-118752476D01*
X191460333Y-118800095D01*
X189698428Y-119133428D02*
X188936523Y-119133428D01*
X187746047Y-118609619D02*
X187698428Y-118562000D01*
X187603190Y-118514380D01*
X187365095Y-118514380D01*
X187269857Y-118562000D01*
X187222238Y-118609619D01*
X187174619Y-118704857D01*
X187174619Y-118800095D01*
X187222238Y-118942952D01*
X187793666Y-119514380D01*
X187174619Y-119514380D01*
X186555571Y-118514380D02*
X186460333Y-118514380D01*
X186365095Y-118562000D01*
X186317476Y-118609619D01*
X186269857Y-118704857D01*
X186222238Y-118895333D01*
X186222238Y-119133428D01*
X186269857Y-119323904D01*
X186317476Y-119419142D01*
X186365095Y-119466761D01*
X186460333Y-119514380D01*
X186555571Y-119514380D01*
X186650809Y-119466761D01*
X186698428Y-119419142D01*
X186746047Y-119323904D01*
X186793666Y-119133428D01*
X186793666Y-118895333D01*
X186746047Y-118704857D01*
X186698428Y-118609619D01*
X186650809Y-118562000D01*
X186555571Y-118514380D01*
X185841285Y-118609619D02*
X185793666Y-118562000D01*
X185698428Y-118514380D01*
X185460333Y-118514380D01*
X185365095Y-118562000D01*
X185317476Y-118609619D01*
X185269857Y-118704857D01*
X185269857Y-118800095D01*
X185317476Y-118942952D01*
X185888904Y-119514380D01*
X185269857Y-119514380D01*
X184650809Y-118514380D02*
X184555571Y-118514380D01*
X184460333Y-118562000D01*
X184412714Y-118609619D01*
X184365095Y-118704857D01*
X184317476Y-118895333D01*
X184317476Y-119133428D01*
X184365095Y-119323904D01*
X184412714Y-119419142D01*
X184460333Y-119466761D01*
X184555571Y-119514380D01*
X184650809Y-119514380D01*
X184746047Y-119466761D01*
X184793666Y-119419142D01*
X184841285Y-119323904D01*
X184888904Y-119133428D01*
X184888904Y-118895333D01*
X184841285Y-118704857D01*
X184793666Y-118609619D01*
X184746047Y-118562000D01*
X184650809Y-118514380D01*
X183888904Y-119133428D02*
X183127000Y-119133428D01*
X182127000Y-119514380D02*
X182698428Y-119514380D01*
X182412714Y-119514380D02*
X182412714Y-118514380D01*
X182507952Y-118657238D01*
X182603190Y-118752476D01*
X182698428Y-118800095D01*
X181507952Y-118514380D02*
X181412714Y-118514380D01*
X181317476Y-118562000D01*
X181269857Y-118609619D01*
X181222238Y-118704857D01*
X181174619Y-118895333D01*
X181174619Y-119133428D01*
X181222238Y-119323904D01*
X181269857Y-119419142D01*
X181317476Y-119466761D01*
X181412714Y-119514380D01*
X181507952Y-119514380D01*
X181603190Y-119466761D01*
X181650809Y-119419142D01*
X181698428Y-119323904D01*
X181746047Y-119133428D01*
X181746047Y-118895333D01*
X181698428Y-118704857D01*
X181650809Y-118609619D01*
X181603190Y-118562000D01*
X181507952Y-118514380D01*
M02*
