M48
; DRILL file {KiCad 5.1.6-c6e7f7d~87~ubuntu20.04.1} date Sun Nov  1 20:39:13 2020
; FORMAT={-:-/ absolute / inch / decimal}
; #@! TF.CreationDate,2020-11-01T20:39:13-05:00
; #@! TF.GenerationSoftware,Kicad,Pcbnew,5.1.6-c6e7f7d~87~ubuntu20.04.1
; #@! TF.FileFunction,Plated,1,4,PTH
FMAT,2
INCH
T1C0.0157
T2C0.0394
T3C0.0512
%
G90
G05
T1
X5.62Y-5.05
X5.64Y-4.26
X5.685Y-5.065
X5.73Y-5.07
X5.815Y-5.075
X5.86Y-4.1
X5.86Y-4.64
X5.86Y-4.7
X5.865Y-5.22
X5.895Y-5.07
X5.9Y-4.37
X5.935Y-5.045
X5.99Y-4.47
X6.005Y-4.23
X6.005Y-5.09
X6.0221Y-4.4209
X6.025Y-5.19
X6.035Y-4.055
X6.035Y-4.27
X6.035Y-4.71
X6.038Y-4.198
X6.08Y-4.335
X6.0959Y-4.9901
X6.1169Y-4.6829
X6.12Y-5.115
X6.135Y-4.995
X6.145Y-4.13
X6.145Y-4.235
X6.1765Y-4.546
X6.1785Y-5.0035
X6.2Y-4.7151
X6.2Y-5.19
X6.22Y-4.055
X6.255Y-4.74
X6.2802Y-4.7702
X6.29Y-5.205
X6.3533Y-5.2924
X6.355Y-4.9
X6.3565Y-4.8183
X6.3584Y-4.8576
X6.36Y-4.7154
X6.365Y-4.055
X6.385Y-4.55
X6.39Y-4.49
X6.415Y-5.2529
X6.42Y-5.115
X6.4561Y-4.644
X6.46Y-5.155
X6.465Y-4.42
X6.47Y-4.9904
X6.495Y-5.085
X6.5Y-4.65
X6.5073Y-4.9624
X6.5373Y-4.6375
X6.64Y-4.8024
X6.6493Y-4.6269
X6.6505Y-4.5698
X6.6727Y-4.6586
X6.6802Y-4.7702
X6.69Y-4.5954
X6.6975Y-5.1909
X6.7059Y-4.7404
X6.755Y-5.275
X6.8Y-4.67
X6.81Y-4.96
X6.9174Y-4.4693
X6.93Y-4.76
X6.93Y-5.04
X7.026Y-4.9925
X7.035Y-5.2126
X7.04Y-4.405
X7.0466Y-4.6977
X7.075Y-5.245
X7.165Y-4.725
X7.17Y-5.0
X7.185Y-4.43
T2
X5.955Y-5.255
X6.055Y-5.255
X6.155Y-5.255
X7.32Y-5.095
X7.32Y-5.195
X7.42Y-5.095
X7.42Y-5.195
X7.52Y-5.095
X7.52Y-5.195
X7.62Y-5.095
X7.62Y-5.195
X7.72Y-5.095
X7.72Y-5.195
X7.82Y-5.095
X7.82Y-5.195
X7.92Y-5.095
X7.92Y-5.195
X8.02Y-5.095
X8.02Y-5.195
X5.665Y-4.465
X5.665Y-4.565
X5.665Y-4.665
X5.665Y-4.765
X5.665Y-4.865
X7.25Y-4.2
X7.25Y-4.3
X7.35Y-4.2
X7.35Y-4.3
X7.45Y-4.2
X7.45Y-4.3
X7.55Y-4.2
X7.55Y-4.3
X7.65Y-4.2
X7.65Y-4.3
X7.75Y-4.2
X7.75Y-4.3
X7.85Y-4.2
X7.85Y-4.3
X7.95Y-4.2
X7.95Y-4.3
X8.05Y-4.2
X8.05Y-4.3
T3
X6.74Y-4.18
X6.94Y-4.18
T0
M30
