%TF.GenerationSoftware,KiCad,Pcbnew,5.1.6-c6e7f7d~87~ubuntu20.04.1*%
%TF.CreationDate,2020-11-01T20:39:10-05:00*%
%TF.ProjectId,STM32 Driver v1,53544d33-3220-4447-9269-766572207631,rev?*%
%TF.SameCoordinates,Original*%
%TF.FileFunction,Legend,Top*%
%TF.FilePolarity,Positive*%
%FSLAX46Y46*%
G04 Gerber Fmt 4.6, Leading zero omitted, Abs format (unit mm)*
G04 Created by KiCad (PCBNEW 5.1.6-c6e7f7d~87~ubuntu20.04.1) date 2020-11-01 20:39:10*
%MOMM*%
%LPD*%
G01*
G04 APERTURE LIST*
%ADD10C,0.150000*%
%ADD11C,0.120000*%
%ADD12C,0.010000*%
G04 APERTURE END LIST*
D10*
X156043333Y-132024380D02*
X155710000Y-131548190D01*
X155471904Y-132024380D02*
X155471904Y-131024380D01*
X155852857Y-131024380D01*
X155948095Y-131072000D01*
X155995714Y-131119619D01*
X156043333Y-131214857D01*
X156043333Y-131357714D01*
X155995714Y-131452952D01*
X155948095Y-131500571D01*
X155852857Y-131548190D01*
X155471904Y-131548190D01*
X156376666Y-131024380D02*
X157043333Y-132024380D01*
X157043333Y-131024380D02*
X156376666Y-132024380D01*
X152908095Y-131024380D02*
X153479523Y-131024380D01*
X153193809Y-132024380D02*
X153193809Y-131024380D01*
X153717619Y-131024380D02*
X154384285Y-132024380D01*
X154384285Y-131024380D02*
X153717619Y-132024380D01*
X145423095Y-113736380D02*
X145423095Y-112736380D01*
X145994523Y-113736380D01*
X145994523Y-112736380D01*
X147042142Y-113641142D02*
X146994523Y-113688761D01*
X146851666Y-113736380D01*
X146756428Y-113736380D01*
X146613571Y-113688761D01*
X146518333Y-113593523D01*
X146470714Y-113498285D01*
X146423095Y-113307809D01*
X146423095Y-113164952D01*
X146470714Y-112974476D01*
X146518333Y-112879238D01*
X146613571Y-112784000D01*
X146756428Y-112736380D01*
X146851666Y-112736380D01*
X146994523Y-112784000D01*
X147042142Y-112831619D01*
X147423095Y-113688761D02*
X147565952Y-113736380D01*
X147804047Y-113736380D01*
X147899285Y-113688761D01*
X147946904Y-113641142D01*
X147994523Y-113545904D01*
X147994523Y-113450666D01*
X147946904Y-113355428D01*
X147899285Y-113307809D01*
X147804047Y-113260190D01*
X147613571Y-113212571D01*
X147518333Y-113164952D01*
X147470714Y-113117333D01*
X147423095Y-113022095D01*
X147423095Y-112926857D01*
X147470714Y-112831619D01*
X147518333Y-112784000D01*
X147613571Y-112736380D01*
X147851666Y-112736380D01*
X147994523Y-112784000D01*
X145399285Y-116355761D02*
X145542142Y-116403380D01*
X145780238Y-116403380D01*
X145875476Y-116355761D01*
X145923095Y-116308142D01*
X145970714Y-116212904D01*
X145970714Y-116117666D01*
X145923095Y-116022428D01*
X145875476Y-115974809D01*
X145780238Y-115927190D01*
X145589761Y-115879571D01*
X145494523Y-115831952D01*
X145446904Y-115784333D01*
X145399285Y-115689095D01*
X145399285Y-115593857D01*
X145446904Y-115498619D01*
X145494523Y-115451000D01*
X145589761Y-115403380D01*
X145827857Y-115403380D01*
X145970714Y-115451000D01*
X146970714Y-116308142D02*
X146923095Y-116355761D01*
X146780238Y-116403380D01*
X146685000Y-116403380D01*
X146542142Y-116355761D01*
X146446904Y-116260523D01*
X146399285Y-116165285D01*
X146351666Y-115974809D01*
X146351666Y-115831952D01*
X146399285Y-115641476D01*
X146446904Y-115546238D01*
X146542142Y-115451000D01*
X146685000Y-115403380D01*
X146780238Y-115403380D01*
X146923095Y-115451000D01*
X146970714Y-115498619D01*
X147399285Y-116403380D02*
X147399285Y-115403380D01*
X147970714Y-116403380D02*
X147542142Y-115831952D01*
X147970714Y-115403380D02*
X147399285Y-115974809D01*
X145859619Y-118848142D02*
X145812000Y-118895761D01*
X145669142Y-118943380D01*
X145573904Y-118943380D01*
X145431047Y-118895761D01*
X145335809Y-118800523D01*
X145288190Y-118705285D01*
X145240571Y-118514809D01*
X145240571Y-118371952D01*
X145288190Y-118181476D01*
X145335809Y-118086238D01*
X145431047Y-117991000D01*
X145573904Y-117943380D01*
X145669142Y-117943380D01*
X145812000Y-117991000D01*
X145859619Y-118038619D01*
X146288190Y-118943380D02*
X146288190Y-117943380D01*
X146764380Y-118943380D02*
X146764380Y-117943380D01*
X147145333Y-117943380D01*
X147240571Y-117991000D01*
X147288190Y-118038619D01*
X147335809Y-118133857D01*
X147335809Y-118276714D01*
X147288190Y-118371952D01*
X147240571Y-118419571D01*
X147145333Y-118467190D01*
X146764380Y-118467190D01*
X147954857Y-117943380D02*
X148145333Y-117943380D01*
X148240571Y-117991000D01*
X148335809Y-118086238D01*
X148383428Y-118276714D01*
X148383428Y-118610047D01*
X148335809Y-118800523D01*
X148240571Y-118895761D01*
X148145333Y-118943380D01*
X147954857Y-118943380D01*
X147859619Y-118895761D01*
X147764380Y-118800523D01*
X147716761Y-118610047D01*
X147716761Y-118276714D01*
X147764380Y-118086238D01*
X147859619Y-117991000D01*
X147954857Y-117943380D01*
X145859619Y-121515142D02*
X145812000Y-121562761D01*
X145669142Y-121610380D01*
X145573904Y-121610380D01*
X145431047Y-121562761D01*
X145335809Y-121467523D01*
X145288190Y-121372285D01*
X145240571Y-121181809D01*
X145240571Y-121038952D01*
X145288190Y-120848476D01*
X145335809Y-120753238D01*
X145431047Y-120658000D01*
X145573904Y-120610380D01*
X145669142Y-120610380D01*
X145812000Y-120658000D01*
X145859619Y-120705619D01*
X146478666Y-120610380D02*
X146669142Y-120610380D01*
X146764380Y-120658000D01*
X146859619Y-120753238D01*
X146907238Y-120943714D01*
X146907238Y-121277047D01*
X146859619Y-121467523D01*
X146764380Y-121562761D01*
X146669142Y-121610380D01*
X146478666Y-121610380D01*
X146383428Y-121562761D01*
X146288190Y-121467523D01*
X146240571Y-121277047D01*
X146240571Y-120943714D01*
X146288190Y-120753238D01*
X146383428Y-120658000D01*
X146478666Y-120610380D01*
X147335809Y-121610380D02*
X147335809Y-120610380D01*
X147716761Y-120610380D01*
X147812000Y-120658000D01*
X147859619Y-120705619D01*
X147907238Y-120800857D01*
X147907238Y-120943714D01*
X147859619Y-121038952D01*
X147812000Y-121086571D01*
X147716761Y-121134190D01*
X147335809Y-121134190D01*
X148335809Y-121610380D02*
X148335809Y-120610380D01*
X163957285Y-108275428D02*
X164719190Y-108275428D01*
X164338238Y-108656380D02*
X164338238Y-107894476D01*
X165671571Y-107656380D02*
X165195380Y-107656380D01*
X165147761Y-108132571D01*
X165195380Y-108084952D01*
X165290619Y-108037333D01*
X165528714Y-108037333D01*
X165623952Y-108084952D01*
X165671571Y-108132571D01*
X165719190Y-108227809D01*
X165719190Y-108465904D01*
X165671571Y-108561142D01*
X165623952Y-108608761D01*
X165528714Y-108656380D01*
X165290619Y-108656380D01*
X165195380Y-108608761D01*
X165147761Y-108561142D01*
X166004904Y-107656380D02*
X166338238Y-108656380D01*
X166671571Y-107656380D01*
X167004904Y-108656380D02*
X167004904Y-107656380D01*
X167243000Y-107656380D01*
X167385857Y-107704000D01*
X167481095Y-107799238D01*
X167528714Y-107894476D01*
X167576333Y-108084952D01*
X167576333Y-108227809D01*
X167528714Y-108418285D01*
X167481095Y-108513523D01*
X167385857Y-108608761D01*
X167243000Y-108656380D01*
X167004904Y-108656380D01*
X168576333Y-108561142D02*
X168528714Y-108608761D01*
X168385857Y-108656380D01*
X168290619Y-108656380D01*
X168147761Y-108608761D01*
X168052523Y-108513523D01*
X168004904Y-108418285D01*
X167957285Y-108227809D01*
X167957285Y-108084952D01*
X168004904Y-107894476D01*
X168052523Y-107799238D01*
X168147761Y-107704000D01*
X168290619Y-107656380D01*
X168385857Y-107656380D01*
X168528714Y-107704000D01*
X168576333Y-107751619D01*
X204144619Y-111529952D02*
X204144619Y-111053761D01*
X205144619Y-111053761D01*
X204668428Y-111863285D02*
X204668428Y-112196619D01*
X204144619Y-112339476D02*
X204144619Y-111863285D01*
X205144619Y-111863285D01*
X205144619Y-112339476D01*
X204144619Y-112768047D02*
X205144619Y-112768047D01*
X205144619Y-113006142D01*
X205097000Y-113149000D01*
X205001761Y-113244238D01*
X204906523Y-113291857D01*
X204716047Y-113339476D01*
X204573190Y-113339476D01*
X204382714Y-113291857D01*
X204287476Y-113244238D01*
X204192238Y-113149000D01*
X204144619Y-113006142D01*
X204144619Y-112768047D01*
X204716047Y-113910904D02*
X204763666Y-113815666D01*
X204811285Y-113768047D01*
X204906523Y-113720428D01*
X204954142Y-113720428D01*
X205049380Y-113768047D01*
X205097000Y-113815666D01*
X205144619Y-113910904D01*
X205144619Y-114101380D01*
X205097000Y-114196619D01*
X205049380Y-114244238D01*
X204954142Y-114291857D01*
X204906523Y-114291857D01*
X204811285Y-114244238D01*
X204763666Y-114196619D01*
X204716047Y-114101380D01*
X204716047Y-113910904D01*
X204668428Y-113815666D01*
X204620809Y-113768047D01*
X204525571Y-113720428D01*
X204335095Y-113720428D01*
X204239857Y-113768047D01*
X204192238Y-113815666D01*
X204144619Y-113910904D01*
X204144619Y-114101380D01*
X204192238Y-114196619D01*
X204239857Y-114244238D01*
X204335095Y-114291857D01*
X204525571Y-114291857D01*
X204620809Y-114244238D01*
X204668428Y-114196619D01*
X204716047Y-114101380D01*
X201477619Y-111529952D02*
X201477619Y-111053761D01*
X202477619Y-111053761D01*
X202001428Y-111863285D02*
X202001428Y-112196619D01*
X201477619Y-112339476D02*
X201477619Y-111863285D01*
X202477619Y-111863285D01*
X202477619Y-112339476D01*
X201477619Y-112768047D02*
X202477619Y-112768047D01*
X202477619Y-113006142D01*
X202430000Y-113149000D01*
X202334761Y-113244238D01*
X202239523Y-113291857D01*
X202049047Y-113339476D01*
X201906190Y-113339476D01*
X201715714Y-113291857D01*
X201620476Y-113244238D01*
X201525238Y-113149000D01*
X201477619Y-113006142D01*
X201477619Y-112768047D01*
X202477619Y-113672809D02*
X202477619Y-114339476D01*
X201477619Y-113910904D01*
X198937619Y-111529952D02*
X198937619Y-111053761D01*
X199937619Y-111053761D01*
X199461428Y-111863285D02*
X199461428Y-112196619D01*
X198937619Y-112339476D02*
X198937619Y-111863285D01*
X199937619Y-111863285D01*
X199937619Y-112339476D01*
X198937619Y-112768047D02*
X199937619Y-112768047D01*
X199937619Y-113006142D01*
X199890000Y-113149000D01*
X199794761Y-113244238D01*
X199699523Y-113291857D01*
X199509047Y-113339476D01*
X199366190Y-113339476D01*
X199175714Y-113291857D01*
X199080476Y-113244238D01*
X198985238Y-113149000D01*
X198937619Y-113006142D01*
X198937619Y-112768047D01*
X199937619Y-114196619D02*
X199937619Y-114006142D01*
X199890000Y-113910904D01*
X199842380Y-113863285D01*
X199699523Y-113768047D01*
X199509047Y-113720428D01*
X199128095Y-113720428D01*
X199032857Y-113768047D01*
X198985238Y-113815666D01*
X198937619Y-113910904D01*
X198937619Y-114101380D01*
X198985238Y-114196619D01*
X199032857Y-114244238D01*
X199128095Y-114291857D01*
X199366190Y-114291857D01*
X199461428Y-114244238D01*
X199509047Y-114196619D01*
X199556666Y-114101380D01*
X199556666Y-113910904D01*
X199509047Y-113815666D01*
X199461428Y-113768047D01*
X199366190Y-113720428D01*
X196397619Y-111529952D02*
X196397619Y-111053761D01*
X197397619Y-111053761D01*
X196921428Y-111863285D02*
X196921428Y-112196619D01*
X196397619Y-112339476D02*
X196397619Y-111863285D01*
X197397619Y-111863285D01*
X197397619Y-112339476D01*
X196397619Y-112768047D02*
X197397619Y-112768047D01*
X197397619Y-113006142D01*
X197350000Y-113149000D01*
X197254761Y-113244238D01*
X197159523Y-113291857D01*
X196969047Y-113339476D01*
X196826190Y-113339476D01*
X196635714Y-113291857D01*
X196540476Y-113244238D01*
X196445238Y-113149000D01*
X196397619Y-113006142D01*
X196397619Y-112768047D01*
X197397619Y-114244238D02*
X197397619Y-113768047D01*
X196921428Y-113720428D01*
X196969047Y-113768047D01*
X197016666Y-113863285D01*
X197016666Y-114101380D01*
X196969047Y-114196619D01*
X196921428Y-114244238D01*
X196826190Y-114291857D01*
X196588095Y-114291857D01*
X196492857Y-114244238D01*
X196445238Y-114196619D01*
X196397619Y-114101380D01*
X196397619Y-113863285D01*
X196445238Y-113768047D01*
X196492857Y-113720428D01*
X193857619Y-111529952D02*
X193857619Y-111053761D01*
X194857619Y-111053761D01*
X194381428Y-111863285D02*
X194381428Y-112196619D01*
X193857619Y-112339476D02*
X193857619Y-111863285D01*
X194857619Y-111863285D01*
X194857619Y-112339476D01*
X193857619Y-112768047D02*
X194857619Y-112768047D01*
X194857619Y-113006142D01*
X194810000Y-113149000D01*
X194714761Y-113244238D01*
X194619523Y-113291857D01*
X194429047Y-113339476D01*
X194286190Y-113339476D01*
X194095714Y-113291857D01*
X194000476Y-113244238D01*
X193905238Y-113149000D01*
X193857619Y-113006142D01*
X193857619Y-112768047D01*
X194524285Y-114196619D02*
X193857619Y-114196619D01*
X194905238Y-113958523D02*
X194190952Y-113720428D01*
X194190952Y-114339476D01*
X191190619Y-111529952D02*
X191190619Y-111053761D01*
X192190619Y-111053761D01*
X191714428Y-111863285D02*
X191714428Y-112196619D01*
X191190619Y-112339476D02*
X191190619Y-111863285D01*
X192190619Y-111863285D01*
X192190619Y-112339476D01*
X191190619Y-112768047D02*
X192190619Y-112768047D01*
X192190619Y-113006142D01*
X192143000Y-113149000D01*
X192047761Y-113244238D01*
X191952523Y-113291857D01*
X191762047Y-113339476D01*
X191619190Y-113339476D01*
X191428714Y-113291857D01*
X191333476Y-113244238D01*
X191238238Y-113149000D01*
X191190619Y-113006142D01*
X191190619Y-112768047D01*
X192190619Y-114244238D02*
X192190619Y-113768047D01*
X191714428Y-113720428D01*
X191762047Y-113768047D01*
X191809666Y-113863285D01*
X191809666Y-114101380D01*
X191762047Y-114196619D01*
X191714428Y-114244238D01*
X191619190Y-114291857D01*
X191381095Y-114291857D01*
X191285857Y-114244238D01*
X191238238Y-114196619D01*
X191190619Y-114101380D01*
X191190619Y-113863285D01*
X191238238Y-113768047D01*
X191285857Y-113720428D01*
X188777619Y-111529952D02*
X188777619Y-111053761D01*
X189777619Y-111053761D01*
X189301428Y-111863285D02*
X189301428Y-112196619D01*
X188777619Y-112339476D02*
X188777619Y-111863285D01*
X189777619Y-111863285D01*
X189777619Y-112339476D01*
X188777619Y-112768047D02*
X189777619Y-112768047D01*
X189777619Y-113006142D01*
X189730000Y-113149000D01*
X189634761Y-113244238D01*
X189539523Y-113291857D01*
X189349047Y-113339476D01*
X189206190Y-113339476D01*
X189015714Y-113291857D01*
X188920476Y-113244238D01*
X188825238Y-113149000D01*
X188777619Y-113006142D01*
X188777619Y-112768047D01*
X189682380Y-113720428D02*
X189730000Y-113768047D01*
X189777619Y-113863285D01*
X189777619Y-114101380D01*
X189730000Y-114196619D01*
X189682380Y-114244238D01*
X189587142Y-114291857D01*
X189491904Y-114291857D01*
X189349047Y-114244238D01*
X188777619Y-113672809D01*
X188777619Y-114291857D01*
X186237619Y-111656952D02*
X186237619Y-111180761D01*
X187237619Y-111180761D01*
X186761428Y-111990285D02*
X186761428Y-112323619D01*
X186237619Y-112466476D02*
X186237619Y-111990285D01*
X187237619Y-111990285D01*
X187237619Y-112466476D01*
X186237619Y-112895047D02*
X187237619Y-112895047D01*
X187237619Y-113133142D01*
X187190000Y-113276000D01*
X187094761Y-113371238D01*
X186999523Y-113418857D01*
X186809047Y-113466476D01*
X186666190Y-113466476D01*
X186475714Y-113418857D01*
X186380476Y-113371238D01*
X186285238Y-113276000D01*
X186237619Y-113133142D01*
X186237619Y-112895047D01*
X186237619Y-114418857D02*
X186237619Y-113847428D01*
X186237619Y-114133142D02*
X187237619Y-114133142D01*
X187094761Y-114037904D01*
X186999523Y-113942666D01*
X186951904Y-113847428D01*
X183570619Y-111656952D02*
X183570619Y-111180761D01*
X184570619Y-111180761D01*
X184094428Y-111990285D02*
X184094428Y-112323619D01*
X183570619Y-112466476D02*
X183570619Y-111990285D01*
X184570619Y-111990285D01*
X184570619Y-112466476D01*
X183570619Y-112895047D02*
X184570619Y-112895047D01*
X184570619Y-113133142D01*
X184523000Y-113276000D01*
X184427761Y-113371238D01*
X184332523Y-113418857D01*
X184142047Y-113466476D01*
X183999190Y-113466476D01*
X183808714Y-113418857D01*
X183713476Y-113371238D01*
X183618238Y-113276000D01*
X183570619Y-113133142D01*
X183570619Y-112895047D01*
X184570619Y-114085523D02*
X184570619Y-114180761D01*
X184523000Y-114276000D01*
X184475380Y-114323619D01*
X184380142Y-114371238D01*
X184189666Y-114418857D01*
X183951571Y-114418857D01*
X183761095Y-114371238D01*
X183665857Y-114323619D01*
X183618238Y-114276000D01*
X183570619Y-114180761D01*
X183570619Y-114085523D01*
X183618238Y-113990285D01*
X183665857Y-113942666D01*
X183761095Y-113895047D01*
X183951571Y-113847428D01*
X184189666Y-113847428D01*
X184380142Y-113895047D01*
X184475380Y-113942666D01*
X184523000Y-113990285D01*
X184570619Y-114085523D01*
X206795761Y-107037142D02*
X206748142Y-107084761D01*
X206605285Y-107132380D01*
X206510047Y-107132380D01*
X206367190Y-107084761D01*
X206271952Y-106989523D01*
X206224333Y-106894285D01*
X206176714Y-106703809D01*
X206176714Y-106560952D01*
X206224333Y-106370476D01*
X206271952Y-106275238D01*
X206367190Y-106180000D01*
X206510047Y-106132380D01*
X206605285Y-106132380D01*
X206748142Y-106180000D01*
X206795761Y-106227619D01*
X207700523Y-107132380D02*
X207224333Y-107132380D01*
X207224333Y-106132380D01*
X208033857Y-107132380D02*
X208033857Y-106132380D01*
X208605285Y-107132380D02*
X208176714Y-106560952D01*
X208605285Y-106132380D02*
X208033857Y-106703809D01*
%TO.C,SW1*%
X145514000Y-103280000D02*
X145514000Y-110080000D01*
X145514000Y-110080000D02*
X142014000Y-110080000D01*
X142014000Y-110080000D02*
X142014000Y-103280000D01*
X142014000Y-103280000D02*
X145464000Y-103280000D01*
D11*
%TO.C,R5*%
X148030000Y-107007922D02*
X148030000Y-107525078D01*
X146610000Y-107007922D02*
X146610000Y-107525078D01*
%TO.C,R4*%
X149150000Y-113464078D02*
X149150000Y-112946922D01*
X150570000Y-113464078D02*
X150570000Y-112946922D01*
D12*
%TO.C,G\u002A\u002A\u002A*%
G36*
X204503461Y-120015214D02*
G01*
X204696391Y-120027741D01*
X205438493Y-120918741D01*
X205631387Y-121149176D01*
X205807786Y-121357687D01*
X205960742Y-121536238D01*
X206083305Y-121676791D01*
X206168527Y-121771310D01*
X206209458Y-121811758D01*
X206211421Y-121812673D01*
X206220372Y-121774408D01*
X206228302Y-121665625D01*
X206234811Y-121498004D01*
X206239499Y-121283226D01*
X206241966Y-121032971D01*
X206242246Y-120911398D01*
X206242246Y-120007191D01*
X206571049Y-120007191D01*
X206571049Y-122308809D01*
X206172205Y-122308809D01*
X205416044Y-121399500D01*
X204659884Y-120490192D01*
X204648822Y-121399500D01*
X204637761Y-122308809D01*
X204310531Y-122308809D01*
X204310531Y-120002688D01*
X204503461Y-120015214D01*
G37*
X204503461Y-120015214D02*
X204696391Y-120027741D01*
X205438493Y-120918741D01*
X205631387Y-121149176D01*
X205807786Y-121357687D01*
X205960742Y-121536238D01*
X206083305Y-121676791D01*
X206168527Y-121771310D01*
X206209458Y-121811758D01*
X206211421Y-121812673D01*
X206220372Y-121774408D01*
X206228302Y-121665625D01*
X206234811Y-121498004D01*
X206239499Y-121283226D01*
X206241966Y-121032971D01*
X206242246Y-120911398D01*
X206242246Y-120007191D01*
X206571049Y-120007191D01*
X206571049Y-122308809D01*
X206172205Y-122308809D01*
X205416044Y-121399500D01*
X204659884Y-120490192D01*
X204648822Y-121399500D01*
X204637761Y-122308809D01*
X204310531Y-122308809D01*
X204310531Y-120002688D01*
X204503461Y-120015214D01*
G36*
X203940628Y-120334358D02*
G01*
X203067246Y-120345451D01*
X202193864Y-120356543D01*
X202193864Y-120973048D01*
X202902845Y-120984294D01*
X203611825Y-120995539D01*
X203611825Y-121320460D01*
X202902845Y-121331705D01*
X202193864Y-121342951D01*
X202193864Y-121959456D01*
X203067246Y-121970548D01*
X203940628Y-121981641D01*
X203940628Y-122308809D01*
X201885612Y-122308809D01*
X201885612Y-120007191D01*
X203940628Y-120007191D01*
X203940628Y-120334358D01*
G37*
X203940628Y-120334358D02*
X203067246Y-120345451D01*
X202193864Y-120356543D01*
X202193864Y-120973048D01*
X202902845Y-120984294D01*
X203611825Y-120995539D01*
X203611825Y-121320460D01*
X202902845Y-121331705D01*
X202193864Y-121342951D01*
X202193864Y-121959456D01*
X203067246Y-121970548D01*
X203940628Y-121981641D01*
X203940628Y-122308809D01*
X201885612Y-122308809D01*
X201885612Y-120007191D01*
X203940628Y-120007191D01*
X203940628Y-120334358D01*
G36*
X201228007Y-121404602D02*
G01*
X201556809Y-121404602D01*
X201556809Y-121733404D01*
X201228007Y-121733404D01*
X201228007Y-122308809D01*
X200899204Y-122308809D01*
X200899204Y-121733404D01*
X199378492Y-121733404D01*
X199378492Y-121380912D01*
X199400997Y-121360536D01*
X199924575Y-121360536D01*
X199945343Y-121390952D01*
X200022673Y-121403585D01*
X200155511Y-121405713D01*
X200342804Y-121404611D01*
X200357382Y-121404602D01*
X200583972Y-121402239D01*
X200739038Y-121394421D01*
X200833146Y-121380050D01*
X200876857Y-121358028D01*
X200881581Y-121350143D01*
X200889632Y-121286656D01*
X200893452Y-121163021D01*
X200892579Y-121001204D01*
X200890566Y-120922860D01*
X200878654Y-120550035D01*
X200428184Y-120915502D01*
X200212172Y-121089820D01*
X200056936Y-121217247D01*
X199961421Y-121305060D01*
X199924575Y-121360536D01*
X199400997Y-121360536D01*
X200137151Y-120694051D01*
X200373024Y-120481102D01*
X200556968Y-120317304D01*
X200697627Y-120196238D01*
X200803643Y-120111486D01*
X200883658Y-120056628D01*
X200946315Y-120025244D01*
X201000256Y-120010916D01*
X201054125Y-120007224D01*
X201061908Y-120007191D01*
X201228007Y-120007191D01*
X201228007Y-121404602D01*
G37*
X201228007Y-121404602D02*
X201556809Y-121404602D01*
X201556809Y-121733404D01*
X201228007Y-121733404D01*
X201228007Y-122308809D01*
X200899204Y-122308809D01*
X200899204Y-121733404D01*
X199378492Y-121733404D01*
X199378492Y-121380912D01*
X199400997Y-121360536D01*
X199924575Y-121360536D01*
X199945343Y-121390952D01*
X200022673Y-121403585D01*
X200155511Y-121405713D01*
X200342804Y-121404611D01*
X200357382Y-121404602D01*
X200583972Y-121402239D01*
X200739038Y-121394421D01*
X200833146Y-121380050D01*
X200876857Y-121358028D01*
X200881581Y-121350143D01*
X200889632Y-121286656D01*
X200893452Y-121163021D01*
X200892579Y-121001204D01*
X200890566Y-120922860D01*
X200878654Y-120550035D01*
X200428184Y-120915502D01*
X200212172Y-121089820D01*
X200056936Y-121217247D01*
X199961421Y-121305060D01*
X199924575Y-121360536D01*
X199400997Y-121360536D01*
X200137151Y-120694051D01*
X200373024Y-120481102D01*
X200556968Y-120317304D01*
X200697627Y-120196238D01*
X200803643Y-120111486D01*
X200883658Y-120056628D01*
X200946315Y-120025244D01*
X201000256Y-120010916D01*
X201054125Y-120007224D01*
X201061908Y-120007191D01*
X201228007Y-120007191D01*
X201228007Y-121404602D01*
G36*
X197877475Y-120015354D02*
G01*
X198842478Y-120027741D01*
X198956359Y-120141748D01*
X199007908Y-120197781D01*
X199041173Y-120254321D01*
X199060363Y-120330517D01*
X199069684Y-120445520D01*
X199073344Y-120618480D01*
X199073900Y-120676670D01*
X199080044Y-120866016D01*
X199093613Y-121030421D01*
X199112393Y-121147883D01*
X199125276Y-121186741D01*
X199150529Y-121279647D01*
X199165957Y-121428431D01*
X199171598Y-121607365D01*
X199167494Y-121790721D01*
X199153682Y-121952769D01*
X199130205Y-122067781D01*
X199123888Y-122083905D01*
X199088187Y-122150537D01*
X199042429Y-122202608D01*
X198976799Y-122241895D01*
X198881481Y-122270174D01*
X198746657Y-122289218D01*
X198562511Y-122300805D01*
X198319228Y-122306708D01*
X198006990Y-122308704D01*
X197880371Y-122308809D01*
X196912473Y-122308809D01*
X196912473Y-121628201D01*
X197241275Y-121628201D01*
X197244937Y-121777580D01*
X197254580Y-121893154D01*
X197268195Y-121951784D01*
X197269554Y-121953484D01*
X197317767Y-121961847D01*
X197434755Y-121968026D01*
X197607110Y-121971731D01*
X197821429Y-121972671D01*
X198060735Y-121970609D01*
X198823638Y-121959456D01*
X198835848Y-121654825D01*
X198837337Y-121474008D01*
X198823387Y-121364140D01*
X198794747Y-121316377D01*
X198737394Y-121305263D01*
X198614696Y-121296193D01*
X198443484Y-121289280D01*
X198240592Y-121284639D01*
X198022851Y-121282384D01*
X197807094Y-121282631D01*
X197610154Y-121285493D01*
X197448863Y-121291085D01*
X197340052Y-121299522D01*
X197306287Y-121306248D01*
X197270792Y-121338454D01*
X197250494Y-121412110D01*
X197242074Y-121543657D01*
X197241275Y-121628201D01*
X196912473Y-121628201D01*
X196912473Y-120954366D01*
X197237636Y-120954366D01*
X197989537Y-120943157D01*
X198741437Y-120931948D01*
X198741437Y-120356543D01*
X197261825Y-120356543D01*
X197249731Y-120655455D01*
X197237636Y-120954366D01*
X196912473Y-120954366D01*
X196912473Y-120002969D01*
X197877475Y-120015354D01*
G37*
X197877475Y-120015354D02*
X198842478Y-120027741D01*
X198956359Y-120141748D01*
X199007908Y-120197781D01*
X199041173Y-120254321D01*
X199060363Y-120330517D01*
X199069684Y-120445520D01*
X199073344Y-120618480D01*
X199073900Y-120676670D01*
X199080044Y-120866016D01*
X199093613Y-121030421D01*
X199112393Y-121147883D01*
X199125276Y-121186741D01*
X199150529Y-121279647D01*
X199165957Y-121428431D01*
X199171598Y-121607365D01*
X199167494Y-121790721D01*
X199153682Y-121952769D01*
X199130205Y-122067781D01*
X199123888Y-122083905D01*
X199088187Y-122150537D01*
X199042429Y-122202608D01*
X198976799Y-122241895D01*
X198881481Y-122270174D01*
X198746657Y-122289218D01*
X198562511Y-122300805D01*
X198319228Y-122306708D01*
X198006990Y-122308704D01*
X197880371Y-122308809D01*
X196912473Y-122308809D01*
X196912473Y-121628201D01*
X197241275Y-121628201D01*
X197244937Y-121777580D01*
X197254580Y-121893154D01*
X197268195Y-121951784D01*
X197269554Y-121953484D01*
X197317767Y-121961847D01*
X197434755Y-121968026D01*
X197607110Y-121971731D01*
X197821429Y-121972671D01*
X198060735Y-121970609D01*
X198823638Y-121959456D01*
X198835848Y-121654825D01*
X198837337Y-121474008D01*
X198823387Y-121364140D01*
X198794747Y-121316377D01*
X198737394Y-121305263D01*
X198614696Y-121296193D01*
X198443484Y-121289280D01*
X198240592Y-121284639D01*
X198022851Y-121282384D01*
X197807094Y-121282631D01*
X197610154Y-121285493D01*
X197448863Y-121291085D01*
X197340052Y-121299522D01*
X197306287Y-121306248D01*
X197270792Y-121338454D01*
X197250494Y-121412110D01*
X197242074Y-121543657D01*
X197241275Y-121628201D01*
X196912473Y-121628201D01*
X196912473Y-120954366D01*
X197237636Y-120954366D01*
X197989537Y-120943157D01*
X198741437Y-120931948D01*
X198741437Y-120356543D01*
X197261825Y-120356543D01*
X197249731Y-120655455D01*
X197237636Y-120954366D01*
X196912473Y-120954366D01*
X196912473Y-120002969D01*
X197877475Y-120015354D01*
G36*
X195912002Y-120015072D02*
G01*
X196099563Y-120024127D01*
X196220509Y-120039462D01*
X196262623Y-120051503D01*
X196332974Y-120083241D01*
X196387956Y-120119828D01*
X196429461Y-120171081D01*
X196459383Y-120246818D01*
X196479613Y-120356855D01*
X196492044Y-120511008D01*
X196498568Y-120719094D01*
X196501078Y-120990931D01*
X196501469Y-121290446D01*
X196501469Y-122308809D01*
X196172667Y-122308809D01*
X196172667Y-121486802D01*
X194569754Y-121486802D01*
X194569754Y-122308809D01*
X194236934Y-122308809D01*
X194249217Y-121282161D01*
X194250702Y-121158000D01*
X194566777Y-121158000D01*
X196175643Y-121158000D01*
X196163880Y-120757271D01*
X196152117Y-120356543D01*
X194590304Y-120356543D01*
X194578541Y-120757271D01*
X194566777Y-121158000D01*
X194250702Y-121158000D01*
X194261502Y-120255514D01*
X194375368Y-120141627D01*
X194489233Y-120027741D01*
X195316518Y-120015014D01*
X195652697Y-120012101D01*
X195912002Y-120015072D01*
G37*
X195912002Y-120015072D02*
X196099563Y-120024127D01*
X196220509Y-120039462D01*
X196262623Y-120051503D01*
X196332974Y-120083241D01*
X196387956Y-120119828D01*
X196429461Y-120171081D01*
X196459383Y-120246818D01*
X196479613Y-120356855D01*
X196492044Y-120511008D01*
X196498568Y-120719094D01*
X196501078Y-120990931D01*
X196501469Y-121290446D01*
X196501469Y-122308809D01*
X196172667Y-122308809D01*
X196172667Y-121486802D01*
X194569754Y-121486802D01*
X194569754Y-122308809D01*
X194236934Y-122308809D01*
X194249217Y-121282161D01*
X194250702Y-121158000D01*
X194566777Y-121158000D01*
X196175643Y-121158000D01*
X196163880Y-120757271D01*
X196152117Y-120356543D01*
X194590304Y-120356543D01*
X194578541Y-120757271D01*
X194566777Y-121158000D01*
X194250702Y-121158000D01*
X194261502Y-120255514D01*
X194375368Y-120141627D01*
X194489233Y-120027741D01*
X195316518Y-120015014D01*
X195652697Y-120012101D01*
X195912002Y-120015072D01*
G36*
X189074298Y-116838258D02*
G01*
X189405687Y-116894286D01*
X189584720Y-116949229D01*
X189995325Y-117193609D01*
X190387310Y-117551859D01*
X190709328Y-117971710D01*
X190850218Y-118237476D01*
X191050333Y-118699777D01*
X191516000Y-118701694D01*
X192147409Y-118770976D01*
X192710288Y-118964902D01*
X193180635Y-119270715D01*
X193534451Y-119675658D01*
X193616001Y-119817916D01*
X193754153Y-120218937D01*
X193820230Y-120697057D01*
X193811066Y-121181536D01*
X193723495Y-121601635D01*
X193698721Y-121666000D01*
X193394386Y-122179510D01*
X192970022Y-122582759D01*
X192444002Y-122863050D01*
X191834699Y-123007686D01*
X191744731Y-123016313D01*
X191156717Y-123063000D01*
X191632692Y-123670653D01*
X191842043Y-123942443D01*
X192004456Y-124161903D01*
X192096432Y-124296854D01*
X192108666Y-124322395D01*
X192032537Y-124352286D01*
X191838056Y-124380100D01*
X191689047Y-124392076D01*
X191269428Y-124417667D01*
X191865716Y-125207609D01*
X192096536Y-125518555D01*
X192280739Y-125776629D01*
X192399279Y-125954435D01*
X192433502Y-126024312D01*
X192358134Y-125987026D01*
X192160977Y-125868125D01*
X191861225Y-125679785D01*
X191478075Y-125434182D01*
X191030721Y-125143492D01*
X190627000Y-124878410D01*
X188849000Y-123705746D01*
X189549415Y-123680707D01*
X190249831Y-123655667D01*
X189725671Y-123020667D01*
X187509335Y-123018807D01*
X186831396Y-123017383D01*
X186300127Y-123013369D01*
X185892869Y-123005245D01*
X185586965Y-122991491D01*
X185359754Y-122970584D01*
X185188578Y-122941005D01*
X185050777Y-122901233D01*
X184923692Y-122849746D01*
X184912000Y-122844483D01*
X184398408Y-122528403D01*
X184016899Y-122113144D01*
X183775319Y-121614590D01*
X183681519Y-121048625D01*
X183725731Y-120575566D01*
X185923758Y-120575566D01*
X186074045Y-120764732D01*
X186319982Y-121067262D01*
X186562992Y-121354244D01*
X186777673Y-121596998D01*
X186938623Y-121766841D01*
X187020437Y-121835095D01*
X187022281Y-121835334D01*
X187107443Y-121784883D01*
X187286425Y-121651209D01*
X187524084Y-121460824D01*
X187580528Y-121414150D01*
X187825272Y-121214757D01*
X188017643Y-121065743D01*
X188123054Y-120993699D01*
X188131175Y-120990817D01*
X188195821Y-121053248D01*
X188344868Y-121226781D01*
X188559315Y-121488420D01*
X188820158Y-121815172D01*
X188968985Y-122004667D01*
X189762620Y-123020667D01*
X190440765Y-123020667D01*
X190773910Y-123018201D01*
X190965124Y-123005901D01*
X191041792Y-122976409D01*
X191031298Y-122922370D01*
X190992337Y-122872500D01*
X190826335Y-122671055D01*
X190603268Y-122390433D01*
X190342458Y-122056065D01*
X190063230Y-121693383D01*
X189784906Y-121327817D01*
X189526811Y-120984798D01*
X189308267Y-120689758D01*
X189148600Y-120468127D01*
X189067131Y-120345337D01*
X189060666Y-120330304D01*
X189124718Y-120253109D01*
X189297234Y-120102437D01*
X189548753Y-119903048D01*
X189738000Y-119761000D01*
X190024246Y-119545769D01*
X190250633Y-119366656D01*
X190387847Y-119247369D01*
X190415333Y-119213200D01*
X190339970Y-119168778D01*
X190135127Y-119085201D01*
X189832671Y-118974702D01*
X189488626Y-118857478D01*
X188561920Y-118551319D01*
X187242839Y-119563442D01*
X185923758Y-120575566D01*
X183725731Y-120575566D01*
X183736106Y-120464560D01*
X183822540Y-120165111D01*
X183962334Y-119919973D01*
X184196953Y-119658757D01*
X184229802Y-119626535D01*
X184615231Y-119321737D01*
X185042066Y-119135013D01*
X185554227Y-119050384D01*
X185838492Y-119041334D01*
X186130956Y-119021221D01*
X186259829Y-118960732D01*
X186266733Y-118935500D01*
X186313347Y-118746222D01*
X186435605Y-118468516D01*
X186607380Y-118149294D01*
X186802544Y-117835464D01*
X186994968Y-117573937D01*
X187074833Y-117484660D01*
X187540368Y-117113199D01*
X188067010Y-116893201D01*
X188674964Y-116816456D01*
X188720024Y-116816234D01*
X189074298Y-116838258D01*
G37*
X189074298Y-116838258D02*
X189405687Y-116894286D01*
X189584720Y-116949229D01*
X189995325Y-117193609D01*
X190387310Y-117551859D01*
X190709328Y-117971710D01*
X190850218Y-118237476D01*
X191050333Y-118699777D01*
X191516000Y-118701694D01*
X192147409Y-118770976D01*
X192710288Y-118964902D01*
X193180635Y-119270715D01*
X193534451Y-119675658D01*
X193616001Y-119817916D01*
X193754153Y-120218937D01*
X193820230Y-120697057D01*
X193811066Y-121181536D01*
X193723495Y-121601635D01*
X193698721Y-121666000D01*
X193394386Y-122179510D01*
X192970022Y-122582759D01*
X192444002Y-122863050D01*
X191834699Y-123007686D01*
X191744731Y-123016313D01*
X191156717Y-123063000D01*
X191632692Y-123670653D01*
X191842043Y-123942443D01*
X192004456Y-124161903D01*
X192096432Y-124296854D01*
X192108666Y-124322395D01*
X192032537Y-124352286D01*
X191838056Y-124380100D01*
X191689047Y-124392076D01*
X191269428Y-124417667D01*
X191865716Y-125207609D01*
X192096536Y-125518555D01*
X192280739Y-125776629D01*
X192399279Y-125954435D01*
X192433502Y-126024312D01*
X192358134Y-125987026D01*
X192160977Y-125868125D01*
X191861225Y-125679785D01*
X191478075Y-125434182D01*
X191030721Y-125143492D01*
X190627000Y-124878410D01*
X188849000Y-123705746D01*
X189549415Y-123680707D01*
X190249831Y-123655667D01*
X189725671Y-123020667D01*
X187509335Y-123018807D01*
X186831396Y-123017383D01*
X186300127Y-123013369D01*
X185892869Y-123005245D01*
X185586965Y-122991491D01*
X185359754Y-122970584D01*
X185188578Y-122941005D01*
X185050777Y-122901233D01*
X184923692Y-122849746D01*
X184912000Y-122844483D01*
X184398408Y-122528403D01*
X184016899Y-122113144D01*
X183775319Y-121614590D01*
X183681519Y-121048625D01*
X183725731Y-120575566D01*
X185923758Y-120575566D01*
X186074045Y-120764732D01*
X186319982Y-121067262D01*
X186562992Y-121354244D01*
X186777673Y-121596998D01*
X186938623Y-121766841D01*
X187020437Y-121835095D01*
X187022281Y-121835334D01*
X187107443Y-121784883D01*
X187286425Y-121651209D01*
X187524084Y-121460824D01*
X187580528Y-121414150D01*
X187825272Y-121214757D01*
X188017643Y-121065743D01*
X188123054Y-120993699D01*
X188131175Y-120990817D01*
X188195821Y-121053248D01*
X188344868Y-121226781D01*
X188559315Y-121488420D01*
X188820158Y-121815172D01*
X188968985Y-122004667D01*
X189762620Y-123020667D01*
X190440765Y-123020667D01*
X190773910Y-123018201D01*
X190965124Y-123005901D01*
X191041792Y-122976409D01*
X191031298Y-122922370D01*
X190992337Y-122872500D01*
X190826335Y-122671055D01*
X190603268Y-122390433D01*
X190342458Y-122056065D01*
X190063230Y-121693383D01*
X189784906Y-121327817D01*
X189526811Y-120984798D01*
X189308267Y-120689758D01*
X189148600Y-120468127D01*
X189067131Y-120345337D01*
X189060666Y-120330304D01*
X189124718Y-120253109D01*
X189297234Y-120102437D01*
X189548753Y-119903048D01*
X189738000Y-119761000D01*
X190024246Y-119545769D01*
X190250633Y-119366656D01*
X190387847Y-119247369D01*
X190415333Y-119213200D01*
X190339970Y-119168778D01*
X190135127Y-119085201D01*
X189832671Y-118974702D01*
X189488626Y-118857478D01*
X188561920Y-118551319D01*
X187242839Y-119563442D01*
X185923758Y-120575566D01*
X183725731Y-120575566D01*
X183736106Y-120464560D01*
X183822540Y-120165111D01*
X183962334Y-119919973D01*
X184196953Y-119658757D01*
X184229802Y-119626535D01*
X184615231Y-119321737D01*
X185042066Y-119135013D01*
X185554227Y-119050384D01*
X185838492Y-119041334D01*
X186130956Y-119021221D01*
X186259829Y-118960732D01*
X186266733Y-118935500D01*
X186313347Y-118746222D01*
X186435605Y-118468516D01*
X186607380Y-118149294D01*
X186802544Y-117835464D01*
X186994968Y-117573937D01*
X187074833Y-117484660D01*
X187540368Y-117113199D01*
X188067010Y-116893201D01*
X188674964Y-116816456D01*
X188720024Y-116816234D01*
X189074298Y-116838258D01*
D11*
%TO.C,R3*%
X159749748Y-132028000D02*
X160272252Y-132028000D01*
X159749748Y-130608000D02*
X160272252Y-130608000D01*
%TO.C,C16*%
X179567721Y-112266000D02*
X179893279Y-112266000D01*
X179567721Y-113286000D02*
X179893279Y-113286000D01*
%TO.C,U5*%
X174371000Y-119082000D02*
X176571000Y-119082000D01*
X174371000Y-119082000D02*
X172171000Y-119082000D01*
X174371000Y-112312000D02*
X176571000Y-112312000D01*
X174371000Y-112312000D02*
X170771000Y-112312000D01*
%TO.C,FB2*%
X161850000Y-104721922D02*
X161850000Y-105239078D01*
X163270000Y-104721922D02*
X163270000Y-105239078D01*
%TO.C,J3*%
X203208000Y-124733000D02*
X203708000Y-125733000D01*
X204208000Y-124733000D02*
X203208000Y-124733000D01*
X203708000Y-125733000D02*
X204208000Y-124733000D01*
X192768000Y-127433000D02*
X192768000Y-126123000D01*
X192768000Y-127433000D02*
X192768000Y-127433000D01*
X182018000Y-127433000D02*
X192768000Y-127433000D01*
X182018000Y-133933000D02*
X182018000Y-127433000D01*
X207618000Y-133933000D02*
X182018000Y-133933000D01*
X207618000Y-127433000D02*
X207618000Y-133933000D01*
X196868000Y-127433000D02*
X207618000Y-127433000D01*
X196868000Y-126123000D02*
X196868000Y-127433000D01*
X180718000Y-126123000D02*
X208918000Y-126123000D01*
X180718000Y-135243000D02*
X180718000Y-126123000D01*
X208918000Y-135243000D02*
X180718000Y-135243000D01*
X208918000Y-126123000D02*
X208918000Y-135243000D01*
%TO.C,C1*%
X161238000Y-104525578D02*
X161238000Y-104008422D01*
X159818000Y-104525578D02*
X159818000Y-104008422D01*
%TO.C,C2*%
X159387000Y-104201279D02*
X159387000Y-103875721D01*
X158367000Y-104201279D02*
X158367000Y-103875721D01*
%TO.C,C3*%
X152579000Y-105112078D02*
X152579000Y-104594922D01*
X153999000Y-105112078D02*
X153999000Y-104594922D01*
%TO.C,C4*%
X153989721Y-106932000D02*
X154315279Y-106932000D01*
X153989721Y-107952000D02*
X154315279Y-107952000D01*
%TO.C,C5*%
X145363000Y-126281922D02*
X145363000Y-126799078D01*
X143943000Y-126281922D02*
X143943000Y-126799078D01*
%TO.C,C6*%
X156285000Y-110817922D02*
X156285000Y-111335078D01*
X154865000Y-110817922D02*
X154865000Y-111335078D01*
%TO.C,C7*%
X163651000Y-111432078D02*
X163651000Y-110914922D01*
X162231000Y-111432078D02*
X162231000Y-110914922D01*
%TO.C,C8*%
X151001000Y-128386721D02*
X151001000Y-128712279D01*
X152021000Y-128386721D02*
X152021000Y-128712279D01*
%TO.C,C9*%
X149350000Y-119009279D02*
X149350000Y-118683721D01*
X150370000Y-119009279D02*
X150370000Y-118683721D01*
%TO.C,C10*%
X165572221Y-119636000D02*
X165897779Y-119636000D01*
X165572221Y-118616000D02*
X165897779Y-118616000D01*
%TO.C,C11*%
X160780000Y-114691279D02*
X160780000Y-114365721D01*
X161800000Y-114691279D02*
X161800000Y-114365721D01*
%TO.C,C12*%
X163057721Y-129542000D02*
X163383279Y-129542000D01*
X163057721Y-128522000D02*
X163383279Y-128522000D01*
%TO.C,C13*%
X154557000Y-114742279D02*
X154557000Y-114416721D01*
X155577000Y-114742279D02*
X155577000Y-114416721D01*
%TO.C,C14*%
X179567721Y-120525000D02*
X179893279Y-120525000D01*
X179567721Y-119505000D02*
X179893279Y-119505000D01*
%TO.C,C15*%
X179068000Y-126680279D02*
X179068000Y-126354721D01*
X180088000Y-126680279D02*
X180088000Y-126354721D01*
%TO.C,D1*%
X151700500Y-105085000D02*
X149015500Y-105085000D01*
X149015500Y-105085000D02*
X149015500Y-107005000D01*
X149015500Y-107005000D02*
X151700500Y-107005000D01*
%TO.C,F1*%
X165389936Y-103542000D02*
X166594064Y-103542000D01*
X165389936Y-106262000D02*
X166594064Y-106262000D01*
%TO.C,FB1*%
X152579000Y-114734078D02*
X152579000Y-114216922D01*
X153999000Y-114734078D02*
X153999000Y-114216922D01*
%TO.C,J1*%
X142240000Y-130750000D02*
X142240000Y-129290000D01*
X148590000Y-133410000D02*
X148650000Y-133410000D01*
X142180000Y-133410000D02*
X142240000Y-133410000D01*
X148650000Y-133410000D02*
X148650000Y-130750000D01*
X148590000Y-130750000D02*
X148650000Y-130750000D01*
X142180000Y-130750000D02*
X142240000Y-130750000D01*
X142180000Y-133410000D02*
X142180000Y-130750000D01*
%TO.C,J2*%
X172876000Y-106172000D02*
G75*
G03*
X172876000Y-106172000I-1680000J0D01*
G01*
X178876000Y-102072000D02*
X168596000Y-102072000D01*
X178876000Y-103572000D02*
X168596000Y-103572000D01*
X178876000Y-108473000D02*
X168596000Y-108473000D01*
X178876000Y-111433000D02*
X168596000Y-111433000D01*
X178876000Y-101512000D02*
X168596000Y-101512000D01*
X178876000Y-111433000D02*
X178876000Y-101512000D01*
X168596000Y-111433000D02*
X168596000Y-101512000D01*
X169921000Y-107241000D02*
X169968000Y-107195000D01*
X172230000Y-104933000D02*
X172265000Y-104898000D01*
X170126000Y-107447000D02*
X170161000Y-107411000D01*
X172423000Y-105149000D02*
X172470000Y-105103000D01*
X179116000Y-102012000D02*
X179116000Y-101272000D01*
X179116000Y-101272000D02*
X178616000Y-101272000D01*
X175592682Y-104637244D02*
G75*
G02*
X176276000Y-104492000I683318J-1534756D01*
G01*
X174740574Y-106855042D02*
G75*
G02*
X174741000Y-105488000I1535426J683042D01*
G01*
X176959042Y-107707426D02*
G75*
G02*
X175592000Y-107707000I-683042J1535426D01*
G01*
X177811426Y-105488958D02*
G75*
G02*
X177811000Y-106856000I-1535426J-683042D01*
G01*
X176247195Y-104491747D02*
G75*
G02*
X176960000Y-104637000I28805J-1680253D01*
G01*
%TO.C,J4*%
X182820000Y-105240000D02*
X205800000Y-105240000D01*
X205800000Y-105240000D02*
X205800000Y-102580000D01*
X205800000Y-102580000D02*
X182820000Y-102580000D01*
X182820000Y-102580000D02*
X182820000Y-105240000D01*
X183770000Y-102580000D02*
X183770000Y-96580000D01*
X183770000Y-96580000D02*
X184530000Y-96580000D01*
X184530000Y-96580000D02*
X184530000Y-102580000D01*
X183830000Y-102580000D02*
X183830000Y-96580000D01*
X183950000Y-102580000D02*
X183950000Y-96580000D01*
X184070000Y-102580000D02*
X184070000Y-96580000D01*
X184190000Y-102580000D02*
X184190000Y-96580000D01*
X184310000Y-102580000D02*
X184310000Y-96580000D01*
X184430000Y-102580000D02*
X184430000Y-96580000D01*
X183770000Y-105637071D02*
X183770000Y-105240000D01*
X184530000Y-105637071D02*
X184530000Y-105240000D01*
X183770000Y-108110000D02*
X183770000Y-107722929D01*
X184530000Y-108110000D02*
X184530000Y-107722929D01*
X185420000Y-105240000D02*
X185420000Y-102580000D01*
X186310000Y-102580000D02*
X186310000Y-96580000D01*
X186310000Y-96580000D02*
X187070000Y-96580000D01*
X187070000Y-96580000D02*
X187070000Y-102580000D01*
X186310000Y-105637071D02*
X186310000Y-105240000D01*
X187070000Y-105637071D02*
X187070000Y-105240000D01*
X186310000Y-108177071D02*
X186310000Y-107722929D01*
X187070000Y-108177071D02*
X187070000Y-107722929D01*
X187960000Y-105240000D02*
X187960000Y-102580000D01*
X188850000Y-102580000D02*
X188850000Y-96580000D01*
X188850000Y-96580000D02*
X189610000Y-96580000D01*
X189610000Y-96580000D02*
X189610000Y-102580000D01*
X188850000Y-105637071D02*
X188850000Y-105240000D01*
X189610000Y-105637071D02*
X189610000Y-105240000D01*
X188850000Y-108177071D02*
X188850000Y-107722929D01*
X189610000Y-108177071D02*
X189610000Y-107722929D01*
X190500000Y-105240000D02*
X190500000Y-102580000D01*
X191390000Y-102580000D02*
X191390000Y-96580000D01*
X191390000Y-96580000D02*
X192150000Y-96580000D01*
X192150000Y-96580000D02*
X192150000Y-102580000D01*
X191390000Y-105637071D02*
X191390000Y-105240000D01*
X192150000Y-105637071D02*
X192150000Y-105240000D01*
X191390000Y-108177071D02*
X191390000Y-107722929D01*
X192150000Y-108177071D02*
X192150000Y-107722929D01*
X193040000Y-105240000D02*
X193040000Y-102580000D01*
X193930000Y-102580000D02*
X193930000Y-96580000D01*
X193930000Y-96580000D02*
X194690000Y-96580000D01*
X194690000Y-96580000D02*
X194690000Y-102580000D01*
X193930000Y-105637071D02*
X193930000Y-105240000D01*
X194690000Y-105637071D02*
X194690000Y-105240000D01*
X193930000Y-108177071D02*
X193930000Y-107722929D01*
X194690000Y-108177071D02*
X194690000Y-107722929D01*
X195580000Y-105240000D02*
X195580000Y-102580000D01*
X196470000Y-102580000D02*
X196470000Y-96580000D01*
X196470000Y-96580000D02*
X197230000Y-96580000D01*
X197230000Y-96580000D02*
X197230000Y-102580000D01*
X196470000Y-105637071D02*
X196470000Y-105240000D01*
X197230000Y-105637071D02*
X197230000Y-105240000D01*
X196470000Y-108177071D02*
X196470000Y-107722929D01*
X197230000Y-108177071D02*
X197230000Y-107722929D01*
X198120000Y-105240000D02*
X198120000Y-102580000D01*
X199010000Y-102580000D02*
X199010000Y-96580000D01*
X199010000Y-96580000D02*
X199770000Y-96580000D01*
X199770000Y-96580000D02*
X199770000Y-102580000D01*
X199010000Y-105637071D02*
X199010000Y-105240000D01*
X199770000Y-105637071D02*
X199770000Y-105240000D01*
X199010000Y-108177071D02*
X199010000Y-107722929D01*
X199770000Y-108177071D02*
X199770000Y-107722929D01*
X200660000Y-105240000D02*
X200660000Y-102580000D01*
X201550000Y-102580000D02*
X201550000Y-96580000D01*
X201550000Y-96580000D02*
X202310000Y-96580000D01*
X202310000Y-96580000D02*
X202310000Y-102580000D01*
X201550000Y-105637071D02*
X201550000Y-105240000D01*
X202310000Y-105637071D02*
X202310000Y-105240000D01*
X201550000Y-108177071D02*
X201550000Y-107722929D01*
X202310000Y-108177071D02*
X202310000Y-107722929D01*
X203200000Y-105240000D02*
X203200000Y-102580000D01*
X204090000Y-102580000D02*
X204090000Y-96580000D01*
X204090000Y-96580000D02*
X204850000Y-96580000D01*
X204850000Y-96580000D02*
X204850000Y-102580000D01*
X204090000Y-105637071D02*
X204090000Y-105240000D01*
X204850000Y-105637071D02*
X204850000Y-105240000D01*
X204090000Y-108177071D02*
X204090000Y-107722929D01*
X204850000Y-108177071D02*
X204850000Y-107722929D01*
X184150000Y-110490000D02*
X182880000Y-110490000D01*
X182880000Y-110490000D02*
X182880000Y-109220000D01*
%TO.C,J5*%
X145221000Y-112081000D02*
X142561000Y-112081000D01*
X145221000Y-122301000D02*
X145221000Y-112081000D01*
X142561000Y-122301000D02*
X142561000Y-112081000D01*
X145221000Y-122301000D02*
X142561000Y-122301000D01*
X145221000Y-123571000D02*
X145221000Y-124901000D01*
X145221000Y-124901000D02*
X143891000Y-124901000D01*
%TO.C,J6*%
X157667000Y-134807000D02*
X157667000Y-132147000D01*
X152527000Y-134807000D02*
X157667000Y-134807000D01*
X152527000Y-132147000D02*
X157667000Y-132147000D01*
X152527000Y-134807000D02*
X152527000Y-132147000D01*
X151257000Y-134807000D02*
X149927000Y-134807000D01*
X149927000Y-134807000D02*
X149927000Y-133477000D01*
%TO.C,JP1*%
X147036000Y-125279000D02*
X147336000Y-125579000D01*
X146736000Y-125579000D02*
X147336000Y-125579000D01*
X147036000Y-125279000D02*
X146736000Y-125579000D01*
X146286000Y-125079000D02*
X146286000Y-123079000D01*
X150386000Y-125079000D02*
X146286000Y-125079000D01*
X150386000Y-123079000D02*
X150386000Y-125079000D01*
X146286000Y-123079000D02*
X150386000Y-123079000D01*
%TO.C,JP2*%
X150386000Y-128381000D02*
X146286000Y-128381000D01*
X146286000Y-128381000D02*
X146286000Y-126381000D01*
X146286000Y-126381000D02*
X150386000Y-126381000D01*
X150386000Y-126381000D02*
X150386000Y-128381000D01*
X149636000Y-126181000D02*
X149936000Y-125881000D01*
X149936000Y-125881000D02*
X149336000Y-125881000D01*
X149636000Y-126181000D02*
X149336000Y-125881000D01*
%TO.C,R1*%
X158625000Y-114416721D02*
X158625000Y-114742279D01*
X157605000Y-114416721D02*
X157605000Y-114742279D01*
%TO.C,R2*%
X150441922Y-103430000D02*
X150959078Y-103430000D01*
X150441922Y-104850000D02*
X150959078Y-104850000D01*
%TO.C,U1*%
X157110000Y-103292000D02*
X155310000Y-103292000D01*
X155310000Y-106512000D02*
X157760000Y-106512000D01*
%TO.C,U2*%
X152375999Y-127031001D02*
X152375999Y-127981001D01*
X152375999Y-127981001D02*
X153325999Y-127981001D01*
X152375999Y-118711001D02*
X152375999Y-117761001D01*
X152375999Y-117761001D02*
X153325999Y-117761001D01*
X162595999Y-127031001D02*
X162595999Y-127981001D01*
X162595999Y-127981001D02*
X161645999Y-127981001D01*
X162595999Y-118711001D02*
X162595999Y-117761001D01*
X162595999Y-117761001D02*
X161645999Y-117761001D01*
X161645999Y-117761001D02*
X161645999Y-116421001D01*
%TO.C,U3*%
X174498000Y-119551000D02*
X170898000Y-119551000D01*
X174498000Y-119551000D02*
X176698000Y-119551000D01*
X174498000Y-126321000D02*
X172298000Y-126321000D01*
X174498000Y-126321000D02*
X176698000Y-126321000D01*
%TO.C,U4*%
X174498000Y-133560000D02*
X176698000Y-133560000D01*
X174498000Y-133560000D02*
X172298000Y-133560000D01*
X174498000Y-126790000D02*
X176698000Y-126790000D01*
X174498000Y-126790000D02*
X170898000Y-126790000D01*
%TO.C,Y1*%
X156607000Y-109164000D02*
X156607000Y-112864000D01*
X156607000Y-112864000D02*
X161907000Y-112864000D01*
%TO.C,R5*%
D10*
X147153333Y-105100380D02*
X146820000Y-104624190D01*
X146581904Y-105100380D02*
X146581904Y-104100380D01*
X146962857Y-104100380D01*
X147058095Y-104148000D01*
X147105714Y-104195619D01*
X147153333Y-104290857D01*
X147153333Y-104433714D01*
X147105714Y-104528952D01*
X147058095Y-104576571D01*
X146962857Y-104624190D01*
X146581904Y-104624190D01*
X148058095Y-104100380D02*
X147581904Y-104100380D01*
X147534285Y-104576571D01*
X147581904Y-104528952D01*
X147677142Y-104481333D01*
X147915238Y-104481333D01*
X148010476Y-104528952D01*
X148058095Y-104576571D01*
X148105714Y-104671809D01*
X148105714Y-104909904D01*
X148058095Y-105005142D01*
X148010476Y-105052761D01*
X147915238Y-105100380D01*
X147677142Y-105100380D01*
X147581904Y-105052761D01*
X147534285Y-105005142D01*
%TO.C,R4*%
X149693333Y-111196380D02*
X149360000Y-110720190D01*
X149121904Y-111196380D02*
X149121904Y-110196380D01*
X149502857Y-110196380D01*
X149598095Y-110244000D01*
X149645714Y-110291619D01*
X149693333Y-110386857D01*
X149693333Y-110529714D01*
X149645714Y-110624952D01*
X149598095Y-110672571D01*
X149502857Y-110720190D01*
X149121904Y-110720190D01*
X150550476Y-110529714D02*
X150550476Y-111196380D01*
X150312380Y-110148761D02*
X150074285Y-110863047D01*
X150693333Y-110863047D01*
%TO.C,R3*%
X162520333Y-131770380D02*
X162187000Y-131294190D01*
X161948904Y-131770380D02*
X161948904Y-130770380D01*
X162329857Y-130770380D01*
X162425095Y-130818000D01*
X162472714Y-130865619D01*
X162520333Y-130960857D01*
X162520333Y-131103714D01*
X162472714Y-131198952D01*
X162425095Y-131246571D01*
X162329857Y-131294190D01*
X161948904Y-131294190D01*
X162853666Y-130770380D02*
X163472714Y-130770380D01*
X163139380Y-131151333D01*
X163282238Y-131151333D01*
X163377476Y-131198952D01*
X163425095Y-131246571D01*
X163472714Y-131341809D01*
X163472714Y-131579904D01*
X163425095Y-131675142D01*
X163377476Y-131722761D01*
X163282238Y-131770380D01*
X162996523Y-131770380D01*
X162901285Y-131722761D01*
X162853666Y-131675142D01*
%TO.C,C16*%
X179189142Y-114530142D02*
X179141523Y-114577761D01*
X178998666Y-114625380D01*
X178903428Y-114625380D01*
X178760571Y-114577761D01*
X178665333Y-114482523D01*
X178617714Y-114387285D01*
X178570095Y-114196809D01*
X178570095Y-114053952D01*
X178617714Y-113863476D01*
X178665333Y-113768238D01*
X178760571Y-113673000D01*
X178903428Y-113625380D01*
X178998666Y-113625380D01*
X179141523Y-113673000D01*
X179189142Y-113720619D01*
X180141523Y-114625380D02*
X179570095Y-114625380D01*
X179855809Y-114625380D02*
X179855809Y-113625380D01*
X179760571Y-113768238D01*
X179665333Y-113863476D01*
X179570095Y-113911095D01*
X180998666Y-113625380D02*
X180808190Y-113625380D01*
X180712952Y-113673000D01*
X180665333Y-113720619D01*
X180570095Y-113863476D01*
X180522476Y-114053952D01*
X180522476Y-114434904D01*
X180570095Y-114530142D01*
X180617714Y-114577761D01*
X180712952Y-114625380D01*
X180903428Y-114625380D01*
X180998666Y-114577761D01*
X181046285Y-114530142D01*
X181093904Y-114434904D01*
X181093904Y-114196809D01*
X181046285Y-114101571D01*
X180998666Y-114053952D01*
X180903428Y-114006333D01*
X180712952Y-114006333D01*
X180617714Y-114053952D01*
X180570095Y-114101571D01*
X180522476Y-114196809D01*
%TO.C,U5*%
X169037095Y-112355380D02*
X169037095Y-113164904D01*
X169084714Y-113260142D01*
X169132333Y-113307761D01*
X169227571Y-113355380D01*
X169418047Y-113355380D01*
X169513285Y-113307761D01*
X169560904Y-113260142D01*
X169608523Y-113164904D01*
X169608523Y-112355380D01*
X170560904Y-112355380D02*
X170084714Y-112355380D01*
X170037095Y-112831571D01*
X170084714Y-112783952D01*
X170179952Y-112736333D01*
X170418047Y-112736333D01*
X170513285Y-112783952D01*
X170560904Y-112831571D01*
X170608523Y-112926809D01*
X170608523Y-113164904D01*
X170560904Y-113260142D01*
X170513285Y-113307761D01*
X170418047Y-113355380D01*
X170179952Y-113355380D01*
X170084714Y-113307761D01*
X170037095Y-113260142D01*
%TO.C,FB2*%
X161726666Y-102544571D02*
X161393333Y-102544571D01*
X161393333Y-103068380D02*
X161393333Y-102068380D01*
X161869523Y-102068380D01*
X162583809Y-102544571D02*
X162726666Y-102592190D01*
X162774285Y-102639809D01*
X162821904Y-102735047D01*
X162821904Y-102877904D01*
X162774285Y-102973142D01*
X162726666Y-103020761D01*
X162631428Y-103068380D01*
X162250476Y-103068380D01*
X162250476Y-102068380D01*
X162583809Y-102068380D01*
X162679047Y-102116000D01*
X162726666Y-102163619D01*
X162774285Y-102258857D01*
X162774285Y-102354095D01*
X162726666Y-102449333D01*
X162679047Y-102496952D01*
X162583809Y-102544571D01*
X162250476Y-102544571D01*
X163202857Y-102163619D02*
X163250476Y-102116000D01*
X163345714Y-102068380D01*
X163583809Y-102068380D01*
X163679047Y-102116000D01*
X163726666Y-102163619D01*
X163774285Y-102258857D01*
X163774285Y-102354095D01*
X163726666Y-102496952D01*
X163155238Y-103068380D01*
X163774285Y-103068380D01*
%TO.C,J3*%
X206295666Y-124547380D02*
X206295666Y-125261666D01*
X206248047Y-125404523D01*
X206152809Y-125499761D01*
X206009952Y-125547380D01*
X205914714Y-125547380D01*
X206676619Y-124547380D02*
X207295666Y-124547380D01*
X206962333Y-124928333D01*
X207105190Y-124928333D01*
X207200428Y-124975952D01*
X207248047Y-125023571D01*
X207295666Y-125118809D01*
X207295666Y-125356904D01*
X207248047Y-125452142D01*
X207200428Y-125499761D01*
X207105190Y-125547380D01*
X206819476Y-125547380D01*
X206724238Y-125499761D01*
X206676619Y-125452142D01*
%TO.C,C1*%
X160488333Y-106910142D02*
X160440714Y-106957761D01*
X160297857Y-107005380D01*
X160202619Y-107005380D01*
X160059761Y-106957761D01*
X159964523Y-106862523D01*
X159916904Y-106767285D01*
X159869285Y-106576809D01*
X159869285Y-106433952D01*
X159916904Y-106243476D01*
X159964523Y-106148238D01*
X160059761Y-106053000D01*
X160202619Y-106005380D01*
X160297857Y-106005380D01*
X160440714Y-106053000D01*
X160488333Y-106100619D01*
X161440714Y-107005380D02*
X160869285Y-107005380D01*
X161155000Y-107005380D02*
X161155000Y-106005380D01*
X161059761Y-106148238D01*
X160964523Y-106243476D01*
X160869285Y-106291095D01*
%TO.C,C2*%
X158710333Y-106910142D02*
X158662714Y-106957761D01*
X158519857Y-107005380D01*
X158424619Y-107005380D01*
X158281761Y-106957761D01*
X158186523Y-106862523D01*
X158138904Y-106767285D01*
X158091285Y-106576809D01*
X158091285Y-106433952D01*
X158138904Y-106243476D01*
X158186523Y-106148238D01*
X158281761Y-106053000D01*
X158424619Y-106005380D01*
X158519857Y-106005380D01*
X158662714Y-106053000D01*
X158710333Y-106100619D01*
X159091285Y-106100619D02*
X159138904Y-106053000D01*
X159234142Y-106005380D01*
X159472238Y-106005380D01*
X159567476Y-106053000D01*
X159615095Y-106100619D01*
X159662714Y-106195857D01*
X159662714Y-106291095D01*
X159615095Y-106433952D01*
X159043666Y-107005380D01*
X159662714Y-107005380D01*
%TO.C,C3*%
X153122333Y-102973142D02*
X153074714Y-103020761D01*
X152931857Y-103068380D01*
X152836619Y-103068380D01*
X152693761Y-103020761D01*
X152598523Y-102925523D01*
X152550904Y-102830285D01*
X152503285Y-102639809D01*
X152503285Y-102496952D01*
X152550904Y-102306476D01*
X152598523Y-102211238D01*
X152693761Y-102116000D01*
X152836619Y-102068380D01*
X152931857Y-102068380D01*
X153074714Y-102116000D01*
X153122333Y-102163619D01*
X153455666Y-102068380D02*
X154074714Y-102068380D01*
X153741380Y-102449333D01*
X153884238Y-102449333D01*
X153979476Y-102496952D01*
X154027095Y-102544571D01*
X154074714Y-102639809D01*
X154074714Y-102877904D01*
X154027095Y-102973142D01*
X153979476Y-103020761D01*
X153884238Y-103068380D01*
X153598523Y-103068380D01*
X153503285Y-103020761D01*
X153455666Y-102973142D01*
%TO.C,C4*%
X153985833Y-109069142D02*
X153938214Y-109116761D01*
X153795357Y-109164380D01*
X153700119Y-109164380D01*
X153557261Y-109116761D01*
X153462023Y-109021523D01*
X153414404Y-108926285D01*
X153366785Y-108735809D01*
X153366785Y-108592952D01*
X153414404Y-108402476D01*
X153462023Y-108307238D01*
X153557261Y-108212000D01*
X153700119Y-108164380D01*
X153795357Y-108164380D01*
X153938214Y-108212000D01*
X153985833Y-108259619D01*
X154842976Y-108497714D02*
X154842976Y-109164380D01*
X154604880Y-108116761D02*
X154366785Y-108831047D01*
X154985833Y-108831047D01*
%TO.C,C5*%
X142835333Y-126595142D02*
X142787714Y-126642761D01*
X142644857Y-126690380D01*
X142549619Y-126690380D01*
X142406761Y-126642761D01*
X142311523Y-126547523D01*
X142263904Y-126452285D01*
X142216285Y-126261809D01*
X142216285Y-126118952D01*
X142263904Y-125928476D01*
X142311523Y-125833238D01*
X142406761Y-125738000D01*
X142549619Y-125690380D01*
X142644857Y-125690380D01*
X142787714Y-125738000D01*
X142835333Y-125785619D01*
X143740095Y-125690380D02*
X143263904Y-125690380D01*
X143216285Y-126166571D01*
X143263904Y-126118952D01*
X143359142Y-126071333D01*
X143597238Y-126071333D01*
X143692476Y-126118952D01*
X143740095Y-126166571D01*
X143787714Y-126261809D01*
X143787714Y-126499904D01*
X143740095Y-126595142D01*
X143692476Y-126642761D01*
X143597238Y-126690380D01*
X143359142Y-126690380D01*
X143263904Y-126642761D01*
X143216285Y-126595142D01*
%TO.C,C6*%
X153376333Y-110974142D02*
X153328714Y-111021761D01*
X153185857Y-111069380D01*
X153090619Y-111069380D01*
X152947761Y-111021761D01*
X152852523Y-110926523D01*
X152804904Y-110831285D01*
X152757285Y-110640809D01*
X152757285Y-110497952D01*
X152804904Y-110307476D01*
X152852523Y-110212238D01*
X152947761Y-110117000D01*
X153090619Y-110069380D01*
X153185857Y-110069380D01*
X153328714Y-110117000D01*
X153376333Y-110164619D01*
X154233476Y-110069380D02*
X154043000Y-110069380D01*
X153947761Y-110117000D01*
X153900142Y-110164619D01*
X153804904Y-110307476D01*
X153757285Y-110497952D01*
X153757285Y-110878904D01*
X153804904Y-110974142D01*
X153852523Y-111021761D01*
X153947761Y-111069380D01*
X154138238Y-111069380D01*
X154233476Y-111021761D01*
X154281095Y-110974142D01*
X154328714Y-110878904D01*
X154328714Y-110640809D01*
X154281095Y-110545571D01*
X154233476Y-110497952D01*
X154138238Y-110450333D01*
X153947761Y-110450333D01*
X153852523Y-110497952D01*
X153804904Y-110545571D01*
X153757285Y-110640809D01*
%TO.C,C7*%
X164679333Y-110593142D02*
X164631714Y-110640761D01*
X164488857Y-110688380D01*
X164393619Y-110688380D01*
X164250761Y-110640761D01*
X164155523Y-110545523D01*
X164107904Y-110450285D01*
X164060285Y-110259809D01*
X164060285Y-110116952D01*
X164107904Y-109926476D01*
X164155523Y-109831238D01*
X164250761Y-109736000D01*
X164393619Y-109688380D01*
X164488857Y-109688380D01*
X164631714Y-109736000D01*
X164679333Y-109783619D01*
X165012666Y-109688380D02*
X165679333Y-109688380D01*
X165250761Y-110688380D01*
%TO.C,C8*%
X151868142Y-130976666D02*
X151915761Y-131024285D01*
X151963380Y-131167142D01*
X151963380Y-131262380D01*
X151915761Y-131405238D01*
X151820523Y-131500476D01*
X151725285Y-131548095D01*
X151534809Y-131595714D01*
X151391952Y-131595714D01*
X151201476Y-131548095D01*
X151106238Y-131500476D01*
X151011000Y-131405238D01*
X150963380Y-131262380D01*
X150963380Y-131167142D01*
X151011000Y-131024285D01*
X151058619Y-130976666D01*
X151391952Y-130405238D02*
X151344333Y-130500476D01*
X151296714Y-130548095D01*
X151201476Y-130595714D01*
X151153857Y-130595714D01*
X151058619Y-130548095D01*
X151011000Y-130500476D01*
X150963380Y-130405238D01*
X150963380Y-130214761D01*
X151011000Y-130119523D01*
X151058619Y-130071904D01*
X151153857Y-130024285D01*
X151201476Y-130024285D01*
X151296714Y-130071904D01*
X151344333Y-130119523D01*
X151391952Y-130214761D01*
X151391952Y-130405238D01*
X151439571Y-130500476D01*
X151487190Y-130548095D01*
X151582428Y-130595714D01*
X151772904Y-130595714D01*
X151868142Y-130548095D01*
X151915761Y-130500476D01*
X151963380Y-130405238D01*
X151963380Y-130214761D01*
X151915761Y-130119523D01*
X151868142Y-130071904D01*
X151772904Y-130024285D01*
X151582428Y-130024285D01*
X151487190Y-130071904D01*
X151439571Y-130119523D01*
X151391952Y-130214761D01*
%TO.C,C9*%
X149693333Y-116943142D02*
X149645714Y-116990761D01*
X149502857Y-117038380D01*
X149407619Y-117038380D01*
X149264761Y-116990761D01*
X149169523Y-116895523D01*
X149121904Y-116800285D01*
X149074285Y-116609809D01*
X149074285Y-116466952D01*
X149121904Y-116276476D01*
X149169523Y-116181238D01*
X149264761Y-116086000D01*
X149407619Y-116038380D01*
X149502857Y-116038380D01*
X149645714Y-116086000D01*
X149693333Y-116133619D01*
X150169523Y-117038380D02*
X150360000Y-117038380D01*
X150455238Y-116990761D01*
X150502857Y-116943142D01*
X150598095Y-116800285D01*
X150645714Y-116609809D01*
X150645714Y-116228857D01*
X150598095Y-116133619D01*
X150550476Y-116086000D01*
X150455238Y-116038380D01*
X150264761Y-116038380D01*
X150169523Y-116086000D01*
X150121904Y-116133619D01*
X150074285Y-116228857D01*
X150074285Y-116466952D01*
X150121904Y-116562190D01*
X150169523Y-116609809D01*
X150264761Y-116657428D01*
X150455238Y-116657428D01*
X150550476Y-116609809D01*
X150598095Y-116562190D01*
X150645714Y-116466952D01*
%TO.C,C10*%
X168098642Y-119717857D02*
X168146261Y-119765476D01*
X168193880Y-119908333D01*
X168193880Y-120003571D01*
X168146261Y-120146428D01*
X168051023Y-120241666D01*
X167955785Y-120289285D01*
X167765309Y-120336904D01*
X167622452Y-120336904D01*
X167431976Y-120289285D01*
X167336738Y-120241666D01*
X167241500Y-120146428D01*
X167193880Y-120003571D01*
X167193880Y-119908333D01*
X167241500Y-119765476D01*
X167289119Y-119717857D01*
X168193880Y-118765476D02*
X168193880Y-119336904D01*
X168193880Y-119051190D02*
X167193880Y-119051190D01*
X167336738Y-119146428D01*
X167431976Y-119241666D01*
X167479595Y-119336904D01*
X167193880Y-118146428D02*
X167193880Y-118051190D01*
X167241500Y-117955952D01*
X167289119Y-117908333D01*
X167384357Y-117860714D01*
X167574833Y-117813095D01*
X167812928Y-117813095D01*
X168003404Y-117860714D01*
X168098642Y-117908333D01*
X168146261Y-117955952D01*
X168193880Y-118051190D01*
X168193880Y-118146428D01*
X168146261Y-118241666D01*
X168098642Y-118289285D01*
X168003404Y-118336904D01*
X167812928Y-118384523D01*
X167574833Y-118384523D01*
X167384357Y-118336904D01*
X167289119Y-118289285D01*
X167241500Y-118241666D01*
X167193880Y-118146428D01*
%TO.C,C11*%
X162917142Y-114942857D02*
X162964761Y-114990476D01*
X163012380Y-115133333D01*
X163012380Y-115228571D01*
X162964761Y-115371428D01*
X162869523Y-115466666D01*
X162774285Y-115514285D01*
X162583809Y-115561904D01*
X162440952Y-115561904D01*
X162250476Y-115514285D01*
X162155238Y-115466666D01*
X162060000Y-115371428D01*
X162012380Y-115228571D01*
X162012380Y-115133333D01*
X162060000Y-114990476D01*
X162107619Y-114942857D01*
X163012380Y-113990476D02*
X163012380Y-114561904D01*
X163012380Y-114276190D02*
X162012380Y-114276190D01*
X162155238Y-114371428D01*
X162250476Y-114466666D01*
X162298095Y-114561904D01*
X163012380Y-113038095D02*
X163012380Y-113609523D01*
X163012380Y-113323809D02*
X162012380Y-113323809D01*
X162155238Y-113419047D01*
X162250476Y-113514285D01*
X162298095Y-113609523D01*
%TO.C,C12*%
X162577642Y-127959142D02*
X162530023Y-128006761D01*
X162387166Y-128054380D01*
X162291928Y-128054380D01*
X162149071Y-128006761D01*
X162053833Y-127911523D01*
X162006214Y-127816285D01*
X161958595Y-127625809D01*
X161958595Y-127482952D01*
X162006214Y-127292476D01*
X162053833Y-127197238D01*
X162149071Y-127102000D01*
X162291928Y-127054380D01*
X162387166Y-127054380D01*
X162530023Y-127102000D01*
X162577642Y-127149619D01*
X163530023Y-128054380D02*
X162958595Y-128054380D01*
X163244309Y-128054380D02*
X163244309Y-127054380D01*
X163149071Y-127197238D01*
X163053833Y-127292476D01*
X162958595Y-127340095D01*
X163910976Y-127149619D02*
X163958595Y-127102000D01*
X164053833Y-127054380D01*
X164291928Y-127054380D01*
X164387166Y-127102000D01*
X164434785Y-127149619D01*
X164482404Y-127244857D01*
X164482404Y-127340095D01*
X164434785Y-127482952D01*
X163863357Y-128054380D01*
X164482404Y-128054380D01*
%TO.C,C13*%
X152265142Y-112498142D02*
X152217523Y-112545761D01*
X152074666Y-112593380D01*
X151979428Y-112593380D01*
X151836571Y-112545761D01*
X151741333Y-112450523D01*
X151693714Y-112355285D01*
X151646095Y-112164809D01*
X151646095Y-112021952D01*
X151693714Y-111831476D01*
X151741333Y-111736238D01*
X151836571Y-111641000D01*
X151979428Y-111593380D01*
X152074666Y-111593380D01*
X152217523Y-111641000D01*
X152265142Y-111688619D01*
X153217523Y-112593380D02*
X152646095Y-112593380D01*
X152931809Y-112593380D02*
X152931809Y-111593380D01*
X152836571Y-111736238D01*
X152741333Y-111831476D01*
X152646095Y-111879095D01*
X153550857Y-111593380D02*
X154169904Y-111593380D01*
X153836571Y-111974333D01*
X153979428Y-111974333D01*
X154074666Y-112021952D01*
X154122285Y-112069571D01*
X154169904Y-112164809D01*
X154169904Y-112402904D01*
X154122285Y-112498142D01*
X154074666Y-112545761D01*
X153979428Y-112593380D01*
X153693714Y-112593380D01*
X153598476Y-112545761D01*
X153550857Y-112498142D01*
%TO.C,C14*%
X179189142Y-121769142D02*
X179141523Y-121816761D01*
X178998666Y-121864380D01*
X178903428Y-121864380D01*
X178760571Y-121816761D01*
X178665333Y-121721523D01*
X178617714Y-121626285D01*
X178570095Y-121435809D01*
X178570095Y-121292952D01*
X178617714Y-121102476D01*
X178665333Y-121007238D01*
X178760571Y-120912000D01*
X178903428Y-120864380D01*
X178998666Y-120864380D01*
X179141523Y-120912000D01*
X179189142Y-120959619D01*
X180141523Y-121864380D02*
X179570095Y-121864380D01*
X179855809Y-121864380D02*
X179855809Y-120864380D01*
X179760571Y-121007238D01*
X179665333Y-121102476D01*
X179570095Y-121150095D01*
X180998666Y-121197714D02*
X180998666Y-121864380D01*
X180760571Y-120816761D02*
X180522476Y-121531047D01*
X181141523Y-121531047D01*
%TO.C,C15*%
X181221142Y-125833142D02*
X181173523Y-125880761D01*
X181030666Y-125928380D01*
X180935428Y-125928380D01*
X180792571Y-125880761D01*
X180697333Y-125785523D01*
X180649714Y-125690285D01*
X180602095Y-125499809D01*
X180602095Y-125356952D01*
X180649714Y-125166476D01*
X180697333Y-125071238D01*
X180792571Y-124976000D01*
X180935428Y-124928380D01*
X181030666Y-124928380D01*
X181173523Y-124976000D01*
X181221142Y-125023619D01*
X182173523Y-125928380D02*
X181602095Y-125928380D01*
X181887809Y-125928380D02*
X181887809Y-124928380D01*
X181792571Y-125071238D01*
X181697333Y-125166476D01*
X181602095Y-125214095D01*
X183078285Y-124928380D02*
X182602095Y-124928380D01*
X182554476Y-125404571D01*
X182602095Y-125356952D01*
X182697333Y-125309333D01*
X182935428Y-125309333D01*
X183030666Y-125356952D01*
X183078285Y-125404571D01*
X183125904Y-125499809D01*
X183125904Y-125737904D01*
X183078285Y-125833142D01*
X183030666Y-125880761D01*
X182935428Y-125928380D01*
X182697333Y-125928380D01*
X182602095Y-125880761D01*
X182554476Y-125833142D01*
%TO.C,D1*%
X149121904Y-108148380D02*
X149121904Y-107148380D01*
X149360000Y-107148380D01*
X149502857Y-107196000D01*
X149598095Y-107291238D01*
X149645714Y-107386476D01*
X149693333Y-107576952D01*
X149693333Y-107719809D01*
X149645714Y-107910285D01*
X149598095Y-108005523D01*
X149502857Y-108100761D01*
X149360000Y-108148380D01*
X149121904Y-108148380D01*
X150645714Y-108148380D02*
X150074285Y-108148380D01*
X150360000Y-108148380D02*
X150360000Y-107148380D01*
X150264761Y-107291238D01*
X150169523Y-107386476D01*
X150074285Y-107434095D01*
%TO.C,F1*%
X165658666Y-102550571D02*
X165325333Y-102550571D01*
X165325333Y-103074380D02*
X165325333Y-102074380D01*
X165801523Y-102074380D01*
X166706285Y-103074380D02*
X166134857Y-103074380D01*
X166420571Y-103074380D02*
X166420571Y-102074380D01*
X166325333Y-102217238D01*
X166230095Y-102312476D01*
X166134857Y-102360095D01*
%TO.C,FB1*%
X151567571Y-115308833D02*
X151567571Y-115642166D01*
X152091380Y-115642166D02*
X151091380Y-115642166D01*
X151091380Y-115165976D01*
X151567571Y-114451690D02*
X151615190Y-114308833D01*
X151662809Y-114261214D01*
X151758047Y-114213595D01*
X151900904Y-114213595D01*
X151996142Y-114261214D01*
X152043761Y-114308833D01*
X152091380Y-114404071D01*
X152091380Y-114785023D01*
X151091380Y-114785023D01*
X151091380Y-114451690D01*
X151139000Y-114356452D01*
X151186619Y-114308833D01*
X151281857Y-114261214D01*
X151377095Y-114261214D01*
X151472333Y-114308833D01*
X151519952Y-114356452D01*
X151567571Y-114451690D01*
X151567571Y-114785023D01*
X152091380Y-113261214D02*
X152091380Y-113832642D01*
X152091380Y-113546928D02*
X151091380Y-113546928D01*
X151234238Y-113642166D01*
X151329476Y-113737404D01*
X151377095Y-113832642D01*
%TO.C,J1*%
X142160666Y-127595380D02*
X142160666Y-128309666D01*
X142113047Y-128452523D01*
X142017809Y-128547761D01*
X141874952Y-128595380D01*
X141779714Y-128595380D01*
X143160666Y-128595380D02*
X142589238Y-128595380D01*
X142874952Y-128595380D02*
X142874952Y-127595380D01*
X142779714Y-127738238D01*
X142684476Y-127833476D01*
X142589238Y-127881095D01*
%TO.C,J2*%
X167052666Y-110577380D02*
X167052666Y-111291666D01*
X167005047Y-111434523D01*
X166909809Y-111529761D01*
X166766952Y-111577380D01*
X166671714Y-111577380D01*
X167481238Y-110672619D02*
X167528857Y-110625000D01*
X167624095Y-110577380D01*
X167862190Y-110577380D01*
X167957428Y-110625000D01*
X168005047Y-110672619D01*
X168052666Y-110767857D01*
X168052666Y-110863095D01*
X168005047Y-111005952D01*
X167433619Y-111577380D01*
X168052666Y-111577380D01*
%TO.C,J4*%
X207057666Y-103719380D02*
X207057666Y-104433666D01*
X207010047Y-104576523D01*
X206914809Y-104671761D01*
X206771952Y-104719380D01*
X206676714Y-104719380D01*
X207962428Y-104052714D02*
X207962428Y-104719380D01*
X207724333Y-103671761D02*
X207486238Y-104386047D01*
X208105285Y-104386047D01*
%TO.C,J5*%
X143557666Y-110704380D02*
X143557666Y-111418666D01*
X143510047Y-111561523D01*
X143414809Y-111656761D01*
X143271952Y-111704380D01*
X143176714Y-111704380D01*
X144510047Y-110704380D02*
X144033857Y-110704380D01*
X143986238Y-111180571D01*
X144033857Y-111132952D01*
X144129095Y-111085333D01*
X144367190Y-111085333D01*
X144462428Y-111132952D01*
X144510047Y-111180571D01*
X144557666Y-111275809D01*
X144557666Y-111513904D01*
X144510047Y-111609142D01*
X144462428Y-111656761D01*
X144367190Y-111704380D01*
X144129095Y-111704380D01*
X144033857Y-111656761D01*
X143986238Y-111609142D01*
%TO.C,J6*%
X159178666Y-132929380D02*
X159178666Y-133643666D01*
X159131047Y-133786523D01*
X159035809Y-133881761D01*
X158892952Y-133929380D01*
X158797714Y-133929380D01*
X160083428Y-132929380D02*
X159892952Y-132929380D01*
X159797714Y-132977000D01*
X159750095Y-133024619D01*
X159654857Y-133167476D01*
X159607238Y-133357952D01*
X159607238Y-133738904D01*
X159654857Y-133834142D01*
X159702476Y-133881761D01*
X159797714Y-133929380D01*
X159988190Y-133929380D01*
X160083428Y-133881761D01*
X160131047Y-133834142D01*
X160178666Y-133738904D01*
X160178666Y-133500809D01*
X160131047Y-133405571D01*
X160083428Y-133357952D01*
X159988190Y-133310333D01*
X159797714Y-133310333D01*
X159702476Y-133357952D01*
X159654857Y-133405571D01*
X159607238Y-133500809D01*
%TO.C,JP1*%
X146486666Y-121753380D02*
X146486666Y-122467666D01*
X146439047Y-122610523D01*
X146343809Y-122705761D01*
X146200952Y-122753380D01*
X146105714Y-122753380D01*
X146962857Y-122753380D02*
X146962857Y-121753380D01*
X147343809Y-121753380D01*
X147439047Y-121801000D01*
X147486666Y-121848619D01*
X147534285Y-121943857D01*
X147534285Y-122086714D01*
X147486666Y-122181952D01*
X147439047Y-122229571D01*
X147343809Y-122277190D01*
X146962857Y-122277190D01*
X148486666Y-122753380D02*
X147915238Y-122753380D01*
X148200952Y-122753380D02*
X148200952Y-121753380D01*
X148105714Y-121896238D01*
X148010476Y-121991476D01*
X147915238Y-122039095D01*
%TO.C,JP2*%
X148645666Y-128865380D02*
X148645666Y-129579666D01*
X148598047Y-129722523D01*
X148502809Y-129817761D01*
X148359952Y-129865380D01*
X148264714Y-129865380D01*
X149121857Y-129865380D02*
X149121857Y-128865380D01*
X149502809Y-128865380D01*
X149598047Y-128913000D01*
X149645666Y-128960619D01*
X149693285Y-129055857D01*
X149693285Y-129198714D01*
X149645666Y-129293952D01*
X149598047Y-129341571D01*
X149502809Y-129389190D01*
X149121857Y-129389190D01*
X150074238Y-128960619D02*
X150121857Y-128913000D01*
X150217095Y-128865380D01*
X150455190Y-128865380D01*
X150550428Y-128913000D01*
X150598047Y-128960619D01*
X150645666Y-129055857D01*
X150645666Y-129151095D01*
X150598047Y-129293952D01*
X150026619Y-129865380D01*
X150645666Y-129865380D01*
%TO.C,R1*%
X159378333Y-115031880D02*
X159045000Y-114555690D01*
X158806904Y-115031880D02*
X158806904Y-114031880D01*
X159187857Y-114031880D01*
X159283095Y-114079500D01*
X159330714Y-114127119D01*
X159378333Y-114222357D01*
X159378333Y-114365214D01*
X159330714Y-114460452D01*
X159283095Y-114508071D01*
X159187857Y-114555690D01*
X158806904Y-114555690D01*
X160330714Y-115031880D02*
X159759285Y-115031880D01*
X160045000Y-115031880D02*
X160045000Y-114031880D01*
X159949761Y-114174738D01*
X159854523Y-114269976D01*
X159759285Y-114317595D01*
%TO.C,R2*%
X149693333Y-103068380D02*
X149360000Y-102592190D01*
X149121904Y-103068380D02*
X149121904Y-102068380D01*
X149502857Y-102068380D01*
X149598095Y-102116000D01*
X149645714Y-102163619D01*
X149693333Y-102258857D01*
X149693333Y-102401714D01*
X149645714Y-102496952D01*
X149598095Y-102544571D01*
X149502857Y-102592190D01*
X149121904Y-102592190D01*
X150074285Y-102163619D02*
X150121904Y-102116000D01*
X150217142Y-102068380D01*
X150455238Y-102068380D01*
X150550476Y-102116000D01*
X150598095Y-102163619D01*
X150645714Y-102258857D01*
X150645714Y-102354095D01*
X150598095Y-102496952D01*
X150026666Y-103068380D01*
X150645714Y-103068380D01*
%TO.C,U1*%
X155575095Y-102068380D02*
X155575095Y-102877904D01*
X155622714Y-102973142D01*
X155670333Y-103020761D01*
X155765571Y-103068380D01*
X155956047Y-103068380D01*
X156051285Y-103020761D01*
X156098904Y-102973142D01*
X156146523Y-102877904D01*
X156146523Y-102068380D01*
X157146523Y-103068380D02*
X156575095Y-103068380D01*
X156860809Y-103068380D02*
X156860809Y-102068380D01*
X156765571Y-102211238D01*
X156670333Y-102306476D01*
X156575095Y-102354095D01*
%TO.C,U2*%
X164338095Y-122261380D02*
X164338095Y-123070904D01*
X164385714Y-123166142D01*
X164433333Y-123213761D01*
X164528571Y-123261380D01*
X164719047Y-123261380D01*
X164814285Y-123213761D01*
X164861904Y-123166142D01*
X164909523Y-123070904D01*
X164909523Y-122261380D01*
X165338095Y-122356619D02*
X165385714Y-122309000D01*
X165480952Y-122261380D01*
X165719047Y-122261380D01*
X165814285Y-122309000D01*
X165861904Y-122356619D01*
X165909523Y-122451857D01*
X165909523Y-122547095D01*
X165861904Y-122689952D01*
X165290476Y-123261380D01*
X165909523Y-123261380D01*
%TO.C,U3*%
X169164095Y-119594380D02*
X169164095Y-120403904D01*
X169211714Y-120499142D01*
X169259333Y-120546761D01*
X169354571Y-120594380D01*
X169545047Y-120594380D01*
X169640285Y-120546761D01*
X169687904Y-120499142D01*
X169735523Y-120403904D01*
X169735523Y-119594380D01*
X170116476Y-119594380D02*
X170735523Y-119594380D01*
X170402190Y-119975333D01*
X170545047Y-119975333D01*
X170640285Y-120022952D01*
X170687904Y-120070571D01*
X170735523Y-120165809D01*
X170735523Y-120403904D01*
X170687904Y-120499142D01*
X170640285Y-120546761D01*
X170545047Y-120594380D01*
X170259333Y-120594380D01*
X170164095Y-120546761D01*
X170116476Y-120499142D01*
%TO.C,U4*%
X169037095Y-126833380D02*
X169037095Y-127642904D01*
X169084714Y-127738142D01*
X169132333Y-127785761D01*
X169227571Y-127833380D01*
X169418047Y-127833380D01*
X169513285Y-127785761D01*
X169560904Y-127738142D01*
X169608523Y-127642904D01*
X169608523Y-126833380D01*
X170513285Y-127166714D02*
X170513285Y-127833380D01*
X170275190Y-126785761D02*
X170037095Y-127500047D01*
X170656142Y-127500047D01*
%TO.C,Y1*%
X158780809Y-108190190D02*
X158780809Y-108666380D01*
X158447476Y-107666380D02*
X158780809Y-108190190D01*
X159114142Y-107666380D01*
X159971285Y-108666380D02*
X159399857Y-108666380D01*
X159685571Y-108666380D02*
X159685571Y-107666380D01*
X159590333Y-107809238D01*
X159495095Y-107904476D01*
X159399857Y-107952095D01*
%TD*%
M02*
