%TF.GenerationSoftware,KiCad,Pcbnew,5.1.6-c6e7f7d~87~ubuntu20.04.1*%
%TF.CreationDate,2020-11-01T20:39:10-05:00*%
%TF.ProjectId,STM32 Driver v1,53544d33-3220-4447-9269-766572207631,rev?*%
%TF.SameCoordinates,Original*%
%TF.FileFunction,Copper,L4,Bot*%
%TF.FilePolarity,Positive*%
%FSLAX46Y46*%
G04 Gerber Fmt 4.6, Leading zero omitted, Abs format (unit mm)*
G04 Created by KiCad (PCBNEW 5.1.6-c6e7f7d~87~ubuntu20.04.1) date 2020-11-01 20:39:10*
%MOMM*%
%LPD*%
G01*
G04 APERTURE LIST*
%TA.AperFunction,ComponentPad*%
%ADD10C,1.700000*%
%TD*%
%TA.AperFunction,ComponentPad*%
%ADD11R,2.600000X2.600000*%
%TD*%
%TA.AperFunction,ComponentPad*%
%ADD12C,2.600000*%
%TD*%
%TA.AperFunction,ComponentPad*%
%ADD13R,1.700000X1.700000*%
%TD*%
%TA.AperFunction,ComponentPad*%
%ADD14O,1.700000X1.700000*%
%TD*%
%TA.AperFunction,ViaPad*%
%ADD15C,0.800000*%
%TD*%
%TA.AperFunction,Conductor*%
%ADD16C,0.200000*%
%TD*%
%TA.AperFunction,Conductor*%
%ADD17C,0.254000*%
%TD*%
G04 APERTURE END LIST*
D10*
%TO.P,J3,16*%
%TO.N,GND*%
X185928000Y-131953000D03*
%TO.P,J3,14*%
%TO.N,LAT*%
X188468000Y-131953000D03*
%TO.P,J3,12*%
%TO.N,D*%
X191008000Y-131953000D03*
%TO.P,J3,10*%
%TO.N,B*%
X193548000Y-131953000D03*
%TO.P,J3,8*%
%TO.N,E*%
X196088000Y-131953000D03*
%TO.P,J3,6*%
%TO.N,G1*%
X198628000Y-131953000D03*
%TO.P,J3,4*%
%TO.N,GND*%
X201168000Y-131953000D03*
%TO.P,J3,2*%
%TO.N,G0*%
X203708000Y-131953000D03*
%TO.P,J3,15*%
%TO.N,~OE*%
X185928000Y-129413000D03*
%TO.P,J3,13*%
%TO.N,CLK*%
X188468000Y-129413000D03*
%TO.P,J3,11*%
%TO.N,C*%
X191008000Y-129413000D03*
%TO.P,J3,9*%
%TO.N,A*%
X193548000Y-129413000D03*
%TO.P,J3,7*%
%TO.N,B1*%
X196088000Y-129413000D03*
%TO.P,J3,5*%
%TO.N,R1*%
X198628000Y-129413000D03*
%TO.P,J3,3*%
%TO.N,B0*%
X201168000Y-129413000D03*
%TO.P,J3,1*%
%TO.N,R0*%
%TA.AperFunction,ComponentPad*%
G36*
G01*
X203108000Y-128563000D02*
X204308000Y-128563000D01*
G75*
G02*
X204558000Y-128813000I0J-250000D01*
G01*
X204558000Y-130013000D01*
G75*
G02*
X204308000Y-130263000I-250000J0D01*
G01*
X203108000Y-130263000D01*
G75*
G02*
X202858000Y-130013000I0J250000D01*
G01*
X202858000Y-128813000D01*
G75*
G02*
X203108000Y-128563000I250000J0D01*
G01*
G37*
%TD.AperFunction*%
%TD*%
D11*
%TO.P,J2,1*%
%TO.N,GND*%
X176276000Y-106172000D03*
D12*
%TO.P,J2,2*%
%TO.N,+5V*%
X171196000Y-106172000D03*
%TD*%
D13*
%TO.P,J4,1*%
%TO.N,LED_0*%
X184150000Y-109220000D03*
D14*
%TO.P,J4,2*%
%TO.N,LED_CLK*%
X184150000Y-106680000D03*
%TO.P,J4,3*%
%TO.N,LED_1*%
X186690000Y-109220000D03*
%TO.P,J4,4*%
%TO.N,LED_CLK*%
X186690000Y-106680000D03*
%TO.P,J4,5*%
%TO.N,LED_2*%
X189230000Y-109220000D03*
%TO.P,J4,6*%
%TO.N,LED_CLK*%
X189230000Y-106680000D03*
%TO.P,J4,7*%
%TO.N,LED_3*%
X191770000Y-109220000D03*
%TO.P,J4,8*%
%TO.N,LED_CLK*%
X191770000Y-106680000D03*
%TO.P,J4,9*%
%TO.N,LED_4*%
X194310000Y-109220000D03*
%TO.P,J4,10*%
%TO.N,LED_CLK*%
X194310000Y-106680000D03*
%TO.P,J4,11*%
%TO.N,LED_5*%
X196850000Y-109220000D03*
%TO.P,J4,12*%
%TO.N,LED_CLK*%
X196850000Y-106680000D03*
%TO.P,J4,13*%
%TO.N,LED_6*%
X199390000Y-109220000D03*
%TO.P,J4,14*%
%TO.N,LED_CLK*%
X199390000Y-106680000D03*
%TO.P,J4,15*%
%TO.N,LED_7*%
X201930000Y-109220000D03*
%TO.P,J4,16*%
%TO.N,LED_CLK*%
X201930000Y-106680000D03*
%TO.P,J4,17*%
%TO.N,LED_8*%
X204470000Y-109220000D03*
%TO.P,J4,18*%
%TO.N,LED_CLK*%
X204470000Y-106680000D03*
%TD*%
D13*
%TO.P,J5,1*%
%TO.N,GND*%
X143891000Y-123571000D03*
D14*
%TO.P,J5,2*%
%TO.N,SPI1_COPI*%
X143891000Y-121031000D03*
%TO.P,J5,3*%
%TO.N,SPI1_CIPO*%
X143891000Y-118491000D03*
%TO.P,J5,4*%
%TO.N,SPI1_SCK*%
X143891000Y-115951000D03*
%TO.P,J5,5*%
%TO.N,SPI1_NCS*%
X143891000Y-113411000D03*
%TD*%
D13*
%TO.P,J6,1*%
%TO.N,GND*%
X151257000Y-133477000D03*
D14*
%TO.P,J6,2*%
%TO.N,UART1_TX*%
X153797000Y-133477000D03*
%TO.P,J6,3*%
%TO.N,UART1_RX*%
X156337000Y-133477000D03*
%TD*%
D15*
%TO.N,GND*%
X171577000Y-133985000D03*
X172974000Y-125984000D03*
X172720000Y-118618000D03*
X175701883Y-113520982D03*
X176022000Y-120904000D03*
X176022000Y-128016000D03*
X181991000Y-120015000D03*
X182499000Y-112522000D03*
X152960565Y-112290173D03*
X164211000Y-112268000D03*
X154432000Y-110109000D03*
X155369748Y-118945556D03*
X153289000Y-119634000D03*
X152527000Y-129286000D03*
X164973000Y-129159000D03*
X161544000Y-119771056D03*
X166048317Y-117792638D03*
X148844000Y-117856000D03*
X148844000Y-104140000D03*
X153289000Y-102997000D03*
X161671000Y-102997000D03*
X157988000Y-102997000D03*
X156083000Y-104902000D03*
X156083000Y-107569000D03*
X144399000Y-128651000D03*
X147701000Y-128905000D03*
X159766000Y-132207000D03*
X149733000Y-128778000D03*
X145542000Y-128778000D03*
X182118000Y-127000000D03*
X143256000Y-108204000D03*
X149860000Y-110998000D03*
X162306000Y-114046000D03*
%TO.N,+3V3*%
X152146000Y-113538000D03*
X162179000Y-115570000D03*
X165100000Y-118110000D03*
X163068000Y-129921000D03*
X148844000Y-119380000D03*
X153289000Y-108458000D03*
X152527000Y-107442000D03*
X153365000Y-106629000D03*
X142748000Y-128270000D03*
X150749000Y-128143000D03*
%TO.N,+5V*%
X178816000Y-111887000D03*
X178982934Y-119322010D03*
X178459523Y-126810127D03*
%TO.N,SWDIO*%
X157480000Y-131826000D03*
X153035000Y-131826000D03*
%TO.N,SWCLK*%
X164338000Y-126756952D03*
X164084000Y-130937000D03*
%TO.N,~RESET*%
X148971000Y-132588000D03*
X156883969Y-115468838D03*
%TO.N,LED_0*%
X179705000Y-133223000D03*
%TO.N,LED_CLK*%
X178689000Y-132399990D03*
%TO.N,PC3*%
X163984585Y-117958147D03*
X157480000Y-119762855D03*
%TO.N,PC4*%
X168923586Y-116072010D03*
X158877000Y-120396000D03*
%TO.N,PC5*%
X169926000Y-116722010D03*
X159517192Y-121164231D03*
%TO.N,PB0*%
X161456298Y-122384089D03*
X170330930Y-120405952D03*
%TO.N,PB1*%
X161504077Y-123382959D03*
X169676564Y-121162146D03*
%TO.N,PB2*%
X161417000Y-124460000D03*
X168656000Y-121981990D03*
%TO.N,PB14*%
X155448000Y-129921000D03*
X161372855Y-134426111D03*
%TO.N,PC6*%
X154836751Y-126748640D03*
X168893327Y-117523337D03*
%TO.N,PC7*%
X155829333Y-126872451D03*
X169485666Y-118329040D03*
%TO.N,PC8*%
X156933091Y-127089141D03*
X162940503Y-133424164D03*
%TO.N,PC10*%
X170116500Y-131850010D03*
X165286516Y-126044515D03*
%TD*%
D16*
%TO.N,SWDIO*%
X157480000Y-131826000D02*
X153035000Y-131826000D01*
%TO.N,SWCLK*%
X164084000Y-127010952D02*
X164084000Y-130937000D01*
X164338000Y-126756952D02*
X164084000Y-127010952D01*
%TO.N,~RESET*%
X152190999Y-128585999D02*
X152863001Y-128585999D01*
X151826999Y-128949999D02*
X152190999Y-128585999D01*
X151826999Y-129622001D02*
X151826999Y-128949999D01*
X151881999Y-129677001D02*
X151826999Y-129622001D01*
X148971000Y-132588000D02*
X151881999Y-129677001D01*
X152863001Y-128585999D02*
X152863001Y-123107999D01*
X156883969Y-119087031D02*
X156883969Y-115468838D01*
X152863001Y-123107999D02*
X156883969Y-119087031D01*
%TO.N,LED_0*%
X179705000Y-133223000D02*
X181102000Y-131826000D01*
X181102000Y-112268000D02*
X184150000Y-109220000D01*
X181102000Y-131826000D02*
X181102000Y-112268000D01*
%TO.N,LED_CLK*%
X184150000Y-106680000D02*
X204470000Y-106680000D01*
X180594000Y-130494990D02*
X178689000Y-132399990D01*
X180594000Y-110236000D02*
X180594000Y-130494990D01*
X184150000Y-106680000D02*
X180594000Y-110236000D01*
%TO.N,PC3*%
X159372221Y-117958147D02*
X163984585Y-117958147D01*
X157480000Y-119762855D02*
X159372221Y-117958147D01*
%TO.N,PC4*%
X168788990Y-116072010D02*
X168923586Y-116072010D01*
X164389939Y-120471061D02*
X168788990Y-116072010D01*
X160953999Y-120471061D02*
X164389939Y-120471061D01*
X160878938Y-120396000D02*
X160953999Y-120471061D01*
X158877000Y-120396000D02*
X160878938Y-120396000D01*
%TO.N,PC5*%
X160788310Y-120871066D02*
X160713255Y-120796011D01*
X160713255Y-120796011D02*
X159885412Y-120796011D01*
X159885412Y-120796011D02*
X159517192Y-121164231D01*
X169926000Y-116722010D02*
X169875998Y-116772012D01*
X169875998Y-116772012D02*
X168654688Y-116772012D01*
X168654688Y-116772012D02*
X164555634Y-120871066D01*
X164555634Y-120871066D02*
X160788310Y-120871066D01*
%TO.N,PB0*%
X164739711Y-122384089D02*
X166717848Y-120405952D01*
X161456298Y-122384089D02*
X164739711Y-122384089D01*
X166717848Y-120405952D02*
X170330930Y-120405952D01*
%TO.N,PB1*%
X161504077Y-123382959D02*
X164306541Y-123382959D01*
X164306541Y-123382959D02*
X166527354Y-121162146D01*
X166527354Y-121162146D02*
X169676564Y-121162146D01*
%TO.N,PB2*%
X166177990Y-124460000D02*
X168656000Y-121981990D01*
X161417000Y-124460000D02*
X166177990Y-124460000D01*
%TO.N,PB14*%
X155448000Y-129921000D02*
X156867744Y-129921000D01*
X159065999Y-132119255D02*
X159065999Y-132684940D01*
X156867744Y-129921000D02*
X159065999Y-132119255D01*
X159065999Y-132684940D02*
X160807170Y-134426111D01*
X160807170Y-134426111D02*
X161372855Y-134426111D01*
%TO.N,PC6*%
X154836751Y-126748640D02*
X160522018Y-121196022D01*
X160597065Y-121271069D02*
X164721331Y-121271069D01*
X160522018Y-121196022D02*
X160597065Y-121271069D01*
X164721331Y-121271069D02*
X168469063Y-117523337D01*
X168469063Y-117523337D02*
X168893327Y-117523337D01*
%TO.N,PC7*%
X161030709Y-121671075D02*
X164887025Y-121671075D01*
X168229060Y-118329040D02*
X169485666Y-118329040D01*
X164887025Y-121671075D02*
X168229060Y-118329040D01*
X155829333Y-126872451D02*
X161030709Y-121671075D01*
%TO.N,PC8*%
X156933091Y-127089141D02*
X162940503Y-133096553D01*
X162940503Y-133096553D02*
X162940503Y-133424164D01*
%TO.N,PC10*%
X170116500Y-131850010D02*
X165286516Y-127020026D01*
X165286516Y-127020026D02*
X165286516Y-126044515D01*
%TD*%
D17*
%TO.N,GND*%
G36*
X208807197Y-102265047D02*
G01*
X208825662Y-102270622D01*
X208842694Y-102279678D01*
X208857643Y-102291870D01*
X208869938Y-102306732D01*
X208879111Y-102323696D01*
X208884817Y-102342129D01*
X208890000Y-102391446D01*
X208890001Y-135095712D01*
X208884953Y-135147195D01*
X208879377Y-135165663D01*
X208870322Y-135182693D01*
X208858129Y-135197643D01*
X208843266Y-135209939D01*
X208826303Y-135219111D01*
X208807871Y-135224817D01*
X208758554Y-135230000D01*
X162032677Y-135230000D01*
X162176792Y-135085885D01*
X162290060Y-134916367D01*
X162368081Y-134728009D01*
X162407855Y-134528050D01*
X162407855Y-134324172D01*
X162405302Y-134311338D01*
X162450247Y-134341369D01*
X162638605Y-134419390D01*
X162838564Y-134459164D01*
X163042442Y-134459164D01*
X163242401Y-134419390D01*
X163430759Y-134341369D01*
X163600277Y-134228101D01*
X163744440Y-134083938D01*
X163857708Y-133914420D01*
X163935729Y-133726062D01*
X163975503Y-133526103D01*
X163975503Y-133322225D01*
X163935729Y-133122266D01*
X163857708Y-132933908D01*
X163744440Y-132764390D01*
X163600277Y-132620227D01*
X163430759Y-132506959D01*
X163361786Y-132478389D01*
X157968091Y-127084695D01*
X157968091Y-126987202D01*
X157928317Y-126787243D01*
X157850296Y-126598885D01*
X157737028Y-126429367D01*
X157592865Y-126285204D01*
X157510836Y-126230394D01*
X160471278Y-123269952D01*
X160469077Y-123281020D01*
X160469077Y-123484898D01*
X160508851Y-123684857D01*
X160578232Y-123852355D01*
X160499795Y-123969744D01*
X160421774Y-124158102D01*
X160382000Y-124358061D01*
X160382000Y-124561939D01*
X160421774Y-124761898D01*
X160499795Y-124950256D01*
X160613063Y-125119774D01*
X160757226Y-125263937D01*
X160926744Y-125377205D01*
X161115102Y-125455226D01*
X161315061Y-125495000D01*
X161518939Y-125495000D01*
X161718898Y-125455226D01*
X161907256Y-125377205D01*
X162076774Y-125263937D01*
X162145711Y-125195000D01*
X164694954Y-125195000D01*
X164626742Y-125240578D01*
X164482579Y-125384741D01*
X164369311Y-125554259D01*
X164299850Y-125721952D01*
X164236061Y-125721952D01*
X164036102Y-125761726D01*
X163847744Y-125839747D01*
X163678226Y-125953015D01*
X163534063Y-126097178D01*
X163420795Y-126266696D01*
X163342774Y-126455054D01*
X163303000Y-126655013D01*
X163303000Y-126858891D01*
X163342774Y-127058850D01*
X163349000Y-127073881D01*
X163349000Y-128921617D01*
X163169939Y-128886000D01*
X162966061Y-128886000D01*
X162766102Y-128925774D01*
X162577744Y-129003795D01*
X162408226Y-129117063D01*
X162264063Y-129261226D01*
X162150795Y-129430744D01*
X162072774Y-129619102D01*
X162033000Y-129819061D01*
X162033000Y-130022939D01*
X162072774Y-130222898D01*
X162150795Y-130411256D01*
X162264063Y-130580774D01*
X162408226Y-130724937D01*
X162577744Y-130838205D01*
X162766102Y-130916226D01*
X162966061Y-130956000D01*
X163049000Y-130956000D01*
X163049000Y-131038939D01*
X163088774Y-131238898D01*
X163166795Y-131427256D01*
X163280063Y-131596774D01*
X163424226Y-131740937D01*
X163593744Y-131854205D01*
X163782102Y-131932226D01*
X163982061Y-131972000D01*
X164185939Y-131972000D01*
X164385898Y-131932226D01*
X164574256Y-131854205D01*
X164743774Y-131740937D01*
X164887937Y-131596774D01*
X165001205Y-131427256D01*
X165079226Y-131238898D01*
X165119000Y-131038939D01*
X165119000Y-130835061D01*
X165079226Y-130635102D01*
X165001205Y-130446744D01*
X164887937Y-130277226D01*
X164819000Y-130208289D01*
X164819000Y-127677991D01*
X164828256Y-127674157D01*
X164871983Y-127644939D01*
X169081500Y-131854457D01*
X169081500Y-131951949D01*
X169121274Y-132151908D01*
X169199295Y-132340266D01*
X169312563Y-132509784D01*
X169456726Y-132653947D01*
X169626244Y-132767215D01*
X169814602Y-132845236D01*
X170014561Y-132885010D01*
X170218439Y-132885010D01*
X170418398Y-132845236D01*
X170606756Y-132767215D01*
X170776274Y-132653947D01*
X170920437Y-132509784D01*
X171033705Y-132340266D01*
X171051191Y-132298051D01*
X177654000Y-132298051D01*
X177654000Y-132501929D01*
X177693774Y-132701888D01*
X177771795Y-132890246D01*
X177885063Y-133059764D01*
X178029226Y-133203927D01*
X178198744Y-133317195D01*
X178387102Y-133395216D01*
X178587061Y-133434990D01*
X178691890Y-133434990D01*
X178709774Y-133524898D01*
X178787795Y-133713256D01*
X178901063Y-133882774D01*
X179045226Y-134026937D01*
X179214744Y-134140205D01*
X179403102Y-134218226D01*
X179603061Y-134258000D01*
X179806939Y-134258000D01*
X180006898Y-134218226D01*
X180195256Y-134140205D01*
X180364774Y-134026937D01*
X180508937Y-133882774D01*
X180622205Y-133713256D01*
X180700226Y-133524898D01*
X180740000Y-133324939D01*
X180740000Y-133227446D01*
X180986049Y-132981397D01*
X185079208Y-132981397D01*
X185156843Y-133230472D01*
X185420883Y-133356371D01*
X185704411Y-133428339D01*
X185996531Y-133443611D01*
X186286019Y-133401599D01*
X186561747Y-133303919D01*
X186699157Y-133230472D01*
X186776792Y-132981397D01*
X185928000Y-132132605D01*
X185079208Y-132981397D01*
X180986049Y-132981397D01*
X181596197Y-132371250D01*
X181624237Y-132348238D01*
X181647250Y-132320197D01*
X181647253Y-132320194D01*
X181716086Y-132236321D01*
X181716087Y-132236320D01*
X181784337Y-132108633D01*
X181810759Y-132021531D01*
X184437389Y-132021531D01*
X184479401Y-132311019D01*
X184577081Y-132586747D01*
X184650528Y-132724157D01*
X184899603Y-132801792D01*
X185748395Y-131953000D01*
X184899603Y-131104208D01*
X184650528Y-131181843D01*
X184524629Y-131445883D01*
X184452661Y-131729411D01*
X184437389Y-132021531D01*
X181810759Y-132021531D01*
X181826365Y-131970085D01*
X181837000Y-131862105D01*
X181837000Y-131862096D01*
X181840555Y-131826001D01*
X181837000Y-131789906D01*
X181837000Y-129266740D01*
X184443000Y-129266740D01*
X184443000Y-129559260D01*
X184500068Y-129846158D01*
X184612010Y-130116411D01*
X184774525Y-130359632D01*
X184981368Y-130566475D01*
X185154729Y-130682311D01*
X185079208Y-130924603D01*
X185928000Y-131773395D01*
X186776792Y-130924603D01*
X186701271Y-130682311D01*
X186874632Y-130566475D01*
X187081475Y-130359632D01*
X187198000Y-130185240D01*
X187314525Y-130359632D01*
X187521368Y-130566475D01*
X187695760Y-130683000D01*
X187521368Y-130799525D01*
X187314525Y-131006368D01*
X187198689Y-131179729D01*
X186956397Y-131104208D01*
X186107605Y-131953000D01*
X186956397Y-132801792D01*
X187198689Y-132726271D01*
X187314525Y-132899632D01*
X187521368Y-133106475D01*
X187764589Y-133268990D01*
X188034842Y-133380932D01*
X188321740Y-133438000D01*
X188614260Y-133438000D01*
X188901158Y-133380932D01*
X189171411Y-133268990D01*
X189414632Y-133106475D01*
X189621475Y-132899632D01*
X189738000Y-132725240D01*
X189854525Y-132899632D01*
X190061368Y-133106475D01*
X190304589Y-133268990D01*
X190574842Y-133380932D01*
X190861740Y-133438000D01*
X191154260Y-133438000D01*
X191441158Y-133380932D01*
X191711411Y-133268990D01*
X191954632Y-133106475D01*
X192161475Y-132899632D01*
X192278000Y-132725240D01*
X192394525Y-132899632D01*
X192601368Y-133106475D01*
X192844589Y-133268990D01*
X193114842Y-133380932D01*
X193401740Y-133438000D01*
X193694260Y-133438000D01*
X193981158Y-133380932D01*
X194251411Y-133268990D01*
X194494632Y-133106475D01*
X194701475Y-132899632D01*
X194818000Y-132725240D01*
X194934525Y-132899632D01*
X195141368Y-133106475D01*
X195384589Y-133268990D01*
X195654842Y-133380932D01*
X195941740Y-133438000D01*
X196234260Y-133438000D01*
X196521158Y-133380932D01*
X196791411Y-133268990D01*
X197034632Y-133106475D01*
X197241475Y-132899632D01*
X197358000Y-132725240D01*
X197474525Y-132899632D01*
X197681368Y-133106475D01*
X197924589Y-133268990D01*
X198194842Y-133380932D01*
X198481740Y-133438000D01*
X198774260Y-133438000D01*
X199061158Y-133380932D01*
X199331411Y-133268990D01*
X199574632Y-133106475D01*
X199699710Y-132981397D01*
X200319208Y-132981397D01*
X200396843Y-133230472D01*
X200660883Y-133356371D01*
X200944411Y-133428339D01*
X201236531Y-133443611D01*
X201526019Y-133401599D01*
X201801747Y-133303919D01*
X201939157Y-133230472D01*
X202016792Y-132981397D01*
X201168000Y-132132605D01*
X200319208Y-132981397D01*
X199699710Y-132981397D01*
X199781475Y-132899632D01*
X199897311Y-132726271D01*
X200139603Y-132801792D01*
X200988395Y-131953000D01*
X200139603Y-131104208D01*
X199897311Y-131179729D01*
X199781475Y-131006368D01*
X199574632Y-130799525D01*
X199400240Y-130683000D01*
X199574632Y-130566475D01*
X199781475Y-130359632D01*
X199898000Y-130185240D01*
X200014525Y-130359632D01*
X200221368Y-130566475D01*
X200394729Y-130682311D01*
X200319208Y-130924603D01*
X201168000Y-131773395D01*
X202016792Y-130924603D01*
X201941271Y-130682311D01*
X202114632Y-130566475D01*
X202301715Y-130379392D01*
X202369595Y-130506386D01*
X202480038Y-130640962D01*
X202614614Y-130751405D01*
X202741608Y-130819285D01*
X202554525Y-131006368D01*
X202438689Y-131179729D01*
X202196397Y-131104208D01*
X201347605Y-131953000D01*
X202196397Y-132801792D01*
X202438689Y-132726271D01*
X202554525Y-132899632D01*
X202761368Y-133106475D01*
X203004589Y-133268990D01*
X203274842Y-133380932D01*
X203561740Y-133438000D01*
X203854260Y-133438000D01*
X204141158Y-133380932D01*
X204411411Y-133268990D01*
X204654632Y-133106475D01*
X204861475Y-132899632D01*
X205023990Y-132656411D01*
X205135932Y-132386158D01*
X205193000Y-132099260D01*
X205193000Y-131806740D01*
X205135932Y-131519842D01*
X205023990Y-131249589D01*
X204861475Y-131006368D01*
X204674392Y-130819285D01*
X204801386Y-130751405D01*
X204935962Y-130640962D01*
X205046405Y-130506386D01*
X205128472Y-130352850D01*
X205179008Y-130186254D01*
X205196072Y-130013000D01*
X205196072Y-128813000D01*
X205179008Y-128639746D01*
X205128472Y-128473150D01*
X205046405Y-128319614D01*
X204935962Y-128185038D01*
X204801386Y-128074595D01*
X204647850Y-127992528D01*
X204481254Y-127941992D01*
X204308000Y-127924928D01*
X203108000Y-127924928D01*
X202934746Y-127941992D01*
X202768150Y-127992528D01*
X202614614Y-128074595D01*
X202480038Y-128185038D01*
X202369595Y-128319614D01*
X202301715Y-128446608D01*
X202114632Y-128259525D01*
X201871411Y-128097010D01*
X201601158Y-127985068D01*
X201314260Y-127928000D01*
X201021740Y-127928000D01*
X200734842Y-127985068D01*
X200464589Y-128097010D01*
X200221368Y-128259525D01*
X200014525Y-128466368D01*
X199898000Y-128640760D01*
X199781475Y-128466368D01*
X199574632Y-128259525D01*
X199331411Y-128097010D01*
X199061158Y-127985068D01*
X198774260Y-127928000D01*
X198481740Y-127928000D01*
X198194842Y-127985068D01*
X197924589Y-128097010D01*
X197681368Y-128259525D01*
X197474525Y-128466368D01*
X197358000Y-128640760D01*
X197241475Y-128466368D01*
X197034632Y-128259525D01*
X196791411Y-128097010D01*
X196521158Y-127985068D01*
X196234260Y-127928000D01*
X195941740Y-127928000D01*
X195654842Y-127985068D01*
X195384589Y-128097010D01*
X195141368Y-128259525D01*
X194934525Y-128466368D01*
X194818000Y-128640760D01*
X194701475Y-128466368D01*
X194494632Y-128259525D01*
X194251411Y-128097010D01*
X193981158Y-127985068D01*
X193694260Y-127928000D01*
X193401740Y-127928000D01*
X193114842Y-127985068D01*
X192844589Y-128097010D01*
X192601368Y-128259525D01*
X192394525Y-128466368D01*
X192278000Y-128640760D01*
X192161475Y-128466368D01*
X191954632Y-128259525D01*
X191711411Y-128097010D01*
X191441158Y-127985068D01*
X191154260Y-127928000D01*
X190861740Y-127928000D01*
X190574842Y-127985068D01*
X190304589Y-128097010D01*
X190061368Y-128259525D01*
X189854525Y-128466368D01*
X189738000Y-128640760D01*
X189621475Y-128466368D01*
X189414632Y-128259525D01*
X189171411Y-128097010D01*
X188901158Y-127985068D01*
X188614260Y-127928000D01*
X188321740Y-127928000D01*
X188034842Y-127985068D01*
X187764589Y-128097010D01*
X187521368Y-128259525D01*
X187314525Y-128466368D01*
X187198000Y-128640760D01*
X187081475Y-128466368D01*
X186874632Y-128259525D01*
X186631411Y-128097010D01*
X186361158Y-127985068D01*
X186074260Y-127928000D01*
X185781740Y-127928000D01*
X185494842Y-127985068D01*
X185224589Y-128097010D01*
X184981368Y-128259525D01*
X184774525Y-128466368D01*
X184612010Y-128709589D01*
X184500068Y-128979842D01*
X184443000Y-129266740D01*
X181837000Y-129266740D01*
X181837000Y-117381872D01*
X200965000Y-117381872D01*
X200965000Y-117822128D01*
X201050890Y-118253925D01*
X201219369Y-118660669D01*
X201463962Y-119026729D01*
X201775271Y-119338038D01*
X202141331Y-119582631D01*
X202548075Y-119751110D01*
X202979872Y-119837000D01*
X203420128Y-119837000D01*
X203851925Y-119751110D01*
X204258669Y-119582631D01*
X204624729Y-119338038D01*
X204936038Y-119026729D01*
X205180631Y-118660669D01*
X205349110Y-118253925D01*
X205435000Y-117822128D01*
X205435000Y-117381872D01*
X205349110Y-116950075D01*
X205180631Y-116543331D01*
X204936038Y-116177271D01*
X204624729Y-115865962D01*
X204258669Y-115621369D01*
X203851925Y-115452890D01*
X203420128Y-115367000D01*
X202979872Y-115367000D01*
X202548075Y-115452890D01*
X202141331Y-115621369D01*
X201775271Y-115865962D01*
X201463962Y-116177271D01*
X201219369Y-116543331D01*
X201050890Y-116950075D01*
X200965000Y-117381872D01*
X181837000Y-117381872D01*
X181837000Y-112572446D01*
X183701375Y-110708072D01*
X185000000Y-110708072D01*
X185124482Y-110695812D01*
X185244180Y-110659502D01*
X185354494Y-110600537D01*
X185451185Y-110521185D01*
X185530537Y-110424494D01*
X185589502Y-110314180D01*
X185611513Y-110241620D01*
X185743368Y-110373475D01*
X185986589Y-110535990D01*
X186256842Y-110647932D01*
X186543740Y-110705000D01*
X186836260Y-110705000D01*
X187123158Y-110647932D01*
X187393411Y-110535990D01*
X187636632Y-110373475D01*
X187843475Y-110166632D01*
X187960000Y-109992240D01*
X188076525Y-110166632D01*
X188283368Y-110373475D01*
X188526589Y-110535990D01*
X188796842Y-110647932D01*
X189083740Y-110705000D01*
X189376260Y-110705000D01*
X189663158Y-110647932D01*
X189933411Y-110535990D01*
X190176632Y-110373475D01*
X190383475Y-110166632D01*
X190500000Y-109992240D01*
X190616525Y-110166632D01*
X190823368Y-110373475D01*
X191066589Y-110535990D01*
X191336842Y-110647932D01*
X191623740Y-110705000D01*
X191916260Y-110705000D01*
X192203158Y-110647932D01*
X192473411Y-110535990D01*
X192716632Y-110373475D01*
X192923475Y-110166632D01*
X193040000Y-109992240D01*
X193156525Y-110166632D01*
X193363368Y-110373475D01*
X193606589Y-110535990D01*
X193876842Y-110647932D01*
X194163740Y-110705000D01*
X194456260Y-110705000D01*
X194743158Y-110647932D01*
X195013411Y-110535990D01*
X195256632Y-110373475D01*
X195463475Y-110166632D01*
X195580000Y-109992240D01*
X195696525Y-110166632D01*
X195903368Y-110373475D01*
X196146589Y-110535990D01*
X196416842Y-110647932D01*
X196703740Y-110705000D01*
X196996260Y-110705000D01*
X197283158Y-110647932D01*
X197553411Y-110535990D01*
X197796632Y-110373475D01*
X198003475Y-110166632D01*
X198120000Y-109992240D01*
X198236525Y-110166632D01*
X198443368Y-110373475D01*
X198686589Y-110535990D01*
X198956842Y-110647932D01*
X199243740Y-110705000D01*
X199536260Y-110705000D01*
X199823158Y-110647932D01*
X200093411Y-110535990D01*
X200336632Y-110373475D01*
X200543475Y-110166632D01*
X200660000Y-109992240D01*
X200776525Y-110166632D01*
X200983368Y-110373475D01*
X201226589Y-110535990D01*
X201496842Y-110647932D01*
X201783740Y-110705000D01*
X202076260Y-110705000D01*
X202363158Y-110647932D01*
X202633411Y-110535990D01*
X202876632Y-110373475D01*
X203083475Y-110166632D01*
X203200000Y-109992240D01*
X203316525Y-110166632D01*
X203523368Y-110373475D01*
X203766589Y-110535990D01*
X204036842Y-110647932D01*
X204323740Y-110705000D01*
X204616260Y-110705000D01*
X204903158Y-110647932D01*
X205173411Y-110535990D01*
X205416632Y-110373475D01*
X205623475Y-110166632D01*
X205785990Y-109923411D01*
X205897932Y-109653158D01*
X205955000Y-109366260D01*
X205955000Y-109073740D01*
X205897932Y-108786842D01*
X205785990Y-108516589D01*
X205623475Y-108273368D01*
X205416632Y-108066525D01*
X205242240Y-107950000D01*
X205416632Y-107833475D01*
X205623475Y-107626632D01*
X205785990Y-107383411D01*
X205897932Y-107113158D01*
X205955000Y-106826260D01*
X205955000Y-106533740D01*
X205897932Y-106246842D01*
X205785990Y-105976589D01*
X205623475Y-105733368D01*
X205416632Y-105526525D01*
X205173411Y-105364010D01*
X204903158Y-105252068D01*
X204616260Y-105195000D01*
X204323740Y-105195000D01*
X204036842Y-105252068D01*
X203766589Y-105364010D01*
X203523368Y-105526525D01*
X203316525Y-105733368D01*
X203200000Y-105907760D01*
X203083475Y-105733368D01*
X202876632Y-105526525D01*
X202633411Y-105364010D01*
X202363158Y-105252068D01*
X202076260Y-105195000D01*
X201783740Y-105195000D01*
X201496842Y-105252068D01*
X201226589Y-105364010D01*
X200983368Y-105526525D01*
X200776525Y-105733368D01*
X200660000Y-105907760D01*
X200543475Y-105733368D01*
X200336632Y-105526525D01*
X200093411Y-105364010D01*
X199823158Y-105252068D01*
X199536260Y-105195000D01*
X199243740Y-105195000D01*
X198956842Y-105252068D01*
X198686589Y-105364010D01*
X198443368Y-105526525D01*
X198236525Y-105733368D01*
X198120000Y-105907760D01*
X198003475Y-105733368D01*
X197796632Y-105526525D01*
X197553411Y-105364010D01*
X197283158Y-105252068D01*
X196996260Y-105195000D01*
X196703740Y-105195000D01*
X196416842Y-105252068D01*
X196146589Y-105364010D01*
X195903368Y-105526525D01*
X195696525Y-105733368D01*
X195580000Y-105907760D01*
X195463475Y-105733368D01*
X195256632Y-105526525D01*
X195013411Y-105364010D01*
X194743158Y-105252068D01*
X194456260Y-105195000D01*
X194163740Y-105195000D01*
X193876842Y-105252068D01*
X193606589Y-105364010D01*
X193363368Y-105526525D01*
X193156525Y-105733368D01*
X193040000Y-105907760D01*
X192923475Y-105733368D01*
X192716632Y-105526525D01*
X192473411Y-105364010D01*
X192203158Y-105252068D01*
X191916260Y-105195000D01*
X191623740Y-105195000D01*
X191336842Y-105252068D01*
X191066589Y-105364010D01*
X190823368Y-105526525D01*
X190616525Y-105733368D01*
X190500000Y-105907760D01*
X190383475Y-105733368D01*
X190176632Y-105526525D01*
X189933411Y-105364010D01*
X189663158Y-105252068D01*
X189376260Y-105195000D01*
X189083740Y-105195000D01*
X188796842Y-105252068D01*
X188526589Y-105364010D01*
X188283368Y-105526525D01*
X188076525Y-105733368D01*
X187960000Y-105907760D01*
X187843475Y-105733368D01*
X187636632Y-105526525D01*
X187393411Y-105364010D01*
X187123158Y-105252068D01*
X186836260Y-105195000D01*
X186543740Y-105195000D01*
X186256842Y-105252068D01*
X185986589Y-105364010D01*
X185743368Y-105526525D01*
X185536525Y-105733368D01*
X185420000Y-105907760D01*
X185303475Y-105733368D01*
X185096632Y-105526525D01*
X184853411Y-105364010D01*
X184583158Y-105252068D01*
X184296260Y-105195000D01*
X184003740Y-105195000D01*
X183716842Y-105252068D01*
X183446589Y-105364010D01*
X183203368Y-105526525D01*
X182996525Y-105733368D01*
X182834010Y-105976589D01*
X182722068Y-106246842D01*
X182665000Y-106533740D01*
X182665000Y-106826260D01*
X182714656Y-107075897D01*
X180099808Y-109690746D01*
X180071762Y-109713763D01*
X179979913Y-109825681D01*
X179911663Y-109953368D01*
X179882384Y-110049887D01*
X179869635Y-110091915D01*
X179855444Y-110236000D01*
X179859000Y-110272105D01*
X179859000Y-118770186D01*
X179786871Y-118662236D01*
X179642708Y-118518073D01*
X179473190Y-118404805D01*
X179284832Y-118326784D01*
X179084873Y-118287010D01*
X178880995Y-118287010D01*
X178681036Y-118326784D01*
X178492678Y-118404805D01*
X178323160Y-118518073D01*
X178178997Y-118662236D01*
X178065729Y-118831754D01*
X177987708Y-119020112D01*
X177947934Y-119220071D01*
X177947934Y-119423949D01*
X177987708Y-119623908D01*
X178065729Y-119812266D01*
X178178997Y-119981784D01*
X178323160Y-120125947D01*
X178492678Y-120239215D01*
X178681036Y-120317236D01*
X178880995Y-120357010D01*
X179084873Y-120357010D01*
X179284832Y-120317236D01*
X179473190Y-120239215D01*
X179642708Y-120125947D01*
X179786871Y-119981784D01*
X179859000Y-119873834D01*
X179859001Y-130190542D01*
X178684554Y-131364990D01*
X178587061Y-131364990D01*
X178387102Y-131404764D01*
X178198744Y-131482785D01*
X178029226Y-131596053D01*
X177885063Y-131740216D01*
X177771795Y-131909734D01*
X177693774Y-132098092D01*
X177654000Y-132298051D01*
X171051191Y-132298051D01*
X171111726Y-132151908D01*
X171151500Y-131951949D01*
X171151500Y-131748071D01*
X171111726Y-131548112D01*
X171033705Y-131359754D01*
X170920437Y-131190236D01*
X170776274Y-131046073D01*
X170606756Y-130932805D01*
X170418398Y-130854784D01*
X170218439Y-130815010D01*
X170120947Y-130815010D01*
X166050339Y-126744403D01*
X166086554Y-126708188D01*
X177424523Y-126708188D01*
X177424523Y-126912066D01*
X177464297Y-127112025D01*
X177542318Y-127300383D01*
X177655586Y-127469901D01*
X177799749Y-127614064D01*
X177969267Y-127727332D01*
X178157625Y-127805353D01*
X178357584Y-127845127D01*
X178561462Y-127845127D01*
X178761421Y-127805353D01*
X178949779Y-127727332D01*
X179119297Y-127614064D01*
X179263460Y-127469901D01*
X179376728Y-127300383D01*
X179454749Y-127112025D01*
X179494523Y-126912066D01*
X179494523Y-126708188D01*
X179454749Y-126508229D01*
X179376728Y-126319871D01*
X179263460Y-126150353D01*
X179119297Y-126006190D01*
X178949779Y-125892922D01*
X178761421Y-125814901D01*
X178561462Y-125775127D01*
X178357584Y-125775127D01*
X178157625Y-125814901D01*
X177969267Y-125892922D01*
X177799749Y-126006190D01*
X177655586Y-126150353D01*
X177542318Y-126319871D01*
X177464297Y-126508229D01*
X177424523Y-126708188D01*
X166086554Y-126708188D01*
X166090453Y-126704289D01*
X166203721Y-126534771D01*
X166281742Y-126346413D01*
X166321516Y-126146454D01*
X166321516Y-125942576D01*
X166281742Y-125742617D01*
X166203721Y-125554259D01*
X166090453Y-125384741D01*
X165946290Y-125240578D01*
X165878078Y-125195000D01*
X166141885Y-125195000D01*
X166177990Y-125198556D01*
X166214095Y-125195000D01*
X166322075Y-125184365D01*
X166460623Y-125142337D01*
X166588310Y-125074087D01*
X166700228Y-124982238D01*
X166723249Y-124954188D01*
X168660447Y-123016990D01*
X168757939Y-123016990D01*
X168957898Y-122977216D01*
X169146256Y-122899195D01*
X169315774Y-122785927D01*
X169459937Y-122641764D01*
X169573205Y-122472246D01*
X169651226Y-122283888D01*
X169668480Y-122197146D01*
X169778503Y-122197146D01*
X169978462Y-122157372D01*
X170166820Y-122079351D01*
X170336338Y-121966083D01*
X170480501Y-121821920D01*
X170593769Y-121652402D01*
X170671790Y-121464044D01*
X170688916Y-121377945D01*
X170821186Y-121323157D01*
X170990704Y-121209889D01*
X171134867Y-121065726D01*
X171248135Y-120896208D01*
X171326156Y-120707850D01*
X171365930Y-120507891D01*
X171365930Y-120304013D01*
X171326156Y-120104054D01*
X171248135Y-119915696D01*
X171134867Y-119746178D01*
X170990704Y-119602015D01*
X170821186Y-119488747D01*
X170632828Y-119410726D01*
X170432869Y-119370952D01*
X170228991Y-119370952D01*
X170029032Y-119410726D01*
X169840674Y-119488747D01*
X169671156Y-119602015D01*
X169602219Y-119670952D01*
X167926595Y-119670952D01*
X168533507Y-119064040D01*
X168756955Y-119064040D01*
X168825892Y-119132977D01*
X168995410Y-119246245D01*
X169183768Y-119324266D01*
X169383727Y-119364040D01*
X169587605Y-119364040D01*
X169787564Y-119324266D01*
X169975922Y-119246245D01*
X170145440Y-119132977D01*
X170289603Y-118988814D01*
X170402871Y-118819296D01*
X170480892Y-118630938D01*
X170520666Y-118430979D01*
X170520666Y-118227101D01*
X170480892Y-118027142D01*
X170402871Y-117838784D01*
X170301331Y-117686819D01*
X170416256Y-117639215D01*
X170585774Y-117525947D01*
X170729937Y-117381784D01*
X170843205Y-117212266D01*
X170921226Y-117023908D01*
X170961000Y-116823949D01*
X170961000Y-116620071D01*
X170921226Y-116420112D01*
X170843205Y-116231754D01*
X170729937Y-116062236D01*
X170585774Y-115918073D01*
X170416256Y-115804805D01*
X170227898Y-115726784D01*
X170027939Y-115687010D01*
X169884390Y-115687010D01*
X169840791Y-115581754D01*
X169727523Y-115412236D01*
X169583360Y-115268073D01*
X169413842Y-115154805D01*
X169225484Y-115076784D01*
X169025525Y-115037010D01*
X168821647Y-115037010D01*
X168621688Y-115076784D01*
X168433330Y-115154805D01*
X168263812Y-115268073D01*
X168119649Y-115412236D01*
X168006381Y-115581754D01*
X167928360Y-115770112D01*
X167897799Y-115923754D01*
X166071275Y-117750279D01*
X166017205Y-117619744D01*
X165903937Y-117450226D01*
X165759774Y-117306063D01*
X165590256Y-117192795D01*
X165401898Y-117114774D01*
X165201939Y-117075000D01*
X164998061Y-117075000D01*
X164798102Y-117114774D01*
X164661504Y-117171355D01*
X164644359Y-117154210D01*
X164474841Y-117040942D01*
X164286483Y-116962921D01*
X164086524Y-116923147D01*
X163882646Y-116923147D01*
X163682687Y-116962921D01*
X163494329Y-117040942D01*
X163324811Y-117154210D01*
X163255874Y-117223147D01*
X159417049Y-117223147D01*
X159389699Y-117219798D01*
X159344832Y-117223147D01*
X159336116Y-117223147D01*
X159308835Y-117225834D01*
X159245318Y-117230575D01*
X159236865Y-117232922D01*
X159228136Y-117233782D01*
X159167184Y-117252271D01*
X159105814Y-117269313D01*
X159097983Y-117273263D01*
X159089588Y-117275810D01*
X159033413Y-117305836D01*
X158976548Y-117334522D01*
X158969637Y-117339925D01*
X158961901Y-117344060D01*
X158912670Y-117384463D01*
X158891069Y-117401351D01*
X158884760Y-117407368D01*
X158849983Y-117435909D01*
X158832503Y-117457209D01*
X157618969Y-118614619D01*
X157618969Y-116197549D01*
X157687906Y-116128612D01*
X157801174Y-115959094D01*
X157879195Y-115770736D01*
X157918969Y-115570777D01*
X157918969Y-115468061D01*
X161144000Y-115468061D01*
X161144000Y-115671939D01*
X161183774Y-115871898D01*
X161261795Y-116060256D01*
X161375063Y-116229774D01*
X161519226Y-116373937D01*
X161688744Y-116487205D01*
X161877102Y-116565226D01*
X162077061Y-116605000D01*
X162280939Y-116605000D01*
X162480898Y-116565226D01*
X162669256Y-116487205D01*
X162838774Y-116373937D01*
X162982937Y-116229774D01*
X163096205Y-116060256D01*
X163174226Y-115871898D01*
X163214000Y-115671939D01*
X163214000Y-115468061D01*
X163174226Y-115268102D01*
X163096205Y-115079744D01*
X162982937Y-114910226D01*
X162838774Y-114766063D01*
X162669256Y-114652795D01*
X162480898Y-114574774D01*
X162280939Y-114535000D01*
X162077061Y-114535000D01*
X161877102Y-114574774D01*
X161688744Y-114652795D01*
X161519226Y-114766063D01*
X161375063Y-114910226D01*
X161261795Y-115079744D01*
X161183774Y-115268102D01*
X161144000Y-115468061D01*
X157918969Y-115468061D01*
X157918969Y-115366899D01*
X157879195Y-115166940D01*
X157801174Y-114978582D01*
X157687906Y-114809064D01*
X157543743Y-114664901D01*
X157374225Y-114551633D01*
X157185867Y-114473612D01*
X156985908Y-114433838D01*
X156782030Y-114433838D01*
X156582071Y-114473612D01*
X156393713Y-114551633D01*
X156224195Y-114664901D01*
X156080032Y-114809064D01*
X155966764Y-114978582D01*
X155888743Y-115166940D01*
X155848969Y-115366899D01*
X155848969Y-115570777D01*
X155888743Y-115770736D01*
X155966764Y-115959094D01*
X156080032Y-116128612D01*
X156148970Y-116197550D01*
X156148969Y-118782584D01*
X152368809Y-122562745D01*
X152340764Y-122585761D01*
X152248915Y-122697679D01*
X152247342Y-122700622D01*
X152180665Y-122825366D01*
X152138636Y-122963914D01*
X152124445Y-123107999D01*
X152128002Y-123144114D01*
X152128001Y-127853648D01*
X152046914Y-127861634D01*
X151908365Y-127903662D01*
X151844523Y-127937787D01*
X151780679Y-127971912D01*
X151771710Y-127979273D01*
X151744226Y-127841102D01*
X151666205Y-127652744D01*
X151552937Y-127483226D01*
X151408774Y-127339063D01*
X151239256Y-127225795D01*
X151050898Y-127147774D01*
X150850939Y-127108000D01*
X150647061Y-127108000D01*
X150447102Y-127147774D01*
X150258744Y-127225795D01*
X150089226Y-127339063D01*
X149945063Y-127483226D01*
X149831795Y-127652744D01*
X149753774Y-127841102D01*
X149714000Y-128041061D01*
X149714000Y-128244939D01*
X149753774Y-128444898D01*
X149831795Y-128633256D01*
X149945063Y-128802774D01*
X150089226Y-128946937D01*
X150258744Y-129060205D01*
X150447102Y-129138226D01*
X150647061Y-129178000D01*
X150850939Y-129178000D01*
X151050898Y-129138226D01*
X151091999Y-129121201D01*
X151091999Y-129427554D01*
X148966554Y-131553000D01*
X148869061Y-131553000D01*
X148669102Y-131592774D01*
X148480744Y-131670795D01*
X148311226Y-131784063D01*
X148167063Y-131928226D01*
X148053795Y-132097744D01*
X147975774Y-132286102D01*
X147936000Y-132486061D01*
X147936000Y-132689939D01*
X147975774Y-132889898D01*
X148053795Y-133078256D01*
X148167063Y-133247774D01*
X148311226Y-133391937D01*
X148480744Y-133505205D01*
X148669102Y-133583226D01*
X148869061Y-133623000D01*
X149072939Y-133623000D01*
X149272898Y-133583226D01*
X149461256Y-133505205D01*
X149630774Y-133391937D01*
X149774937Y-133247774D01*
X149796401Y-133215651D01*
X149930750Y-133350000D01*
X151130000Y-133350000D01*
X151130000Y-132150750D01*
X150971250Y-131992000D01*
X150608422Y-131990025D01*
X152376193Y-130222254D01*
X152404237Y-130199239D01*
X152496086Y-130087321D01*
X152564336Y-129959634D01*
X152606364Y-129821086D01*
X152620555Y-129677001D01*
X152606364Y-129532917D01*
X152564336Y-129394368D01*
X152561999Y-129389996D01*
X152561999Y-129320999D01*
X152826896Y-129320999D01*
X152863001Y-129324555D01*
X152899106Y-129320999D01*
X153007086Y-129310364D01*
X153145634Y-129268336D01*
X153273321Y-129200086D01*
X153385239Y-129108237D01*
X153477088Y-128996319D01*
X153545338Y-128868632D01*
X153587366Y-128730084D01*
X153601557Y-128585999D01*
X153598001Y-128549894D01*
X153598001Y-123412445D01*
X156640717Y-120369730D01*
X156676063Y-120422629D01*
X156820226Y-120566792D01*
X156989744Y-120680060D01*
X157178102Y-120758081D01*
X157378061Y-120797855D01*
X157581939Y-120797855D01*
X157781898Y-120758081D01*
X157888425Y-120713956D01*
X157959795Y-120886256D01*
X158073063Y-121055774D01*
X158217226Y-121199937D01*
X158386744Y-121313205D01*
X158500958Y-121360514D01*
X158521966Y-121466129D01*
X158599987Y-121654487D01*
X158713255Y-121824005D01*
X158769504Y-121880254D01*
X154844542Y-125713640D01*
X154734812Y-125713640D01*
X154534853Y-125753414D01*
X154346495Y-125831435D01*
X154176977Y-125944703D01*
X154032814Y-126088866D01*
X153919546Y-126258384D01*
X153841525Y-126446742D01*
X153801751Y-126646701D01*
X153801751Y-126850579D01*
X153841525Y-127050538D01*
X153919546Y-127238896D01*
X154032814Y-127408414D01*
X154176977Y-127552577D01*
X154346495Y-127665845D01*
X154534853Y-127743866D01*
X154734812Y-127783640D01*
X154938690Y-127783640D01*
X155138649Y-127743866D01*
X155220072Y-127710139D01*
X155339077Y-127789656D01*
X155527435Y-127867677D01*
X155727394Y-127907451D01*
X155931272Y-127907451D01*
X156131231Y-127867677D01*
X156213740Y-127833501D01*
X156273317Y-127893078D01*
X156442835Y-128006346D01*
X156631193Y-128084367D01*
X156831152Y-128124141D01*
X156928645Y-128124141D01*
X161942206Y-133137703D01*
X161905503Y-133322225D01*
X161905503Y-133526103D01*
X161908056Y-133538937D01*
X161863111Y-133508906D01*
X161674753Y-133430885D01*
X161474794Y-133391111D01*
X161270916Y-133391111D01*
X161070957Y-133430885D01*
X160915701Y-133495195D01*
X159800999Y-132380494D01*
X159800999Y-132155359D01*
X159804555Y-132119254D01*
X159790364Y-131975169D01*
X159756066Y-131862105D01*
X159748336Y-131836622D01*
X159680086Y-131708935D01*
X159636116Y-131655358D01*
X159611252Y-131625061D01*
X159611249Y-131625058D01*
X159588236Y-131597017D01*
X159560196Y-131574005D01*
X157413002Y-129426812D01*
X157389982Y-129398762D01*
X157278064Y-129306913D01*
X157150377Y-129238663D01*
X157011829Y-129196635D01*
X156903849Y-129186000D01*
X156867744Y-129182444D01*
X156831639Y-129186000D01*
X156176711Y-129186000D01*
X156107774Y-129117063D01*
X155938256Y-129003795D01*
X155749898Y-128925774D01*
X155549939Y-128886000D01*
X155346061Y-128886000D01*
X155146102Y-128925774D01*
X154957744Y-129003795D01*
X154788226Y-129117063D01*
X154644063Y-129261226D01*
X154530795Y-129430744D01*
X154452774Y-129619102D01*
X154413000Y-129819061D01*
X154413000Y-130022939D01*
X154452774Y-130222898D01*
X154530795Y-130411256D01*
X154644063Y-130580774D01*
X154788226Y-130724937D01*
X154957744Y-130838205D01*
X155146102Y-130916226D01*
X155346061Y-130956000D01*
X155549939Y-130956000D01*
X155749898Y-130916226D01*
X155938256Y-130838205D01*
X156107774Y-130724937D01*
X156176711Y-130656000D01*
X156563298Y-130656000D01*
X156885648Y-130978350D01*
X156820226Y-131022063D01*
X156751289Y-131091000D01*
X153763711Y-131091000D01*
X153694774Y-131022063D01*
X153525256Y-130908795D01*
X153336898Y-130830774D01*
X153136939Y-130791000D01*
X152933061Y-130791000D01*
X152733102Y-130830774D01*
X152544744Y-130908795D01*
X152375226Y-131022063D01*
X152231063Y-131166226D01*
X152117795Y-131335744D01*
X152039774Y-131524102D01*
X152000000Y-131724061D01*
X152000000Y-131927939D01*
X152012234Y-131989444D01*
X151542750Y-131992000D01*
X151384000Y-132150750D01*
X151384000Y-133350000D01*
X151404000Y-133350000D01*
X151404000Y-133604000D01*
X151384000Y-133604000D01*
X151384000Y-134803250D01*
X151542750Y-134962000D01*
X152107000Y-134965072D01*
X152231482Y-134952812D01*
X152351180Y-134916502D01*
X152461494Y-134857537D01*
X152558185Y-134778185D01*
X152637537Y-134681494D01*
X152696502Y-134571180D01*
X152718513Y-134498620D01*
X152850368Y-134630475D01*
X153093589Y-134792990D01*
X153363842Y-134904932D01*
X153650740Y-134962000D01*
X153943260Y-134962000D01*
X154230158Y-134904932D01*
X154500411Y-134792990D01*
X154743632Y-134630475D01*
X154950475Y-134423632D01*
X155067000Y-134249240D01*
X155183525Y-134423632D01*
X155390368Y-134630475D01*
X155633589Y-134792990D01*
X155903842Y-134904932D01*
X156190740Y-134962000D01*
X156483260Y-134962000D01*
X156770158Y-134904932D01*
X157040411Y-134792990D01*
X157283632Y-134630475D01*
X157490475Y-134423632D01*
X157652990Y-134180411D01*
X157764932Y-133910158D01*
X157822000Y-133623260D01*
X157822000Y-133330740D01*
X157764932Y-133043842D01*
X157681032Y-132841289D01*
X157781898Y-132821226D01*
X157970256Y-132743205D01*
X158139774Y-132629937D01*
X158283937Y-132485774D01*
X158327650Y-132420353D01*
X158330999Y-132423702D01*
X158330999Y-132648835D01*
X158327443Y-132684940D01*
X158330999Y-132721045D01*
X158341634Y-132829025D01*
X158383662Y-132967573D01*
X158451913Y-133095260D01*
X158543762Y-133207178D01*
X158571807Y-133230194D01*
X160261916Y-134920304D01*
X160284932Y-134948349D01*
X160386598Y-135031784D01*
X160396850Y-135040198D01*
X160524536Y-135108448D01*
X160620631Y-135137598D01*
X160713033Y-135230000D01*
X142018277Y-135230000D01*
X141966805Y-135224953D01*
X141948337Y-135219377D01*
X141931307Y-135210322D01*
X141916357Y-135198129D01*
X141904061Y-135183266D01*
X141894889Y-135166303D01*
X141889183Y-135147871D01*
X141884000Y-135098554D01*
X141884000Y-134327000D01*
X149768928Y-134327000D01*
X149781188Y-134451482D01*
X149817498Y-134571180D01*
X149876463Y-134681494D01*
X149955815Y-134778185D01*
X150052506Y-134857537D01*
X150162820Y-134916502D01*
X150282518Y-134952812D01*
X150407000Y-134965072D01*
X150971250Y-134962000D01*
X151130000Y-134803250D01*
X151130000Y-133604000D01*
X149930750Y-133604000D01*
X149772000Y-133762750D01*
X149768928Y-134327000D01*
X141884000Y-134327000D01*
X141884000Y-128839883D01*
X141944063Y-128929774D01*
X142088226Y-129073937D01*
X142257744Y-129187205D01*
X142446102Y-129265226D01*
X142646061Y-129305000D01*
X142849939Y-129305000D01*
X143049898Y-129265226D01*
X143238256Y-129187205D01*
X143407774Y-129073937D01*
X143551937Y-128929774D01*
X143665205Y-128760256D01*
X143743226Y-128571898D01*
X143783000Y-128371939D01*
X143783000Y-128168061D01*
X143743226Y-127968102D01*
X143665205Y-127779744D01*
X143551937Y-127610226D01*
X143407774Y-127466063D01*
X143238256Y-127352795D01*
X143049898Y-127274774D01*
X142849939Y-127235000D01*
X142646061Y-127235000D01*
X142446102Y-127274774D01*
X142257744Y-127352795D01*
X142088226Y-127466063D01*
X141944063Y-127610226D01*
X141884000Y-127700117D01*
X141884000Y-124421000D01*
X142402928Y-124421000D01*
X142415188Y-124545482D01*
X142451498Y-124665180D01*
X142510463Y-124775494D01*
X142589815Y-124872185D01*
X142686506Y-124951537D01*
X142796820Y-125010502D01*
X142916518Y-125046812D01*
X143041000Y-125059072D01*
X143605250Y-125056000D01*
X143764000Y-124897250D01*
X143764000Y-123698000D01*
X144018000Y-123698000D01*
X144018000Y-124897250D01*
X144176750Y-125056000D01*
X144741000Y-125059072D01*
X144865482Y-125046812D01*
X144985180Y-125010502D01*
X145095494Y-124951537D01*
X145192185Y-124872185D01*
X145271537Y-124775494D01*
X145330502Y-124665180D01*
X145366812Y-124545482D01*
X145379072Y-124421000D01*
X145376000Y-123856750D01*
X145217250Y-123698000D01*
X144018000Y-123698000D01*
X143764000Y-123698000D01*
X142564750Y-123698000D01*
X142406000Y-123856750D01*
X142402928Y-124421000D01*
X141884000Y-124421000D01*
X141884000Y-122721000D01*
X142402928Y-122721000D01*
X142406000Y-123285250D01*
X142564750Y-123444000D01*
X143764000Y-123444000D01*
X143764000Y-123424000D01*
X144018000Y-123424000D01*
X144018000Y-123444000D01*
X145217250Y-123444000D01*
X145376000Y-123285250D01*
X145379072Y-122721000D01*
X145366812Y-122596518D01*
X145330502Y-122476820D01*
X145271537Y-122366506D01*
X145192185Y-122269815D01*
X145095494Y-122190463D01*
X144985180Y-122131498D01*
X144912620Y-122109487D01*
X145044475Y-121977632D01*
X145206990Y-121734411D01*
X145318932Y-121464158D01*
X145376000Y-121177260D01*
X145376000Y-120884740D01*
X145318932Y-120597842D01*
X145206990Y-120327589D01*
X145044475Y-120084368D01*
X144837632Y-119877525D01*
X144663240Y-119761000D01*
X144837632Y-119644475D01*
X145044475Y-119437632D01*
X145151096Y-119278061D01*
X147809000Y-119278061D01*
X147809000Y-119481939D01*
X147848774Y-119681898D01*
X147926795Y-119870256D01*
X148040063Y-120039774D01*
X148184226Y-120183937D01*
X148353744Y-120297205D01*
X148542102Y-120375226D01*
X148742061Y-120415000D01*
X148945939Y-120415000D01*
X149145898Y-120375226D01*
X149334256Y-120297205D01*
X149503774Y-120183937D01*
X149647937Y-120039774D01*
X149761205Y-119870256D01*
X149839226Y-119681898D01*
X149879000Y-119481939D01*
X149879000Y-119278061D01*
X149839226Y-119078102D01*
X149761205Y-118889744D01*
X149647937Y-118720226D01*
X149503774Y-118576063D01*
X149334256Y-118462795D01*
X149145898Y-118384774D01*
X148945939Y-118345000D01*
X148742061Y-118345000D01*
X148542102Y-118384774D01*
X148353744Y-118462795D01*
X148184226Y-118576063D01*
X148040063Y-118720226D01*
X147926795Y-118889744D01*
X147848774Y-119078102D01*
X147809000Y-119278061D01*
X145151096Y-119278061D01*
X145206990Y-119194411D01*
X145318932Y-118924158D01*
X145376000Y-118637260D01*
X145376000Y-118344740D01*
X145318932Y-118057842D01*
X145206990Y-117787589D01*
X145044475Y-117544368D01*
X144837632Y-117337525D01*
X144663240Y-117221000D01*
X144837632Y-117104475D01*
X145044475Y-116897632D01*
X145206990Y-116654411D01*
X145318932Y-116384158D01*
X145376000Y-116097260D01*
X145376000Y-115804740D01*
X145318932Y-115517842D01*
X145206990Y-115247589D01*
X145044475Y-115004368D01*
X144837632Y-114797525D01*
X144663240Y-114681000D01*
X144837632Y-114564475D01*
X145044475Y-114357632D01*
X145206990Y-114114411D01*
X145318932Y-113844158D01*
X145376000Y-113557260D01*
X145376000Y-113436061D01*
X151111000Y-113436061D01*
X151111000Y-113639939D01*
X151150774Y-113839898D01*
X151228795Y-114028256D01*
X151342063Y-114197774D01*
X151486226Y-114341937D01*
X151655744Y-114455205D01*
X151844102Y-114533226D01*
X152044061Y-114573000D01*
X152247939Y-114573000D01*
X152447898Y-114533226D01*
X152636256Y-114455205D01*
X152805774Y-114341937D01*
X152949937Y-114197774D01*
X153063205Y-114028256D01*
X153141226Y-113839898D01*
X153181000Y-113639939D01*
X153181000Y-113436061D01*
X153141226Y-113236102D01*
X153063205Y-113047744D01*
X152949937Y-112878226D01*
X152805774Y-112734063D01*
X152636256Y-112620795D01*
X152447898Y-112542774D01*
X152247939Y-112503000D01*
X152044061Y-112503000D01*
X151844102Y-112542774D01*
X151655744Y-112620795D01*
X151486226Y-112734063D01*
X151342063Y-112878226D01*
X151228795Y-113047744D01*
X151150774Y-113236102D01*
X151111000Y-113436061D01*
X145376000Y-113436061D01*
X145376000Y-113264740D01*
X145318932Y-112977842D01*
X145206990Y-112707589D01*
X145044475Y-112464368D01*
X144837632Y-112257525D01*
X144594411Y-112095010D01*
X144324158Y-111983068D01*
X144037260Y-111926000D01*
X143744740Y-111926000D01*
X143457842Y-111983068D01*
X143187589Y-112095010D01*
X142944368Y-112257525D01*
X142737525Y-112464368D01*
X142575010Y-112707589D01*
X142463068Y-112977842D01*
X142406000Y-113264740D01*
X142406000Y-113557260D01*
X142463068Y-113844158D01*
X142575010Y-114114411D01*
X142737525Y-114357632D01*
X142944368Y-114564475D01*
X143118760Y-114681000D01*
X142944368Y-114797525D01*
X142737525Y-115004368D01*
X142575010Y-115247589D01*
X142463068Y-115517842D01*
X142406000Y-115804740D01*
X142406000Y-116097260D01*
X142463068Y-116384158D01*
X142575010Y-116654411D01*
X142737525Y-116897632D01*
X142944368Y-117104475D01*
X143118760Y-117221000D01*
X142944368Y-117337525D01*
X142737525Y-117544368D01*
X142575010Y-117787589D01*
X142463068Y-118057842D01*
X142406000Y-118344740D01*
X142406000Y-118637260D01*
X142463068Y-118924158D01*
X142575010Y-119194411D01*
X142737525Y-119437632D01*
X142944368Y-119644475D01*
X143118760Y-119761000D01*
X142944368Y-119877525D01*
X142737525Y-120084368D01*
X142575010Y-120327589D01*
X142463068Y-120597842D01*
X142406000Y-120884740D01*
X142406000Y-121177260D01*
X142463068Y-121464158D01*
X142575010Y-121734411D01*
X142737525Y-121977632D01*
X142869380Y-122109487D01*
X142796820Y-122131498D01*
X142686506Y-122190463D01*
X142589815Y-122269815D01*
X142510463Y-122366506D01*
X142451498Y-122476820D01*
X142415188Y-122596518D01*
X142402928Y-122721000D01*
X141884000Y-122721000D01*
X141884000Y-111785061D01*
X177781000Y-111785061D01*
X177781000Y-111988939D01*
X177820774Y-112188898D01*
X177898795Y-112377256D01*
X178012063Y-112546774D01*
X178156226Y-112690937D01*
X178325744Y-112804205D01*
X178514102Y-112882226D01*
X178714061Y-112922000D01*
X178917939Y-112922000D01*
X179117898Y-112882226D01*
X179306256Y-112804205D01*
X179475774Y-112690937D01*
X179619937Y-112546774D01*
X179733205Y-112377256D01*
X179811226Y-112188898D01*
X179851000Y-111988939D01*
X179851000Y-111785061D01*
X179811226Y-111585102D01*
X179733205Y-111396744D01*
X179619937Y-111227226D01*
X179475774Y-111083063D01*
X179306256Y-110969795D01*
X179117898Y-110891774D01*
X178917939Y-110852000D01*
X178714061Y-110852000D01*
X178514102Y-110891774D01*
X178325744Y-110969795D01*
X178156226Y-111083063D01*
X178012063Y-111227226D01*
X177898795Y-111396744D01*
X177820774Y-111585102D01*
X177781000Y-111785061D01*
X141884000Y-111785061D01*
X141884000Y-107557286D01*
X141910586Y-107575050D01*
X142094394Y-107651186D01*
X142289524Y-107690000D01*
X142488476Y-107690000D01*
X142683606Y-107651186D01*
X142867414Y-107575050D01*
X143032837Y-107464518D01*
X143173518Y-107323837D01*
X143284050Y-107158414D01*
X143360186Y-106974606D01*
X143399000Y-106779476D01*
X143399000Y-106580524D01*
X144129000Y-106580524D01*
X144129000Y-106779476D01*
X144167814Y-106974606D01*
X144243950Y-107158414D01*
X144354482Y-107323837D01*
X144495163Y-107464518D01*
X144660586Y-107575050D01*
X144844394Y-107651186D01*
X145039524Y-107690000D01*
X145238476Y-107690000D01*
X145433606Y-107651186D01*
X145617414Y-107575050D01*
X145782837Y-107464518D01*
X145907294Y-107340061D01*
X151492000Y-107340061D01*
X151492000Y-107543939D01*
X151531774Y-107743898D01*
X151609795Y-107932256D01*
X151723063Y-108101774D01*
X151867226Y-108245937D01*
X152036744Y-108359205D01*
X152225102Y-108437226D01*
X152254000Y-108442974D01*
X152254000Y-108559939D01*
X152293774Y-108759898D01*
X152371795Y-108948256D01*
X152485063Y-109117774D01*
X152629226Y-109261937D01*
X152798744Y-109375205D01*
X152987102Y-109453226D01*
X153187061Y-109493000D01*
X153390939Y-109493000D01*
X153590898Y-109453226D01*
X153779256Y-109375205D01*
X153948774Y-109261937D01*
X154092937Y-109117774D01*
X154206205Y-108948256D01*
X154284226Y-108759898D01*
X154324000Y-108559939D01*
X154324000Y-108356061D01*
X154284226Y-108156102D01*
X154206205Y-107967744D01*
X154092937Y-107798226D01*
X153948774Y-107654063D01*
X153813338Y-107563568D01*
X153855256Y-107546205D01*
X154024774Y-107432937D01*
X154168937Y-107288774D01*
X154282205Y-107119256D01*
X154360226Y-106930898D01*
X154400000Y-106730939D01*
X154400000Y-106527061D01*
X154360226Y-106327102D01*
X154282205Y-106138744D01*
X154177085Y-105981419D01*
X169261000Y-105981419D01*
X169261000Y-106362581D01*
X169335361Y-106736419D01*
X169481225Y-107088566D01*
X169692987Y-107405491D01*
X169962509Y-107675013D01*
X170279434Y-107886775D01*
X170631581Y-108032639D01*
X171005419Y-108107000D01*
X171386581Y-108107000D01*
X171760419Y-108032639D01*
X172112566Y-107886775D01*
X172429491Y-107675013D01*
X172632504Y-107472000D01*
X174337928Y-107472000D01*
X174350188Y-107596482D01*
X174386498Y-107716180D01*
X174445463Y-107826494D01*
X174524815Y-107923185D01*
X174621506Y-108002537D01*
X174731820Y-108061502D01*
X174851518Y-108097812D01*
X174976000Y-108110072D01*
X175990250Y-108107000D01*
X176149000Y-107948250D01*
X176149000Y-106299000D01*
X176403000Y-106299000D01*
X176403000Y-107948250D01*
X176561750Y-108107000D01*
X177576000Y-108110072D01*
X177700482Y-108097812D01*
X177820180Y-108061502D01*
X177930494Y-108002537D01*
X178027185Y-107923185D01*
X178106537Y-107826494D01*
X178165502Y-107716180D01*
X178201812Y-107596482D01*
X178214072Y-107472000D01*
X178211000Y-106457750D01*
X178052250Y-106299000D01*
X176403000Y-106299000D01*
X176149000Y-106299000D01*
X174499750Y-106299000D01*
X174341000Y-106457750D01*
X174337928Y-107472000D01*
X172632504Y-107472000D01*
X172699013Y-107405491D01*
X172910775Y-107088566D01*
X173056639Y-106736419D01*
X173131000Y-106362581D01*
X173131000Y-105981419D01*
X173056639Y-105607581D01*
X172910775Y-105255434D01*
X172699013Y-104938509D01*
X172632504Y-104872000D01*
X174337928Y-104872000D01*
X174341000Y-105886250D01*
X174499750Y-106045000D01*
X176149000Y-106045000D01*
X176149000Y-104395750D01*
X176403000Y-104395750D01*
X176403000Y-106045000D01*
X178052250Y-106045000D01*
X178211000Y-105886250D01*
X178214072Y-104872000D01*
X178201812Y-104747518D01*
X178165502Y-104627820D01*
X178106537Y-104517506D01*
X178027185Y-104420815D01*
X177930494Y-104341463D01*
X177820180Y-104282498D01*
X177700482Y-104246188D01*
X177576000Y-104233928D01*
X176561750Y-104237000D01*
X176403000Y-104395750D01*
X176149000Y-104395750D01*
X175990250Y-104237000D01*
X174976000Y-104233928D01*
X174851518Y-104246188D01*
X174731820Y-104282498D01*
X174621506Y-104341463D01*
X174524815Y-104420815D01*
X174445463Y-104517506D01*
X174386498Y-104627820D01*
X174350188Y-104747518D01*
X174337928Y-104872000D01*
X172632504Y-104872000D01*
X172429491Y-104668987D01*
X172112566Y-104457225D01*
X171760419Y-104311361D01*
X171386581Y-104237000D01*
X171005419Y-104237000D01*
X170631581Y-104311361D01*
X170279434Y-104457225D01*
X169962509Y-104668987D01*
X169692987Y-104938509D01*
X169481225Y-105255434D01*
X169335361Y-105607581D01*
X169261000Y-105981419D01*
X154177085Y-105981419D01*
X154168937Y-105969226D01*
X154024774Y-105825063D01*
X153855256Y-105711795D01*
X153666898Y-105633774D01*
X153466939Y-105594000D01*
X153263061Y-105594000D01*
X153063102Y-105633774D01*
X152874744Y-105711795D01*
X152705226Y-105825063D01*
X152561063Y-105969226D01*
X152447795Y-106138744D01*
X152369774Y-106327102D01*
X152350949Y-106421742D01*
X152225102Y-106446774D01*
X152036744Y-106524795D01*
X151867226Y-106638063D01*
X151723063Y-106782226D01*
X151609795Y-106951744D01*
X151531774Y-107140102D01*
X151492000Y-107340061D01*
X145907294Y-107340061D01*
X145923518Y-107323837D01*
X146034050Y-107158414D01*
X146110186Y-106974606D01*
X146149000Y-106779476D01*
X146149000Y-106580524D01*
X146110186Y-106385394D01*
X146034050Y-106201586D01*
X145923518Y-106036163D01*
X145782837Y-105895482D01*
X145617414Y-105784950D01*
X145433606Y-105708814D01*
X145238476Y-105670000D01*
X145039524Y-105670000D01*
X144844394Y-105708814D01*
X144660586Y-105784950D01*
X144495163Y-105895482D01*
X144354482Y-106036163D01*
X144243950Y-106201586D01*
X144167814Y-106385394D01*
X144129000Y-106580524D01*
X143399000Y-106580524D01*
X143360186Y-106385394D01*
X143284050Y-106201586D01*
X143173518Y-106036163D01*
X143032837Y-105895482D01*
X142867414Y-105784950D01*
X142683606Y-105708814D01*
X142488476Y-105670000D01*
X142289524Y-105670000D01*
X142094394Y-105708814D01*
X141910586Y-105784950D01*
X141884000Y-105802714D01*
X141884000Y-102394277D01*
X141889047Y-102342803D01*
X141894622Y-102324338D01*
X141903678Y-102307306D01*
X141915870Y-102292357D01*
X141930732Y-102280062D01*
X141947696Y-102270889D01*
X141966129Y-102265183D01*
X142015446Y-102260000D01*
X208755723Y-102260000D01*
X208807197Y-102265047D01*
G37*
X208807197Y-102265047D02*
X208825662Y-102270622D01*
X208842694Y-102279678D01*
X208857643Y-102291870D01*
X208869938Y-102306732D01*
X208879111Y-102323696D01*
X208884817Y-102342129D01*
X208890000Y-102391446D01*
X208890001Y-135095712D01*
X208884953Y-135147195D01*
X208879377Y-135165663D01*
X208870322Y-135182693D01*
X208858129Y-135197643D01*
X208843266Y-135209939D01*
X208826303Y-135219111D01*
X208807871Y-135224817D01*
X208758554Y-135230000D01*
X162032677Y-135230000D01*
X162176792Y-135085885D01*
X162290060Y-134916367D01*
X162368081Y-134728009D01*
X162407855Y-134528050D01*
X162407855Y-134324172D01*
X162405302Y-134311338D01*
X162450247Y-134341369D01*
X162638605Y-134419390D01*
X162838564Y-134459164D01*
X163042442Y-134459164D01*
X163242401Y-134419390D01*
X163430759Y-134341369D01*
X163600277Y-134228101D01*
X163744440Y-134083938D01*
X163857708Y-133914420D01*
X163935729Y-133726062D01*
X163975503Y-133526103D01*
X163975503Y-133322225D01*
X163935729Y-133122266D01*
X163857708Y-132933908D01*
X163744440Y-132764390D01*
X163600277Y-132620227D01*
X163430759Y-132506959D01*
X163361786Y-132478389D01*
X157968091Y-127084695D01*
X157968091Y-126987202D01*
X157928317Y-126787243D01*
X157850296Y-126598885D01*
X157737028Y-126429367D01*
X157592865Y-126285204D01*
X157510836Y-126230394D01*
X160471278Y-123269952D01*
X160469077Y-123281020D01*
X160469077Y-123484898D01*
X160508851Y-123684857D01*
X160578232Y-123852355D01*
X160499795Y-123969744D01*
X160421774Y-124158102D01*
X160382000Y-124358061D01*
X160382000Y-124561939D01*
X160421774Y-124761898D01*
X160499795Y-124950256D01*
X160613063Y-125119774D01*
X160757226Y-125263937D01*
X160926744Y-125377205D01*
X161115102Y-125455226D01*
X161315061Y-125495000D01*
X161518939Y-125495000D01*
X161718898Y-125455226D01*
X161907256Y-125377205D01*
X162076774Y-125263937D01*
X162145711Y-125195000D01*
X164694954Y-125195000D01*
X164626742Y-125240578D01*
X164482579Y-125384741D01*
X164369311Y-125554259D01*
X164299850Y-125721952D01*
X164236061Y-125721952D01*
X164036102Y-125761726D01*
X163847744Y-125839747D01*
X163678226Y-125953015D01*
X163534063Y-126097178D01*
X163420795Y-126266696D01*
X163342774Y-126455054D01*
X163303000Y-126655013D01*
X163303000Y-126858891D01*
X163342774Y-127058850D01*
X163349000Y-127073881D01*
X163349000Y-128921617D01*
X163169939Y-128886000D01*
X162966061Y-128886000D01*
X162766102Y-128925774D01*
X162577744Y-129003795D01*
X162408226Y-129117063D01*
X162264063Y-129261226D01*
X162150795Y-129430744D01*
X162072774Y-129619102D01*
X162033000Y-129819061D01*
X162033000Y-130022939D01*
X162072774Y-130222898D01*
X162150795Y-130411256D01*
X162264063Y-130580774D01*
X162408226Y-130724937D01*
X162577744Y-130838205D01*
X162766102Y-130916226D01*
X162966061Y-130956000D01*
X163049000Y-130956000D01*
X163049000Y-131038939D01*
X163088774Y-131238898D01*
X163166795Y-131427256D01*
X163280063Y-131596774D01*
X163424226Y-131740937D01*
X163593744Y-131854205D01*
X163782102Y-131932226D01*
X163982061Y-131972000D01*
X164185939Y-131972000D01*
X164385898Y-131932226D01*
X164574256Y-131854205D01*
X164743774Y-131740937D01*
X164887937Y-131596774D01*
X165001205Y-131427256D01*
X165079226Y-131238898D01*
X165119000Y-131038939D01*
X165119000Y-130835061D01*
X165079226Y-130635102D01*
X165001205Y-130446744D01*
X164887937Y-130277226D01*
X164819000Y-130208289D01*
X164819000Y-127677991D01*
X164828256Y-127674157D01*
X164871983Y-127644939D01*
X169081500Y-131854457D01*
X169081500Y-131951949D01*
X169121274Y-132151908D01*
X169199295Y-132340266D01*
X169312563Y-132509784D01*
X169456726Y-132653947D01*
X169626244Y-132767215D01*
X169814602Y-132845236D01*
X170014561Y-132885010D01*
X170218439Y-132885010D01*
X170418398Y-132845236D01*
X170606756Y-132767215D01*
X170776274Y-132653947D01*
X170920437Y-132509784D01*
X171033705Y-132340266D01*
X171051191Y-132298051D01*
X177654000Y-132298051D01*
X177654000Y-132501929D01*
X177693774Y-132701888D01*
X177771795Y-132890246D01*
X177885063Y-133059764D01*
X178029226Y-133203927D01*
X178198744Y-133317195D01*
X178387102Y-133395216D01*
X178587061Y-133434990D01*
X178691890Y-133434990D01*
X178709774Y-133524898D01*
X178787795Y-133713256D01*
X178901063Y-133882774D01*
X179045226Y-134026937D01*
X179214744Y-134140205D01*
X179403102Y-134218226D01*
X179603061Y-134258000D01*
X179806939Y-134258000D01*
X180006898Y-134218226D01*
X180195256Y-134140205D01*
X180364774Y-134026937D01*
X180508937Y-133882774D01*
X180622205Y-133713256D01*
X180700226Y-133524898D01*
X180740000Y-133324939D01*
X180740000Y-133227446D01*
X180986049Y-132981397D01*
X185079208Y-132981397D01*
X185156843Y-133230472D01*
X185420883Y-133356371D01*
X185704411Y-133428339D01*
X185996531Y-133443611D01*
X186286019Y-133401599D01*
X186561747Y-133303919D01*
X186699157Y-133230472D01*
X186776792Y-132981397D01*
X185928000Y-132132605D01*
X185079208Y-132981397D01*
X180986049Y-132981397D01*
X181596197Y-132371250D01*
X181624237Y-132348238D01*
X181647250Y-132320197D01*
X181647253Y-132320194D01*
X181716086Y-132236321D01*
X181716087Y-132236320D01*
X181784337Y-132108633D01*
X181810759Y-132021531D01*
X184437389Y-132021531D01*
X184479401Y-132311019D01*
X184577081Y-132586747D01*
X184650528Y-132724157D01*
X184899603Y-132801792D01*
X185748395Y-131953000D01*
X184899603Y-131104208D01*
X184650528Y-131181843D01*
X184524629Y-131445883D01*
X184452661Y-131729411D01*
X184437389Y-132021531D01*
X181810759Y-132021531D01*
X181826365Y-131970085D01*
X181837000Y-131862105D01*
X181837000Y-131862096D01*
X181840555Y-131826001D01*
X181837000Y-131789906D01*
X181837000Y-129266740D01*
X184443000Y-129266740D01*
X184443000Y-129559260D01*
X184500068Y-129846158D01*
X184612010Y-130116411D01*
X184774525Y-130359632D01*
X184981368Y-130566475D01*
X185154729Y-130682311D01*
X185079208Y-130924603D01*
X185928000Y-131773395D01*
X186776792Y-130924603D01*
X186701271Y-130682311D01*
X186874632Y-130566475D01*
X187081475Y-130359632D01*
X187198000Y-130185240D01*
X187314525Y-130359632D01*
X187521368Y-130566475D01*
X187695760Y-130683000D01*
X187521368Y-130799525D01*
X187314525Y-131006368D01*
X187198689Y-131179729D01*
X186956397Y-131104208D01*
X186107605Y-131953000D01*
X186956397Y-132801792D01*
X187198689Y-132726271D01*
X187314525Y-132899632D01*
X187521368Y-133106475D01*
X187764589Y-133268990D01*
X188034842Y-133380932D01*
X188321740Y-133438000D01*
X188614260Y-133438000D01*
X188901158Y-133380932D01*
X189171411Y-133268990D01*
X189414632Y-133106475D01*
X189621475Y-132899632D01*
X189738000Y-132725240D01*
X189854525Y-132899632D01*
X190061368Y-133106475D01*
X190304589Y-133268990D01*
X190574842Y-133380932D01*
X190861740Y-133438000D01*
X191154260Y-133438000D01*
X191441158Y-133380932D01*
X191711411Y-133268990D01*
X191954632Y-133106475D01*
X192161475Y-132899632D01*
X192278000Y-132725240D01*
X192394525Y-132899632D01*
X192601368Y-133106475D01*
X192844589Y-133268990D01*
X193114842Y-133380932D01*
X193401740Y-133438000D01*
X193694260Y-133438000D01*
X193981158Y-133380932D01*
X194251411Y-133268990D01*
X194494632Y-133106475D01*
X194701475Y-132899632D01*
X194818000Y-132725240D01*
X194934525Y-132899632D01*
X195141368Y-133106475D01*
X195384589Y-133268990D01*
X195654842Y-133380932D01*
X195941740Y-133438000D01*
X196234260Y-133438000D01*
X196521158Y-133380932D01*
X196791411Y-133268990D01*
X197034632Y-133106475D01*
X197241475Y-132899632D01*
X197358000Y-132725240D01*
X197474525Y-132899632D01*
X197681368Y-133106475D01*
X197924589Y-133268990D01*
X198194842Y-133380932D01*
X198481740Y-133438000D01*
X198774260Y-133438000D01*
X199061158Y-133380932D01*
X199331411Y-133268990D01*
X199574632Y-133106475D01*
X199699710Y-132981397D01*
X200319208Y-132981397D01*
X200396843Y-133230472D01*
X200660883Y-133356371D01*
X200944411Y-133428339D01*
X201236531Y-133443611D01*
X201526019Y-133401599D01*
X201801747Y-133303919D01*
X201939157Y-133230472D01*
X202016792Y-132981397D01*
X201168000Y-132132605D01*
X200319208Y-132981397D01*
X199699710Y-132981397D01*
X199781475Y-132899632D01*
X199897311Y-132726271D01*
X200139603Y-132801792D01*
X200988395Y-131953000D01*
X200139603Y-131104208D01*
X199897311Y-131179729D01*
X199781475Y-131006368D01*
X199574632Y-130799525D01*
X199400240Y-130683000D01*
X199574632Y-130566475D01*
X199781475Y-130359632D01*
X199898000Y-130185240D01*
X200014525Y-130359632D01*
X200221368Y-130566475D01*
X200394729Y-130682311D01*
X200319208Y-130924603D01*
X201168000Y-131773395D01*
X202016792Y-130924603D01*
X201941271Y-130682311D01*
X202114632Y-130566475D01*
X202301715Y-130379392D01*
X202369595Y-130506386D01*
X202480038Y-130640962D01*
X202614614Y-130751405D01*
X202741608Y-130819285D01*
X202554525Y-131006368D01*
X202438689Y-131179729D01*
X202196397Y-131104208D01*
X201347605Y-131953000D01*
X202196397Y-132801792D01*
X202438689Y-132726271D01*
X202554525Y-132899632D01*
X202761368Y-133106475D01*
X203004589Y-133268990D01*
X203274842Y-133380932D01*
X203561740Y-133438000D01*
X203854260Y-133438000D01*
X204141158Y-133380932D01*
X204411411Y-133268990D01*
X204654632Y-133106475D01*
X204861475Y-132899632D01*
X205023990Y-132656411D01*
X205135932Y-132386158D01*
X205193000Y-132099260D01*
X205193000Y-131806740D01*
X205135932Y-131519842D01*
X205023990Y-131249589D01*
X204861475Y-131006368D01*
X204674392Y-130819285D01*
X204801386Y-130751405D01*
X204935962Y-130640962D01*
X205046405Y-130506386D01*
X205128472Y-130352850D01*
X205179008Y-130186254D01*
X205196072Y-130013000D01*
X205196072Y-128813000D01*
X205179008Y-128639746D01*
X205128472Y-128473150D01*
X205046405Y-128319614D01*
X204935962Y-128185038D01*
X204801386Y-128074595D01*
X204647850Y-127992528D01*
X204481254Y-127941992D01*
X204308000Y-127924928D01*
X203108000Y-127924928D01*
X202934746Y-127941992D01*
X202768150Y-127992528D01*
X202614614Y-128074595D01*
X202480038Y-128185038D01*
X202369595Y-128319614D01*
X202301715Y-128446608D01*
X202114632Y-128259525D01*
X201871411Y-128097010D01*
X201601158Y-127985068D01*
X201314260Y-127928000D01*
X201021740Y-127928000D01*
X200734842Y-127985068D01*
X200464589Y-128097010D01*
X200221368Y-128259525D01*
X200014525Y-128466368D01*
X199898000Y-128640760D01*
X199781475Y-128466368D01*
X199574632Y-128259525D01*
X199331411Y-128097010D01*
X199061158Y-127985068D01*
X198774260Y-127928000D01*
X198481740Y-127928000D01*
X198194842Y-127985068D01*
X197924589Y-128097010D01*
X197681368Y-128259525D01*
X197474525Y-128466368D01*
X197358000Y-128640760D01*
X197241475Y-128466368D01*
X197034632Y-128259525D01*
X196791411Y-128097010D01*
X196521158Y-127985068D01*
X196234260Y-127928000D01*
X195941740Y-127928000D01*
X195654842Y-127985068D01*
X195384589Y-128097010D01*
X195141368Y-128259525D01*
X194934525Y-128466368D01*
X194818000Y-128640760D01*
X194701475Y-128466368D01*
X194494632Y-128259525D01*
X194251411Y-128097010D01*
X193981158Y-127985068D01*
X193694260Y-127928000D01*
X193401740Y-127928000D01*
X193114842Y-127985068D01*
X192844589Y-128097010D01*
X192601368Y-128259525D01*
X192394525Y-128466368D01*
X192278000Y-128640760D01*
X192161475Y-128466368D01*
X191954632Y-128259525D01*
X191711411Y-128097010D01*
X191441158Y-127985068D01*
X191154260Y-127928000D01*
X190861740Y-127928000D01*
X190574842Y-127985068D01*
X190304589Y-128097010D01*
X190061368Y-128259525D01*
X189854525Y-128466368D01*
X189738000Y-128640760D01*
X189621475Y-128466368D01*
X189414632Y-128259525D01*
X189171411Y-128097010D01*
X188901158Y-127985068D01*
X188614260Y-127928000D01*
X188321740Y-127928000D01*
X188034842Y-127985068D01*
X187764589Y-128097010D01*
X187521368Y-128259525D01*
X187314525Y-128466368D01*
X187198000Y-128640760D01*
X187081475Y-128466368D01*
X186874632Y-128259525D01*
X186631411Y-128097010D01*
X186361158Y-127985068D01*
X186074260Y-127928000D01*
X185781740Y-127928000D01*
X185494842Y-127985068D01*
X185224589Y-128097010D01*
X184981368Y-128259525D01*
X184774525Y-128466368D01*
X184612010Y-128709589D01*
X184500068Y-128979842D01*
X184443000Y-129266740D01*
X181837000Y-129266740D01*
X181837000Y-117381872D01*
X200965000Y-117381872D01*
X200965000Y-117822128D01*
X201050890Y-118253925D01*
X201219369Y-118660669D01*
X201463962Y-119026729D01*
X201775271Y-119338038D01*
X202141331Y-119582631D01*
X202548075Y-119751110D01*
X202979872Y-119837000D01*
X203420128Y-119837000D01*
X203851925Y-119751110D01*
X204258669Y-119582631D01*
X204624729Y-119338038D01*
X204936038Y-119026729D01*
X205180631Y-118660669D01*
X205349110Y-118253925D01*
X205435000Y-117822128D01*
X205435000Y-117381872D01*
X205349110Y-116950075D01*
X205180631Y-116543331D01*
X204936038Y-116177271D01*
X204624729Y-115865962D01*
X204258669Y-115621369D01*
X203851925Y-115452890D01*
X203420128Y-115367000D01*
X202979872Y-115367000D01*
X202548075Y-115452890D01*
X202141331Y-115621369D01*
X201775271Y-115865962D01*
X201463962Y-116177271D01*
X201219369Y-116543331D01*
X201050890Y-116950075D01*
X200965000Y-117381872D01*
X181837000Y-117381872D01*
X181837000Y-112572446D01*
X183701375Y-110708072D01*
X185000000Y-110708072D01*
X185124482Y-110695812D01*
X185244180Y-110659502D01*
X185354494Y-110600537D01*
X185451185Y-110521185D01*
X185530537Y-110424494D01*
X185589502Y-110314180D01*
X185611513Y-110241620D01*
X185743368Y-110373475D01*
X185986589Y-110535990D01*
X186256842Y-110647932D01*
X186543740Y-110705000D01*
X186836260Y-110705000D01*
X187123158Y-110647932D01*
X187393411Y-110535990D01*
X187636632Y-110373475D01*
X187843475Y-110166632D01*
X187960000Y-109992240D01*
X188076525Y-110166632D01*
X188283368Y-110373475D01*
X188526589Y-110535990D01*
X188796842Y-110647932D01*
X189083740Y-110705000D01*
X189376260Y-110705000D01*
X189663158Y-110647932D01*
X189933411Y-110535990D01*
X190176632Y-110373475D01*
X190383475Y-110166632D01*
X190500000Y-109992240D01*
X190616525Y-110166632D01*
X190823368Y-110373475D01*
X191066589Y-110535990D01*
X191336842Y-110647932D01*
X191623740Y-110705000D01*
X191916260Y-110705000D01*
X192203158Y-110647932D01*
X192473411Y-110535990D01*
X192716632Y-110373475D01*
X192923475Y-110166632D01*
X193040000Y-109992240D01*
X193156525Y-110166632D01*
X193363368Y-110373475D01*
X193606589Y-110535990D01*
X193876842Y-110647932D01*
X194163740Y-110705000D01*
X194456260Y-110705000D01*
X194743158Y-110647932D01*
X195013411Y-110535990D01*
X195256632Y-110373475D01*
X195463475Y-110166632D01*
X195580000Y-109992240D01*
X195696525Y-110166632D01*
X195903368Y-110373475D01*
X196146589Y-110535990D01*
X196416842Y-110647932D01*
X196703740Y-110705000D01*
X196996260Y-110705000D01*
X197283158Y-110647932D01*
X197553411Y-110535990D01*
X197796632Y-110373475D01*
X198003475Y-110166632D01*
X198120000Y-109992240D01*
X198236525Y-110166632D01*
X198443368Y-110373475D01*
X198686589Y-110535990D01*
X198956842Y-110647932D01*
X199243740Y-110705000D01*
X199536260Y-110705000D01*
X199823158Y-110647932D01*
X200093411Y-110535990D01*
X200336632Y-110373475D01*
X200543475Y-110166632D01*
X200660000Y-109992240D01*
X200776525Y-110166632D01*
X200983368Y-110373475D01*
X201226589Y-110535990D01*
X201496842Y-110647932D01*
X201783740Y-110705000D01*
X202076260Y-110705000D01*
X202363158Y-110647932D01*
X202633411Y-110535990D01*
X202876632Y-110373475D01*
X203083475Y-110166632D01*
X203200000Y-109992240D01*
X203316525Y-110166632D01*
X203523368Y-110373475D01*
X203766589Y-110535990D01*
X204036842Y-110647932D01*
X204323740Y-110705000D01*
X204616260Y-110705000D01*
X204903158Y-110647932D01*
X205173411Y-110535990D01*
X205416632Y-110373475D01*
X205623475Y-110166632D01*
X205785990Y-109923411D01*
X205897932Y-109653158D01*
X205955000Y-109366260D01*
X205955000Y-109073740D01*
X205897932Y-108786842D01*
X205785990Y-108516589D01*
X205623475Y-108273368D01*
X205416632Y-108066525D01*
X205242240Y-107950000D01*
X205416632Y-107833475D01*
X205623475Y-107626632D01*
X205785990Y-107383411D01*
X205897932Y-107113158D01*
X205955000Y-106826260D01*
X205955000Y-106533740D01*
X205897932Y-106246842D01*
X205785990Y-105976589D01*
X205623475Y-105733368D01*
X205416632Y-105526525D01*
X205173411Y-105364010D01*
X204903158Y-105252068D01*
X204616260Y-105195000D01*
X204323740Y-105195000D01*
X204036842Y-105252068D01*
X203766589Y-105364010D01*
X203523368Y-105526525D01*
X203316525Y-105733368D01*
X203200000Y-105907760D01*
X203083475Y-105733368D01*
X202876632Y-105526525D01*
X202633411Y-105364010D01*
X202363158Y-105252068D01*
X202076260Y-105195000D01*
X201783740Y-105195000D01*
X201496842Y-105252068D01*
X201226589Y-105364010D01*
X200983368Y-105526525D01*
X200776525Y-105733368D01*
X200660000Y-105907760D01*
X200543475Y-105733368D01*
X200336632Y-105526525D01*
X200093411Y-105364010D01*
X199823158Y-105252068D01*
X199536260Y-105195000D01*
X199243740Y-105195000D01*
X198956842Y-105252068D01*
X198686589Y-105364010D01*
X198443368Y-105526525D01*
X198236525Y-105733368D01*
X198120000Y-105907760D01*
X198003475Y-105733368D01*
X197796632Y-105526525D01*
X197553411Y-105364010D01*
X197283158Y-105252068D01*
X196996260Y-105195000D01*
X196703740Y-105195000D01*
X196416842Y-105252068D01*
X196146589Y-105364010D01*
X195903368Y-105526525D01*
X195696525Y-105733368D01*
X195580000Y-105907760D01*
X195463475Y-105733368D01*
X195256632Y-105526525D01*
X195013411Y-105364010D01*
X194743158Y-105252068D01*
X194456260Y-105195000D01*
X194163740Y-105195000D01*
X193876842Y-105252068D01*
X193606589Y-105364010D01*
X193363368Y-105526525D01*
X193156525Y-105733368D01*
X193040000Y-105907760D01*
X192923475Y-105733368D01*
X192716632Y-105526525D01*
X192473411Y-105364010D01*
X192203158Y-105252068D01*
X191916260Y-105195000D01*
X191623740Y-105195000D01*
X191336842Y-105252068D01*
X191066589Y-105364010D01*
X190823368Y-105526525D01*
X190616525Y-105733368D01*
X190500000Y-105907760D01*
X190383475Y-105733368D01*
X190176632Y-105526525D01*
X189933411Y-105364010D01*
X189663158Y-105252068D01*
X189376260Y-105195000D01*
X189083740Y-105195000D01*
X188796842Y-105252068D01*
X188526589Y-105364010D01*
X188283368Y-105526525D01*
X188076525Y-105733368D01*
X187960000Y-105907760D01*
X187843475Y-105733368D01*
X187636632Y-105526525D01*
X187393411Y-105364010D01*
X187123158Y-105252068D01*
X186836260Y-105195000D01*
X186543740Y-105195000D01*
X186256842Y-105252068D01*
X185986589Y-105364010D01*
X185743368Y-105526525D01*
X185536525Y-105733368D01*
X185420000Y-105907760D01*
X185303475Y-105733368D01*
X185096632Y-105526525D01*
X184853411Y-105364010D01*
X184583158Y-105252068D01*
X184296260Y-105195000D01*
X184003740Y-105195000D01*
X183716842Y-105252068D01*
X183446589Y-105364010D01*
X183203368Y-105526525D01*
X182996525Y-105733368D01*
X182834010Y-105976589D01*
X182722068Y-106246842D01*
X182665000Y-106533740D01*
X182665000Y-106826260D01*
X182714656Y-107075897D01*
X180099808Y-109690746D01*
X180071762Y-109713763D01*
X179979913Y-109825681D01*
X179911663Y-109953368D01*
X179882384Y-110049887D01*
X179869635Y-110091915D01*
X179855444Y-110236000D01*
X179859000Y-110272105D01*
X179859000Y-118770186D01*
X179786871Y-118662236D01*
X179642708Y-118518073D01*
X179473190Y-118404805D01*
X179284832Y-118326784D01*
X179084873Y-118287010D01*
X178880995Y-118287010D01*
X178681036Y-118326784D01*
X178492678Y-118404805D01*
X178323160Y-118518073D01*
X178178997Y-118662236D01*
X178065729Y-118831754D01*
X177987708Y-119020112D01*
X177947934Y-119220071D01*
X177947934Y-119423949D01*
X177987708Y-119623908D01*
X178065729Y-119812266D01*
X178178997Y-119981784D01*
X178323160Y-120125947D01*
X178492678Y-120239215D01*
X178681036Y-120317236D01*
X178880995Y-120357010D01*
X179084873Y-120357010D01*
X179284832Y-120317236D01*
X179473190Y-120239215D01*
X179642708Y-120125947D01*
X179786871Y-119981784D01*
X179859000Y-119873834D01*
X179859001Y-130190542D01*
X178684554Y-131364990D01*
X178587061Y-131364990D01*
X178387102Y-131404764D01*
X178198744Y-131482785D01*
X178029226Y-131596053D01*
X177885063Y-131740216D01*
X177771795Y-131909734D01*
X177693774Y-132098092D01*
X177654000Y-132298051D01*
X171051191Y-132298051D01*
X171111726Y-132151908D01*
X171151500Y-131951949D01*
X171151500Y-131748071D01*
X171111726Y-131548112D01*
X171033705Y-131359754D01*
X170920437Y-131190236D01*
X170776274Y-131046073D01*
X170606756Y-130932805D01*
X170418398Y-130854784D01*
X170218439Y-130815010D01*
X170120947Y-130815010D01*
X166050339Y-126744403D01*
X166086554Y-126708188D01*
X177424523Y-126708188D01*
X177424523Y-126912066D01*
X177464297Y-127112025D01*
X177542318Y-127300383D01*
X177655586Y-127469901D01*
X177799749Y-127614064D01*
X177969267Y-127727332D01*
X178157625Y-127805353D01*
X178357584Y-127845127D01*
X178561462Y-127845127D01*
X178761421Y-127805353D01*
X178949779Y-127727332D01*
X179119297Y-127614064D01*
X179263460Y-127469901D01*
X179376728Y-127300383D01*
X179454749Y-127112025D01*
X179494523Y-126912066D01*
X179494523Y-126708188D01*
X179454749Y-126508229D01*
X179376728Y-126319871D01*
X179263460Y-126150353D01*
X179119297Y-126006190D01*
X178949779Y-125892922D01*
X178761421Y-125814901D01*
X178561462Y-125775127D01*
X178357584Y-125775127D01*
X178157625Y-125814901D01*
X177969267Y-125892922D01*
X177799749Y-126006190D01*
X177655586Y-126150353D01*
X177542318Y-126319871D01*
X177464297Y-126508229D01*
X177424523Y-126708188D01*
X166086554Y-126708188D01*
X166090453Y-126704289D01*
X166203721Y-126534771D01*
X166281742Y-126346413D01*
X166321516Y-126146454D01*
X166321516Y-125942576D01*
X166281742Y-125742617D01*
X166203721Y-125554259D01*
X166090453Y-125384741D01*
X165946290Y-125240578D01*
X165878078Y-125195000D01*
X166141885Y-125195000D01*
X166177990Y-125198556D01*
X166214095Y-125195000D01*
X166322075Y-125184365D01*
X166460623Y-125142337D01*
X166588310Y-125074087D01*
X166700228Y-124982238D01*
X166723249Y-124954188D01*
X168660447Y-123016990D01*
X168757939Y-123016990D01*
X168957898Y-122977216D01*
X169146256Y-122899195D01*
X169315774Y-122785927D01*
X169459937Y-122641764D01*
X169573205Y-122472246D01*
X169651226Y-122283888D01*
X169668480Y-122197146D01*
X169778503Y-122197146D01*
X169978462Y-122157372D01*
X170166820Y-122079351D01*
X170336338Y-121966083D01*
X170480501Y-121821920D01*
X170593769Y-121652402D01*
X170671790Y-121464044D01*
X170688916Y-121377945D01*
X170821186Y-121323157D01*
X170990704Y-121209889D01*
X171134867Y-121065726D01*
X171248135Y-120896208D01*
X171326156Y-120707850D01*
X171365930Y-120507891D01*
X171365930Y-120304013D01*
X171326156Y-120104054D01*
X171248135Y-119915696D01*
X171134867Y-119746178D01*
X170990704Y-119602015D01*
X170821186Y-119488747D01*
X170632828Y-119410726D01*
X170432869Y-119370952D01*
X170228991Y-119370952D01*
X170029032Y-119410726D01*
X169840674Y-119488747D01*
X169671156Y-119602015D01*
X169602219Y-119670952D01*
X167926595Y-119670952D01*
X168533507Y-119064040D01*
X168756955Y-119064040D01*
X168825892Y-119132977D01*
X168995410Y-119246245D01*
X169183768Y-119324266D01*
X169383727Y-119364040D01*
X169587605Y-119364040D01*
X169787564Y-119324266D01*
X169975922Y-119246245D01*
X170145440Y-119132977D01*
X170289603Y-118988814D01*
X170402871Y-118819296D01*
X170480892Y-118630938D01*
X170520666Y-118430979D01*
X170520666Y-118227101D01*
X170480892Y-118027142D01*
X170402871Y-117838784D01*
X170301331Y-117686819D01*
X170416256Y-117639215D01*
X170585774Y-117525947D01*
X170729937Y-117381784D01*
X170843205Y-117212266D01*
X170921226Y-117023908D01*
X170961000Y-116823949D01*
X170961000Y-116620071D01*
X170921226Y-116420112D01*
X170843205Y-116231754D01*
X170729937Y-116062236D01*
X170585774Y-115918073D01*
X170416256Y-115804805D01*
X170227898Y-115726784D01*
X170027939Y-115687010D01*
X169884390Y-115687010D01*
X169840791Y-115581754D01*
X169727523Y-115412236D01*
X169583360Y-115268073D01*
X169413842Y-115154805D01*
X169225484Y-115076784D01*
X169025525Y-115037010D01*
X168821647Y-115037010D01*
X168621688Y-115076784D01*
X168433330Y-115154805D01*
X168263812Y-115268073D01*
X168119649Y-115412236D01*
X168006381Y-115581754D01*
X167928360Y-115770112D01*
X167897799Y-115923754D01*
X166071275Y-117750279D01*
X166017205Y-117619744D01*
X165903937Y-117450226D01*
X165759774Y-117306063D01*
X165590256Y-117192795D01*
X165401898Y-117114774D01*
X165201939Y-117075000D01*
X164998061Y-117075000D01*
X164798102Y-117114774D01*
X164661504Y-117171355D01*
X164644359Y-117154210D01*
X164474841Y-117040942D01*
X164286483Y-116962921D01*
X164086524Y-116923147D01*
X163882646Y-116923147D01*
X163682687Y-116962921D01*
X163494329Y-117040942D01*
X163324811Y-117154210D01*
X163255874Y-117223147D01*
X159417049Y-117223147D01*
X159389699Y-117219798D01*
X159344832Y-117223147D01*
X159336116Y-117223147D01*
X159308835Y-117225834D01*
X159245318Y-117230575D01*
X159236865Y-117232922D01*
X159228136Y-117233782D01*
X159167184Y-117252271D01*
X159105814Y-117269313D01*
X159097983Y-117273263D01*
X159089588Y-117275810D01*
X159033413Y-117305836D01*
X158976548Y-117334522D01*
X158969637Y-117339925D01*
X158961901Y-117344060D01*
X158912670Y-117384463D01*
X158891069Y-117401351D01*
X158884760Y-117407368D01*
X158849983Y-117435909D01*
X158832503Y-117457209D01*
X157618969Y-118614619D01*
X157618969Y-116197549D01*
X157687906Y-116128612D01*
X157801174Y-115959094D01*
X157879195Y-115770736D01*
X157918969Y-115570777D01*
X157918969Y-115468061D01*
X161144000Y-115468061D01*
X161144000Y-115671939D01*
X161183774Y-115871898D01*
X161261795Y-116060256D01*
X161375063Y-116229774D01*
X161519226Y-116373937D01*
X161688744Y-116487205D01*
X161877102Y-116565226D01*
X162077061Y-116605000D01*
X162280939Y-116605000D01*
X162480898Y-116565226D01*
X162669256Y-116487205D01*
X162838774Y-116373937D01*
X162982937Y-116229774D01*
X163096205Y-116060256D01*
X163174226Y-115871898D01*
X163214000Y-115671939D01*
X163214000Y-115468061D01*
X163174226Y-115268102D01*
X163096205Y-115079744D01*
X162982937Y-114910226D01*
X162838774Y-114766063D01*
X162669256Y-114652795D01*
X162480898Y-114574774D01*
X162280939Y-114535000D01*
X162077061Y-114535000D01*
X161877102Y-114574774D01*
X161688744Y-114652795D01*
X161519226Y-114766063D01*
X161375063Y-114910226D01*
X161261795Y-115079744D01*
X161183774Y-115268102D01*
X161144000Y-115468061D01*
X157918969Y-115468061D01*
X157918969Y-115366899D01*
X157879195Y-115166940D01*
X157801174Y-114978582D01*
X157687906Y-114809064D01*
X157543743Y-114664901D01*
X157374225Y-114551633D01*
X157185867Y-114473612D01*
X156985908Y-114433838D01*
X156782030Y-114433838D01*
X156582071Y-114473612D01*
X156393713Y-114551633D01*
X156224195Y-114664901D01*
X156080032Y-114809064D01*
X155966764Y-114978582D01*
X155888743Y-115166940D01*
X155848969Y-115366899D01*
X155848969Y-115570777D01*
X155888743Y-115770736D01*
X155966764Y-115959094D01*
X156080032Y-116128612D01*
X156148970Y-116197550D01*
X156148969Y-118782584D01*
X152368809Y-122562745D01*
X152340764Y-122585761D01*
X152248915Y-122697679D01*
X152247342Y-122700622D01*
X152180665Y-122825366D01*
X152138636Y-122963914D01*
X152124445Y-123107999D01*
X152128002Y-123144114D01*
X152128001Y-127853648D01*
X152046914Y-127861634D01*
X151908365Y-127903662D01*
X151844523Y-127937787D01*
X151780679Y-127971912D01*
X151771710Y-127979273D01*
X151744226Y-127841102D01*
X151666205Y-127652744D01*
X151552937Y-127483226D01*
X151408774Y-127339063D01*
X151239256Y-127225795D01*
X151050898Y-127147774D01*
X150850939Y-127108000D01*
X150647061Y-127108000D01*
X150447102Y-127147774D01*
X150258744Y-127225795D01*
X150089226Y-127339063D01*
X149945063Y-127483226D01*
X149831795Y-127652744D01*
X149753774Y-127841102D01*
X149714000Y-128041061D01*
X149714000Y-128244939D01*
X149753774Y-128444898D01*
X149831795Y-128633256D01*
X149945063Y-128802774D01*
X150089226Y-128946937D01*
X150258744Y-129060205D01*
X150447102Y-129138226D01*
X150647061Y-129178000D01*
X150850939Y-129178000D01*
X151050898Y-129138226D01*
X151091999Y-129121201D01*
X151091999Y-129427554D01*
X148966554Y-131553000D01*
X148869061Y-131553000D01*
X148669102Y-131592774D01*
X148480744Y-131670795D01*
X148311226Y-131784063D01*
X148167063Y-131928226D01*
X148053795Y-132097744D01*
X147975774Y-132286102D01*
X147936000Y-132486061D01*
X147936000Y-132689939D01*
X147975774Y-132889898D01*
X148053795Y-133078256D01*
X148167063Y-133247774D01*
X148311226Y-133391937D01*
X148480744Y-133505205D01*
X148669102Y-133583226D01*
X148869061Y-133623000D01*
X149072939Y-133623000D01*
X149272898Y-133583226D01*
X149461256Y-133505205D01*
X149630774Y-133391937D01*
X149774937Y-133247774D01*
X149796401Y-133215651D01*
X149930750Y-133350000D01*
X151130000Y-133350000D01*
X151130000Y-132150750D01*
X150971250Y-131992000D01*
X150608422Y-131990025D01*
X152376193Y-130222254D01*
X152404237Y-130199239D01*
X152496086Y-130087321D01*
X152564336Y-129959634D01*
X152606364Y-129821086D01*
X152620555Y-129677001D01*
X152606364Y-129532917D01*
X152564336Y-129394368D01*
X152561999Y-129389996D01*
X152561999Y-129320999D01*
X152826896Y-129320999D01*
X152863001Y-129324555D01*
X152899106Y-129320999D01*
X153007086Y-129310364D01*
X153145634Y-129268336D01*
X153273321Y-129200086D01*
X153385239Y-129108237D01*
X153477088Y-128996319D01*
X153545338Y-128868632D01*
X153587366Y-128730084D01*
X153601557Y-128585999D01*
X153598001Y-128549894D01*
X153598001Y-123412445D01*
X156640717Y-120369730D01*
X156676063Y-120422629D01*
X156820226Y-120566792D01*
X156989744Y-120680060D01*
X157178102Y-120758081D01*
X157378061Y-120797855D01*
X157581939Y-120797855D01*
X157781898Y-120758081D01*
X157888425Y-120713956D01*
X157959795Y-120886256D01*
X158073063Y-121055774D01*
X158217226Y-121199937D01*
X158386744Y-121313205D01*
X158500958Y-121360514D01*
X158521966Y-121466129D01*
X158599987Y-121654487D01*
X158713255Y-121824005D01*
X158769504Y-121880254D01*
X154844542Y-125713640D01*
X154734812Y-125713640D01*
X154534853Y-125753414D01*
X154346495Y-125831435D01*
X154176977Y-125944703D01*
X154032814Y-126088866D01*
X153919546Y-126258384D01*
X153841525Y-126446742D01*
X153801751Y-126646701D01*
X153801751Y-126850579D01*
X153841525Y-127050538D01*
X153919546Y-127238896D01*
X154032814Y-127408414D01*
X154176977Y-127552577D01*
X154346495Y-127665845D01*
X154534853Y-127743866D01*
X154734812Y-127783640D01*
X154938690Y-127783640D01*
X155138649Y-127743866D01*
X155220072Y-127710139D01*
X155339077Y-127789656D01*
X155527435Y-127867677D01*
X155727394Y-127907451D01*
X155931272Y-127907451D01*
X156131231Y-127867677D01*
X156213740Y-127833501D01*
X156273317Y-127893078D01*
X156442835Y-128006346D01*
X156631193Y-128084367D01*
X156831152Y-128124141D01*
X156928645Y-128124141D01*
X161942206Y-133137703D01*
X161905503Y-133322225D01*
X161905503Y-133526103D01*
X161908056Y-133538937D01*
X161863111Y-133508906D01*
X161674753Y-133430885D01*
X161474794Y-133391111D01*
X161270916Y-133391111D01*
X161070957Y-133430885D01*
X160915701Y-133495195D01*
X159800999Y-132380494D01*
X159800999Y-132155359D01*
X159804555Y-132119254D01*
X159790364Y-131975169D01*
X159756066Y-131862105D01*
X159748336Y-131836622D01*
X159680086Y-131708935D01*
X159636116Y-131655358D01*
X159611252Y-131625061D01*
X159611249Y-131625058D01*
X159588236Y-131597017D01*
X159560196Y-131574005D01*
X157413002Y-129426812D01*
X157389982Y-129398762D01*
X157278064Y-129306913D01*
X157150377Y-129238663D01*
X157011829Y-129196635D01*
X156903849Y-129186000D01*
X156867744Y-129182444D01*
X156831639Y-129186000D01*
X156176711Y-129186000D01*
X156107774Y-129117063D01*
X155938256Y-129003795D01*
X155749898Y-128925774D01*
X155549939Y-128886000D01*
X155346061Y-128886000D01*
X155146102Y-128925774D01*
X154957744Y-129003795D01*
X154788226Y-129117063D01*
X154644063Y-129261226D01*
X154530795Y-129430744D01*
X154452774Y-129619102D01*
X154413000Y-129819061D01*
X154413000Y-130022939D01*
X154452774Y-130222898D01*
X154530795Y-130411256D01*
X154644063Y-130580774D01*
X154788226Y-130724937D01*
X154957744Y-130838205D01*
X155146102Y-130916226D01*
X155346061Y-130956000D01*
X155549939Y-130956000D01*
X155749898Y-130916226D01*
X155938256Y-130838205D01*
X156107774Y-130724937D01*
X156176711Y-130656000D01*
X156563298Y-130656000D01*
X156885648Y-130978350D01*
X156820226Y-131022063D01*
X156751289Y-131091000D01*
X153763711Y-131091000D01*
X153694774Y-131022063D01*
X153525256Y-130908795D01*
X153336898Y-130830774D01*
X153136939Y-130791000D01*
X152933061Y-130791000D01*
X152733102Y-130830774D01*
X152544744Y-130908795D01*
X152375226Y-131022063D01*
X152231063Y-131166226D01*
X152117795Y-131335744D01*
X152039774Y-131524102D01*
X152000000Y-131724061D01*
X152000000Y-131927939D01*
X152012234Y-131989444D01*
X151542750Y-131992000D01*
X151384000Y-132150750D01*
X151384000Y-133350000D01*
X151404000Y-133350000D01*
X151404000Y-133604000D01*
X151384000Y-133604000D01*
X151384000Y-134803250D01*
X151542750Y-134962000D01*
X152107000Y-134965072D01*
X152231482Y-134952812D01*
X152351180Y-134916502D01*
X152461494Y-134857537D01*
X152558185Y-134778185D01*
X152637537Y-134681494D01*
X152696502Y-134571180D01*
X152718513Y-134498620D01*
X152850368Y-134630475D01*
X153093589Y-134792990D01*
X153363842Y-134904932D01*
X153650740Y-134962000D01*
X153943260Y-134962000D01*
X154230158Y-134904932D01*
X154500411Y-134792990D01*
X154743632Y-134630475D01*
X154950475Y-134423632D01*
X155067000Y-134249240D01*
X155183525Y-134423632D01*
X155390368Y-134630475D01*
X155633589Y-134792990D01*
X155903842Y-134904932D01*
X156190740Y-134962000D01*
X156483260Y-134962000D01*
X156770158Y-134904932D01*
X157040411Y-134792990D01*
X157283632Y-134630475D01*
X157490475Y-134423632D01*
X157652990Y-134180411D01*
X157764932Y-133910158D01*
X157822000Y-133623260D01*
X157822000Y-133330740D01*
X157764932Y-133043842D01*
X157681032Y-132841289D01*
X157781898Y-132821226D01*
X157970256Y-132743205D01*
X158139774Y-132629937D01*
X158283937Y-132485774D01*
X158327650Y-132420353D01*
X158330999Y-132423702D01*
X158330999Y-132648835D01*
X158327443Y-132684940D01*
X158330999Y-132721045D01*
X158341634Y-132829025D01*
X158383662Y-132967573D01*
X158451913Y-133095260D01*
X158543762Y-133207178D01*
X158571807Y-133230194D01*
X160261916Y-134920304D01*
X160284932Y-134948349D01*
X160386598Y-135031784D01*
X160396850Y-135040198D01*
X160524536Y-135108448D01*
X160620631Y-135137598D01*
X160713033Y-135230000D01*
X142018277Y-135230000D01*
X141966805Y-135224953D01*
X141948337Y-135219377D01*
X141931307Y-135210322D01*
X141916357Y-135198129D01*
X141904061Y-135183266D01*
X141894889Y-135166303D01*
X141889183Y-135147871D01*
X141884000Y-135098554D01*
X141884000Y-134327000D01*
X149768928Y-134327000D01*
X149781188Y-134451482D01*
X149817498Y-134571180D01*
X149876463Y-134681494D01*
X149955815Y-134778185D01*
X150052506Y-134857537D01*
X150162820Y-134916502D01*
X150282518Y-134952812D01*
X150407000Y-134965072D01*
X150971250Y-134962000D01*
X151130000Y-134803250D01*
X151130000Y-133604000D01*
X149930750Y-133604000D01*
X149772000Y-133762750D01*
X149768928Y-134327000D01*
X141884000Y-134327000D01*
X141884000Y-128839883D01*
X141944063Y-128929774D01*
X142088226Y-129073937D01*
X142257744Y-129187205D01*
X142446102Y-129265226D01*
X142646061Y-129305000D01*
X142849939Y-129305000D01*
X143049898Y-129265226D01*
X143238256Y-129187205D01*
X143407774Y-129073937D01*
X143551937Y-128929774D01*
X143665205Y-128760256D01*
X143743226Y-128571898D01*
X143783000Y-128371939D01*
X143783000Y-128168061D01*
X143743226Y-127968102D01*
X143665205Y-127779744D01*
X143551937Y-127610226D01*
X143407774Y-127466063D01*
X143238256Y-127352795D01*
X143049898Y-127274774D01*
X142849939Y-127235000D01*
X142646061Y-127235000D01*
X142446102Y-127274774D01*
X142257744Y-127352795D01*
X142088226Y-127466063D01*
X141944063Y-127610226D01*
X141884000Y-127700117D01*
X141884000Y-124421000D01*
X142402928Y-124421000D01*
X142415188Y-124545482D01*
X142451498Y-124665180D01*
X142510463Y-124775494D01*
X142589815Y-124872185D01*
X142686506Y-124951537D01*
X142796820Y-125010502D01*
X142916518Y-125046812D01*
X143041000Y-125059072D01*
X143605250Y-125056000D01*
X143764000Y-124897250D01*
X143764000Y-123698000D01*
X144018000Y-123698000D01*
X144018000Y-124897250D01*
X144176750Y-125056000D01*
X144741000Y-125059072D01*
X144865482Y-125046812D01*
X144985180Y-125010502D01*
X145095494Y-124951537D01*
X145192185Y-124872185D01*
X145271537Y-124775494D01*
X145330502Y-124665180D01*
X145366812Y-124545482D01*
X145379072Y-124421000D01*
X145376000Y-123856750D01*
X145217250Y-123698000D01*
X144018000Y-123698000D01*
X143764000Y-123698000D01*
X142564750Y-123698000D01*
X142406000Y-123856750D01*
X142402928Y-124421000D01*
X141884000Y-124421000D01*
X141884000Y-122721000D01*
X142402928Y-122721000D01*
X142406000Y-123285250D01*
X142564750Y-123444000D01*
X143764000Y-123444000D01*
X143764000Y-123424000D01*
X144018000Y-123424000D01*
X144018000Y-123444000D01*
X145217250Y-123444000D01*
X145376000Y-123285250D01*
X145379072Y-122721000D01*
X145366812Y-122596518D01*
X145330502Y-122476820D01*
X145271537Y-122366506D01*
X145192185Y-122269815D01*
X145095494Y-122190463D01*
X144985180Y-122131498D01*
X144912620Y-122109487D01*
X145044475Y-121977632D01*
X145206990Y-121734411D01*
X145318932Y-121464158D01*
X145376000Y-121177260D01*
X145376000Y-120884740D01*
X145318932Y-120597842D01*
X145206990Y-120327589D01*
X145044475Y-120084368D01*
X144837632Y-119877525D01*
X144663240Y-119761000D01*
X144837632Y-119644475D01*
X145044475Y-119437632D01*
X145151096Y-119278061D01*
X147809000Y-119278061D01*
X147809000Y-119481939D01*
X147848774Y-119681898D01*
X147926795Y-119870256D01*
X148040063Y-120039774D01*
X148184226Y-120183937D01*
X148353744Y-120297205D01*
X148542102Y-120375226D01*
X148742061Y-120415000D01*
X148945939Y-120415000D01*
X149145898Y-120375226D01*
X149334256Y-120297205D01*
X149503774Y-120183937D01*
X149647937Y-120039774D01*
X149761205Y-119870256D01*
X149839226Y-119681898D01*
X149879000Y-119481939D01*
X149879000Y-119278061D01*
X149839226Y-119078102D01*
X149761205Y-118889744D01*
X149647937Y-118720226D01*
X149503774Y-118576063D01*
X149334256Y-118462795D01*
X149145898Y-118384774D01*
X148945939Y-118345000D01*
X148742061Y-118345000D01*
X148542102Y-118384774D01*
X148353744Y-118462795D01*
X148184226Y-118576063D01*
X148040063Y-118720226D01*
X147926795Y-118889744D01*
X147848774Y-119078102D01*
X147809000Y-119278061D01*
X145151096Y-119278061D01*
X145206990Y-119194411D01*
X145318932Y-118924158D01*
X145376000Y-118637260D01*
X145376000Y-118344740D01*
X145318932Y-118057842D01*
X145206990Y-117787589D01*
X145044475Y-117544368D01*
X144837632Y-117337525D01*
X144663240Y-117221000D01*
X144837632Y-117104475D01*
X145044475Y-116897632D01*
X145206990Y-116654411D01*
X145318932Y-116384158D01*
X145376000Y-116097260D01*
X145376000Y-115804740D01*
X145318932Y-115517842D01*
X145206990Y-115247589D01*
X145044475Y-115004368D01*
X144837632Y-114797525D01*
X144663240Y-114681000D01*
X144837632Y-114564475D01*
X145044475Y-114357632D01*
X145206990Y-114114411D01*
X145318932Y-113844158D01*
X145376000Y-113557260D01*
X145376000Y-113436061D01*
X151111000Y-113436061D01*
X151111000Y-113639939D01*
X151150774Y-113839898D01*
X151228795Y-114028256D01*
X151342063Y-114197774D01*
X151486226Y-114341937D01*
X151655744Y-114455205D01*
X151844102Y-114533226D01*
X152044061Y-114573000D01*
X152247939Y-114573000D01*
X152447898Y-114533226D01*
X152636256Y-114455205D01*
X152805774Y-114341937D01*
X152949937Y-114197774D01*
X153063205Y-114028256D01*
X153141226Y-113839898D01*
X153181000Y-113639939D01*
X153181000Y-113436061D01*
X153141226Y-113236102D01*
X153063205Y-113047744D01*
X152949937Y-112878226D01*
X152805774Y-112734063D01*
X152636256Y-112620795D01*
X152447898Y-112542774D01*
X152247939Y-112503000D01*
X152044061Y-112503000D01*
X151844102Y-112542774D01*
X151655744Y-112620795D01*
X151486226Y-112734063D01*
X151342063Y-112878226D01*
X151228795Y-113047744D01*
X151150774Y-113236102D01*
X151111000Y-113436061D01*
X145376000Y-113436061D01*
X145376000Y-113264740D01*
X145318932Y-112977842D01*
X145206990Y-112707589D01*
X145044475Y-112464368D01*
X144837632Y-112257525D01*
X144594411Y-112095010D01*
X144324158Y-111983068D01*
X144037260Y-111926000D01*
X143744740Y-111926000D01*
X143457842Y-111983068D01*
X143187589Y-112095010D01*
X142944368Y-112257525D01*
X142737525Y-112464368D01*
X142575010Y-112707589D01*
X142463068Y-112977842D01*
X142406000Y-113264740D01*
X142406000Y-113557260D01*
X142463068Y-113844158D01*
X142575010Y-114114411D01*
X142737525Y-114357632D01*
X142944368Y-114564475D01*
X143118760Y-114681000D01*
X142944368Y-114797525D01*
X142737525Y-115004368D01*
X142575010Y-115247589D01*
X142463068Y-115517842D01*
X142406000Y-115804740D01*
X142406000Y-116097260D01*
X142463068Y-116384158D01*
X142575010Y-116654411D01*
X142737525Y-116897632D01*
X142944368Y-117104475D01*
X143118760Y-117221000D01*
X142944368Y-117337525D01*
X142737525Y-117544368D01*
X142575010Y-117787589D01*
X142463068Y-118057842D01*
X142406000Y-118344740D01*
X142406000Y-118637260D01*
X142463068Y-118924158D01*
X142575010Y-119194411D01*
X142737525Y-119437632D01*
X142944368Y-119644475D01*
X143118760Y-119761000D01*
X142944368Y-119877525D01*
X142737525Y-120084368D01*
X142575010Y-120327589D01*
X142463068Y-120597842D01*
X142406000Y-120884740D01*
X142406000Y-121177260D01*
X142463068Y-121464158D01*
X142575010Y-121734411D01*
X142737525Y-121977632D01*
X142869380Y-122109487D01*
X142796820Y-122131498D01*
X142686506Y-122190463D01*
X142589815Y-122269815D01*
X142510463Y-122366506D01*
X142451498Y-122476820D01*
X142415188Y-122596518D01*
X142402928Y-122721000D01*
X141884000Y-122721000D01*
X141884000Y-111785061D01*
X177781000Y-111785061D01*
X177781000Y-111988939D01*
X177820774Y-112188898D01*
X177898795Y-112377256D01*
X178012063Y-112546774D01*
X178156226Y-112690937D01*
X178325744Y-112804205D01*
X178514102Y-112882226D01*
X178714061Y-112922000D01*
X178917939Y-112922000D01*
X179117898Y-112882226D01*
X179306256Y-112804205D01*
X179475774Y-112690937D01*
X179619937Y-112546774D01*
X179733205Y-112377256D01*
X179811226Y-112188898D01*
X179851000Y-111988939D01*
X179851000Y-111785061D01*
X179811226Y-111585102D01*
X179733205Y-111396744D01*
X179619937Y-111227226D01*
X179475774Y-111083063D01*
X179306256Y-110969795D01*
X179117898Y-110891774D01*
X178917939Y-110852000D01*
X178714061Y-110852000D01*
X178514102Y-110891774D01*
X178325744Y-110969795D01*
X178156226Y-111083063D01*
X178012063Y-111227226D01*
X177898795Y-111396744D01*
X177820774Y-111585102D01*
X177781000Y-111785061D01*
X141884000Y-111785061D01*
X141884000Y-107557286D01*
X141910586Y-107575050D01*
X142094394Y-107651186D01*
X142289524Y-107690000D01*
X142488476Y-107690000D01*
X142683606Y-107651186D01*
X142867414Y-107575050D01*
X143032837Y-107464518D01*
X143173518Y-107323837D01*
X143284050Y-107158414D01*
X143360186Y-106974606D01*
X143399000Y-106779476D01*
X143399000Y-106580524D01*
X144129000Y-106580524D01*
X144129000Y-106779476D01*
X144167814Y-106974606D01*
X144243950Y-107158414D01*
X144354482Y-107323837D01*
X144495163Y-107464518D01*
X144660586Y-107575050D01*
X144844394Y-107651186D01*
X145039524Y-107690000D01*
X145238476Y-107690000D01*
X145433606Y-107651186D01*
X145617414Y-107575050D01*
X145782837Y-107464518D01*
X145907294Y-107340061D01*
X151492000Y-107340061D01*
X151492000Y-107543939D01*
X151531774Y-107743898D01*
X151609795Y-107932256D01*
X151723063Y-108101774D01*
X151867226Y-108245937D01*
X152036744Y-108359205D01*
X152225102Y-108437226D01*
X152254000Y-108442974D01*
X152254000Y-108559939D01*
X152293774Y-108759898D01*
X152371795Y-108948256D01*
X152485063Y-109117774D01*
X152629226Y-109261937D01*
X152798744Y-109375205D01*
X152987102Y-109453226D01*
X153187061Y-109493000D01*
X153390939Y-109493000D01*
X153590898Y-109453226D01*
X153779256Y-109375205D01*
X153948774Y-109261937D01*
X154092937Y-109117774D01*
X154206205Y-108948256D01*
X154284226Y-108759898D01*
X154324000Y-108559939D01*
X154324000Y-108356061D01*
X154284226Y-108156102D01*
X154206205Y-107967744D01*
X154092937Y-107798226D01*
X153948774Y-107654063D01*
X153813338Y-107563568D01*
X153855256Y-107546205D01*
X154024774Y-107432937D01*
X154168937Y-107288774D01*
X154282205Y-107119256D01*
X154360226Y-106930898D01*
X154400000Y-106730939D01*
X154400000Y-106527061D01*
X154360226Y-106327102D01*
X154282205Y-106138744D01*
X154177085Y-105981419D01*
X169261000Y-105981419D01*
X169261000Y-106362581D01*
X169335361Y-106736419D01*
X169481225Y-107088566D01*
X169692987Y-107405491D01*
X169962509Y-107675013D01*
X170279434Y-107886775D01*
X170631581Y-108032639D01*
X171005419Y-108107000D01*
X171386581Y-108107000D01*
X171760419Y-108032639D01*
X172112566Y-107886775D01*
X172429491Y-107675013D01*
X172632504Y-107472000D01*
X174337928Y-107472000D01*
X174350188Y-107596482D01*
X174386498Y-107716180D01*
X174445463Y-107826494D01*
X174524815Y-107923185D01*
X174621506Y-108002537D01*
X174731820Y-108061502D01*
X174851518Y-108097812D01*
X174976000Y-108110072D01*
X175990250Y-108107000D01*
X176149000Y-107948250D01*
X176149000Y-106299000D01*
X176403000Y-106299000D01*
X176403000Y-107948250D01*
X176561750Y-108107000D01*
X177576000Y-108110072D01*
X177700482Y-108097812D01*
X177820180Y-108061502D01*
X177930494Y-108002537D01*
X178027185Y-107923185D01*
X178106537Y-107826494D01*
X178165502Y-107716180D01*
X178201812Y-107596482D01*
X178214072Y-107472000D01*
X178211000Y-106457750D01*
X178052250Y-106299000D01*
X176403000Y-106299000D01*
X176149000Y-106299000D01*
X174499750Y-106299000D01*
X174341000Y-106457750D01*
X174337928Y-107472000D01*
X172632504Y-107472000D01*
X172699013Y-107405491D01*
X172910775Y-107088566D01*
X173056639Y-106736419D01*
X173131000Y-106362581D01*
X173131000Y-105981419D01*
X173056639Y-105607581D01*
X172910775Y-105255434D01*
X172699013Y-104938509D01*
X172632504Y-104872000D01*
X174337928Y-104872000D01*
X174341000Y-105886250D01*
X174499750Y-106045000D01*
X176149000Y-106045000D01*
X176149000Y-104395750D01*
X176403000Y-104395750D01*
X176403000Y-106045000D01*
X178052250Y-106045000D01*
X178211000Y-105886250D01*
X178214072Y-104872000D01*
X178201812Y-104747518D01*
X178165502Y-104627820D01*
X178106537Y-104517506D01*
X178027185Y-104420815D01*
X177930494Y-104341463D01*
X177820180Y-104282498D01*
X177700482Y-104246188D01*
X177576000Y-104233928D01*
X176561750Y-104237000D01*
X176403000Y-104395750D01*
X176149000Y-104395750D01*
X175990250Y-104237000D01*
X174976000Y-104233928D01*
X174851518Y-104246188D01*
X174731820Y-104282498D01*
X174621506Y-104341463D01*
X174524815Y-104420815D01*
X174445463Y-104517506D01*
X174386498Y-104627820D01*
X174350188Y-104747518D01*
X174337928Y-104872000D01*
X172632504Y-104872000D01*
X172429491Y-104668987D01*
X172112566Y-104457225D01*
X171760419Y-104311361D01*
X171386581Y-104237000D01*
X171005419Y-104237000D01*
X170631581Y-104311361D01*
X170279434Y-104457225D01*
X169962509Y-104668987D01*
X169692987Y-104938509D01*
X169481225Y-105255434D01*
X169335361Y-105607581D01*
X169261000Y-105981419D01*
X154177085Y-105981419D01*
X154168937Y-105969226D01*
X154024774Y-105825063D01*
X153855256Y-105711795D01*
X153666898Y-105633774D01*
X153466939Y-105594000D01*
X153263061Y-105594000D01*
X153063102Y-105633774D01*
X152874744Y-105711795D01*
X152705226Y-105825063D01*
X152561063Y-105969226D01*
X152447795Y-106138744D01*
X152369774Y-106327102D01*
X152350949Y-106421742D01*
X152225102Y-106446774D01*
X152036744Y-106524795D01*
X151867226Y-106638063D01*
X151723063Y-106782226D01*
X151609795Y-106951744D01*
X151531774Y-107140102D01*
X151492000Y-107340061D01*
X145907294Y-107340061D01*
X145923518Y-107323837D01*
X146034050Y-107158414D01*
X146110186Y-106974606D01*
X146149000Y-106779476D01*
X146149000Y-106580524D01*
X146110186Y-106385394D01*
X146034050Y-106201586D01*
X145923518Y-106036163D01*
X145782837Y-105895482D01*
X145617414Y-105784950D01*
X145433606Y-105708814D01*
X145238476Y-105670000D01*
X145039524Y-105670000D01*
X144844394Y-105708814D01*
X144660586Y-105784950D01*
X144495163Y-105895482D01*
X144354482Y-106036163D01*
X144243950Y-106201586D01*
X144167814Y-106385394D01*
X144129000Y-106580524D01*
X143399000Y-106580524D01*
X143360186Y-106385394D01*
X143284050Y-106201586D01*
X143173518Y-106036163D01*
X143032837Y-105895482D01*
X142867414Y-105784950D01*
X142683606Y-105708814D01*
X142488476Y-105670000D01*
X142289524Y-105670000D01*
X142094394Y-105708814D01*
X141910586Y-105784950D01*
X141884000Y-105802714D01*
X141884000Y-102394277D01*
X141889047Y-102342803D01*
X141894622Y-102324338D01*
X141903678Y-102307306D01*
X141915870Y-102292357D01*
X141930732Y-102280062D01*
X141947696Y-102270889D01*
X141966129Y-102265183D01*
X142015446Y-102260000D01*
X208755723Y-102260000D01*
X208807197Y-102265047D01*
%TD*%
M02*
