%TF.GenerationSoftware,KiCad,Pcbnew,5.1.6-c6e7f7d~87~ubuntu20.04.1*%
%TF.CreationDate,2020-11-01T20:39:10-05:00*%
%TF.ProjectId,STM32 Driver v1,53544d33-3220-4447-9269-766572207631,rev?*%
%TF.SameCoordinates,Original*%
%TF.FileFunction,Copper,L3,Inr*%
%TF.FilePolarity,Positive*%
%FSLAX46Y46*%
G04 Gerber Fmt 4.6, Leading zero omitted, Abs format (unit mm)*
G04 Created by KiCad (PCBNEW 5.1.6-c6e7f7d~87~ubuntu20.04.1) date 2020-11-01 20:39:10*
%MOMM*%
%LPD*%
G01*
G04 APERTURE LIST*
%TA.AperFunction,ViaPad*%
%ADD10C,1.700000*%
%TD*%
%TA.AperFunction,ViaPad*%
%ADD11R,2.600000X2.600000*%
%TD*%
%TA.AperFunction,ViaPad*%
%ADD12C,2.600000*%
%TD*%
%TA.AperFunction,ViaPad*%
%ADD13R,1.700000X1.700000*%
%TD*%
%TA.AperFunction,ViaPad*%
%ADD14O,1.700000X1.700000*%
%TD*%
%TA.AperFunction,ViaPad*%
%ADD15C,0.800000*%
%TD*%
%TA.AperFunction,Conductor*%
%ADD16C,0.254000*%
%TD*%
G04 APERTURE END LIST*
D10*
%TO.N,GND*%
%TO.C,J3*%
X185928000Y-131953000D03*
%TO.N,LAT*%
X188468000Y-131953000D03*
%TO.N,D*%
X191008000Y-131953000D03*
%TO.N,B*%
X193548000Y-131953000D03*
%TO.N,E*%
X196088000Y-131953000D03*
%TO.N,G1*%
X198628000Y-131953000D03*
%TO.N,GND*%
X201168000Y-131953000D03*
%TO.N,G0*%
X203708000Y-131953000D03*
%TO.N,~OE*%
X185928000Y-129413000D03*
%TO.N,CLK*%
X188468000Y-129413000D03*
%TO.N,C*%
X191008000Y-129413000D03*
%TO.N,A*%
X193548000Y-129413000D03*
%TO.N,B1*%
X196088000Y-129413000D03*
%TO.N,R1*%
X198628000Y-129413000D03*
%TO.N,B0*%
X201168000Y-129413000D03*
%TO.N,R0*%
%TA.AperFunction,ViaPad*%
G36*
G01*
X203108000Y-128563000D02*
X204308000Y-128563000D01*
G75*
G02*
X204558000Y-128813000I0J-250000D01*
G01*
X204558000Y-130013000D01*
G75*
G02*
X204308000Y-130263000I-250000J0D01*
G01*
X203108000Y-130263000D01*
G75*
G02*
X202858000Y-130013000I0J250000D01*
G01*
X202858000Y-128813000D01*
G75*
G02*
X203108000Y-128563000I250000J0D01*
G01*
G37*
%TD.AperFunction*%
%TD*%
D11*
%TO.N,GND*%
%TO.C,J2*%
X176276000Y-106172000D03*
D12*
%TO.N,+5V*%
X171196000Y-106172000D03*
%TD*%
D13*
%TO.N,LED_0*%
%TO.C,J4*%
X184150000Y-109220000D03*
D14*
%TO.N,LED_CLK*%
X184150000Y-106680000D03*
%TO.N,LED_1*%
X186690000Y-109220000D03*
%TO.N,LED_CLK*%
X186690000Y-106680000D03*
%TO.N,LED_2*%
X189230000Y-109220000D03*
%TO.N,LED_CLK*%
X189230000Y-106680000D03*
%TO.N,LED_3*%
X191770000Y-109220000D03*
%TO.N,LED_CLK*%
X191770000Y-106680000D03*
%TO.N,LED_4*%
X194310000Y-109220000D03*
%TO.N,LED_CLK*%
X194310000Y-106680000D03*
%TO.N,LED_5*%
X196850000Y-109220000D03*
%TO.N,LED_CLK*%
X196850000Y-106680000D03*
%TO.N,LED_6*%
X199390000Y-109220000D03*
%TO.N,LED_CLK*%
X199390000Y-106680000D03*
%TO.N,LED_7*%
X201930000Y-109220000D03*
%TO.N,LED_CLK*%
X201930000Y-106680000D03*
%TO.N,LED_8*%
X204470000Y-109220000D03*
%TO.N,LED_CLK*%
X204470000Y-106680000D03*
%TD*%
D13*
%TO.N,GND*%
%TO.C,J5*%
X143891000Y-123571000D03*
D14*
%TO.N,SPI1_COPI*%
X143891000Y-121031000D03*
%TO.N,SPI1_CIPO*%
X143891000Y-118491000D03*
%TO.N,SPI1_SCK*%
X143891000Y-115951000D03*
%TO.N,SPI1_NCS*%
X143891000Y-113411000D03*
%TD*%
D13*
%TO.N,GND*%
%TO.C,J6*%
X151257000Y-133477000D03*
D14*
%TO.N,UART1_TX*%
X153797000Y-133477000D03*
%TO.N,UART1_RX*%
X156337000Y-133477000D03*
%TD*%
D15*
%TO.N,GND*%
X171577000Y-133985000D03*
X172974000Y-125984000D03*
X172720000Y-118618000D03*
X175701883Y-113520982D03*
X176022000Y-120904000D03*
X176022000Y-128016000D03*
X181991000Y-120015000D03*
X182499000Y-112522000D03*
X152960565Y-112290173D03*
X164211000Y-112268000D03*
X154432000Y-110109000D03*
X155369748Y-118945556D03*
X153289000Y-119634000D03*
X152527000Y-129286000D03*
X164973000Y-129159000D03*
X161544000Y-119771056D03*
X166048317Y-117792638D03*
X148844000Y-117856000D03*
X148844000Y-104140000D03*
X153289000Y-102997000D03*
X161671000Y-102997000D03*
X157988000Y-102997000D03*
X156083000Y-104902000D03*
X156083000Y-107569000D03*
X144399000Y-128651000D03*
X147701000Y-128905000D03*
X159766000Y-132207000D03*
X149733000Y-128778000D03*
X145542000Y-128778000D03*
X182118000Y-127000000D03*
X143256000Y-108204000D03*
X149860000Y-110998000D03*
X162306000Y-114046000D03*
%TO.N,+3V3*%
X152146000Y-113538000D03*
X162179000Y-115570000D03*
X165100000Y-118110000D03*
X163068000Y-129921000D03*
X148844000Y-119380000D03*
X153289000Y-108458000D03*
X152527000Y-107442000D03*
X153365000Y-106629000D03*
X142748000Y-128270000D03*
X150749000Y-128143000D03*
%TO.N,+5V*%
X178816000Y-111887000D03*
X178982934Y-119322010D03*
X178459523Y-126810127D03*
%TO.N,SWDIO*%
X157480000Y-131826000D03*
X153035000Y-131826000D03*
%TO.N,SWCLK*%
X164338000Y-126756952D03*
X164084000Y-130937000D03*
%TO.N,~RESET*%
X148971000Y-132588000D03*
X156883969Y-115468838D03*
%TO.N,LED_0*%
X179705000Y-133223000D03*
%TO.N,LED_CLK*%
X178689000Y-132399990D03*
%TO.N,PC3*%
X163984585Y-117958147D03*
X157480000Y-119762855D03*
%TO.N,PC4*%
X168923586Y-116072010D03*
X158877000Y-120396000D03*
%TO.N,PC5*%
X169926000Y-116722010D03*
X159517192Y-121164231D03*
%TO.N,PB0*%
X161456298Y-122384089D03*
X170330930Y-120405952D03*
%TO.N,PB1*%
X161504077Y-123382959D03*
X169676564Y-121162146D03*
%TO.N,PB2*%
X161417000Y-124460000D03*
X168656000Y-121981990D03*
%TO.N,PB14*%
X155448000Y-129921000D03*
X161372855Y-134426111D03*
%TO.N,PC6*%
X154836751Y-126748640D03*
X168893327Y-117523337D03*
%TO.N,PC7*%
X155829333Y-126872451D03*
X169485666Y-118329040D03*
%TO.N,PC8*%
X156933091Y-127089141D03*
X162940503Y-133424164D03*
%TO.N,PC10*%
X170116500Y-131850010D03*
X165286516Y-126044515D03*
%TD*%
D16*
%TO.N,+3V3*%
G36*
X152485063Y-102337226D02*
G01*
X152371795Y-102506744D01*
X152293774Y-102695102D01*
X152254000Y-102895061D01*
X152254000Y-103098939D01*
X152293774Y-103298898D01*
X152371795Y-103487256D01*
X152485063Y-103656774D01*
X152629226Y-103800937D01*
X152798744Y-103914205D01*
X152987102Y-103992226D01*
X153187061Y-104032000D01*
X153390939Y-104032000D01*
X153590898Y-103992226D01*
X153779256Y-103914205D01*
X153948774Y-103800937D01*
X154092937Y-103656774D01*
X154206205Y-103487256D01*
X154284226Y-103298898D01*
X154324000Y-103098939D01*
X154324000Y-102895061D01*
X154284226Y-102695102D01*
X154206205Y-102506744D01*
X154092937Y-102337226D01*
X154015711Y-102260000D01*
X157261289Y-102260000D01*
X157184063Y-102337226D01*
X157070795Y-102506744D01*
X156992774Y-102695102D01*
X156953000Y-102895061D01*
X156953000Y-103098939D01*
X156992774Y-103298898D01*
X157070795Y-103487256D01*
X157184063Y-103656774D01*
X157328226Y-103800937D01*
X157497744Y-103914205D01*
X157686102Y-103992226D01*
X157886061Y-104032000D01*
X158089939Y-104032000D01*
X158289898Y-103992226D01*
X158478256Y-103914205D01*
X158647774Y-103800937D01*
X158791937Y-103656774D01*
X158905205Y-103487256D01*
X158983226Y-103298898D01*
X159023000Y-103098939D01*
X159023000Y-102895061D01*
X158983226Y-102695102D01*
X158905205Y-102506744D01*
X158791937Y-102337226D01*
X158714711Y-102260000D01*
X160944289Y-102260000D01*
X160867063Y-102337226D01*
X160753795Y-102506744D01*
X160675774Y-102695102D01*
X160636000Y-102895061D01*
X160636000Y-103098939D01*
X160675774Y-103298898D01*
X160753795Y-103487256D01*
X160867063Y-103656774D01*
X161011226Y-103800937D01*
X161180744Y-103914205D01*
X161369102Y-103992226D01*
X161569061Y-104032000D01*
X161772939Y-104032000D01*
X161972898Y-103992226D01*
X162161256Y-103914205D01*
X162330774Y-103800937D01*
X162474937Y-103656774D01*
X162588205Y-103487256D01*
X162666226Y-103298898D01*
X162706000Y-103098939D01*
X162706000Y-102895061D01*
X162666226Y-102695102D01*
X162588205Y-102506744D01*
X162474937Y-102337226D01*
X162397711Y-102260000D01*
X168529000Y-102260000D01*
X168529000Y-115115177D01*
X168433330Y-115154805D01*
X168263812Y-115268073D01*
X168119649Y-115412236D01*
X168006381Y-115581754D01*
X167928360Y-115770112D01*
X167888586Y-115970071D01*
X167888586Y-116173949D01*
X167928360Y-116373908D01*
X168006381Y-116562266D01*
X168119649Y-116731784D01*
X168170409Y-116782544D01*
X168089390Y-116863563D01*
X167976122Y-117033081D01*
X167898101Y-117221439D01*
X167858327Y-117421398D01*
X167858327Y-117625276D01*
X167898101Y-117825235D01*
X167976122Y-118013593D01*
X168089390Y-118183111D01*
X168233553Y-118327274D01*
X168403071Y-118440542D01*
X168457013Y-118462885D01*
X168490440Y-118630938D01*
X168529000Y-118724029D01*
X168529000Y-120951975D01*
X168354102Y-120986764D01*
X168165744Y-121064785D01*
X167996226Y-121178053D01*
X167852063Y-121322216D01*
X167738795Y-121491734D01*
X167660774Y-121680092D01*
X167621000Y-121880051D01*
X167621000Y-122083929D01*
X167660774Y-122283888D01*
X167738795Y-122472246D01*
X167852063Y-122641764D01*
X167996226Y-122785927D01*
X168165744Y-122899195D01*
X168354102Y-122977216D01*
X168529000Y-123012005D01*
X168529000Y-135230000D01*
X162032677Y-135230000D01*
X162176792Y-135085885D01*
X162290060Y-134916367D01*
X162368081Y-134728009D01*
X162407855Y-134528050D01*
X162407855Y-134324172D01*
X162405302Y-134311338D01*
X162450247Y-134341369D01*
X162638605Y-134419390D01*
X162838564Y-134459164D01*
X163042442Y-134459164D01*
X163242401Y-134419390D01*
X163430759Y-134341369D01*
X163600277Y-134228101D01*
X163744440Y-134083938D01*
X163857708Y-133914420D01*
X163935729Y-133726062D01*
X163975503Y-133526103D01*
X163975503Y-133322225D01*
X163935729Y-133122266D01*
X163857708Y-132933908D01*
X163744440Y-132764390D01*
X163600277Y-132620227D01*
X163430759Y-132506959D01*
X163242401Y-132428938D01*
X163042442Y-132389164D01*
X162838564Y-132389164D01*
X162638605Y-132428938D01*
X162450247Y-132506959D01*
X162280729Y-132620227D01*
X162136566Y-132764390D01*
X162023298Y-132933908D01*
X161945277Y-133122266D01*
X161905503Y-133322225D01*
X161905503Y-133526103D01*
X161908056Y-133538937D01*
X161863111Y-133508906D01*
X161674753Y-133430885D01*
X161474794Y-133391111D01*
X161270916Y-133391111D01*
X161070957Y-133430885D01*
X160882599Y-133508906D01*
X160713081Y-133622174D01*
X160568918Y-133766337D01*
X160455650Y-133935855D01*
X160377629Y-134124213D01*
X160337855Y-134324172D01*
X160337855Y-134528050D01*
X160377629Y-134728009D01*
X160455650Y-134916367D01*
X160568918Y-135085885D01*
X160713033Y-135230000D01*
X142018277Y-135230000D01*
X141966805Y-135224953D01*
X141948337Y-135219377D01*
X141931307Y-135210322D01*
X141916357Y-135198129D01*
X141904061Y-135183266D01*
X141894889Y-135166303D01*
X141889183Y-135147871D01*
X141884000Y-135098554D01*
X141884000Y-132486061D01*
X147936000Y-132486061D01*
X147936000Y-132689939D01*
X147975774Y-132889898D01*
X148053795Y-133078256D01*
X148167063Y-133247774D01*
X148311226Y-133391937D01*
X148480744Y-133505205D01*
X148669102Y-133583226D01*
X148869061Y-133623000D01*
X149072939Y-133623000D01*
X149272898Y-133583226D01*
X149461256Y-133505205D01*
X149630774Y-133391937D01*
X149768928Y-133253783D01*
X149768928Y-134327000D01*
X149781188Y-134451482D01*
X149817498Y-134571180D01*
X149876463Y-134681494D01*
X149955815Y-134778185D01*
X150052506Y-134857537D01*
X150162820Y-134916502D01*
X150282518Y-134952812D01*
X150407000Y-134965072D01*
X152107000Y-134965072D01*
X152231482Y-134952812D01*
X152351180Y-134916502D01*
X152461494Y-134857537D01*
X152558185Y-134778185D01*
X152637537Y-134681494D01*
X152696502Y-134571180D01*
X152718513Y-134498620D01*
X152850368Y-134630475D01*
X153093589Y-134792990D01*
X153363842Y-134904932D01*
X153650740Y-134962000D01*
X153943260Y-134962000D01*
X154230158Y-134904932D01*
X154500411Y-134792990D01*
X154743632Y-134630475D01*
X154950475Y-134423632D01*
X155067000Y-134249240D01*
X155183525Y-134423632D01*
X155390368Y-134630475D01*
X155633589Y-134792990D01*
X155903842Y-134904932D01*
X156190740Y-134962000D01*
X156483260Y-134962000D01*
X156770158Y-134904932D01*
X157040411Y-134792990D01*
X157283632Y-134630475D01*
X157490475Y-134423632D01*
X157652990Y-134180411D01*
X157764932Y-133910158D01*
X157822000Y-133623260D01*
X157822000Y-133330740D01*
X157764932Y-133043842D01*
X157681032Y-132841289D01*
X157781898Y-132821226D01*
X157970256Y-132743205D01*
X158139774Y-132629937D01*
X158283937Y-132485774D01*
X158397205Y-132316256D01*
X158475226Y-132127898D01*
X158479768Y-132105061D01*
X158731000Y-132105061D01*
X158731000Y-132308939D01*
X158770774Y-132508898D01*
X158848795Y-132697256D01*
X158962063Y-132866774D01*
X159106226Y-133010937D01*
X159275744Y-133124205D01*
X159464102Y-133202226D01*
X159664061Y-133242000D01*
X159867939Y-133242000D01*
X160067898Y-133202226D01*
X160256256Y-133124205D01*
X160425774Y-133010937D01*
X160569937Y-132866774D01*
X160683205Y-132697256D01*
X160761226Y-132508898D01*
X160801000Y-132308939D01*
X160801000Y-132105061D01*
X160761226Y-131905102D01*
X160683205Y-131716744D01*
X160569937Y-131547226D01*
X160425774Y-131403063D01*
X160256256Y-131289795D01*
X160067898Y-131211774D01*
X159867939Y-131172000D01*
X159664061Y-131172000D01*
X159464102Y-131211774D01*
X159275744Y-131289795D01*
X159106226Y-131403063D01*
X158962063Y-131547226D01*
X158848795Y-131716744D01*
X158770774Y-131905102D01*
X158731000Y-132105061D01*
X158479768Y-132105061D01*
X158515000Y-131927939D01*
X158515000Y-131724061D01*
X158475226Y-131524102D01*
X158397205Y-131335744D01*
X158283937Y-131166226D01*
X158139774Y-131022063D01*
X157970256Y-130908795D01*
X157792248Y-130835061D01*
X163049000Y-130835061D01*
X163049000Y-131038939D01*
X163088774Y-131238898D01*
X163166795Y-131427256D01*
X163280063Y-131596774D01*
X163424226Y-131740937D01*
X163593744Y-131854205D01*
X163782102Y-131932226D01*
X163982061Y-131972000D01*
X164185939Y-131972000D01*
X164385898Y-131932226D01*
X164574256Y-131854205D01*
X164743774Y-131740937D01*
X164887937Y-131596774D01*
X165001205Y-131427256D01*
X165079226Y-131238898D01*
X165119000Y-131038939D01*
X165119000Y-130835061D01*
X165079226Y-130635102D01*
X165001205Y-130446744D01*
X164887937Y-130277226D01*
X164788236Y-130177525D01*
X164871061Y-130194000D01*
X165074939Y-130194000D01*
X165274898Y-130154226D01*
X165463256Y-130076205D01*
X165632774Y-129962937D01*
X165776937Y-129818774D01*
X165890205Y-129649256D01*
X165968226Y-129460898D01*
X166008000Y-129260939D01*
X166008000Y-129057061D01*
X165968226Y-128857102D01*
X165890205Y-128668744D01*
X165776937Y-128499226D01*
X165632774Y-128355063D01*
X165463256Y-128241795D01*
X165274898Y-128163774D01*
X165074939Y-128124000D01*
X164871061Y-128124000D01*
X164671102Y-128163774D01*
X164482744Y-128241795D01*
X164313226Y-128355063D01*
X164169063Y-128499226D01*
X164055795Y-128668744D01*
X163977774Y-128857102D01*
X163938000Y-129057061D01*
X163938000Y-129260939D01*
X163977774Y-129460898D01*
X164055795Y-129649256D01*
X164169063Y-129818774D01*
X164268764Y-129918475D01*
X164185939Y-129902000D01*
X163982061Y-129902000D01*
X163782102Y-129941774D01*
X163593744Y-130019795D01*
X163424226Y-130133063D01*
X163280063Y-130277226D01*
X163166795Y-130446744D01*
X163088774Y-130635102D01*
X163049000Y-130835061D01*
X157792248Y-130835061D01*
X157781898Y-130830774D01*
X157581939Y-130791000D01*
X157378061Y-130791000D01*
X157178102Y-130830774D01*
X156989744Y-130908795D01*
X156820226Y-131022063D01*
X156676063Y-131166226D01*
X156562795Y-131335744D01*
X156484774Y-131524102D01*
X156445000Y-131724061D01*
X156445000Y-131927939D01*
X156457742Y-131992000D01*
X156190740Y-131992000D01*
X155903842Y-132049068D01*
X155633589Y-132161010D01*
X155390368Y-132323525D01*
X155183525Y-132530368D01*
X155067000Y-132704760D01*
X154950475Y-132530368D01*
X154743632Y-132323525D01*
X154500411Y-132161010D01*
X154230158Y-132049068D01*
X154052919Y-132013813D01*
X154070000Y-131927939D01*
X154070000Y-131724061D01*
X154030226Y-131524102D01*
X153952205Y-131335744D01*
X153838937Y-131166226D01*
X153694774Y-131022063D01*
X153525256Y-130908795D01*
X153336898Y-130830774D01*
X153136939Y-130791000D01*
X152933061Y-130791000D01*
X152733102Y-130830774D01*
X152544744Y-130908795D01*
X152375226Y-131022063D01*
X152231063Y-131166226D01*
X152117795Y-131335744D01*
X152039774Y-131524102D01*
X152000000Y-131724061D01*
X152000000Y-131927939D01*
X152012131Y-131988928D01*
X150407000Y-131988928D01*
X150282518Y-132001188D01*
X150162820Y-132037498D01*
X150052506Y-132096463D01*
X149955815Y-132175815D01*
X149932374Y-132204378D01*
X149888205Y-132097744D01*
X149774937Y-131928226D01*
X149630774Y-131784063D01*
X149461256Y-131670795D01*
X149272898Y-131592774D01*
X149072939Y-131553000D01*
X148869061Y-131553000D01*
X148669102Y-131592774D01*
X148480744Y-131670795D01*
X148311226Y-131784063D01*
X148167063Y-131928226D01*
X148053795Y-132097744D01*
X147975774Y-132286102D01*
X147936000Y-132486061D01*
X141884000Y-132486061D01*
X141884000Y-128549061D01*
X143364000Y-128549061D01*
X143364000Y-128752939D01*
X143403774Y-128952898D01*
X143481795Y-129141256D01*
X143595063Y-129310774D01*
X143739226Y-129454937D01*
X143908744Y-129568205D01*
X144097102Y-129646226D01*
X144297061Y-129686000D01*
X144500939Y-129686000D01*
X144700898Y-129646226D01*
X144874575Y-129574286D01*
X144882226Y-129581937D01*
X145051744Y-129695205D01*
X145240102Y-129773226D01*
X145440061Y-129813000D01*
X145643939Y-129813000D01*
X145843898Y-129773226D01*
X146032256Y-129695205D01*
X146201774Y-129581937D01*
X146345937Y-129437774D01*
X146459205Y-129268256D01*
X146537226Y-129079898D01*
X146577000Y-128879939D01*
X146577000Y-128803061D01*
X146666000Y-128803061D01*
X146666000Y-129006939D01*
X146705774Y-129206898D01*
X146783795Y-129395256D01*
X146897063Y-129564774D01*
X147041226Y-129708937D01*
X147210744Y-129822205D01*
X147399102Y-129900226D01*
X147599061Y-129940000D01*
X147802939Y-129940000D01*
X148002898Y-129900226D01*
X148191256Y-129822205D01*
X148360774Y-129708937D01*
X148504937Y-129564774D01*
X148618205Y-129395256D01*
X148696226Y-129206898D01*
X148729631Y-129038959D01*
X148737774Y-129079898D01*
X148815795Y-129268256D01*
X148929063Y-129437774D01*
X149073226Y-129581937D01*
X149242744Y-129695205D01*
X149431102Y-129773226D01*
X149631061Y-129813000D01*
X149834939Y-129813000D01*
X150034898Y-129773226D01*
X150223256Y-129695205D01*
X150392774Y-129581937D01*
X150536937Y-129437774D01*
X150650205Y-129268256D01*
X150685079Y-129184061D01*
X151492000Y-129184061D01*
X151492000Y-129387939D01*
X151531774Y-129587898D01*
X151609795Y-129776256D01*
X151723063Y-129945774D01*
X151867226Y-130089937D01*
X152036744Y-130203205D01*
X152225102Y-130281226D01*
X152425061Y-130321000D01*
X152628939Y-130321000D01*
X152828898Y-130281226D01*
X153017256Y-130203205D01*
X153186774Y-130089937D01*
X153330937Y-129945774D01*
X153415603Y-129819061D01*
X154413000Y-129819061D01*
X154413000Y-130022939D01*
X154452774Y-130222898D01*
X154530795Y-130411256D01*
X154644063Y-130580774D01*
X154788226Y-130724937D01*
X154957744Y-130838205D01*
X155146102Y-130916226D01*
X155346061Y-130956000D01*
X155549939Y-130956000D01*
X155749898Y-130916226D01*
X155938256Y-130838205D01*
X156107774Y-130724937D01*
X156251937Y-130580774D01*
X156365205Y-130411256D01*
X156443226Y-130222898D01*
X156483000Y-130022939D01*
X156483000Y-129819061D01*
X156443226Y-129619102D01*
X156365205Y-129430744D01*
X156251937Y-129261226D01*
X156107774Y-129117063D01*
X155938256Y-129003795D01*
X155749898Y-128925774D01*
X155549939Y-128886000D01*
X155346061Y-128886000D01*
X155146102Y-128925774D01*
X154957744Y-129003795D01*
X154788226Y-129117063D01*
X154644063Y-129261226D01*
X154530795Y-129430744D01*
X154452774Y-129619102D01*
X154413000Y-129819061D01*
X153415603Y-129819061D01*
X153444205Y-129776256D01*
X153522226Y-129587898D01*
X153562000Y-129387939D01*
X153562000Y-129184061D01*
X153522226Y-128984102D01*
X153444205Y-128795744D01*
X153330937Y-128626226D01*
X153186774Y-128482063D01*
X153017256Y-128368795D01*
X152828898Y-128290774D01*
X152628939Y-128251000D01*
X152425061Y-128251000D01*
X152225102Y-128290774D01*
X152036744Y-128368795D01*
X151867226Y-128482063D01*
X151723063Y-128626226D01*
X151609795Y-128795744D01*
X151531774Y-128984102D01*
X151492000Y-129184061D01*
X150685079Y-129184061D01*
X150728226Y-129079898D01*
X150768000Y-128879939D01*
X150768000Y-128676061D01*
X150728226Y-128476102D01*
X150650205Y-128287744D01*
X150536937Y-128118226D01*
X150392774Y-127974063D01*
X150223256Y-127860795D01*
X150034898Y-127782774D01*
X149834939Y-127743000D01*
X149631061Y-127743000D01*
X149431102Y-127782774D01*
X149242744Y-127860795D01*
X149073226Y-127974063D01*
X148929063Y-128118226D01*
X148815795Y-128287744D01*
X148737774Y-128476102D01*
X148704369Y-128644041D01*
X148696226Y-128603102D01*
X148618205Y-128414744D01*
X148504937Y-128245226D01*
X148360774Y-128101063D01*
X148191256Y-127987795D01*
X148002898Y-127909774D01*
X147802939Y-127870000D01*
X147599061Y-127870000D01*
X147399102Y-127909774D01*
X147210744Y-127987795D01*
X147041226Y-128101063D01*
X146897063Y-128245226D01*
X146783795Y-128414744D01*
X146705774Y-128603102D01*
X146666000Y-128803061D01*
X146577000Y-128803061D01*
X146577000Y-128676061D01*
X146537226Y-128476102D01*
X146459205Y-128287744D01*
X146345937Y-128118226D01*
X146201774Y-127974063D01*
X146032256Y-127860795D01*
X145843898Y-127782774D01*
X145643939Y-127743000D01*
X145440061Y-127743000D01*
X145240102Y-127782774D01*
X145066425Y-127854714D01*
X145058774Y-127847063D01*
X144889256Y-127733795D01*
X144700898Y-127655774D01*
X144500939Y-127616000D01*
X144297061Y-127616000D01*
X144097102Y-127655774D01*
X143908744Y-127733795D01*
X143739226Y-127847063D01*
X143595063Y-127991226D01*
X143481795Y-128160744D01*
X143403774Y-128349102D01*
X143364000Y-128549061D01*
X141884000Y-128549061D01*
X141884000Y-126646701D01*
X153801751Y-126646701D01*
X153801751Y-126850579D01*
X153841525Y-127050538D01*
X153919546Y-127238896D01*
X154032814Y-127408414D01*
X154176977Y-127552577D01*
X154346495Y-127665845D01*
X154534853Y-127743866D01*
X154734812Y-127783640D01*
X154938690Y-127783640D01*
X155138649Y-127743866D01*
X155220072Y-127710139D01*
X155339077Y-127789656D01*
X155527435Y-127867677D01*
X155727394Y-127907451D01*
X155931272Y-127907451D01*
X156131231Y-127867677D01*
X156213740Y-127833501D01*
X156273317Y-127893078D01*
X156442835Y-128006346D01*
X156631193Y-128084367D01*
X156831152Y-128124141D01*
X157035030Y-128124141D01*
X157234989Y-128084367D01*
X157423347Y-128006346D01*
X157592865Y-127893078D01*
X157737028Y-127748915D01*
X157850296Y-127579397D01*
X157928317Y-127391039D01*
X157968091Y-127191080D01*
X157968091Y-126987202D01*
X157928317Y-126787243D01*
X157873546Y-126655013D01*
X163303000Y-126655013D01*
X163303000Y-126858891D01*
X163342774Y-127058850D01*
X163420795Y-127247208D01*
X163534063Y-127416726D01*
X163678226Y-127560889D01*
X163847744Y-127674157D01*
X164036102Y-127752178D01*
X164236061Y-127791952D01*
X164439939Y-127791952D01*
X164639898Y-127752178D01*
X164828256Y-127674157D01*
X164997774Y-127560889D01*
X165141937Y-127416726D01*
X165255205Y-127247208D01*
X165324666Y-127079515D01*
X165388455Y-127079515D01*
X165588414Y-127039741D01*
X165776772Y-126961720D01*
X165946290Y-126848452D01*
X166090453Y-126704289D01*
X166203721Y-126534771D01*
X166281742Y-126346413D01*
X166321516Y-126146454D01*
X166321516Y-125942576D01*
X166281742Y-125742617D01*
X166203721Y-125554259D01*
X166090453Y-125384741D01*
X165946290Y-125240578D01*
X165776772Y-125127310D01*
X165588414Y-125049289D01*
X165388455Y-125009515D01*
X165184577Y-125009515D01*
X164984618Y-125049289D01*
X164796260Y-125127310D01*
X164626742Y-125240578D01*
X164482579Y-125384741D01*
X164369311Y-125554259D01*
X164299850Y-125721952D01*
X164236061Y-125721952D01*
X164036102Y-125761726D01*
X163847744Y-125839747D01*
X163678226Y-125953015D01*
X163534063Y-126097178D01*
X163420795Y-126266696D01*
X163342774Y-126455054D01*
X163303000Y-126655013D01*
X157873546Y-126655013D01*
X157850296Y-126598885D01*
X157737028Y-126429367D01*
X157592865Y-126285204D01*
X157423347Y-126171936D01*
X157234989Y-126093915D01*
X157035030Y-126054141D01*
X156831152Y-126054141D01*
X156631193Y-126093915D01*
X156548684Y-126128091D01*
X156489107Y-126068514D01*
X156319589Y-125955246D01*
X156131231Y-125877225D01*
X155931272Y-125837451D01*
X155727394Y-125837451D01*
X155527435Y-125877225D01*
X155446012Y-125910952D01*
X155327007Y-125831435D01*
X155138649Y-125753414D01*
X154938690Y-125713640D01*
X154734812Y-125713640D01*
X154534853Y-125753414D01*
X154346495Y-125831435D01*
X154176977Y-125944703D01*
X154032814Y-126088866D01*
X153919546Y-126258384D01*
X153841525Y-126446742D01*
X153801751Y-126646701D01*
X141884000Y-126646701D01*
X141884000Y-122721000D01*
X142402928Y-122721000D01*
X142402928Y-124421000D01*
X142415188Y-124545482D01*
X142451498Y-124665180D01*
X142510463Y-124775494D01*
X142589815Y-124872185D01*
X142686506Y-124951537D01*
X142796820Y-125010502D01*
X142916518Y-125046812D01*
X143041000Y-125059072D01*
X144741000Y-125059072D01*
X144865482Y-125046812D01*
X144985180Y-125010502D01*
X145095494Y-124951537D01*
X145192185Y-124872185D01*
X145271537Y-124775494D01*
X145330502Y-124665180D01*
X145366812Y-124545482D01*
X145379072Y-124421000D01*
X145379072Y-124358061D01*
X160382000Y-124358061D01*
X160382000Y-124561939D01*
X160421774Y-124761898D01*
X160499795Y-124950256D01*
X160613063Y-125119774D01*
X160757226Y-125263937D01*
X160926744Y-125377205D01*
X161115102Y-125455226D01*
X161315061Y-125495000D01*
X161518939Y-125495000D01*
X161718898Y-125455226D01*
X161907256Y-125377205D01*
X162076774Y-125263937D01*
X162220937Y-125119774D01*
X162334205Y-124950256D01*
X162412226Y-124761898D01*
X162452000Y-124561939D01*
X162452000Y-124358061D01*
X162412226Y-124158102D01*
X162342845Y-123990604D01*
X162421282Y-123873215D01*
X162499303Y-123684857D01*
X162539077Y-123484898D01*
X162539077Y-123281020D01*
X162499303Y-123081061D01*
X162421282Y-122892703D01*
X162387093Y-122841536D01*
X162451524Y-122685987D01*
X162491298Y-122486028D01*
X162491298Y-122282150D01*
X162451524Y-122082191D01*
X162373503Y-121893833D01*
X162260235Y-121724315D01*
X162116072Y-121580152D01*
X161946554Y-121466884D01*
X161758196Y-121388863D01*
X161558237Y-121349089D01*
X161354359Y-121349089D01*
X161154400Y-121388863D01*
X160966042Y-121466884D01*
X160796524Y-121580152D01*
X160652361Y-121724315D01*
X160539093Y-121893833D01*
X160461072Y-122082191D01*
X160421298Y-122282150D01*
X160421298Y-122486028D01*
X160461072Y-122685987D01*
X160539093Y-122874345D01*
X160573282Y-122925512D01*
X160508851Y-123081061D01*
X160469077Y-123281020D01*
X160469077Y-123484898D01*
X160508851Y-123684857D01*
X160578232Y-123852355D01*
X160499795Y-123969744D01*
X160421774Y-124158102D01*
X160382000Y-124358061D01*
X145379072Y-124358061D01*
X145379072Y-122721000D01*
X145366812Y-122596518D01*
X145330502Y-122476820D01*
X145271537Y-122366506D01*
X145192185Y-122269815D01*
X145095494Y-122190463D01*
X144985180Y-122131498D01*
X144912620Y-122109487D01*
X145044475Y-121977632D01*
X145206990Y-121734411D01*
X145318932Y-121464158D01*
X145376000Y-121177260D01*
X145376000Y-120884740D01*
X145318932Y-120597842D01*
X145206990Y-120327589D01*
X145044475Y-120084368D01*
X144837632Y-119877525D01*
X144663240Y-119761000D01*
X144837632Y-119644475D01*
X144950046Y-119532061D01*
X152254000Y-119532061D01*
X152254000Y-119735939D01*
X152293774Y-119935898D01*
X152371795Y-120124256D01*
X152485063Y-120293774D01*
X152629226Y-120437937D01*
X152798744Y-120551205D01*
X152987102Y-120629226D01*
X153187061Y-120669000D01*
X153390939Y-120669000D01*
X153590898Y-120629226D01*
X153779256Y-120551205D01*
X153948774Y-120437937D01*
X154092937Y-120293774D01*
X154206205Y-120124256D01*
X154284226Y-119935898D01*
X154324000Y-119735939D01*
X154324000Y-119532061D01*
X154284226Y-119332102D01*
X154206205Y-119143744D01*
X154092937Y-118974226D01*
X153962328Y-118843617D01*
X154334748Y-118843617D01*
X154334748Y-119047495D01*
X154374522Y-119247454D01*
X154452543Y-119435812D01*
X154565811Y-119605330D01*
X154709974Y-119749493D01*
X154879492Y-119862761D01*
X155067850Y-119940782D01*
X155267809Y-119980556D01*
X155471687Y-119980556D01*
X155671646Y-119940782D01*
X155860004Y-119862761D01*
X156029522Y-119749493D01*
X156118099Y-119660916D01*
X156445000Y-119660916D01*
X156445000Y-119864794D01*
X156484774Y-120064753D01*
X156562795Y-120253111D01*
X156676063Y-120422629D01*
X156820226Y-120566792D01*
X156989744Y-120680060D01*
X157178102Y-120758081D01*
X157378061Y-120797855D01*
X157581939Y-120797855D01*
X157781898Y-120758081D01*
X157888425Y-120713956D01*
X157959795Y-120886256D01*
X158073063Y-121055774D01*
X158217226Y-121199937D01*
X158386744Y-121313205D01*
X158500958Y-121360514D01*
X158521966Y-121466129D01*
X158599987Y-121654487D01*
X158713255Y-121824005D01*
X158857418Y-121968168D01*
X159026936Y-122081436D01*
X159215294Y-122159457D01*
X159415253Y-122199231D01*
X159619131Y-122199231D01*
X159819090Y-122159457D01*
X160007448Y-122081436D01*
X160176966Y-121968168D01*
X160321129Y-121824005D01*
X160434397Y-121654487D01*
X160512418Y-121466129D01*
X160552192Y-121266170D01*
X160552192Y-121062292D01*
X160512418Y-120862333D01*
X160434397Y-120673975D01*
X160321129Y-120504457D01*
X160176966Y-120360294D01*
X160007448Y-120247026D01*
X159893234Y-120199717D01*
X159872226Y-120094102D01*
X159794205Y-119905744D01*
X159680937Y-119736226D01*
X159613828Y-119669117D01*
X160509000Y-119669117D01*
X160509000Y-119872995D01*
X160548774Y-120072954D01*
X160626795Y-120261312D01*
X160740063Y-120430830D01*
X160884226Y-120574993D01*
X161053744Y-120688261D01*
X161242102Y-120766282D01*
X161442061Y-120806056D01*
X161645939Y-120806056D01*
X161845898Y-120766282D01*
X162034256Y-120688261D01*
X162203774Y-120574993D01*
X162347937Y-120430830D01*
X162461205Y-120261312D01*
X162539226Y-120072954D01*
X162579000Y-119872995D01*
X162579000Y-119669117D01*
X162539226Y-119469158D01*
X162461205Y-119280800D01*
X162347937Y-119111282D01*
X162203774Y-118967119D01*
X162034256Y-118853851D01*
X161845898Y-118775830D01*
X161645939Y-118736056D01*
X161442061Y-118736056D01*
X161242102Y-118775830D01*
X161053744Y-118853851D01*
X160884226Y-118967119D01*
X160740063Y-119111282D01*
X160626795Y-119280800D01*
X160548774Y-119469158D01*
X160509000Y-119669117D01*
X159613828Y-119669117D01*
X159536774Y-119592063D01*
X159367256Y-119478795D01*
X159178898Y-119400774D01*
X158978939Y-119361000D01*
X158775061Y-119361000D01*
X158575102Y-119400774D01*
X158468575Y-119444899D01*
X158397205Y-119272599D01*
X158283937Y-119103081D01*
X158139774Y-118958918D01*
X157970256Y-118845650D01*
X157781898Y-118767629D01*
X157581939Y-118727855D01*
X157378061Y-118727855D01*
X157178102Y-118767629D01*
X156989744Y-118845650D01*
X156820226Y-118958918D01*
X156676063Y-119103081D01*
X156562795Y-119272599D01*
X156484774Y-119460957D01*
X156445000Y-119660916D01*
X156118099Y-119660916D01*
X156173685Y-119605330D01*
X156286953Y-119435812D01*
X156364974Y-119247454D01*
X156404748Y-119047495D01*
X156404748Y-118843617D01*
X156364974Y-118643658D01*
X156286953Y-118455300D01*
X156173685Y-118285782D01*
X156029522Y-118141619D01*
X155860004Y-118028351D01*
X155671646Y-117950330D01*
X155471687Y-117910556D01*
X155267809Y-117910556D01*
X155067850Y-117950330D01*
X154879492Y-118028351D01*
X154709974Y-118141619D01*
X154565811Y-118285782D01*
X154452543Y-118455300D01*
X154374522Y-118643658D01*
X154334748Y-118843617D01*
X153962328Y-118843617D01*
X153948774Y-118830063D01*
X153779256Y-118716795D01*
X153590898Y-118638774D01*
X153390939Y-118599000D01*
X153187061Y-118599000D01*
X152987102Y-118638774D01*
X152798744Y-118716795D01*
X152629226Y-118830063D01*
X152485063Y-118974226D01*
X152371795Y-119143744D01*
X152293774Y-119332102D01*
X152254000Y-119532061D01*
X144950046Y-119532061D01*
X145044475Y-119437632D01*
X145206990Y-119194411D01*
X145318932Y-118924158D01*
X145376000Y-118637260D01*
X145376000Y-118344740D01*
X145318932Y-118057842D01*
X145206990Y-117787589D01*
X145184588Y-117754061D01*
X147809000Y-117754061D01*
X147809000Y-117957939D01*
X147848774Y-118157898D01*
X147926795Y-118346256D01*
X148040063Y-118515774D01*
X148184226Y-118659937D01*
X148353744Y-118773205D01*
X148542102Y-118851226D01*
X148742061Y-118891000D01*
X148945939Y-118891000D01*
X149145898Y-118851226D01*
X149334256Y-118773205D01*
X149503774Y-118659937D01*
X149647937Y-118515774D01*
X149761205Y-118346256D01*
X149839226Y-118157898D01*
X149879000Y-117957939D01*
X149879000Y-117856208D01*
X162949585Y-117856208D01*
X162949585Y-118060086D01*
X162989359Y-118260045D01*
X163067380Y-118448403D01*
X163180648Y-118617921D01*
X163324811Y-118762084D01*
X163494329Y-118875352D01*
X163682687Y-118953373D01*
X163882646Y-118993147D01*
X164086524Y-118993147D01*
X164286483Y-118953373D01*
X164474841Y-118875352D01*
X164644359Y-118762084D01*
X164788522Y-118617921D01*
X164901790Y-118448403D01*
X164979811Y-118260045D01*
X165019585Y-118060086D01*
X165019585Y-117926089D01*
X165053091Y-118094536D01*
X165131112Y-118282894D01*
X165244380Y-118452412D01*
X165388543Y-118596575D01*
X165558061Y-118709843D01*
X165746419Y-118787864D01*
X165946378Y-118827638D01*
X166150256Y-118827638D01*
X166350215Y-118787864D01*
X166538573Y-118709843D01*
X166708091Y-118596575D01*
X166852254Y-118452412D01*
X166965522Y-118282894D01*
X167043543Y-118094536D01*
X167083317Y-117894577D01*
X167083317Y-117690699D01*
X167043543Y-117490740D01*
X166965522Y-117302382D01*
X166852254Y-117132864D01*
X166708091Y-116988701D01*
X166538573Y-116875433D01*
X166350215Y-116797412D01*
X166150256Y-116757638D01*
X165946378Y-116757638D01*
X165746419Y-116797412D01*
X165558061Y-116875433D01*
X165388543Y-116988701D01*
X165244380Y-117132864D01*
X165131112Y-117302382D01*
X165053091Y-117490740D01*
X165013317Y-117690699D01*
X165013317Y-117824696D01*
X164979811Y-117656249D01*
X164901790Y-117467891D01*
X164788522Y-117298373D01*
X164644359Y-117154210D01*
X164474841Y-117040942D01*
X164286483Y-116962921D01*
X164086524Y-116923147D01*
X163882646Y-116923147D01*
X163682687Y-116962921D01*
X163494329Y-117040942D01*
X163324811Y-117154210D01*
X163180648Y-117298373D01*
X163067380Y-117467891D01*
X162989359Y-117656249D01*
X162949585Y-117856208D01*
X149879000Y-117856208D01*
X149879000Y-117754061D01*
X149839226Y-117554102D01*
X149761205Y-117365744D01*
X149647937Y-117196226D01*
X149503774Y-117052063D01*
X149334256Y-116938795D01*
X149145898Y-116860774D01*
X148945939Y-116821000D01*
X148742061Y-116821000D01*
X148542102Y-116860774D01*
X148353744Y-116938795D01*
X148184226Y-117052063D01*
X148040063Y-117196226D01*
X147926795Y-117365744D01*
X147848774Y-117554102D01*
X147809000Y-117754061D01*
X145184588Y-117754061D01*
X145044475Y-117544368D01*
X144837632Y-117337525D01*
X144663240Y-117221000D01*
X144837632Y-117104475D01*
X145044475Y-116897632D01*
X145206990Y-116654411D01*
X145318932Y-116384158D01*
X145376000Y-116097260D01*
X145376000Y-115804740D01*
X145318932Y-115517842D01*
X145256410Y-115366899D01*
X155848969Y-115366899D01*
X155848969Y-115570777D01*
X155888743Y-115770736D01*
X155966764Y-115959094D01*
X156080032Y-116128612D01*
X156224195Y-116272775D01*
X156393713Y-116386043D01*
X156582071Y-116464064D01*
X156782030Y-116503838D01*
X156985908Y-116503838D01*
X157185867Y-116464064D01*
X157374225Y-116386043D01*
X157543743Y-116272775D01*
X157687906Y-116128612D01*
X157801174Y-115959094D01*
X157879195Y-115770736D01*
X157918969Y-115570777D01*
X157918969Y-115366899D01*
X157879195Y-115166940D01*
X157801174Y-114978582D01*
X157687906Y-114809064D01*
X157543743Y-114664901D01*
X157374225Y-114551633D01*
X157185867Y-114473612D01*
X156985908Y-114433838D01*
X156782030Y-114433838D01*
X156582071Y-114473612D01*
X156393713Y-114551633D01*
X156224195Y-114664901D01*
X156080032Y-114809064D01*
X155966764Y-114978582D01*
X155888743Y-115166940D01*
X155848969Y-115366899D01*
X145256410Y-115366899D01*
X145206990Y-115247589D01*
X145044475Y-115004368D01*
X144837632Y-114797525D01*
X144663240Y-114681000D01*
X144837632Y-114564475D01*
X145044475Y-114357632D01*
X145206990Y-114114411D01*
X145277550Y-113944061D01*
X161271000Y-113944061D01*
X161271000Y-114147939D01*
X161310774Y-114347898D01*
X161388795Y-114536256D01*
X161502063Y-114705774D01*
X161646226Y-114849937D01*
X161815744Y-114963205D01*
X162004102Y-115041226D01*
X162204061Y-115081000D01*
X162407939Y-115081000D01*
X162607898Y-115041226D01*
X162796256Y-114963205D01*
X162965774Y-114849937D01*
X163109937Y-114705774D01*
X163223205Y-114536256D01*
X163301226Y-114347898D01*
X163341000Y-114147939D01*
X163341000Y-113944061D01*
X163301226Y-113744102D01*
X163223205Y-113555744D01*
X163109937Y-113386226D01*
X162965774Y-113242063D01*
X162796256Y-113128795D01*
X162607898Y-113050774D01*
X162407939Y-113011000D01*
X162204061Y-113011000D01*
X162004102Y-113050774D01*
X161815744Y-113128795D01*
X161646226Y-113242063D01*
X161502063Y-113386226D01*
X161388795Y-113555744D01*
X161310774Y-113744102D01*
X161271000Y-113944061D01*
X145277550Y-113944061D01*
X145318932Y-113844158D01*
X145376000Y-113557260D01*
X145376000Y-113264740D01*
X145318932Y-112977842D01*
X145206990Y-112707589D01*
X145044475Y-112464368D01*
X144837632Y-112257525D01*
X144733931Y-112188234D01*
X151925565Y-112188234D01*
X151925565Y-112392112D01*
X151965339Y-112592071D01*
X152043360Y-112780429D01*
X152156628Y-112949947D01*
X152300791Y-113094110D01*
X152470309Y-113207378D01*
X152658667Y-113285399D01*
X152858626Y-113325173D01*
X153062504Y-113325173D01*
X153262463Y-113285399D01*
X153450821Y-113207378D01*
X153620339Y-113094110D01*
X153764502Y-112949947D01*
X153877770Y-112780429D01*
X153955791Y-112592071D01*
X153995565Y-112392112D01*
X153995565Y-112188234D01*
X153991155Y-112166061D01*
X163176000Y-112166061D01*
X163176000Y-112369939D01*
X163215774Y-112569898D01*
X163293795Y-112758256D01*
X163407063Y-112927774D01*
X163551226Y-113071937D01*
X163720744Y-113185205D01*
X163909102Y-113263226D01*
X164109061Y-113303000D01*
X164312939Y-113303000D01*
X164512898Y-113263226D01*
X164701256Y-113185205D01*
X164870774Y-113071937D01*
X165014937Y-112927774D01*
X165128205Y-112758256D01*
X165206226Y-112569898D01*
X165246000Y-112369939D01*
X165246000Y-112166061D01*
X165206226Y-111966102D01*
X165128205Y-111777744D01*
X165014937Y-111608226D01*
X164870774Y-111464063D01*
X164701256Y-111350795D01*
X164512898Y-111272774D01*
X164312939Y-111233000D01*
X164109061Y-111233000D01*
X163909102Y-111272774D01*
X163720744Y-111350795D01*
X163551226Y-111464063D01*
X163407063Y-111608226D01*
X163293795Y-111777744D01*
X163215774Y-111966102D01*
X163176000Y-112166061D01*
X153991155Y-112166061D01*
X153955791Y-111988275D01*
X153877770Y-111799917D01*
X153764502Y-111630399D01*
X153620339Y-111486236D01*
X153450821Y-111372968D01*
X153262463Y-111294947D01*
X153062504Y-111255173D01*
X152858626Y-111255173D01*
X152658667Y-111294947D01*
X152470309Y-111372968D01*
X152300791Y-111486236D01*
X152156628Y-111630399D01*
X152043360Y-111799917D01*
X151965339Y-111988275D01*
X151925565Y-112188234D01*
X144733931Y-112188234D01*
X144594411Y-112095010D01*
X144324158Y-111983068D01*
X144037260Y-111926000D01*
X143744740Y-111926000D01*
X143457842Y-111983068D01*
X143187589Y-112095010D01*
X142944368Y-112257525D01*
X142737525Y-112464368D01*
X142575010Y-112707589D01*
X142463068Y-112977842D01*
X142406000Y-113264740D01*
X142406000Y-113557260D01*
X142463068Y-113844158D01*
X142575010Y-114114411D01*
X142737525Y-114357632D01*
X142944368Y-114564475D01*
X143118760Y-114681000D01*
X142944368Y-114797525D01*
X142737525Y-115004368D01*
X142575010Y-115247589D01*
X142463068Y-115517842D01*
X142406000Y-115804740D01*
X142406000Y-116097260D01*
X142463068Y-116384158D01*
X142575010Y-116654411D01*
X142737525Y-116897632D01*
X142944368Y-117104475D01*
X143118760Y-117221000D01*
X142944368Y-117337525D01*
X142737525Y-117544368D01*
X142575010Y-117787589D01*
X142463068Y-118057842D01*
X142406000Y-118344740D01*
X142406000Y-118637260D01*
X142463068Y-118924158D01*
X142575010Y-119194411D01*
X142737525Y-119437632D01*
X142944368Y-119644475D01*
X143118760Y-119761000D01*
X142944368Y-119877525D01*
X142737525Y-120084368D01*
X142575010Y-120327589D01*
X142463068Y-120597842D01*
X142406000Y-120884740D01*
X142406000Y-121177260D01*
X142463068Y-121464158D01*
X142575010Y-121734411D01*
X142737525Y-121977632D01*
X142869380Y-122109487D01*
X142796820Y-122131498D01*
X142686506Y-122190463D01*
X142589815Y-122269815D01*
X142510463Y-122366506D01*
X142451498Y-122476820D01*
X142415188Y-122596518D01*
X142402928Y-122721000D01*
X141884000Y-122721000D01*
X141884000Y-110896061D01*
X148825000Y-110896061D01*
X148825000Y-111099939D01*
X148864774Y-111299898D01*
X148942795Y-111488256D01*
X149056063Y-111657774D01*
X149200226Y-111801937D01*
X149369744Y-111915205D01*
X149558102Y-111993226D01*
X149758061Y-112033000D01*
X149961939Y-112033000D01*
X150161898Y-111993226D01*
X150350256Y-111915205D01*
X150519774Y-111801937D01*
X150663937Y-111657774D01*
X150777205Y-111488256D01*
X150855226Y-111299898D01*
X150895000Y-111099939D01*
X150895000Y-110896061D01*
X150855226Y-110696102D01*
X150777205Y-110507744D01*
X150663937Y-110338226D01*
X150519774Y-110194063D01*
X150350256Y-110080795D01*
X150172248Y-110007061D01*
X153397000Y-110007061D01*
X153397000Y-110210939D01*
X153436774Y-110410898D01*
X153514795Y-110599256D01*
X153628063Y-110768774D01*
X153772226Y-110912937D01*
X153941744Y-111026205D01*
X154130102Y-111104226D01*
X154330061Y-111144000D01*
X154533939Y-111144000D01*
X154733898Y-111104226D01*
X154922256Y-111026205D01*
X155091774Y-110912937D01*
X155235937Y-110768774D01*
X155349205Y-110599256D01*
X155427226Y-110410898D01*
X155467000Y-110210939D01*
X155467000Y-110007061D01*
X155427226Y-109807102D01*
X155349205Y-109618744D01*
X155235937Y-109449226D01*
X155091774Y-109305063D01*
X154922256Y-109191795D01*
X154733898Y-109113774D01*
X154533939Y-109074000D01*
X154330061Y-109074000D01*
X154130102Y-109113774D01*
X153941744Y-109191795D01*
X153772226Y-109305063D01*
X153628063Y-109449226D01*
X153514795Y-109618744D01*
X153436774Y-109807102D01*
X153397000Y-110007061D01*
X150172248Y-110007061D01*
X150161898Y-110002774D01*
X149961939Y-109963000D01*
X149758061Y-109963000D01*
X149558102Y-110002774D01*
X149369744Y-110080795D01*
X149200226Y-110194063D01*
X149056063Y-110338226D01*
X148942795Y-110507744D01*
X148864774Y-110696102D01*
X148825000Y-110896061D01*
X141884000Y-110896061D01*
X141884000Y-107557286D01*
X141910586Y-107575050D01*
X142094394Y-107651186D01*
X142289524Y-107690000D01*
X142354660Y-107690000D01*
X142338795Y-107713744D01*
X142260774Y-107902102D01*
X142221000Y-108102061D01*
X142221000Y-108305939D01*
X142260774Y-108505898D01*
X142338795Y-108694256D01*
X142452063Y-108863774D01*
X142596226Y-109007937D01*
X142765744Y-109121205D01*
X142954102Y-109199226D01*
X143154061Y-109239000D01*
X143357939Y-109239000D01*
X143557898Y-109199226D01*
X143746256Y-109121205D01*
X143915774Y-109007937D01*
X144059937Y-108863774D01*
X144173205Y-108694256D01*
X144251226Y-108505898D01*
X144291000Y-108305939D01*
X144291000Y-108102061D01*
X144251226Y-107902102D01*
X144173205Y-107713744D01*
X144059937Y-107544226D01*
X143915774Y-107400063D01*
X143746256Y-107286795D01*
X143557898Y-107208774D01*
X143357939Y-107169000D01*
X143276977Y-107169000D01*
X143284050Y-107158414D01*
X143360186Y-106974606D01*
X143399000Y-106779476D01*
X143399000Y-106580524D01*
X144129000Y-106580524D01*
X144129000Y-106779476D01*
X144167814Y-106974606D01*
X144243950Y-107158414D01*
X144354482Y-107323837D01*
X144495163Y-107464518D01*
X144660586Y-107575050D01*
X144844394Y-107651186D01*
X145039524Y-107690000D01*
X145238476Y-107690000D01*
X145433606Y-107651186D01*
X145617414Y-107575050D01*
X145779031Y-107467061D01*
X155048000Y-107467061D01*
X155048000Y-107670939D01*
X155087774Y-107870898D01*
X155165795Y-108059256D01*
X155279063Y-108228774D01*
X155423226Y-108372937D01*
X155592744Y-108486205D01*
X155781102Y-108564226D01*
X155981061Y-108604000D01*
X156184939Y-108604000D01*
X156384898Y-108564226D01*
X156573256Y-108486205D01*
X156742774Y-108372937D01*
X156886937Y-108228774D01*
X157000205Y-108059256D01*
X157078226Y-107870898D01*
X157118000Y-107670939D01*
X157118000Y-107467061D01*
X157078226Y-107267102D01*
X157000205Y-107078744D01*
X156886937Y-106909226D01*
X156742774Y-106765063D01*
X156573256Y-106651795D01*
X156384898Y-106573774D01*
X156184939Y-106534000D01*
X155981061Y-106534000D01*
X155781102Y-106573774D01*
X155592744Y-106651795D01*
X155423226Y-106765063D01*
X155279063Y-106909226D01*
X155165795Y-107078744D01*
X155087774Y-107267102D01*
X155048000Y-107467061D01*
X145779031Y-107467061D01*
X145782837Y-107464518D01*
X145923518Y-107323837D01*
X146034050Y-107158414D01*
X146110186Y-106974606D01*
X146149000Y-106779476D01*
X146149000Y-106580524D01*
X146110186Y-106385394D01*
X146034050Y-106201586D01*
X145923518Y-106036163D01*
X145782837Y-105895482D01*
X145617414Y-105784950D01*
X145433606Y-105708814D01*
X145238476Y-105670000D01*
X145039524Y-105670000D01*
X144844394Y-105708814D01*
X144660586Y-105784950D01*
X144495163Y-105895482D01*
X144354482Y-106036163D01*
X144243950Y-106201586D01*
X144167814Y-106385394D01*
X144129000Y-106580524D01*
X143399000Y-106580524D01*
X143360186Y-106385394D01*
X143284050Y-106201586D01*
X143173518Y-106036163D01*
X143032837Y-105895482D01*
X142867414Y-105784950D01*
X142683606Y-105708814D01*
X142488476Y-105670000D01*
X142289524Y-105670000D01*
X142094394Y-105708814D01*
X141910586Y-105784950D01*
X141884000Y-105802714D01*
X141884000Y-104038061D01*
X147809000Y-104038061D01*
X147809000Y-104241939D01*
X147848774Y-104441898D01*
X147926795Y-104630256D01*
X148040063Y-104799774D01*
X148184226Y-104943937D01*
X148353744Y-105057205D01*
X148542102Y-105135226D01*
X148742061Y-105175000D01*
X148945939Y-105175000D01*
X149145898Y-105135226D01*
X149334256Y-105057205D01*
X149503774Y-104943937D01*
X149647650Y-104800061D01*
X155048000Y-104800061D01*
X155048000Y-105003939D01*
X155087774Y-105203898D01*
X155165795Y-105392256D01*
X155279063Y-105561774D01*
X155423226Y-105705937D01*
X155592744Y-105819205D01*
X155781102Y-105897226D01*
X155981061Y-105937000D01*
X156184939Y-105937000D01*
X156384898Y-105897226D01*
X156573256Y-105819205D01*
X156742774Y-105705937D01*
X156886937Y-105561774D01*
X157000205Y-105392256D01*
X157078226Y-105203898D01*
X157118000Y-105003939D01*
X157118000Y-104800061D01*
X157078226Y-104600102D01*
X157000205Y-104411744D01*
X156886937Y-104242226D01*
X156742774Y-104098063D01*
X156573256Y-103984795D01*
X156384898Y-103906774D01*
X156184939Y-103867000D01*
X155981061Y-103867000D01*
X155781102Y-103906774D01*
X155592744Y-103984795D01*
X155423226Y-104098063D01*
X155279063Y-104242226D01*
X155165795Y-104411744D01*
X155087774Y-104600102D01*
X155048000Y-104800061D01*
X149647650Y-104800061D01*
X149647937Y-104799774D01*
X149761205Y-104630256D01*
X149839226Y-104441898D01*
X149879000Y-104241939D01*
X149879000Y-104038061D01*
X149839226Y-103838102D01*
X149761205Y-103649744D01*
X149647937Y-103480226D01*
X149503774Y-103336063D01*
X149334256Y-103222795D01*
X149145898Y-103144774D01*
X148945939Y-103105000D01*
X148742061Y-103105000D01*
X148542102Y-103144774D01*
X148353744Y-103222795D01*
X148184226Y-103336063D01*
X148040063Y-103480226D01*
X147926795Y-103649744D01*
X147848774Y-103838102D01*
X147809000Y-104038061D01*
X141884000Y-104038061D01*
X141884000Y-102394277D01*
X141889047Y-102342803D01*
X141894622Y-102324338D01*
X141903678Y-102307306D01*
X141915870Y-102292357D01*
X141930732Y-102280062D01*
X141947696Y-102270889D01*
X141966129Y-102265183D01*
X142015446Y-102260000D01*
X152562289Y-102260000D01*
X152485063Y-102337226D01*
G37*
X152485063Y-102337226D02*
X152371795Y-102506744D01*
X152293774Y-102695102D01*
X152254000Y-102895061D01*
X152254000Y-103098939D01*
X152293774Y-103298898D01*
X152371795Y-103487256D01*
X152485063Y-103656774D01*
X152629226Y-103800937D01*
X152798744Y-103914205D01*
X152987102Y-103992226D01*
X153187061Y-104032000D01*
X153390939Y-104032000D01*
X153590898Y-103992226D01*
X153779256Y-103914205D01*
X153948774Y-103800937D01*
X154092937Y-103656774D01*
X154206205Y-103487256D01*
X154284226Y-103298898D01*
X154324000Y-103098939D01*
X154324000Y-102895061D01*
X154284226Y-102695102D01*
X154206205Y-102506744D01*
X154092937Y-102337226D01*
X154015711Y-102260000D01*
X157261289Y-102260000D01*
X157184063Y-102337226D01*
X157070795Y-102506744D01*
X156992774Y-102695102D01*
X156953000Y-102895061D01*
X156953000Y-103098939D01*
X156992774Y-103298898D01*
X157070795Y-103487256D01*
X157184063Y-103656774D01*
X157328226Y-103800937D01*
X157497744Y-103914205D01*
X157686102Y-103992226D01*
X157886061Y-104032000D01*
X158089939Y-104032000D01*
X158289898Y-103992226D01*
X158478256Y-103914205D01*
X158647774Y-103800937D01*
X158791937Y-103656774D01*
X158905205Y-103487256D01*
X158983226Y-103298898D01*
X159023000Y-103098939D01*
X159023000Y-102895061D01*
X158983226Y-102695102D01*
X158905205Y-102506744D01*
X158791937Y-102337226D01*
X158714711Y-102260000D01*
X160944289Y-102260000D01*
X160867063Y-102337226D01*
X160753795Y-102506744D01*
X160675774Y-102695102D01*
X160636000Y-102895061D01*
X160636000Y-103098939D01*
X160675774Y-103298898D01*
X160753795Y-103487256D01*
X160867063Y-103656774D01*
X161011226Y-103800937D01*
X161180744Y-103914205D01*
X161369102Y-103992226D01*
X161569061Y-104032000D01*
X161772939Y-104032000D01*
X161972898Y-103992226D01*
X162161256Y-103914205D01*
X162330774Y-103800937D01*
X162474937Y-103656774D01*
X162588205Y-103487256D01*
X162666226Y-103298898D01*
X162706000Y-103098939D01*
X162706000Y-102895061D01*
X162666226Y-102695102D01*
X162588205Y-102506744D01*
X162474937Y-102337226D01*
X162397711Y-102260000D01*
X168529000Y-102260000D01*
X168529000Y-115115177D01*
X168433330Y-115154805D01*
X168263812Y-115268073D01*
X168119649Y-115412236D01*
X168006381Y-115581754D01*
X167928360Y-115770112D01*
X167888586Y-115970071D01*
X167888586Y-116173949D01*
X167928360Y-116373908D01*
X168006381Y-116562266D01*
X168119649Y-116731784D01*
X168170409Y-116782544D01*
X168089390Y-116863563D01*
X167976122Y-117033081D01*
X167898101Y-117221439D01*
X167858327Y-117421398D01*
X167858327Y-117625276D01*
X167898101Y-117825235D01*
X167976122Y-118013593D01*
X168089390Y-118183111D01*
X168233553Y-118327274D01*
X168403071Y-118440542D01*
X168457013Y-118462885D01*
X168490440Y-118630938D01*
X168529000Y-118724029D01*
X168529000Y-120951975D01*
X168354102Y-120986764D01*
X168165744Y-121064785D01*
X167996226Y-121178053D01*
X167852063Y-121322216D01*
X167738795Y-121491734D01*
X167660774Y-121680092D01*
X167621000Y-121880051D01*
X167621000Y-122083929D01*
X167660774Y-122283888D01*
X167738795Y-122472246D01*
X167852063Y-122641764D01*
X167996226Y-122785927D01*
X168165744Y-122899195D01*
X168354102Y-122977216D01*
X168529000Y-123012005D01*
X168529000Y-135230000D01*
X162032677Y-135230000D01*
X162176792Y-135085885D01*
X162290060Y-134916367D01*
X162368081Y-134728009D01*
X162407855Y-134528050D01*
X162407855Y-134324172D01*
X162405302Y-134311338D01*
X162450247Y-134341369D01*
X162638605Y-134419390D01*
X162838564Y-134459164D01*
X163042442Y-134459164D01*
X163242401Y-134419390D01*
X163430759Y-134341369D01*
X163600277Y-134228101D01*
X163744440Y-134083938D01*
X163857708Y-133914420D01*
X163935729Y-133726062D01*
X163975503Y-133526103D01*
X163975503Y-133322225D01*
X163935729Y-133122266D01*
X163857708Y-132933908D01*
X163744440Y-132764390D01*
X163600277Y-132620227D01*
X163430759Y-132506959D01*
X163242401Y-132428938D01*
X163042442Y-132389164D01*
X162838564Y-132389164D01*
X162638605Y-132428938D01*
X162450247Y-132506959D01*
X162280729Y-132620227D01*
X162136566Y-132764390D01*
X162023298Y-132933908D01*
X161945277Y-133122266D01*
X161905503Y-133322225D01*
X161905503Y-133526103D01*
X161908056Y-133538937D01*
X161863111Y-133508906D01*
X161674753Y-133430885D01*
X161474794Y-133391111D01*
X161270916Y-133391111D01*
X161070957Y-133430885D01*
X160882599Y-133508906D01*
X160713081Y-133622174D01*
X160568918Y-133766337D01*
X160455650Y-133935855D01*
X160377629Y-134124213D01*
X160337855Y-134324172D01*
X160337855Y-134528050D01*
X160377629Y-134728009D01*
X160455650Y-134916367D01*
X160568918Y-135085885D01*
X160713033Y-135230000D01*
X142018277Y-135230000D01*
X141966805Y-135224953D01*
X141948337Y-135219377D01*
X141931307Y-135210322D01*
X141916357Y-135198129D01*
X141904061Y-135183266D01*
X141894889Y-135166303D01*
X141889183Y-135147871D01*
X141884000Y-135098554D01*
X141884000Y-132486061D01*
X147936000Y-132486061D01*
X147936000Y-132689939D01*
X147975774Y-132889898D01*
X148053795Y-133078256D01*
X148167063Y-133247774D01*
X148311226Y-133391937D01*
X148480744Y-133505205D01*
X148669102Y-133583226D01*
X148869061Y-133623000D01*
X149072939Y-133623000D01*
X149272898Y-133583226D01*
X149461256Y-133505205D01*
X149630774Y-133391937D01*
X149768928Y-133253783D01*
X149768928Y-134327000D01*
X149781188Y-134451482D01*
X149817498Y-134571180D01*
X149876463Y-134681494D01*
X149955815Y-134778185D01*
X150052506Y-134857537D01*
X150162820Y-134916502D01*
X150282518Y-134952812D01*
X150407000Y-134965072D01*
X152107000Y-134965072D01*
X152231482Y-134952812D01*
X152351180Y-134916502D01*
X152461494Y-134857537D01*
X152558185Y-134778185D01*
X152637537Y-134681494D01*
X152696502Y-134571180D01*
X152718513Y-134498620D01*
X152850368Y-134630475D01*
X153093589Y-134792990D01*
X153363842Y-134904932D01*
X153650740Y-134962000D01*
X153943260Y-134962000D01*
X154230158Y-134904932D01*
X154500411Y-134792990D01*
X154743632Y-134630475D01*
X154950475Y-134423632D01*
X155067000Y-134249240D01*
X155183525Y-134423632D01*
X155390368Y-134630475D01*
X155633589Y-134792990D01*
X155903842Y-134904932D01*
X156190740Y-134962000D01*
X156483260Y-134962000D01*
X156770158Y-134904932D01*
X157040411Y-134792990D01*
X157283632Y-134630475D01*
X157490475Y-134423632D01*
X157652990Y-134180411D01*
X157764932Y-133910158D01*
X157822000Y-133623260D01*
X157822000Y-133330740D01*
X157764932Y-133043842D01*
X157681032Y-132841289D01*
X157781898Y-132821226D01*
X157970256Y-132743205D01*
X158139774Y-132629937D01*
X158283937Y-132485774D01*
X158397205Y-132316256D01*
X158475226Y-132127898D01*
X158479768Y-132105061D01*
X158731000Y-132105061D01*
X158731000Y-132308939D01*
X158770774Y-132508898D01*
X158848795Y-132697256D01*
X158962063Y-132866774D01*
X159106226Y-133010937D01*
X159275744Y-133124205D01*
X159464102Y-133202226D01*
X159664061Y-133242000D01*
X159867939Y-133242000D01*
X160067898Y-133202226D01*
X160256256Y-133124205D01*
X160425774Y-133010937D01*
X160569937Y-132866774D01*
X160683205Y-132697256D01*
X160761226Y-132508898D01*
X160801000Y-132308939D01*
X160801000Y-132105061D01*
X160761226Y-131905102D01*
X160683205Y-131716744D01*
X160569937Y-131547226D01*
X160425774Y-131403063D01*
X160256256Y-131289795D01*
X160067898Y-131211774D01*
X159867939Y-131172000D01*
X159664061Y-131172000D01*
X159464102Y-131211774D01*
X159275744Y-131289795D01*
X159106226Y-131403063D01*
X158962063Y-131547226D01*
X158848795Y-131716744D01*
X158770774Y-131905102D01*
X158731000Y-132105061D01*
X158479768Y-132105061D01*
X158515000Y-131927939D01*
X158515000Y-131724061D01*
X158475226Y-131524102D01*
X158397205Y-131335744D01*
X158283937Y-131166226D01*
X158139774Y-131022063D01*
X157970256Y-130908795D01*
X157792248Y-130835061D01*
X163049000Y-130835061D01*
X163049000Y-131038939D01*
X163088774Y-131238898D01*
X163166795Y-131427256D01*
X163280063Y-131596774D01*
X163424226Y-131740937D01*
X163593744Y-131854205D01*
X163782102Y-131932226D01*
X163982061Y-131972000D01*
X164185939Y-131972000D01*
X164385898Y-131932226D01*
X164574256Y-131854205D01*
X164743774Y-131740937D01*
X164887937Y-131596774D01*
X165001205Y-131427256D01*
X165079226Y-131238898D01*
X165119000Y-131038939D01*
X165119000Y-130835061D01*
X165079226Y-130635102D01*
X165001205Y-130446744D01*
X164887937Y-130277226D01*
X164788236Y-130177525D01*
X164871061Y-130194000D01*
X165074939Y-130194000D01*
X165274898Y-130154226D01*
X165463256Y-130076205D01*
X165632774Y-129962937D01*
X165776937Y-129818774D01*
X165890205Y-129649256D01*
X165968226Y-129460898D01*
X166008000Y-129260939D01*
X166008000Y-129057061D01*
X165968226Y-128857102D01*
X165890205Y-128668744D01*
X165776937Y-128499226D01*
X165632774Y-128355063D01*
X165463256Y-128241795D01*
X165274898Y-128163774D01*
X165074939Y-128124000D01*
X164871061Y-128124000D01*
X164671102Y-128163774D01*
X164482744Y-128241795D01*
X164313226Y-128355063D01*
X164169063Y-128499226D01*
X164055795Y-128668744D01*
X163977774Y-128857102D01*
X163938000Y-129057061D01*
X163938000Y-129260939D01*
X163977774Y-129460898D01*
X164055795Y-129649256D01*
X164169063Y-129818774D01*
X164268764Y-129918475D01*
X164185939Y-129902000D01*
X163982061Y-129902000D01*
X163782102Y-129941774D01*
X163593744Y-130019795D01*
X163424226Y-130133063D01*
X163280063Y-130277226D01*
X163166795Y-130446744D01*
X163088774Y-130635102D01*
X163049000Y-130835061D01*
X157792248Y-130835061D01*
X157781898Y-130830774D01*
X157581939Y-130791000D01*
X157378061Y-130791000D01*
X157178102Y-130830774D01*
X156989744Y-130908795D01*
X156820226Y-131022063D01*
X156676063Y-131166226D01*
X156562795Y-131335744D01*
X156484774Y-131524102D01*
X156445000Y-131724061D01*
X156445000Y-131927939D01*
X156457742Y-131992000D01*
X156190740Y-131992000D01*
X155903842Y-132049068D01*
X155633589Y-132161010D01*
X155390368Y-132323525D01*
X155183525Y-132530368D01*
X155067000Y-132704760D01*
X154950475Y-132530368D01*
X154743632Y-132323525D01*
X154500411Y-132161010D01*
X154230158Y-132049068D01*
X154052919Y-132013813D01*
X154070000Y-131927939D01*
X154070000Y-131724061D01*
X154030226Y-131524102D01*
X153952205Y-131335744D01*
X153838937Y-131166226D01*
X153694774Y-131022063D01*
X153525256Y-130908795D01*
X153336898Y-130830774D01*
X153136939Y-130791000D01*
X152933061Y-130791000D01*
X152733102Y-130830774D01*
X152544744Y-130908795D01*
X152375226Y-131022063D01*
X152231063Y-131166226D01*
X152117795Y-131335744D01*
X152039774Y-131524102D01*
X152000000Y-131724061D01*
X152000000Y-131927939D01*
X152012131Y-131988928D01*
X150407000Y-131988928D01*
X150282518Y-132001188D01*
X150162820Y-132037498D01*
X150052506Y-132096463D01*
X149955815Y-132175815D01*
X149932374Y-132204378D01*
X149888205Y-132097744D01*
X149774937Y-131928226D01*
X149630774Y-131784063D01*
X149461256Y-131670795D01*
X149272898Y-131592774D01*
X149072939Y-131553000D01*
X148869061Y-131553000D01*
X148669102Y-131592774D01*
X148480744Y-131670795D01*
X148311226Y-131784063D01*
X148167063Y-131928226D01*
X148053795Y-132097744D01*
X147975774Y-132286102D01*
X147936000Y-132486061D01*
X141884000Y-132486061D01*
X141884000Y-128549061D01*
X143364000Y-128549061D01*
X143364000Y-128752939D01*
X143403774Y-128952898D01*
X143481795Y-129141256D01*
X143595063Y-129310774D01*
X143739226Y-129454937D01*
X143908744Y-129568205D01*
X144097102Y-129646226D01*
X144297061Y-129686000D01*
X144500939Y-129686000D01*
X144700898Y-129646226D01*
X144874575Y-129574286D01*
X144882226Y-129581937D01*
X145051744Y-129695205D01*
X145240102Y-129773226D01*
X145440061Y-129813000D01*
X145643939Y-129813000D01*
X145843898Y-129773226D01*
X146032256Y-129695205D01*
X146201774Y-129581937D01*
X146345937Y-129437774D01*
X146459205Y-129268256D01*
X146537226Y-129079898D01*
X146577000Y-128879939D01*
X146577000Y-128803061D01*
X146666000Y-128803061D01*
X146666000Y-129006939D01*
X146705774Y-129206898D01*
X146783795Y-129395256D01*
X146897063Y-129564774D01*
X147041226Y-129708937D01*
X147210744Y-129822205D01*
X147399102Y-129900226D01*
X147599061Y-129940000D01*
X147802939Y-129940000D01*
X148002898Y-129900226D01*
X148191256Y-129822205D01*
X148360774Y-129708937D01*
X148504937Y-129564774D01*
X148618205Y-129395256D01*
X148696226Y-129206898D01*
X148729631Y-129038959D01*
X148737774Y-129079898D01*
X148815795Y-129268256D01*
X148929063Y-129437774D01*
X149073226Y-129581937D01*
X149242744Y-129695205D01*
X149431102Y-129773226D01*
X149631061Y-129813000D01*
X149834939Y-129813000D01*
X150034898Y-129773226D01*
X150223256Y-129695205D01*
X150392774Y-129581937D01*
X150536937Y-129437774D01*
X150650205Y-129268256D01*
X150685079Y-129184061D01*
X151492000Y-129184061D01*
X151492000Y-129387939D01*
X151531774Y-129587898D01*
X151609795Y-129776256D01*
X151723063Y-129945774D01*
X151867226Y-130089937D01*
X152036744Y-130203205D01*
X152225102Y-130281226D01*
X152425061Y-130321000D01*
X152628939Y-130321000D01*
X152828898Y-130281226D01*
X153017256Y-130203205D01*
X153186774Y-130089937D01*
X153330937Y-129945774D01*
X153415603Y-129819061D01*
X154413000Y-129819061D01*
X154413000Y-130022939D01*
X154452774Y-130222898D01*
X154530795Y-130411256D01*
X154644063Y-130580774D01*
X154788226Y-130724937D01*
X154957744Y-130838205D01*
X155146102Y-130916226D01*
X155346061Y-130956000D01*
X155549939Y-130956000D01*
X155749898Y-130916226D01*
X155938256Y-130838205D01*
X156107774Y-130724937D01*
X156251937Y-130580774D01*
X156365205Y-130411256D01*
X156443226Y-130222898D01*
X156483000Y-130022939D01*
X156483000Y-129819061D01*
X156443226Y-129619102D01*
X156365205Y-129430744D01*
X156251937Y-129261226D01*
X156107774Y-129117063D01*
X155938256Y-129003795D01*
X155749898Y-128925774D01*
X155549939Y-128886000D01*
X155346061Y-128886000D01*
X155146102Y-128925774D01*
X154957744Y-129003795D01*
X154788226Y-129117063D01*
X154644063Y-129261226D01*
X154530795Y-129430744D01*
X154452774Y-129619102D01*
X154413000Y-129819061D01*
X153415603Y-129819061D01*
X153444205Y-129776256D01*
X153522226Y-129587898D01*
X153562000Y-129387939D01*
X153562000Y-129184061D01*
X153522226Y-128984102D01*
X153444205Y-128795744D01*
X153330937Y-128626226D01*
X153186774Y-128482063D01*
X153017256Y-128368795D01*
X152828898Y-128290774D01*
X152628939Y-128251000D01*
X152425061Y-128251000D01*
X152225102Y-128290774D01*
X152036744Y-128368795D01*
X151867226Y-128482063D01*
X151723063Y-128626226D01*
X151609795Y-128795744D01*
X151531774Y-128984102D01*
X151492000Y-129184061D01*
X150685079Y-129184061D01*
X150728226Y-129079898D01*
X150768000Y-128879939D01*
X150768000Y-128676061D01*
X150728226Y-128476102D01*
X150650205Y-128287744D01*
X150536937Y-128118226D01*
X150392774Y-127974063D01*
X150223256Y-127860795D01*
X150034898Y-127782774D01*
X149834939Y-127743000D01*
X149631061Y-127743000D01*
X149431102Y-127782774D01*
X149242744Y-127860795D01*
X149073226Y-127974063D01*
X148929063Y-128118226D01*
X148815795Y-128287744D01*
X148737774Y-128476102D01*
X148704369Y-128644041D01*
X148696226Y-128603102D01*
X148618205Y-128414744D01*
X148504937Y-128245226D01*
X148360774Y-128101063D01*
X148191256Y-127987795D01*
X148002898Y-127909774D01*
X147802939Y-127870000D01*
X147599061Y-127870000D01*
X147399102Y-127909774D01*
X147210744Y-127987795D01*
X147041226Y-128101063D01*
X146897063Y-128245226D01*
X146783795Y-128414744D01*
X146705774Y-128603102D01*
X146666000Y-128803061D01*
X146577000Y-128803061D01*
X146577000Y-128676061D01*
X146537226Y-128476102D01*
X146459205Y-128287744D01*
X146345937Y-128118226D01*
X146201774Y-127974063D01*
X146032256Y-127860795D01*
X145843898Y-127782774D01*
X145643939Y-127743000D01*
X145440061Y-127743000D01*
X145240102Y-127782774D01*
X145066425Y-127854714D01*
X145058774Y-127847063D01*
X144889256Y-127733795D01*
X144700898Y-127655774D01*
X144500939Y-127616000D01*
X144297061Y-127616000D01*
X144097102Y-127655774D01*
X143908744Y-127733795D01*
X143739226Y-127847063D01*
X143595063Y-127991226D01*
X143481795Y-128160744D01*
X143403774Y-128349102D01*
X143364000Y-128549061D01*
X141884000Y-128549061D01*
X141884000Y-126646701D01*
X153801751Y-126646701D01*
X153801751Y-126850579D01*
X153841525Y-127050538D01*
X153919546Y-127238896D01*
X154032814Y-127408414D01*
X154176977Y-127552577D01*
X154346495Y-127665845D01*
X154534853Y-127743866D01*
X154734812Y-127783640D01*
X154938690Y-127783640D01*
X155138649Y-127743866D01*
X155220072Y-127710139D01*
X155339077Y-127789656D01*
X155527435Y-127867677D01*
X155727394Y-127907451D01*
X155931272Y-127907451D01*
X156131231Y-127867677D01*
X156213740Y-127833501D01*
X156273317Y-127893078D01*
X156442835Y-128006346D01*
X156631193Y-128084367D01*
X156831152Y-128124141D01*
X157035030Y-128124141D01*
X157234989Y-128084367D01*
X157423347Y-128006346D01*
X157592865Y-127893078D01*
X157737028Y-127748915D01*
X157850296Y-127579397D01*
X157928317Y-127391039D01*
X157968091Y-127191080D01*
X157968091Y-126987202D01*
X157928317Y-126787243D01*
X157873546Y-126655013D01*
X163303000Y-126655013D01*
X163303000Y-126858891D01*
X163342774Y-127058850D01*
X163420795Y-127247208D01*
X163534063Y-127416726D01*
X163678226Y-127560889D01*
X163847744Y-127674157D01*
X164036102Y-127752178D01*
X164236061Y-127791952D01*
X164439939Y-127791952D01*
X164639898Y-127752178D01*
X164828256Y-127674157D01*
X164997774Y-127560889D01*
X165141937Y-127416726D01*
X165255205Y-127247208D01*
X165324666Y-127079515D01*
X165388455Y-127079515D01*
X165588414Y-127039741D01*
X165776772Y-126961720D01*
X165946290Y-126848452D01*
X166090453Y-126704289D01*
X166203721Y-126534771D01*
X166281742Y-126346413D01*
X166321516Y-126146454D01*
X166321516Y-125942576D01*
X166281742Y-125742617D01*
X166203721Y-125554259D01*
X166090453Y-125384741D01*
X165946290Y-125240578D01*
X165776772Y-125127310D01*
X165588414Y-125049289D01*
X165388455Y-125009515D01*
X165184577Y-125009515D01*
X164984618Y-125049289D01*
X164796260Y-125127310D01*
X164626742Y-125240578D01*
X164482579Y-125384741D01*
X164369311Y-125554259D01*
X164299850Y-125721952D01*
X164236061Y-125721952D01*
X164036102Y-125761726D01*
X163847744Y-125839747D01*
X163678226Y-125953015D01*
X163534063Y-126097178D01*
X163420795Y-126266696D01*
X163342774Y-126455054D01*
X163303000Y-126655013D01*
X157873546Y-126655013D01*
X157850296Y-126598885D01*
X157737028Y-126429367D01*
X157592865Y-126285204D01*
X157423347Y-126171936D01*
X157234989Y-126093915D01*
X157035030Y-126054141D01*
X156831152Y-126054141D01*
X156631193Y-126093915D01*
X156548684Y-126128091D01*
X156489107Y-126068514D01*
X156319589Y-125955246D01*
X156131231Y-125877225D01*
X155931272Y-125837451D01*
X155727394Y-125837451D01*
X155527435Y-125877225D01*
X155446012Y-125910952D01*
X155327007Y-125831435D01*
X155138649Y-125753414D01*
X154938690Y-125713640D01*
X154734812Y-125713640D01*
X154534853Y-125753414D01*
X154346495Y-125831435D01*
X154176977Y-125944703D01*
X154032814Y-126088866D01*
X153919546Y-126258384D01*
X153841525Y-126446742D01*
X153801751Y-126646701D01*
X141884000Y-126646701D01*
X141884000Y-122721000D01*
X142402928Y-122721000D01*
X142402928Y-124421000D01*
X142415188Y-124545482D01*
X142451498Y-124665180D01*
X142510463Y-124775494D01*
X142589815Y-124872185D01*
X142686506Y-124951537D01*
X142796820Y-125010502D01*
X142916518Y-125046812D01*
X143041000Y-125059072D01*
X144741000Y-125059072D01*
X144865482Y-125046812D01*
X144985180Y-125010502D01*
X145095494Y-124951537D01*
X145192185Y-124872185D01*
X145271537Y-124775494D01*
X145330502Y-124665180D01*
X145366812Y-124545482D01*
X145379072Y-124421000D01*
X145379072Y-124358061D01*
X160382000Y-124358061D01*
X160382000Y-124561939D01*
X160421774Y-124761898D01*
X160499795Y-124950256D01*
X160613063Y-125119774D01*
X160757226Y-125263937D01*
X160926744Y-125377205D01*
X161115102Y-125455226D01*
X161315061Y-125495000D01*
X161518939Y-125495000D01*
X161718898Y-125455226D01*
X161907256Y-125377205D01*
X162076774Y-125263937D01*
X162220937Y-125119774D01*
X162334205Y-124950256D01*
X162412226Y-124761898D01*
X162452000Y-124561939D01*
X162452000Y-124358061D01*
X162412226Y-124158102D01*
X162342845Y-123990604D01*
X162421282Y-123873215D01*
X162499303Y-123684857D01*
X162539077Y-123484898D01*
X162539077Y-123281020D01*
X162499303Y-123081061D01*
X162421282Y-122892703D01*
X162387093Y-122841536D01*
X162451524Y-122685987D01*
X162491298Y-122486028D01*
X162491298Y-122282150D01*
X162451524Y-122082191D01*
X162373503Y-121893833D01*
X162260235Y-121724315D01*
X162116072Y-121580152D01*
X161946554Y-121466884D01*
X161758196Y-121388863D01*
X161558237Y-121349089D01*
X161354359Y-121349089D01*
X161154400Y-121388863D01*
X160966042Y-121466884D01*
X160796524Y-121580152D01*
X160652361Y-121724315D01*
X160539093Y-121893833D01*
X160461072Y-122082191D01*
X160421298Y-122282150D01*
X160421298Y-122486028D01*
X160461072Y-122685987D01*
X160539093Y-122874345D01*
X160573282Y-122925512D01*
X160508851Y-123081061D01*
X160469077Y-123281020D01*
X160469077Y-123484898D01*
X160508851Y-123684857D01*
X160578232Y-123852355D01*
X160499795Y-123969744D01*
X160421774Y-124158102D01*
X160382000Y-124358061D01*
X145379072Y-124358061D01*
X145379072Y-122721000D01*
X145366812Y-122596518D01*
X145330502Y-122476820D01*
X145271537Y-122366506D01*
X145192185Y-122269815D01*
X145095494Y-122190463D01*
X144985180Y-122131498D01*
X144912620Y-122109487D01*
X145044475Y-121977632D01*
X145206990Y-121734411D01*
X145318932Y-121464158D01*
X145376000Y-121177260D01*
X145376000Y-120884740D01*
X145318932Y-120597842D01*
X145206990Y-120327589D01*
X145044475Y-120084368D01*
X144837632Y-119877525D01*
X144663240Y-119761000D01*
X144837632Y-119644475D01*
X144950046Y-119532061D01*
X152254000Y-119532061D01*
X152254000Y-119735939D01*
X152293774Y-119935898D01*
X152371795Y-120124256D01*
X152485063Y-120293774D01*
X152629226Y-120437937D01*
X152798744Y-120551205D01*
X152987102Y-120629226D01*
X153187061Y-120669000D01*
X153390939Y-120669000D01*
X153590898Y-120629226D01*
X153779256Y-120551205D01*
X153948774Y-120437937D01*
X154092937Y-120293774D01*
X154206205Y-120124256D01*
X154284226Y-119935898D01*
X154324000Y-119735939D01*
X154324000Y-119532061D01*
X154284226Y-119332102D01*
X154206205Y-119143744D01*
X154092937Y-118974226D01*
X153962328Y-118843617D01*
X154334748Y-118843617D01*
X154334748Y-119047495D01*
X154374522Y-119247454D01*
X154452543Y-119435812D01*
X154565811Y-119605330D01*
X154709974Y-119749493D01*
X154879492Y-119862761D01*
X155067850Y-119940782D01*
X155267809Y-119980556D01*
X155471687Y-119980556D01*
X155671646Y-119940782D01*
X155860004Y-119862761D01*
X156029522Y-119749493D01*
X156118099Y-119660916D01*
X156445000Y-119660916D01*
X156445000Y-119864794D01*
X156484774Y-120064753D01*
X156562795Y-120253111D01*
X156676063Y-120422629D01*
X156820226Y-120566792D01*
X156989744Y-120680060D01*
X157178102Y-120758081D01*
X157378061Y-120797855D01*
X157581939Y-120797855D01*
X157781898Y-120758081D01*
X157888425Y-120713956D01*
X157959795Y-120886256D01*
X158073063Y-121055774D01*
X158217226Y-121199937D01*
X158386744Y-121313205D01*
X158500958Y-121360514D01*
X158521966Y-121466129D01*
X158599987Y-121654487D01*
X158713255Y-121824005D01*
X158857418Y-121968168D01*
X159026936Y-122081436D01*
X159215294Y-122159457D01*
X159415253Y-122199231D01*
X159619131Y-122199231D01*
X159819090Y-122159457D01*
X160007448Y-122081436D01*
X160176966Y-121968168D01*
X160321129Y-121824005D01*
X160434397Y-121654487D01*
X160512418Y-121466129D01*
X160552192Y-121266170D01*
X160552192Y-121062292D01*
X160512418Y-120862333D01*
X160434397Y-120673975D01*
X160321129Y-120504457D01*
X160176966Y-120360294D01*
X160007448Y-120247026D01*
X159893234Y-120199717D01*
X159872226Y-120094102D01*
X159794205Y-119905744D01*
X159680937Y-119736226D01*
X159613828Y-119669117D01*
X160509000Y-119669117D01*
X160509000Y-119872995D01*
X160548774Y-120072954D01*
X160626795Y-120261312D01*
X160740063Y-120430830D01*
X160884226Y-120574993D01*
X161053744Y-120688261D01*
X161242102Y-120766282D01*
X161442061Y-120806056D01*
X161645939Y-120806056D01*
X161845898Y-120766282D01*
X162034256Y-120688261D01*
X162203774Y-120574993D01*
X162347937Y-120430830D01*
X162461205Y-120261312D01*
X162539226Y-120072954D01*
X162579000Y-119872995D01*
X162579000Y-119669117D01*
X162539226Y-119469158D01*
X162461205Y-119280800D01*
X162347937Y-119111282D01*
X162203774Y-118967119D01*
X162034256Y-118853851D01*
X161845898Y-118775830D01*
X161645939Y-118736056D01*
X161442061Y-118736056D01*
X161242102Y-118775830D01*
X161053744Y-118853851D01*
X160884226Y-118967119D01*
X160740063Y-119111282D01*
X160626795Y-119280800D01*
X160548774Y-119469158D01*
X160509000Y-119669117D01*
X159613828Y-119669117D01*
X159536774Y-119592063D01*
X159367256Y-119478795D01*
X159178898Y-119400774D01*
X158978939Y-119361000D01*
X158775061Y-119361000D01*
X158575102Y-119400774D01*
X158468575Y-119444899D01*
X158397205Y-119272599D01*
X158283937Y-119103081D01*
X158139774Y-118958918D01*
X157970256Y-118845650D01*
X157781898Y-118767629D01*
X157581939Y-118727855D01*
X157378061Y-118727855D01*
X157178102Y-118767629D01*
X156989744Y-118845650D01*
X156820226Y-118958918D01*
X156676063Y-119103081D01*
X156562795Y-119272599D01*
X156484774Y-119460957D01*
X156445000Y-119660916D01*
X156118099Y-119660916D01*
X156173685Y-119605330D01*
X156286953Y-119435812D01*
X156364974Y-119247454D01*
X156404748Y-119047495D01*
X156404748Y-118843617D01*
X156364974Y-118643658D01*
X156286953Y-118455300D01*
X156173685Y-118285782D01*
X156029522Y-118141619D01*
X155860004Y-118028351D01*
X155671646Y-117950330D01*
X155471687Y-117910556D01*
X155267809Y-117910556D01*
X155067850Y-117950330D01*
X154879492Y-118028351D01*
X154709974Y-118141619D01*
X154565811Y-118285782D01*
X154452543Y-118455300D01*
X154374522Y-118643658D01*
X154334748Y-118843617D01*
X153962328Y-118843617D01*
X153948774Y-118830063D01*
X153779256Y-118716795D01*
X153590898Y-118638774D01*
X153390939Y-118599000D01*
X153187061Y-118599000D01*
X152987102Y-118638774D01*
X152798744Y-118716795D01*
X152629226Y-118830063D01*
X152485063Y-118974226D01*
X152371795Y-119143744D01*
X152293774Y-119332102D01*
X152254000Y-119532061D01*
X144950046Y-119532061D01*
X145044475Y-119437632D01*
X145206990Y-119194411D01*
X145318932Y-118924158D01*
X145376000Y-118637260D01*
X145376000Y-118344740D01*
X145318932Y-118057842D01*
X145206990Y-117787589D01*
X145184588Y-117754061D01*
X147809000Y-117754061D01*
X147809000Y-117957939D01*
X147848774Y-118157898D01*
X147926795Y-118346256D01*
X148040063Y-118515774D01*
X148184226Y-118659937D01*
X148353744Y-118773205D01*
X148542102Y-118851226D01*
X148742061Y-118891000D01*
X148945939Y-118891000D01*
X149145898Y-118851226D01*
X149334256Y-118773205D01*
X149503774Y-118659937D01*
X149647937Y-118515774D01*
X149761205Y-118346256D01*
X149839226Y-118157898D01*
X149879000Y-117957939D01*
X149879000Y-117856208D01*
X162949585Y-117856208D01*
X162949585Y-118060086D01*
X162989359Y-118260045D01*
X163067380Y-118448403D01*
X163180648Y-118617921D01*
X163324811Y-118762084D01*
X163494329Y-118875352D01*
X163682687Y-118953373D01*
X163882646Y-118993147D01*
X164086524Y-118993147D01*
X164286483Y-118953373D01*
X164474841Y-118875352D01*
X164644359Y-118762084D01*
X164788522Y-118617921D01*
X164901790Y-118448403D01*
X164979811Y-118260045D01*
X165019585Y-118060086D01*
X165019585Y-117926089D01*
X165053091Y-118094536D01*
X165131112Y-118282894D01*
X165244380Y-118452412D01*
X165388543Y-118596575D01*
X165558061Y-118709843D01*
X165746419Y-118787864D01*
X165946378Y-118827638D01*
X166150256Y-118827638D01*
X166350215Y-118787864D01*
X166538573Y-118709843D01*
X166708091Y-118596575D01*
X166852254Y-118452412D01*
X166965522Y-118282894D01*
X167043543Y-118094536D01*
X167083317Y-117894577D01*
X167083317Y-117690699D01*
X167043543Y-117490740D01*
X166965522Y-117302382D01*
X166852254Y-117132864D01*
X166708091Y-116988701D01*
X166538573Y-116875433D01*
X166350215Y-116797412D01*
X166150256Y-116757638D01*
X165946378Y-116757638D01*
X165746419Y-116797412D01*
X165558061Y-116875433D01*
X165388543Y-116988701D01*
X165244380Y-117132864D01*
X165131112Y-117302382D01*
X165053091Y-117490740D01*
X165013317Y-117690699D01*
X165013317Y-117824696D01*
X164979811Y-117656249D01*
X164901790Y-117467891D01*
X164788522Y-117298373D01*
X164644359Y-117154210D01*
X164474841Y-117040942D01*
X164286483Y-116962921D01*
X164086524Y-116923147D01*
X163882646Y-116923147D01*
X163682687Y-116962921D01*
X163494329Y-117040942D01*
X163324811Y-117154210D01*
X163180648Y-117298373D01*
X163067380Y-117467891D01*
X162989359Y-117656249D01*
X162949585Y-117856208D01*
X149879000Y-117856208D01*
X149879000Y-117754061D01*
X149839226Y-117554102D01*
X149761205Y-117365744D01*
X149647937Y-117196226D01*
X149503774Y-117052063D01*
X149334256Y-116938795D01*
X149145898Y-116860774D01*
X148945939Y-116821000D01*
X148742061Y-116821000D01*
X148542102Y-116860774D01*
X148353744Y-116938795D01*
X148184226Y-117052063D01*
X148040063Y-117196226D01*
X147926795Y-117365744D01*
X147848774Y-117554102D01*
X147809000Y-117754061D01*
X145184588Y-117754061D01*
X145044475Y-117544368D01*
X144837632Y-117337525D01*
X144663240Y-117221000D01*
X144837632Y-117104475D01*
X145044475Y-116897632D01*
X145206990Y-116654411D01*
X145318932Y-116384158D01*
X145376000Y-116097260D01*
X145376000Y-115804740D01*
X145318932Y-115517842D01*
X145256410Y-115366899D01*
X155848969Y-115366899D01*
X155848969Y-115570777D01*
X155888743Y-115770736D01*
X155966764Y-115959094D01*
X156080032Y-116128612D01*
X156224195Y-116272775D01*
X156393713Y-116386043D01*
X156582071Y-116464064D01*
X156782030Y-116503838D01*
X156985908Y-116503838D01*
X157185867Y-116464064D01*
X157374225Y-116386043D01*
X157543743Y-116272775D01*
X157687906Y-116128612D01*
X157801174Y-115959094D01*
X157879195Y-115770736D01*
X157918969Y-115570777D01*
X157918969Y-115366899D01*
X157879195Y-115166940D01*
X157801174Y-114978582D01*
X157687906Y-114809064D01*
X157543743Y-114664901D01*
X157374225Y-114551633D01*
X157185867Y-114473612D01*
X156985908Y-114433838D01*
X156782030Y-114433838D01*
X156582071Y-114473612D01*
X156393713Y-114551633D01*
X156224195Y-114664901D01*
X156080032Y-114809064D01*
X155966764Y-114978582D01*
X155888743Y-115166940D01*
X155848969Y-115366899D01*
X145256410Y-115366899D01*
X145206990Y-115247589D01*
X145044475Y-115004368D01*
X144837632Y-114797525D01*
X144663240Y-114681000D01*
X144837632Y-114564475D01*
X145044475Y-114357632D01*
X145206990Y-114114411D01*
X145277550Y-113944061D01*
X161271000Y-113944061D01*
X161271000Y-114147939D01*
X161310774Y-114347898D01*
X161388795Y-114536256D01*
X161502063Y-114705774D01*
X161646226Y-114849937D01*
X161815744Y-114963205D01*
X162004102Y-115041226D01*
X162204061Y-115081000D01*
X162407939Y-115081000D01*
X162607898Y-115041226D01*
X162796256Y-114963205D01*
X162965774Y-114849937D01*
X163109937Y-114705774D01*
X163223205Y-114536256D01*
X163301226Y-114347898D01*
X163341000Y-114147939D01*
X163341000Y-113944061D01*
X163301226Y-113744102D01*
X163223205Y-113555744D01*
X163109937Y-113386226D01*
X162965774Y-113242063D01*
X162796256Y-113128795D01*
X162607898Y-113050774D01*
X162407939Y-113011000D01*
X162204061Y-113011000D01*
X162004102Y-113050774D01*
X161815744Y-113128795D01*
X161646226Y-113242063D01*
X161502063Y-113386226D01*
X161388795Y-113555744D01*
X161310774Y-113744102D01*
X161271000Y-113944061D01*
X145277550Y-113944061D01*
X145318932Y-113844158D01*
X145376000Y-113557260D01*
X145376000Y-113264740D01*
X145318932Y-112977842D01*
X145206990Y-112707589D01*
X145044475Y-112464368D01*
X144837632Y-112257525D01*
X144733931Y-112188234D01*
X151925565Y-112188234D01*
X151925565Y-112392112D01*
X151965339Y-112592071D01*
X152043360Y-112780429D01*
X152156628Y-112949947D01*
X152300791Y-113094110D01*
X152470309Y-113207378D01*
X152658667Y-113285399D01*
X152858626Y-113325173D01*
X153062504Y-113325173D01*
X153262463Y-113285399D01*
X153450821Y-113207378D01*
X153620339Y-113094110D01*
X153764502Y-112949947D01*
X153877770Y-112780429D01*
X153955791Y-112592071D01*
X153995565Y-112392112D01*
X153995565Y-112188234D01*
X153991155Y-112166061D01*
X163176000Y-112166061D01*
X163176000Y-112369939D01*
X163215774Y-112569898D01*
X163293795Y-112758256D01*
X163407063Y-112927774D01*
X163551226Y-113071937D01*
X163720744Y-113185205D01*
X163909102Y-113263226D01*
X164109061Y-113303000D01*
X164312939Y-113303000D01*
X164512898Y-113263226D01*
X164701256Y-113185205D01*
X164870774Y-113071937D01*
X165014937Y-112927774D01*
X165128205Y-112758256D01*
X165206226Y-112569898D01*
X165246000Y-112369939D01*
X165246000Y-112166061D01*
X165206226Y-111966102D01*
X165128205Y-111777744D01*
X165014937Y-111608226D01*
X164870774Y-111464063D01*
X164701256Y-111350795D01*
X164512898Y-111272774D01*
X164312939Y-111233000D01*
X164109061Y-111233000D01*
X163909102Y-111272774D01*
X163720744Y-111350795D01*
X163551226Y-111464063D01*
X163407063Y-111608226D01*
X163293795Y-111777744D01*
X163215774Y-111966102D01*
X163176000Y-112166061D01*
X153991155Y-112166061D01*
X153955791Y-111988275D01*
X153877770Y-111799917D01*
X153764502Y-111630399D01*
X153620339Y-111486236D01*
X153450821Y-111372968D01*
X153262463Y-111294947D01*
X153062504Y-111255173D01*
X152858626Y-111255173D01*
X152658667Y-111294947D01*
X152470309Y-111372968D01*
X152300791Y-111486236D01*
X152156628Y-111630399D01*
X152043360Y-111799917D01*
X151965339Y-111988275D01*
X151925565Y-112188234D01*
X144733931Y-112188234D01*
X144594411Y-112095010D01*
X144324158Y-111983068D01*
X144037260Y-111926000D01*
X143744740Y-111926000D01*
X143457842Y-111983068D01*
X143187589Y-112095010D01*
X142944368Y-112257525D01*
X142737525Y-112464368D01*
X142575010Y-112707589D01*
X142463068Y-112977842D01*
X142406000Y-113264740D01*
X142406000Y-113557260D01*
X142463068Y-113844158D01*
X142575010Y-114114411D01*
X142737525Y-114357632D01*
X142944368Y-114564475D01*
X143118760Y-114681000D01*
X142944368Y-114797525D01*
X142737525Y-115004368D01*
X142575010Y-115247589D01*
X142463068Y-115517842D01*
X142406000Y-115804740D01*
X142406000Y-116097260D01*
X142463068Y-116384158D01*
X142575010Y-116654411D01*
X142737525Y-116897632D01*
X142944368Y-117104475D01*
X143118760Y-117221000D01*
X142944368Y-117337525D01*
X142737525Y-117544368D01*
X142575010Y-117787589D01*
X142463068Y-118057842D01*
X142406000Y-118344740D01*
X142406000Y-118637260D01*
X142463068Y-118924158D01*
X142575010Y-119194411D01*
X142737525Y-119437632D01*
X142944368Y-119644475D01*
X143118760Y-119761000D01*
X142944368Y-119877525D01*
X142737525Y-120084368D01*
X142575010Y-120327589D01*
X142463068Y-120597842D01*
X142406000Y-120884740D01*
X142406000Y-121177260D01*
X142463068Y-121464158D01*
X142575010Y-121734411D01*
X142737525Y-121977632D01*
X142869380Y-122109487D01*
X142796820Y-122131498D01*
X142686506Y-122190463D01*
X142589815Y-122269815D01*
X142510463Y-122366506D01*
X142451498Y-122476820D01*
X142415188Y-122596518D01*
X142402928Y-122721000D01*
X141884000Y-122721000D01*
X141884000Y-110896061D01*
X148825000Y-110896061D01*
X148825000Y-111099939D01*
X148864774Y-111299898D01*
X148942795Y-111488256D01*
X149056063Y-111657774D01*
X149200226Y-111801937D01*
X149369744Y-111915205D01*
X149558102Y-111993226D01*
X149758061Y-112033000D01*
X149961939Y-112033000D01*
X150161898Y-111993226D01*
X150350256Y-111915205D01*
X150519774Y-111801937D01*
X150663937Y-111657774D01*
X150777205Y-111488256D01*
X150855226Y-111299898D01*
X150895000Y-111099939D01*
X150895000Y-110896061D01*
X150855226Y-110696102D01*
X150777205Y-110507744D01*
X150663937Y-110338226D01*
X150519774Y-110194063D01*
X150350256Y-110080795D01*
X150172248Y-110007061D01*
X153397000Y-110007061D01*
X153397000Y-110210939D01*
X153436774Y-110410898D01*
X153514795Y-110599256D01*
X153628063Y-110768774D01*
X153772226Y-110912937D01*
X153941744Y-111026205D01*
X154130102Y-111104226D01*
X154330061Y-111144000D01*
X154533939Y-111144000D01*
X154733898Y-111104226D01*
X154922256Y-111026205D01*
X155091774Y-110912937D01*
X155235937Y-110768774D01*
X155349205Y-110599256D01*
X155427226Y-110410898D01*
X155467000Y-110210939D01*
X155467000Y-110007061D01*
X155427226Y-109807102D01*
X155349205Y-109618744D01*
X155235937Y-109449226D01*
X155091774Y-109305063D01*
X154922256Y-109191795D01*
X154733898Y-109113774D01*
X154533939Y-109074000D01*
X154330061Y-109074000D01*
X154130102Y-109113774D01*
X153941744Y-109191795D01*
X153772226Y-109305063D01*
X153628063Y-109449226D01*
X153514795Y-109618744D01*
X153436774Y-109807102D01*
X153397000Y-110007061D01*
X150172248Y-110007061D01*
X150161898Y-110002774D01*
X149961939Y-109963000D01*
X149758061Y-109963000D01*
X149558102Y-110002774D01*
X149369744Y-110080795D01*
X149200226Y-110194063D01*
X149056063Y-110338226D01*
X148942795Y-110507744D01*
X148864774Y-110696102D01*
X148825000Y-110896061D01*
X141884000Y-110896061D01*
X141884000Y-107557286D01*
X141910586Y-107575050D01*
X142094394Y-107651186D01*
X142289524Y-107690000D01*
X142354660Y-107690000D01*
X142338795Y-107713744D01*
X142260774Y-107902102D01*
X142221000Y-108102061D01*
X142221000Y-108305939D01*
X142260774Y-108505898D01*
X142338795Y-108694256D01*
X142452063Y-108863774D01*
X142596226Y-109007937D01*
X142765744Y-109121205D01*
X142954102Y-109199226D01*
X143154061Y-109239000D01*
X143357939Y-109239000D01*
X143557898Y-109199226D01*
X143746256Y-109121205D01*
X143915774Y-109007937D01*
X144059937Y-108863774D01*
X144173205Y-108694256D01*
X144251226Y-108505898D01*
X144291000Y-108305939D01*
X144291000Y-108102061D01*
X144251226Y-107902102D01*
X144173205Y-107713744D01*
X144059937Y-107544226D01*
X143915774Y-107400063D01*
X143746256Y-107286795D01*
X143557898Y-107208774D01*
X143357939Y-107169000D01*
X143276977Y-107169000D01*
X143284050Y-107158414D01*
X143360186Y-106974606D01*
X143399000Y-106779476D01*
X143399000Y-106580524D01*
X144129000Y-106580524D01*
X144129000Y-106779476D01*
X144167814Y-106974606D01*
X144243950Y-107158414D01*
X144354482Y-107323837D01*
X144495163Y-107464518D01*
X144660586Y-107575050D01*
X144844394Y-107651186D01*
X145039524Y-107690000D01*
X145238476Y-107690000D01*
X145433606Y-107651186D01*
X145617414Y-107575050D01*
X145779031Y-107467061D01*
X155048000Y-107467061D01*
X155048000Y-107670939D01*
X155087774Y-107870898D01*
X155165795Y-108059256D01*
X155279063Y-108228774D01*
X155423226Y-108372937D01*
X155592744Y-108486205D01*
X155781102Y-108564226D01*
X155981061Y-108604000D01*
X156184939Y-108604000D01*
X156384898Y-108564226D01*
X156573256Y-108486205D01*
X156742774Y-108372937D01*
X156886937Y-108228774D01*
X157000205Y-108059256D01*
X157078226Y-107870898D01*
X157118000Y-107670939D01*
X157118000Y-107467061D01*
X157078226Y-107267102D01*
X157000205Y-107078744D01*
X156886937Y-106909226D01*
X156742774Y-106765063D01*
X156573256Y-106651795D01*
X156384898Y-106573774D01*
X156184939Y-106534000D01*
X155981061Y-106534000D01*
X155781102Y-106573774D01*
X155592744Y-106651795D01*
X155423226Y-106765063D01*
X155279063Y-106909226D01*
X155165795Y-107078744D01*
X155087774Y-107267102D01*
X155048000Y-107467061D01*
X145779031Y-107467061D01*
X145782837Y-107464518D01*
X145923518Y-107323837D01*
X146034050Y-107158414D01*
X146110186Y-106974606D01*
X146149000Y-106779476D01*
X146149000Y-106580524D01*
X146110186Y-106385394D01*
X146034050Y-106201586D01*
X145923518Y-106036163D01*
X145782837Y-105895482D01*
X145617414Y-105784950D01*
X145433606Y-105708814D01*
X145238476Y-105670000D01*
X145039524Y-105670000D01*
X144844394Y-105708814D01*
X144660586Y-105784950D01*
X144495163Y-105895482D01*
X144354482Y-106036163D01*
X144243950Y-106201586D01*
X144167814Y-106385394D01*
X144129000Y-106580524D01*
X143399000Y-106580524D01*
X143360186Y-106385394D01*
X143284050Y-106201586D01*
X143173518Y-106036163D01*
X143032837Y-105895482D01*
X142867414Y-105784950D01*
X142683606Y-105708814D01*
X142488476Y-105670000D01*
X142289524Y-105670000D01*
X142094394Y-105708814D01*
X141910586Y-105784950D01*
X141884000Y-105802714D01*
X141884000Y-104038061D01*
X147809000Y-104038061D01*
X147809000Y-104241939D01*
X147848774Y-104441898D01*
X147926795Y-104630256D01*
X148040063Y-104799774D01*
X148184226Y-104943937D01*
X148353744Y-105057205D01*
X148542102Y-105135226D01*
X148742061Y-105175000D01*
X148945939Y-105175000D01*
X149145898Y-105135226D01*
X149334256Y-105057205D01*
X149503774Y-104943937D01*
X149647650Y-104800061D01*
X155048000Y-104800061D01*
X155048000Y-105003939D01*
X155087774Y-105203898D01*
X155165795Y-105392256D01*
X155279063Y-105561774D01*
X155423226Y-105705937D01*
X155592744Y-105819205D01*
X155781102Y-105897226D01*
X155981061Y-105937000D01*
X156184939Y-105937000D01*
X156384898Y-105897226D01*
X156573256Y-105819205D01*
X156742774Y-105705937D01*
X156886937Y-105561774D01*
X157000205Y-105392256D01*
X157078226Y-105203898D01*
X157118000Y-105003939D01*
X157118000Y-104800061D01*
X157078226Y-104600102D01*
X157000205Y-104411744D01*
X156886937Y-104242226D01*
X156742774Y-104098063D01*
X156573256Y-103984795D01*
X156384898Y-103906774D01*
X156184939Y-103867000D01*
X155981061Y-103867000D01*
X155781102Y-103906774D01*
X155592744Y-103984795D01*
X155423226Y-104098063D01*
X155279063Y-104242226D01*
X155165795Y-104411744D01*
X155087774Y-104600102D01*
X155048000Y-104800061D01*
X149647650Y-104800061D01*
X149647937Y-104799774D01*
X149761205Y-104630256D01*
X149839226Y-104441898D01*
X149879000Y-104241939D01*
X149879000Y-104038061D01*
X149839226Y-103838102D01*
X149761205Y-103649744D01*
X149647937Y-103480226D01*
X149503774Y-103336063D01*
X149334256Y-103222795D01*
X149145898Y-103144774D01*
X148945939Y-103105000D01*
X148742061Y-103105000D01*
X148542102Y-103144774D01*
X148353744Y-103222795D01*
X148184226Y-103336063D01*
X148040063Y-103480226D01*
X147926795Y-103649744D01*
X147848774Y-103838102D01*
X147809000Y-104038061D01*
X141884000Y-104038061D01*
X141884000Y-102394277D01*
X141889047Y-102342803D01*
X141894622Y-102324338D01*
X141903678Y-102307306D01*
X141915870Y-102292357D01*
X141930732Y-102280062D01*
X141947696Y-102270889D01*
X141966129Y-102265183D01*
X142015446Y-102260000D01*
X152562289Y-102260000D01*
X152485063Y-102337226D01*
%TO.N,+5V*%
G36*
X208807197Y-102265047D02*
G01*
X208825662Y-102270622D01*
X208842694Y-102279678D01*
X208857643Y-102291870D01*
X208869938Y-102306732D01*
X208879111Y-102323696D01*
X208884817Y-102342129D01*
X208890000Y-102391446D01*
X208890001Y-135095712D01*
X208884953Y-135147195D01*
X208879377Y-135165663D01*
X208870322Y-135182693D01*
X208858129Y-135197643D01*
X208843266Y-135209939D01*
X208826303Y-135219111D01*
X208807871Y-135224817D01*
X208758554Y-135230000D01*
X169418000Y-135230000D01*
X169418000Y-133883061D01*
X170542000Y-133883061D01*
X170542000Y-134086939D01*
X170581774Y-134286898D01*
X170659795Y-134475256D01*
X170773063Y-134644774D01*
X170917226Y-134788937D01*
X171086744Y-134902205D01*
X171275102Y-134980226D01*
X171475061Y-135020000D01*
X171678939Y-135020000D01*
X171878898Y-134980226D01*
X172067256Y-134902205D01*
X172236774Y-134788937D01*
X172380937Y-134644774D01*
X172494205Y-134475256D01*
X172572226Y-134286898D01*
X172612000Y-134086939D01*
X172612000Y-133883061D01*
X172572226Y-133683102D01*
X172494205Y-133494744D01*
X172380937Y-133325226D01*
X172236774Y-133181063D01*
X172067256Y-133067795D01*
X171878898Y-132989774D01*
X171678939Y-132950000D01*
X171475061Y-132950000D01*
X171275102Y-132989774D01*
X171086744Y-133067795D01*
X170917226Y-133181063D01*
X170773063Y-133325226D01*
X170659795Y-133494744D01*
X170581774Y-133683102D01*
X170542000Y-133883061D01*
X169418000Y-133883061D01*
X169418000Y-132615221D01*
X169456726Y-132653947D01*
X169626244Y-132767215D01*
X169814602Y-132845236D01*
X170014561Y-132885010D01*
X170218439Y-132885010D01*
X170418398Y-132845236D01*
X170606756Y-132767215D01*
X170776274Y-132653947D01*
X170920437Y-132509784D01*
X171033705Y-132340266D01*
X171051191Y-132298051D01*
X177654000Y-132298051D01*
X177654000Y-132501929D01*
X177693774Y-132701888D01*
X177771795Y-132890246D01*
X177885063Y-133059764D01*
X178029226Y-133203927D01*
X178198744Y-133317195D01*
X178387102Y-133395216D01*
X178587061Y-133434990D01*
X178691890Y-133434990D01*
X178709774Y-133524898D01*
X178787795Y-133713256D01*
X178901063Y-133882774D01*
X179045226Y-134026937D01*
X179214744Y-134140205D01*
X179403102Y-134218226D01*
X179603061Y-134258000D01*
X179806939Y-134258000D01*
X180006898Y-134218226D01*
X180195256Y-134140205D01*
X180364774Y-134026937D01*
X180508937Y-133882774D01*
X180622205Y-133713256D01*
X180700226Y-133524898D01*
X180740000Y-133324939D01*
X180740000Y-133121061D01*
X180700226Y-132921102D01*
X180622205Y-132732744D01*
X180508937Y-132563226D01*
X180364774Y-132419063D01*
X180195256Y-132305795D01*
X180006898Y-132227774D01*
X179806939Y-132188000D01*
X179702110Y-132188000D01*
X179684226Y-132098092D01*
X179606205Y-131909734D01*
X179492937Y-131740216D01*
X179348774Y-131596053D01*
X179179256Y-131482785D01*
X178990898Y-131404764D01*
X178790939Y-131364990D01*
X178587061Y-131364990D01*
X178387102Y-131404764D01*
X178198744Y-131482785D01*
X178029226Y-131596053D01*
X177885063Y-131740216D01*
X177771795Y-131909734D01*
X177693774Y-132098092D01*
X177654000Y-132298051D01*
X171051191Y-132298051D01*
X171111726Y-132151908D01*
X171151500Y-131951949D01*
X171151500Y-131748071D01*
X171111726Y-131548112D01*
X171033705Y-131359754D01*
X170920437Y-131190236D01*
X170776274Y-131046073D01*
X170606756Y-130932805D01*
X170418398Y-130854784D01*
X170218439Y-130815010D01*
X170014561Y-130815010D01*
X169814602Y-130854784D01*
X169626244Y-130932805D01*
X169456726Y-131046073D01*
X169418000Y-131084799D01*
X169418000Y-129266740D01*
X184443000Y-129266740D01*
X184443000Y-129559260D01*
X184500068Y-129846158D01*
X184612010Y-130116411D01*
X184774525Y-130359632D01*
X184981368Y-130566475D01*
X185155760Y-130683000D01*
X184981368Y-130799525D01*
X184774525Y-131006368D01*
X184612010Y-131249589D01*
X184500068Y-131519842D01*
X184443000Y-131806740D01*
X184443000Y-132099260D01*
X184500068Y-132386158D01*
X184612010Y-132656411D01*
X184774525Y-132899632D01*
X184981368Y-133106475D01*
X185224589Y-133268990D01*
X185494842Y-133380932D01*
X185781740Y-133438000D01*
X186074260Y-133438000D01*
X186361158Y-133380932D01*
X186631411Y-133268990D01*
X186874632Y-133106475D01*
X187081475Y-132899632D01*
X187198000Y-132725240D01*
X187314525Y-132899632D01*
X187521368Y-133106475D01*
X187764589Y-133268990D01*
X188034842Y-133380932D01*
X188321740Y-133438000D01*
X188614260Y-133438000D01*
X188901158Y-133380932D01*
X189171411Y-133268990D01*
X189414632Y-133106475D01*
X189621475Y-132899632D01*
X189738000Y-132725240D01*
X189854525Y-132899632D01*
X190061368Y-133106475D01*
X190304589Y-133268990D01*
X190574842Y-133380932D01*
X190861740Y-133438000D01*
X191154260Y-133438000D01*
X191441158Y-133380932D01*
X191711411Y-133268990D01*
X191954632Y-133106475D01*
X192161475Y-132899632D01*
X192278000Y-132725240D01*
X192394525Y-132899632D01*
X192601368Y-133106475D01*
X192844589Y-133268990D01*
X193114842Y-133380932D01*
X193401740Y-133438000D01*
X193694260Y-133438000D01*
X193981158Y-133380932D01*
X194251411Y-133268990D01*
X194494632Y-133106475D01*
X194701475Y-132899632D01*
X194818000Y-132725240D01*
X194934525Y-132899632D01*
X195141368Y-133106475D01*
X195384589Y-133268990D01*
X195654842Y-133380932D01*
X195941740Y-133438000D01*
X196234260Y-133438000D01*
X196521158Y-133380932D01*
X196791411Y-133268990D01*
X197034632Y-133106475D01*
X197241475Y-132899632D01*
X197358000Y-132725240D01*
X197474525Y-132899632D01*
X197681368Y-133106475D01*
X197924589Y-133268990D01*
X198194842Y-133380932D01*
X198481740Y-133438000D01*
X198774260Y-133438000D01*
X199061158Y-133380932D01*
X199331411Y-133268990D01*
X199574632Y-133106475D01*
X199781475Y-132899632D01*
X199898000Y-132725240D01*
X200014525Y-132899632D01*
X200221368Y-133106475D01*
X200464589Y-133268990D01*
X200734842Y-133380932D01*
X201021740Y-133438000D01*
X201314260Y-133438000D01*
X201601158Y-133380932D01*
X201871411Y-133268990D01*
X202114632Y-133106475D01*
X202321475Y-132899632D01*
X202438000Y-132725240D01*
X202554525Y-132899632D01*
X202761368Y-133106475D01*
X203004589Y-133268990D01*
X203274842Y-133380932D01*
X203561740Y-133438000D01*
X203854260Y-133438000D01*
X204141158Y-133380932D01*
X204411411Y-133268990D01*
X204654632Y-133106475D01*
X204861475Y-132899632D01*
X205023990Y-132656411D01*
X205135932Y-132386158D01*
X205193000Y-132099260D01*
X205193000Y-131806740D01*
X205135932Y-131519842D01*
X205023990Y-131249589D01*
X204861475Y-131006368D01*
X204674392Y-130819285D01*
X204801386Y-130751405D01*
X204935962Y-130640962D01*
X205046405Y-130506386D01*
X205128472Y-130352850D01*
X205179008Y-130186254D01*
X205196072Y-130013000D01*
X205196072Y-128813000D01*
X205179008Y-128639746D01*
X205128472Y-128473150D01*
X205046405Y-128319614D01*
X204935962Y-128185038D01*
X204801386Y-128074595D01*
X204647850Y-127992528D01*
X204481254Y-127941992D01*
X204308000Y-127924928D01*
X203108000Y-127924928D01*
X202934746Y-127941992D01*
X202768150Y-127992528D01*
X202614614Y-128074595D01*
X202480038Y-128185038D01*
X202369595Y-128319614D01*
X202301715Y-128446608D01*
X202114632Y-128259525D01*
X201871411Y-128097010D01*
X201601158Y-127985068D01*
X201314260Y-127928000D01*
X201021740Y-127928000D01*
X200734842Y-127985068D01*
X200464589Y-128097010D01*
X200221368Y-128259525D01*
X200014525Y-128466368D01*
X199898000Y-128640760D01*
X199781475Y-128466368D01*
X199574632Y-128259525D01*
X199331411Y-128097010D01*
X199061158Y-127985068D01*
X198774260Y-127928000D01*
X198481740Y-127928000D01*
X198194842Y-127985068D01*
X197924589Y-128097010D01*
X197681368Y-128259525D01*
X197474525Y-128466368D01*
X197358000Y-128640760D01*
X197241475Y-128466368D01*
X197034632Y-128259525D01*
X196791411Y-128097010D01*
X196521158Y-127985068D01*
X196234260Y-127928000D01*
X195941740Y-127928000D01*
X195654842Y-127985068D01*
X195384589Y-128097010D01*
X195141368Y-128259525D01*
X194934525Y-128466368D01*
X194818000Y-128640760D01*
X194701475Y-128466368D01*
X194494632Y-128259525D01*
X194251411Y-128097010D01*
X193981158Y-127985068D01*
X193694260Y-127928000D01*
X193401740Y-127928000D01*
X193114842Y-127985068D01*
X192844589Y-128097010D01*
X192601368Y-128259525D01*
X192394525Y-128466368D01*
X192278000Y-128640760D01*
X192161475Y-128466368D01*
X191954632Y-128259525D01*
X191711411Y-128097010D01*
X191441158Y-127985068D01*
X191154260Y-127928000D01*
X190861740Y-127928000D01*
X190574842Y-127985068D01*
X190304589Y-128097010D01*
X190061368Y-128259525D01*
X189854525Y-128466368D01*
X189738000Y-128640760D01*
X189621475Y-128466368D01*
X189414632Y-128259525D01*
X189171411Y-128097010D01*
X188901158Y-127985068D01*
X188614260Y-127928000D01*
X188321740Y-127928000D01*
X188034842Y-127985068D01*
X187764589Y-128097010D01*
X187521368Y-128259525D01*
X187314525Y-128466368D01*
X187198000Y-128640760D01*
X187081475Y-128466368D01*
X186874632Y-128259525D01*
X186631411Y-128097010D01*
X186361158Y-127985068D01*
X186074260Y-127928000D01*
X185781740Y-127928000D01*
X185494842Y-127985068D01*
X185224589Y-128097010D01*
X184981368Y-128259525D01*
X184774525Y-128466368D01*
X184612010Y-128709589D01*
X184500068Y-128979842D01*
X184443000Y-129266740D01*
X169418000Y-129266740D01*
X169418000Y-127914061D01*
X174987000Y-127914061D01*
X174987000Y-128117939D01*
X175026774Y-128317898D01*
X175104795Y-128506256D01*
X175218063Y-128675774D01*
X175362226Y-128819937D01*
X175531744Y-128933205D01*
X175720102Y-129011226D01*
X175920061Y-129051000D01*
X176123939Y-129051000D01*
X176323898Y-129011226D01*
X176512256Y-128933205D01*
X176681774Y-128819937D01*
X176825937Y-128675774D01*
X176939205Y-128506256D01*
X177017226Y-128317898D01*
X177057000Y-128117939D01*
X177057000Y-127914061D01*
X177017226Y-127714102D01*
X176939205Y-127525744D01*
X176825937Y-127356226D01*
X176681774Y-127212063D01*
X176512256Y-127098795D01*
X176323898Y-127020774D01*
X176123939Y-126981000D01*
X175920061Y-126981000D01*
X175720102Y-127020774D01*
X175531744Y-127098795D01*
X175362226Y-127212063D01*
X175218063Y-127356226D01*
X175104795Y-127525744D01*
X175026774Y-127714102D01*
X174987000Y-127914061D01*
X169418000Y-127914061D01*
X169418000Y-125882061D01*
X171939000Y-125882061D01*
X171939000Y-126085939D01*
X171978774Y-126285898D01*
X172056795Y-126474256D01*
X172170063Y-126643774D01*
X172314226Y-126787937D01*
X172483744Y-126901205D01*
X172672102Y-126979226D01*
X172872061Y-127019000D01*
X173075939Y-127019000D01*
X173275898Y-126979226D01*
X173464256Y-126901205D01*
X173468961Y-126898061D01*
X181083000Y-126898061D01*
X181083000Y-127101939D01*
X181122774Y-127301898D01*
X181200795Y-127490256D01*
X181314063Y-127659774D01*
X181458226Y-127803937D01*
X181627744Y-127917205D01*
X181816102Y-127995226D01*
X182016061Y-128035000D01*
X182219939Y-128035000D01*
X182419898Y-127995226D01*
X182608256Y-127917205D01*
X182777774Y-127803937D01*
X182921937Y-127659774D01*
X183035205Y-127490256D01*
X183113226Y-127301898D01*
X183153000Y-127101939D01*
X183153000Y-126898061D01*
X183113226Y-126698102D01*
X183035205Y-126509744D01*
X182921937Y-126340226D01*
X182777774Y-126196063D01*
X182608256Y-126082795D01*
X182419898Y-126004774D01*
X182219939Y-125965000D01*
X182016061Y-125965000D01*
X181816102Y-126004774D01*
X181627744Y-126082795D01*
X181458226Y-126196063D01*
X181314063Y-126340226D01*
X181200795Y-126509744D01*
X181122774Y-126698102D01*
X181083000Y-126898061D01*
X173468961Y-126898061D01*
X173633774Y-126787937D01*
X173777937Y-126643774D01*
X173891205Y-126474256D01*
X173969226Y-126285898D01*
X174009000Y-126085939D01*
X174009000Y-125882061D01*
X173969226Y-125682102D01*
X173891205Y-125493744D01*
X173777937Y-125324226D01*
X173633774Y-125180063D01*
X173464256Y-125066795D01*
X173275898Y-124988774D01*
X173075939Y-124949000D01*
X172872061Y-124949000D01*
X172672102Y-124988774D01*
X172483744Y-125066795D01*
X172314226Y-125180063D01*
X172170063Y-125324226D01*
X172056795Y-125493744D01*
X171978774Y-125682102D01*
X171939000Y-125882061D01*
X169418000Y-125882061D01*
X169418000Y-122683701D01*
X169459937Y-122641764D01*
X169573205Y-122472246D01*
X169651226Y-122283888D01*
X169668480Y-122197146D01*
X169778503Y-122197146D01*
X169978462Y-122157372D01*
X170166820Y-122079351D01*
X170336338Y-121966083D01*
X170480501Y-121821920D01*
X170593769Y-121652402D01*
X170671790Y-121464044D01*
X170688916Y-121377945D01*
X170821186Y-121323157D01*
X170990704Y-121209889D01*
X171134867Y-121065726D01*
X171248135Y-120896208D01*
X171287132Y-120802061D01*
X174987000Y-120802061D01*
X174987000Y-121005939D01*
X175026774Y-121205898D01*
X175104795Y-121394256D01*
X175218063Y-121563774D01*
X175362226Y-121707937D01*
X175531744Y-121821205D01*
X175720102Y-121899226D01*
X175920061Y-121939000D01*
X176123939Y-121939000D01*
X176323898Y-121899226D01*
X176512256Y-121821205D01*
X176681774Y-121707937D01*
X176825937Y-121563774D01*
X176939205Y-121394256D01*
X177017226Y-121205898D01*
X177057000Y-121005939D01*
X177057000Y-120802061D01*
X177017226Y-120602102D01*
X176939205Y-120413744D01*
X176825937Y-120244226D01*
X176681774Y-120100063D01*
X176512256Y-119986795D01*
X176334248Y-119913061D01*
X180956000Y-119913061D01*
X180956000Y-120116939D01*
X180995774Y-120316898D01*
X181073795Y-120505256D01*
X181187063Y-120674774D01*
X181331226Y-120818937D01*
X181500744Y-120932205D01*
X181689102Y-121010226D01*
X181889061Y-121050000D01*
X182092939Y-121050000D01*
X182292898Y-121010226D01*
X182481256Y-120932205D01*
X182650774Y-120818937D01*
X182794937Y-120674774D01*
X182908205Y-120505256D01*
X182986226Y-120316898D01*
X183026000Y-120116939D01*
X183026000Y-119913061D01*
X182986226Y-119713102D01*
X182908205Y-119524744D01*
X182794937Y-119355226D01*
X182650774Y-119211063D01*
X182481256Y-119097795D01*
X182292898Y-119019774D01*
X182092939Y-118980000D01*
X181889061Y-118980000D01*
X181689102Y-119019774D01*
X181500744Y-119097795D01*
X181331226Y-119211063D01*
X181187063Y-119355226D01*
X181073795Y-119524744D01*
X180995774Y-119713102D01*
X180956000Y-119913061D01*
X176334248Y-119913061D01*
X176323898Y-119908774D01*
X176123939Y-119869000D01*
X175920061Y-119869000D01*
X175720102Y-119908774D01*
X175531744Y-119986795D01*
X175362226Y-120100063D01*
X175218063Y-120244226D01*
X175104795Y-120413744D01*
X175026774Y-120602102D01*
X174987000Y-120802061D01*
X171287132Y-120802061D01*
X171326156Y-120707850D01*
X171365930Y-120507891D01*
X171365930Y-120304013D01*
X171326156Y-120104054D01*
X171248135Y-119915696D01*
X171134867Y-119746178D01*
X170990704Y-119602015D01*
X170821186Y-119488747D01*
X170632828Y-119410726D01*
X170432869Y-119370952D01*
X170228991Y-119370952D01*
X170029032Y-119410726D01*
X169840674Y-119488747D01*
X169671156Y-119602015D01*
X169526993Y-119746178D01*
X169418000Y-119909298D01*
X169418000Y-119364040D01*
X169587605Y-119364040D01*
X169787564Y-119324266D01*
X169975922Y-119246245D01*
X170145440Y-119132977D01*
X170289603Y-118988814D01*
X170402871Y-118819296D01*
X170480892Y-118630938D01*
X170503742Y-118516061D01*
X171685000Y-118516061D01*
X171685000Y-118719939D01*
X171724774Y-118919898D01*
X171802795Y-119108256D01*
X171916063Y-119277774D01*
X172060226Y-119421937D01*
X172229744Y-119535205D01*
X172418102Y-119613226D01*
X172618061Y-119653000D01*
X172821939Y-119653000D01*
X173021898Y-119613226D01*
X173210256Y-119535205D01*
X173379774Y-119421937D01*
X173523937Y-119277774D01*
X173637205Y-119108256D01*
X173715226Y-118919898D01*
X173755000Y-118719939D01*
X173755000Y-118516061D01*
X173715226Y-118316102D01*
X173637205Y-118127744D01*
X173523937Y-117958226D01*
X173379774Y-117814063D01*
X173210256Y-117700795D01*
X173021898Y-117622774D01*
X172821939Y-117583000D01*
X172618061Y-117583000D01*
X172418102Y-117622774D01*
X172229744Y-117700795D01*
X172060226Y-117814063D01*
X171916063Y-117958226D01*
X171802795Y-118127744D01*
X171724774Y-118316102D01*
X171685000Y-118516061D01*
X170503742Y-118516061D01*
X170520666Y-118430979D01*
X170520666Y-118227101D01*
X170480892Y-118027142D01*
X170402871Y-117838784D01*
X170301331Y-117686819D01*
X170416256Y-117639215D01*
X170585774Y-117525947D01*
X170729849Y-117381872D01*
X200965000Y-117381872D01*
X200965000Y-117822128D01*
X201050890Y-118253925D01*
X201219369Y-118660669D01*
X201463962Y-119026729D01*
X201775271Y-119338038D01*
X202141331Y-119582631D01*
X202548075Y-119751110D01*
X202979872Y-119837000D01*
X203420128Y-119837000D01*
X203851925Y-119751110D01*
X204258669Y-119582631D01*
X204624729Y-119338038D01*
X204936038Y-119026729D01*
X205180631Y-118660669D01*
X205349110Y-118253925D01*
X205435000Y-117822128D01*
X205435000Y-117381872D01*
X205349110Y-116950075D01*
X205180631Y-116543331D01*
X204936038Y-116177271D01*
X204624729Y-115865962D01*
X204258669Y-115621369D01*
X203851925Y-115452890D01*
X203420128Y-115367000D01*
X202979872Y-115367000D01*
X202548075Y-115452890D01*
X202141331Y-115621369D01*
X201775271Y-115865962D01*
X201463962Y-116177271D01*
X201219369Y-116543331D01*
X201050890Y-116950075D01*
X200965000Y-117381872D01*
X170729849Y-117381872D01*
X170729937Y-117381784D01*
X170843205Y-117212266D01*
X170921226Y-117023908D01*
X170961000Y-116823949D01*
X170961000Y-116620071D01*
X170921226Y-116420112D01*
X170843205Y-116231754D01*
X170729937Y-116062236D01*
X170585774Y-115918073D01*
X170416256Y-115804805D01*
X170227898Y-115726784D01*
X170027939Y-115687010D01*
X169884390Y-115687010D01*
X169840791Y-115581754D01*
X169727523Y-115412236D01*
X169583360Y-115268073D01*
X169418000Y-115157583D01*
X169418000Y-113419043D01*
X174666883Y-113419043D01*
X174666883Y-113622921D01*
X174706657Y-113822880D01*
X174784678Y-114011238D01*
X174897946Y-114180756D01*
X175042109Y-114324919D01*
X175211627Y-114438187D01*
X175399985Y-114516208D01*
X175599944Y-114555982D01*
X175803822Y-114555982D01*
X176003781Y-114516208D01*
X176192139Y-114438187D01*
X176361657Y-114324919D01*
X176505820Y-114180756D01*
X176619088Y-114011238D01*
X176697109Y-113822880D01*
X176736883Y-113622921D01*
X176736883Y-113419043D01*
X176697109Y-113219084D01*
X176619088Y-113030726D01*
X176505820Y-112861208D01*
X176361657Y-112717045D01*
X176192139Y-112603777D01*
X176003781Y-112525756D01*
X175803822Y-112485982D01*
X175599944Y-112485982D01*
X175399985Y-112525756D01*
X175211627Y-112603777D01*
X175042109Y-112717045D01*
X174897946Y-112861208D01*
X174784678Y-113030726D01*
X174706657Y-113219084D01*
X174666883Y-113419043D01*
X169418000Y-113419043D01*
X169418000Y-112420061D01*
X181464000Y-112420061D01*
X181464000Y-112623939D01*
X181503774Y-112823898D01*
X181581795Y-113012256D01*
X181695063Y-113181774D01*
X181839226Y-113325937D01*
X182008744Y-113439205D01*
X182197102Y-113517226D01*
X182397061Y-113557000D01*
X182600939Y-113557000D01*
X182800898Y-113517226D01*
X182989256Y-113439205D01*
X183158774Y-113325937D01*
X183302937Y-113181774D01*
X183416205Y-113012256D01*
X183494226Y-112823898D01*
X183534000Y-112623939D01*
X183534000Y-112420061D01*
X183494226Y-112220102D01*
X183416205Y-112031744D01*
X183302937Y-111862226D01*
X183158774Y-111718063D01*
X182989256Y-111604795D01*
X182800898Y-111526774D01*
X182600939Y-111487000D01*
X182397061Y-111487000D01*
X182197102Y-111526774D01*
X182008744Y-111604795D01*
X181839226Y-111718063D01*
X181695063Y-111862226D01*
X181581795Y-112031744D01*
X181503774Y-112220102D01*
X181464000Y-112420061D01*
X169418000Y-112420061D01*
X169418000Y-108370000D01*
X182661928Y-108370000D01*
X182661928Y-110070000D01*
X182674188Y-110194482D01*
X182710498Y-110314180D01*
X182769463Y-110424494D01*
X182848815Y-110521185D01*
X182945506Y-110600537D01*
X183055820Y-110659502D01*
X183175518Y-110695812D01*
X183300000Y-110708072D01*
X185000000Y-110708072D01*
X185124482Y-110695812D01*
X185244180Y-110659502D01*
X185354494Y-110600537D01*
X185451185Y-110521185D01*
X185530537Y-110424494D01*
X185589502Y-110314180D01*
X185611513Y-110241620D01*
X185743368Y-110373475D01*
X185986589Y-110535990D01*
X186256842Y-110647932D01*
X186543740Y-110705000D01*
X186836260Y-110705000D01*
X187123158Y-110647932D01*
X187393411Y-110535990D01*
X187636632Y-110373475D01*
X187843475Y-110166632D01*
X187960000Y-109992240D01*
X188076525Y-110166632D01*
X188283368Y-110373475D01*
X188526589Y-110535990D01*
X188796842Y-110647932D01*
X189083740Y-110705000D01*
X189376260Y-110705000D01*
X189663158Y-110647932D01*
X189933411Y-110535990D01*
X190176632Y-110373475D01*
X190383475Y-110166632D01*
X190500000Y-109992240D01*
X190616525Y-110166632D01*
X190823368Y-110373475D01*
X191066589Y-110535990D01*
X191336842Y-110647932D01*
X191623740Y-110705000D01*
X191916260Y-110705000D01*
X192203158Y-110647932D01*
X192473411Y-110535990D01*
X192716632Y-110373475D01*
X192923475Y-110166632D01*
X193040000Y-109992240D01*
X193156525Y-110166632D01*
X193363368Y-110373475D01*
X193606589Y-110535990D01*
X193876842Y-110647932D01*
X194163740Y-110705000D01*
X194456260Y-110705000D01*
X194743158Y-110647932D01*
X195013411Y-110535990D01*
X195256632Y-110373475D01*
X195463475Y-110166632D01*
X195580000Y-109992240D01*
X195696525Y-110166632D01*
X195903368Y-110373475D01*
X196146589Y-110535990D01*
X196416842Y-110647932D01*
X196703740Y-110705000D01*
X196996260Y-110705000D01*
X197283158Y-110647932D01*
X197553411Y-110535990D01*
X197796632Y-110373475D01*
X198003475Y-110166632D01*
X198120000Y-109992240D01*
X198236525Y-110166632D01*
X198443368Y-110373475D01*
X198686589Y-110535990D01*
X198956842Y-110647932D01*
X199243740Y-110705000D01*
X199536260Y-110705000D01*
X199823158Y-110647932D01*
X200093411Y-110535990D01*
X200336632Y-110373475D01*
X200543475Y-110166632D01*
X200660000Y-109992240D01*
X200776525Y-110166632D01*
X200983368Y-110373475D01*
X201226589Y-110535990D01*
X201496842Y-110647932D01*
X201783740Y-110705000D01*
X202076260Y-110705000D01*
X202363158Y-110647932D01*
X202633411Y-110535990D01*
X202876632Y-110373475D01*
X203083475Y-110166632D01*
X203200000Y-109992240D01*
X203316525Y-110166632D01*
X203523368Y-110373475D01*
X203766589Y-110535990D01*
X204036842Y-110647932D01*
X204323740Y-110705000D01*
X204616260Y-110705000D01*
X204903158Y-110647932D01*
X205173411Y-110535990D01*
X205416632Y-110373475D01*
X205623475Y-110166632D01*
X205785990Y-109923411D01*
X205897932Y-109653158D01*
X205955000Y-109366260D01*
X205955000Y-109073740D01*
X205897932Y-108786842D01*
X205785990Y-108516589D01*
X205623475Y-108273368D01*
X205416632Y-108066525D01*
X205242240Y-107950000D01*
X205416632Y-107833475D01*
X205623475Y-107626632D01*
X205785990Y-107383411D01*
X205897932Y-107113158D01*
X205955000Y-106826260D01*
X205955000Y-106533740D01*
X205897932Y-106246842D01*
X205785990Y-105976589D01*
X205623475Y-105733368D01*
X205416632Y-105526525D01*
X205173411Y-105364010D01*
X204903158Y-105252068D01*
X204616260Y-105195000D01*
X204323740Y-105195000D01*
X204036842Y-105252068D01*
X203766589Y-105364010D01*
X203523368Y-105526525D01*
X203316525Y-105733368D01*
X203200000Y-105907760D01*
X203083475Y-105733368D01*
X202876632Y-105526525D01*
X202633411Y-105364010D01*
X202363158Y-105252068D01*
X202076260Y-105195000D01*
X201783740Y-105195000D01*
X201496842Y-105252068D01*
X201226589Y-105364010D01*
X200983368Y-105526525D01*
X200776525Y-105733368D01*
X200660000Y-105907760D01*
X200543475Y-105733368D01*
X200336632Y-105526525D01*
X200093411Y-105364010D01*
X199823158Y-105252068D01*
X199536260Y-105195000D01*
X199243740Y-105195000D01*
X198956842Y-105252068D01*
X198686589Y-105364010D01*
X198443368Y-105526525D01*
X198236525Y-105733368D01*
X198120000Y-105907760D01*
X198003475Y-105733368D01*
X197796632Y-105526525D01*
X197553411Y-105364010D01*
X197283158Y-105252068D01*
X196996260Y-105195000D01*
X196703740Y-105195000D01*
X196416842Y-105252068D01*
X196146589Y-105364010D01*
X195903368Y-105526525D01*
X195696525Y-105733368D01*
X195580000Y-105907760D01*
X195463475Y-105733368D01*
X195256632Y-105526525D01*
X195013411Y-105364010D01*
X194743158Y-105252068D01*
X194456260Y-105195000D01*
X194163740Y-105195000D01*
X193876842Y-105252068D01*
X193606589Y-105364010D01*
X193363368Y-105526525D01*
X193156525Y-105733368D01*
X193040000Y-105907760D01*
X192923475Y-105733368D01*
X192716632Y-105526525D01*
X192473411Y-105364010D01*
X192203158Y-105252068D01*
X191916260Y-105195000D01*
X191623740Y-105195000D01*
X191336842Y-105252068D01*
X191066589Y-105364010D01*
X190823368Y-105526525D01*
X190616525Y-105733368D01*
X190500000Y-105907760D01*
X190383475Y-105733368D01*
X190176632Y-105526525D01*
X189933411Y-105364010D01*
X189663158Y-105252068D01*
X189376260Y-105195000D01*
X189083740Y-105195000D01*
X188796842Y-105252068D01*
X188526589Y-105364010D01*
X188283368Y-105526525D01*
X188076525Y-105733368D01*
X187960000Y-105907760D01*
X187843475Y-105733368D01*
X187636632Y-105526525D01*
X187393411Y-105364010D01*
X187123158Y-105252068D01*
X186836260Y-105195000D01*
X186543740Y-105195000D01*
X186256842Y-105252068D01*
X185986589Y-105364010D01*
X185743368Y-105526525D01*
X185536525Y-105733368D01*
X185420000Y-105907760D01*
X185303475Y-105733368D01*
X185096632Y-105526525D01*
X184853411Y-105364010D01*
X184583158Y-105252068D01*
X184296260Y-105195000D01*
X184003740Y-105195000D01*
X183716842Y-105252068D01*
X183446589Y-105364010D01*
X183203368Y-105526525D01*
X182996525Y-105733368D01*
X182834010Y-105976589D01*
X182722068Y-106246842D01*
X182665000Y-106533740D01*
X182665000Y-106826260D01*
X182722068Y-107113158D01*
X182834010Y-107383411D01*
X182996525Y-107626632D01*
X183128380Y-107758487D01*
X183055820Y-107780498D01*
X182945506Y-107839463D01*
X182848815Y-107918815D01*
X182769463Y-108015506D01*
X182710498Y-108125820D01*
X182674188Y-108245518D01*
X182661928Y-108370000D01*
X169418000Y-108370000D01*
X169418000Y-107521224D01*
X170026381Y-107521224D01*
X170158317Y-107816312D01*
X170499045Y-107987159D01*
X170866557Y-108088250D01*
X171246729Y-108115701D01*
X171624951Y-108068457D01*
X171986690Y-107948333D01*
X172233683Y-107816312D01*
X172365619Y-107521224D01*
X171196000Y-106351605D01*
X170026381Y-107521224D01*
X169418000Y-107521224D01*
X169418000Y-106957670D01*
X169419667Y-106962690D01*
X169551688Y-107209683D01*
X169846776Y-107341619D01*
X171016395Y-106172000D01*
X171375605Y-106172000D01*
X172545224Y-107341619D01*
X172840312Y-107209683D01*
X173011159Y-106868955D01*
X173112250Y-106501443D01*
X173139701Y-106121271D01*
X173092457Y-105743049D01*
X172972333Y-105381310D01*
X172840312Y-105134317D01*
X172545224Y-105002381D01*
X171375605Y-106172000D01*
X171016395Y-106172000D01*
X169846776Y-105002381D01*
X169551688Y-105134317D01*
X169418000Y-105400937D01*
X169418000Y-104822776D01*
X170026381Y-104822776D01*
X171196000Y-105992395D01*
X172316395Y-104872000D01*
X174337928Y-104872000D01*
X174337928Y-107472000D01*
X174350188Y-107596482D01*
X174386498Y-107716180D01*
X174445463Y-107826494D01*
X174524815Y-107923185D01*
X174621506Y-108002537D01*
X174731820Y-108061502D01*
X174851518Y-108097812D01*
X174976000Y-108110072D01*
X177576000Y-108110072D01*
X177700482Y-108097812D01*
X177820180Y-108061502D01*
X177930494Y-108002537D01*
X178027185Y-107923185D01*
X178106537Y-107826494D01*
X178165502Y-107716180D01*
X178201812Y-107596482D01*
X178214072Y-107472000D01*
X178214072Y-104872000D01*
X178201812Y-104747518D01*
X178165502Y-104627820D01*
X178106537Y-104517506D01*
X178027185Y-104420815D01*
X177930494Y-104341463D01*
X177820180Y-104282498D01*
X177700482Y-104246188D01*
X177576000Y-104233928D01*
X174976000Y-104233928D01*
X174851518Y-104246188D01*
X174731820Y-104282498D01*
X174621506Y-104341463D01*
X174524815Y-104420815D01*
X174445463Y-104517506D01*
X174386498Y-104627820D01*
X174350188Y-104747518D01*
X174337928Y-104872000D01*
X172316395Y-104872000D01*
X172365619Y-104822776D01*
X172233683Y-104527688D01*
X171892955Y-104356841D01*
X171525443Y-104255750D01*
X171145271Y-104228299D01*
X170767049Y-104275543D01*
X170405310Y-104395667D01*
X170158317Y-104527688D01*
X170026381Y-104822776D01*
X169418000Y-104822776D01*
X169418000Y-102260000D01*
X208755723Y-102260000D01*
X208807197Y-102265047D01*
G37*
X208807197Y-102265047D02*
X208825662Y-102270622D01*
X208842694Y-102279678D01*
X208857643Y-102291870D01*
X208869938Y-102306732D01*
X208879111Y-102323696D01*
X208884817Y-102342129D01*
X208890000Y-102391446D01*
X208890001Y-135095712D01*
X208884953Y-135147195D01*
X208879377Y-135165663D01*
X208870322Y-135182693D01*
X208858129Y-135197643D01*
X208843266Y-135209939D01*
X208826303Y-135219111D01*
X208807871Y-135224817D01*
X208758554Y-135230000D01*
X169418000Y-135230000D01*
X169418000Y-133883061D01*
X170542000Y-133883061D01*
X170542000Y-134086939D01*
X170581774Y-134286898D01*
X170659795Y-134475256D01*
X170773063Y-134644774D01*
X170917226Y-134788937D01*
X171086744Y-134902205D01*
X171275102Y-134980226D01*
X171475061Y-135020000D01*
X171678939Y-135020000D01*
X171878898Y-134980226D01*
X172067256Y-134902205D01*
X172236774Y-134788937D01*
X172380937Y-134644774D01*
X172494205Y-134475256D01*
X172572226Y-134286898D01*
X172612000Y-134086939D01*
X172612000Y-133883061D01*
X172572226Y-133683102D01*
X172494205Y-133494744D01*
X172380937Y-133325226D01*
X172236774Y-133181063D01*
X172067256Y-133067795D01*
X171878898Y-132989774D01*
X171678939Y-132950000D01*
X171475061Y-132950000D01*
X171275102Y-132989774D01*
X171086744Y-133067795D01*
X170917226Y-133181063D01*
X170773063Y-133325226D01*
X170659795Y-133494744D01*
X170581774Y-133683102D01*
X170542000Y-133883061D01*
X169418000Y-133883061D01*
X169418000Y-132615221D01*
X169456726Y-132653947D01*
X169626244Y-132767215D01*
X169814602Y-132845236D01*
X170014561Y-132885010D01*
X170218439Y-132885010D01*
X170418398Y-132845236D01*
X170606756Y-132767215D01*
X170776274Y-132653947D01*
X170920437Y-132509784D01*
X171033705Y-132340266D01*
X171051191Y-132298051D01*
X177654000Y-132298051D01*
X177654000Y-132501929D01*
X177693774Y-132701888D01*
X177771795Y-132890246D01*
X177885063Y-133059764D01*
X178029226Y-133203927D01*
X178198744Y-133317195D01*
X178387102Y-133395216D01*
X178587061Y-133434990D01*
X178691890Y-133434990D01*
X178709774Y-133524898D01*
X178787795Y-133713256D01*
X178901063Y-133882774D01*
X179045226Y-134026937D01*
X179214744Y-134140205D01*
X179403102Y-134218226D01*
X179603061Y-134258000D01*
X179806939Y-134258000D01*
X180006898Y-134218226D01*
X180195256Y-134140205D01*
X180364774Y-134026937D01*
X180508937Y-133882774D01*
X180622205Y-133713256D01*
X180700226Y-133524898D01*
X180740000Y-133324939D01*
X180740000Y-133121061D01*
X180700226Y-132921102D01*
X180622205Y-132732744D01*
X180508937Y-132563226D01*
X180364774Y-132419063D01*
X180195256Y-132305795D01*
X180006898Y-132227774D01*
X179806939Y-132188000D01*
X179702110Y-132188000D01*
X179684226Y-132098092D01*
X179606205Y-131909734D01*
X179492937Y-131740216D01*
X179348774Y-131596053D01*
X179179256Y-131482785D01*
X178990898Y-131404764D01*
X178790939Y-131364990D01*
X178587061Y-131364990D01*
X178387102Y-131404764D01*
X178198744Y-131482785D01*
X178029226Y-131596053D01*
X177885063Y-131740216D01*
X177771795Y-131909734D01*
X177693774Y-132098092D01*
X177654000Y-132298051D01*
X171051191Y-132298051D01*
X171111726Y-132151908D01*
X171151500Y-131951949D01*
X171151500Y-131748071D01*
X171111726Y-131548112D01*
X171033705Y-131359754D01*
X170920437Y-131190236D01*
X170776274Y-131046073D01*
X170606756Y-130932805D01*
X170418398Y-130854784D01*
X170218439Y-130815010D01*
X170014561Y-130815010D01*
X169814602Y-130854784D01*
X169626244Y-130932805D01*
X169456726Y-131046073D01*
X169418000Y-131084799D01*
X169418000Y-129266740D01*
X184443000Y-129266740D01*
X184443000Y-129559260D01*
X184500068Y-129846158D01*
X184612010Y-130116411D01*
X184774525Y-130359632D01*
X184981368Y-130566475D01*
X185155760Y-130683000D01*
X184981368Y-130799525D01*
X184774525Y-131006368D01*
X184612010Y-131249589D01*
X184500068Y-131519842D01*
X184443000Y-131806740D01*
X184443000Y-132099260D01*
X184500068Y-132386158D01*
X184612010Y-132656411D01*
X184774525Y-132899632D01*
X184981368Y-133106475D01*
X185224589Y-133268990D01*
X185494842Y-133380932D01*
X185781740Y-133438000D01*
X186074260Y-133438000D01*
X186361158Y-133380932D01*
X186631411Y-133268990D01*
X186874632Y-133106475D01*
X187081475Y-132899632D01*
X187198000Y-132725240D01*
X187314525Y-132899632D01*
X187521368Y-133106475D01*
X187764589Y-133268990D01*
X188034842Y-133380932D01*
X188321740Y-133438000D01*
X188614260Y-133438000D01*
X188901158Y-133380932D01*
X189171411Y-133268990D01*
X189414632Y-133106475D01*
X189621475Y-132899632D01*
X189738000Y-132725240D01*
X189854525Y-132899632D01*
X190061368Y-133106475D01*
X190304589Y-133268990D01*
X190574842Y-133380932D01*
X190861740Y-133438000D01*
X191154260Y-133438000D01*
X191441158Y-133380932D01*
X191711411Y-133268990D01*
X191954632Y-133106475D01*
X192161475Y-132899632D01*
X192278000Y-132725240D01*
X192394525Y-132899632D01*
X192601368Y-133106475D01*
X192844589Y-133268990D01*
X193114842Y-133380932D01*
X193401740Y-133438000D01*
X193694260Y-133438000D01*
X193981158Y-133380932D01*
X194251411Y-133268990D01*
X194494632Y-133106475D01*
X194701475Y-132899632D01*
X194818000Y-132725240D01*
X194934525Y-132899632D01*
X195141368Y-133106475D01*
X195384589Y-133268990D01*
X195654842Y-133380932D01*
X195941740Y-133438000D01*
X196234260Y-133438000D01*
X196521158Y-133380932D01*
X196791411Y-133268990D01*
X197034632Y-133106475D01*
X197241475Y-132899632D01*
X197358000Y-132725240D01*
X197474525Y-132899632D01*
X197681368Y-133106475D01*
X197924589Y-133268990D01*
X198194842Y-133380932D01*
X198481740Y-133438000D01*
X198774260Y-133438000D01*
X199061158Y-133380932D01*
X199331411Y-133268990D01*
X199574632Y-133106475D01*
X199781475Y-132899632D01*
X199898000Y-132725240D01*
X200014525Y-132899632D01*
X200221368Y-133106475D01*
X200464589Y-133268990D01*
X200734842Y-133380932D01*
X201021740Y-133438000D01*
X201314260Y-133438000D01*
X201601158Y-133380932D01*
X201871411Y-133268990D01*
X202114632Y-133106475D01*
X202321475Y-132899632D01*
X202438000Y-132725240D01*
X202554525Y-132899632D01*
X202761368Y-133106475D01*
X203004589Y-133268990D01*
X203274842Y-133380932D01*
X203561740Y-133438000D01*
X203854260Y-133438000D01*
X204141158Y-133380932D01*
X204411411Y-133268990D01*
X204654632Y-133106475D01*
X204861475Y-132899632D01*
X205023990Y-132656411D01*
X205135932Y-132386158D01*
X205193000Y-132099260D01*
X205193000Y-131806740D01*
X205135932Y-131519842D01*
X205023990Y-131249589D01*
X204861475Y-131006368D01*
X204674392Y-130819285D01*
X204801386Y-130751405D01*
X204935962Y-130640962D01*
X205046405Y-130506386D01*
X205128472Y-130352850D01*
X205179008Y-130186254D01*
X205196072Y-130013000D01*
X205196072Y-128813000D01*
X205179008Y-128639746D01*
X205128472Y-128473150D01*
X205046405Y-128319614D01*
X204935962Y-128185038D01*
X204801386Y-128074595D01*
X204647850Y-127992528D01*
X204481254Y-127941992D01*
X204308000Y-127924928D01*
X203108000Y-127924928D01*
X202934746Y-127941992D01*
X202768150Y-127992528D01*
X202614614Y-128074595D01*
X202480038Y-128185038D01*
X202369595Y-128319614D01*
X202301715Y-128446608D01*
X202114632Y-128259525D01*
X201871411Y-128097010D01*
X201601158Y-127985068D01*
X201314260Y-127928000D01*
X201021740Y-127928000D01*
X200734842Y-127985068D01*
X200464589Y-128097010D01*
X200221368Y-128259525D01*
X200014525Y-128466368D01*
X199898000Y-128640760D01*
X199781475Y-128466368D01*
X199574632Y-128259525D01*
X199331411Y-128097010D01*
X199061158Y-127985068D01*
X198774260Y-127928000D01*
X198481740Y-127928000D01*
X198194842Y-127985068D01*
X197924589Y-128097010D01*
X197681368Y-128259525D01*
X197474525Y-128466368D01*
X197358000Y-128640760D01*
X197241475Y-128466368D01*
X197034632Y-128259525D01*
X196791411Y-128097010D01*
X196521158Y-127985068D01*
X196234260Y-127928000D01*
X195941740Y-127928000D01*
X195654842Y-127985068D01*
X195384589Y-128097010D01*
X195141368Y-128259525D01*
X194934525Y-128466368D01*
X194818000Y-128640760D01*
X194701475Y-128466368D01*
X194494632Y-128259525D01*
X194251411Y-128097010D01*
X193981158Y-127985068D01*
X193694260Y-127928000D01*
X193401740Y-127928000D01*
X193114842Y-127985068D01*
X192844589Y-128097010D01*
X192601368Y-128259525D01*
X192394525Y-128466368D01*
X192278000Y-128640760D01*
X192161475Y-128466368D01*
X191954632Y-128259525D01*
X191711411Y-128097010D01*
X191441158Y-127985068D01*
X191154260Y-127928000D01*
X190861740Y-127928000D01*
X190574842Y-127985068D01*
X190304589Y-128097010D01*
X190061368Y-128259525D01*
X189854525Y-128466368D01*
X189738000Y-128640760D01*
X189621475Y-128466368D01*
X189414632Y-128259525D01*
X189171411Y-128097010D01*
X188901158Y-127985068D01*
X188614260Y-127928000D01*
X188321740Y-127928000D01*
X188034842Y-127985068D01*
X187764589Y-128097010D01*
X187521368Y-128259525D01*
X187314525Y-128466368D01*
X187198000Y-128640760D01*
X187081475Y-128466368D01*
X186874632Y-128259525D01*
X186631411Y-128097010D01*
X186361158Y-127985068D01*
X186074260Y-127928000D01*
X185781740Y-127928000D01*
X185494842Y-127985068D01*
X185224589Y-128097010D01*
X184981368Y-128259525D01*
X184774525Y-128466368D01*
X184612010Y-128709589D01*
X184500068Y-128979842D01*
X184443000Y-129266740D01*
X169418000Y-129266740D01*
X169418000Y-127914061D01*
X174987000Y-127914061D01*
X174987000Y-128117939D01*
X175026774Y-128317898D01*
X175104795Y-128506256D01*
X175218063Y-128675774D01*
X175362226Y-128819937D01*
X175531744Y-128933205D01*
X175720102Y-129011226D01*
X175920061Y-129051000D01*
X176123939Y-129051000D01*
X176323898Y-129011226D01*
X176512256Y-128933205D01*
X176681774Y-128819937D01*
X176825937Y-128675774D01*
X176939205Y-128506256D01*
X177017226Y-128317898D01*
X177057000Y-128117939D01*
X177057000Y-127914061D01*
X177017226Y-127714102D01*
X176939205Y-127525744D01*
X176825937Y-127356226D01*
X176681774Y-127212063D01*
X176512256Y-127098795D01*
X176323898Y-127020774D01*
X176123939Y-126981000D01*
X175920061Y-126981000D01*
X175720102Y-127020774D01*
X175531744Y-127098795D01*
X175362226Y-127212063D01*
X175218063Y-127356226D01*
X175104795Y-127525744D01*
X175026774Y-127714102D01*
X174987000Y-127914061D01*
X169418000Y-127914061D01*
X169418000Y-125882061D01*
X171939000Y-125882061D01*
X171939000Y-126085939D01*
X171978774Y-126285898D01*
X172056795Y-126474256D01*
X172170063Y-126643774D01*
X172314226Y-126787937D01*
X172483744Y-126901205D01*
X172672102Y-126979226D01*
X172872061Y-127019000D01*
X173075939Y-127019000D01*
X173275898Y-126979226D01*
X173464256Y-126901205D01*
X173468961Y-126898061D01*
X181083000Y-126898061D01*
X181083000Y-127101939D01*
X181122774Y-127301898D01*
X181200795Y-127490256D01*
X181314063Y-127659774D01*
X181458226Y-127803937D01*
X181627744Y-127917205D01*
X181816102Y-127995226D01*
X182016061Y-128035000D01*
X182219939Y-128035000D01*
X182419898Y-127995226D01*
X182608256Y-127917205D01*
X182777774Y-127803937D01*
X182921937Y-127659774D01*
X183035205Y-127490256D01*
X183113226Y-127301898D01*
X183153000Y-127101939D01*
X183153000Y-126898061D01*
X183113226Y-126698102D01*
X183035205Y-126509744D01*
X182921937Y-126340226D01*
X182777774Y-126196063D01*
X182608256Y-126082795D01*
X182419898Y-126004774D01*
X182219939Y-125965000D01*
X182016061Y-125965000D01*
X181816102Y-126004774D01*
X181627744Y-126082795D01*
X181458226Y-126196063D01*
X181314063Y-126340226D01*
X181200795Y-126509744D01*
X181122774Y-126698102D01*
X181083000Y-126898061D01*
X173468961Y-126898061D01*
X173633774Y-126787937D01*
X173777937Y-126643774D01*
X173891205Y-126474256D01*
X173969226Y-126285898D01*
X174009000Y-126085939D01*
X174009000Y-125882061D01*
X173969226Y-125682102D01*
X173891205Y-125493744D01*
X173777937Y-125324226D01*
X173633774Y-125180063D01*
X173464256Y-125066795D01*
X173275898Y-124988774D01*
X173075939Y-124949000D01*
X172872061Y-124949000D01*
X172672102Y-124988774D01*
X172483744Y-125066795D01*
X172314226Y-125180063D01*
X172170063Y-125324226D01*
X172056795Y-125493744D01*
X171978774Y-125682102D01*
X171939000Y-125882061D01*
X169418000Y-125882061D01*
X169418000Y-122683701D01*
X169459937Y-122641764D01*
X169573205Y-122472246D01*
X169651226Y-122283888D01*
X169668480Y-122197146D01*
X169778503Y-122197146D01*
X169978462Y-122157372D01*
X170166820Y-122079351D01*
X170336338Y-121966083D01*
X170480501Y-121821920D01*
X170593769Y-121652402D01*
X170671790Y-121464044D01*
X170688916Y-121377945D01*
X170821186Y-121323157D01*
X170990704Y-121209889D01*
X171134867Y-121065726D01*
X171248135Y-120896208D01*
X171287132Y-120802061D01*
X174987000Y-120802061D01*
X174987000Y-121005939D01*
X175026774Y-121205898D01*
X175104795Y-121394256D01*
X175218063Y-121563774D01*
X175362226Y-121707937D01*
X175531744Y-121821205D01*
X175720102Y-121899226D01*
X175920061Y-121939000D01*
X176123939Y-121939000D01*
X176323898Y-121899226D01*
X176512256Y-121821205D01*
X176681774Y-121707937D01*
X176825937Y-121563774D01*
X176939205Y-121394256D01*
X177017226Y-121205898D01*
X177057000Y-121005939D01*
X177057000Y-120802061D01*
X177017226Y-120602102D01*
X176939205Y-120413744D01*
X176825937Y-120244226D01*
X176681774Y-120100063D01*
X176512256Y-119986795D01*
X176334248Y-119913061D01*
X180956000Y-119913061D01*
X180956000Y-120116939D01*
X180995774Y-120316898D01*
X181073795Y-120505256D01*
X181187063Y-120674774D01*
X181331226Y-120818937D01*
X181500744Y-120932205D01*
X181689102Y-121010226D01*
X181889061Y-121050000D01*
X182092939Y-121050000D01*
X182292898Y-121010226D01*
X182481256Y-120932205D01*
X182650774Y-120818937D01*
X182794937Y-120674774D01*
X182908205Y-120505256D01*
X182986226Y-120316898D01*
X183026000Y-120116939D01*
X183026000Y-119913061D01*
X182986226Y-119713102D01*
X182908205Y-119524744D01*
X182794937Y-119355226D01*
X182650774Y-119211063D01*
X182481256Y-119097795D01*
X182292898Y-119019774D01*
X182092939Y-118980000D01*
X181889061Y-118980000D01*
X181689102Y-119019774D01*
X181500744Y-119097795D01*
X181331226Y-119211063D01*
X181187063Y-119355226D01*
X181073795Y-119524744D01*
X180995774Y-119713102D01*
X180956000Y-119913061D01*
X176334248Y-119913061D01*
X176323898Y-119908774D01*
X176123939Y-119869000D01*
X175920061Y-119869000D01*
X175720102Y-119908774D01*
X175531744Y-119986795D01*
X175362226Y-120100063D01*
X175218063Y-120244226D01*
X175104795Y-120413744D01*
X175026774Y-120602102D01*
X174987000Y-120802061D01*
X171287132Y-120802061D01*
X171326156Y-120707850D01*
X171365930Y-120507891D01*
X171365930Y-120304013D01*
X171326156Y-120104054D01*
X171248135Y-119915696D01*
X171134867Y-119746178D01*
X170990704Y-119602015D01*
X170821186Y-119488747D01*
X170632828Y-119410726D01*
X170432869Y-119370952D01*
X170228991Y-119370952D01*
X170029032Y-119410726D01*
X169840674Y-119488747D01*
X169671156Y-119602015D01*
X169526993Y-119746178D01*
X169418000Y-119909298D01*
X169418000Y-119364040D01*
X169587605Y-119364040D01*
X169787564Y-119324266D01*
X169975922Y-119246245D01*
X170145440Y-119132977D01*
X170289603Y-118988814D01*
X170402871Y-118819296D01*
X170480892Y-118630938D01*
X170503742Y-118516061D01*
X171685000Y-118516061D01*
X171685000Y-118719939D01*
X171724774Y-118919898D01*
X171802795Y-119108256D01*
X171916063Y-119277774D01*
X172060226Y-119421937D01*
X172229744Y-119535205D01*
X172418102Y-119613226D01*
X172618061Y-119653000D01*
X172821939Y-119653000D01*
X173021898Y-119613226D01*
X173210256Y-119535205D01*
X173379774Y-119421937D01*
X173523937Y-119277774D01*
X173637205Y-119108256D01*
X173715226Y-118919898D01*
X173755000Y-118719939D01*
X173755000Y-118516061D01*
X173715226Y-118316102D01*
X173637205Y-118127744D01*
X173523937Y-117958226D01*
X173379774Y-117814063D01*
X173210256Y-117700795D01*
X173021898Y-117622774D01*
X172821939Y-117583000D01*
X172618061Y-117583000D01*
X172418102Y-117622774D01*
X172229744Y-117700795D01*
X172060226Y-117814063D01*
X171916063Y-117958226D01*
X171802795Y-118127744D01*
X171724774Y-118316102D01*
X171685000Y-118516061D01*
X170503742Y-118516061D01*
X170520666Y-118430979D01*
X170520666Y-118227101D01*
X170480892Y-118027142D01*
X170402871Y-117838784D01*
X170301331Y-117686819D01*
X170416256Y-117639215D01*
X170585774Y-117525947D01*
X170729849Y-117381872D01*
X200965000Y-117381872D01*
X200965000Y-117822128D01*
X201050890Y-118253925D01*
X201219369Y-118660669D01*
X201463962Y-119026729D01*
X201775271Y-119338038D01*
X202141331Y-119582631D01*
X202548075Y-119751110D01*
X202979872Y-119837000D01*
X203420128Y-119837000D01*
X203851925Y-119751110D01*
X204258669Y-119582631D01*
X204624729Y-119338038D01*
X204936038Y-119026729D01*
X205180631Y-118660669D01*
X205349110Y-118253925D01*
X205435000Y-117822128D01*
X205435000Y-117381872D01*
X205349110Y-116950075D01*
X205180631Y-116543331D01*
X204936038Y-116177271D01*
X204624729Y-115865962D01*
X204258669Y-115621369D01*
X203851925Y-115452890D01*
X203420128Y-115367000D01*
X202979872Y-115367000D01*
X202548075Y-115452890D01*
X202141331Y-115621369D01*
X201775271Y-115865962D01*
X201463962Y-116177271D01*
X201219369Y-116543331D01*
X201050890Y-116950075D01*
X200965000Y-117381872D01*
X170729849Y-117381872D01*
X170729937Y-117381784D01*
X170843205Y-117212266D01*
X170921226Y-117023908D01*
X170961000Y-116823949D01*
X170961000Y-116620071D01*
X170921226Y-116420112D01*
X170843205Y-116231754D01*
X170729937Y-116062236D01*
X170585774Y-115918073D01*
X170416256Y-115804805D01*
X170227898Y-115726784D01*
X170027939Y-115687010D01*
X169884390Y-115687010D01*
X169840791Y-115581754D01*
X169727523Y-115412236D01*
X169583360Y-115268073D01*
X169418000Y-115157583D01*
X169418000Y-113419043D01*
X174666883Y-113419043D01*
X174666883Y-113622921D01*
X174706657Y-113822880D01*
X174784678Y-114011238D01*
X174897946Y-114180756D01*
X175042109Y-114324919D01*
X175211627Y-114438187D01*
X175399985Y-114516208D01*
X175599944Y-114555982D01*
X175803822Y-114555982D01*
X176003781Y-114516208D01*
X176192139Y-114438187D01*
X176361657Y-114324919D01*
X176505820Y-114180756D01*
X176619088Y-114011238D01*
X176697109Y-113822880D01*
X176736883Y-113622921D01*
X176736883Y-113419043D01*
X176697109Y-113219084D01*
X176619088Y-113030726D01*
X176505820Y-112861208D01*
X176361657Y-112717045D01*
X176192139Y-112603777D01*
X176003781Y-112525756D01*
X175803822Y-112485982D01*
X175599944Y-112485982D01*
X175399985Y-112525756D01*
X175211627Y-112603777D01*
X175042109Y-112717045D01*
X174897946Y-112861208D01*
X174784678Y-113030726D01*
X174706657Y-113219084D01*
X174666883Y-113419043D01*
X169418000Y-113419043D01*
X169418000Y-112420061D01*
X181464000Y-112420061D01*
X181464000Y-112623939D01*
X181503774Y-112823898D01*
X181581795Y-113012256D01*
X181695063Y-113181774D01*
X181839226Y-113325937D01*
X182008744Y-113439205D01*
X182197102Y-113517226D01*
X182397061Y-113557000D01*
X182600939Y-113557000D01*
X182800898Y-113517226D01*
X182989256Y-113439205D01*
X183158774Y-113325937D01*
X183302937Y-113181774D01*
X183416205Y-113012256D01*
X183494226Y-112823898D01*
X183534000Y-112623939D01*
X183534000Y-112420061D01*
X183494226Y-112220102D01*
X183416205Y-112031744D01*
X183302937Y-111862226D01*
X183158774Y-111718063D01*
X182989256Y-111604795D01*
X182800898Y-111526774D01*
X182600939Y-111487000D01*
X182397061Y-111487000D01*
X182197102Y-111526774D01*
X182008744Y-111604795D01*
X181839226Y-111718063D01*
X181695063Y-111862226D01*
X181581795Y-112031744D01*
X181503774Y-112220102D01*
X181464000Y-112420061D01*
X169418000Y-112420061D01*
X169418000Y-108370000D01*
X182661928Y-108370000D01*
X182661928Y-110070000D01*
X182674188Y-110194482D01*
X182710498Y-110314180D01*
X182769463Y-110424494D01*
X182848815Y-110521185D01*
X182945506Y-110600537D01*
X183055820Y-110659502D01*
X183175518Y-110695812D01*
X183300000Y-110708072D01*
X185000000Y-110708072D01*
X185124482Y-110695812D01*
X185244180Y-110659502D01*
X185354494Y-110600537D01*
X185451185Y-110521185D01*
X185530537Y-110424494D01*
X185589502Y-110314180D01*
X185611513Y-110241620D01*
X185743368Y-110373475D01*
X185986589Y-110535990D01*
X186256842Y-110647932D01*
X186543740Y-110705000D01*
X186836260Y-110705000D01*
X187123158Y-110647932D01*
X187393411Y-110535990D01*
X187636632Y-110373475D01*
X187843475Y-110166632D01*
X187960000Y-109992240D01*
X188076525Y-110166632D01*
X188283368Y-110373475D01*
X188526589Y-110535990D01*
X188796842Y-110647932D01*
X189083740Y-110705000D01*
X189376260Y-110705000D01*
X189663158Y-110647932D01*
X189933411Y-110535990D01*
X190176632Y-110373475D01*
X190383475Y-110166632D01*
X190500000Y-109992240D01*
X190616525Y-110166632D01*
X190823368Y-110373475D01*
X191066589Y-110535990D01*
X191336842Y-110647932D01*
X191623740Y-110705000D01*
X191916260Y-110705000D01*
X192203158Y-110647932D01*
X192473411Y-110535990D01*
X192716632Y-110373475D01*
X192923475Y-110166632D01*
X193040000Y-109992240D01*
X193156525Y-110166632D01*
X193363368Y-110373475D01*
X193606589Y-110535990D01*
X193876842Y-110647932D01*
X194163740Y-110705000D01*
X194456260Y-110705000D01*
X194743158Y-110647932D01*
X195013411Y-110535990D01*
X195256632Y-110373475D01*
X195463475Y-110166632D01*
X195580000Y-109992240D01*
X195696525Y-110166632D01*
X195903368Y-110373475D01*
X196146589Y-110535990D01*
X196416842Y-110647932D01*
X196703740Y-110705000D01*
X196996260Y-110705000D01*
X197283158Y-110647932D01*
X197553411Y-110535990D01*
X197796632Y-110373475D01*
X198003475Y-110166632D01*
X198120000Y-109992240D01*
X198236525Y-110166632D01*
X198443368Y-110373475D01*
X198686589Y-110535990D01*
X198956842Y-110647932D01*
X199243740Y-110705000D01*
X199536260Y-110705000D01*
X199823158Y-110647932D01*
X200093411Y-110535990D01*
X200336632Y-110373475D01*
X200543475Y-110166632D01*
X200660000Y-109992240D01*
X200776525Y-110166632D01*
X200983368Y-110373475D01*
X201226589Y-110535990D01*
X201496842Y-110647932D01*
X201783740Y-110705000D01*
X202076260Y-110705000D01*
X202363158Y-110647932D01*
X202633411Y-110535990D01*
X202876632Y-110373475D01*
X203083475Y-110166632D01*
X203200000Y-109992240D01*
X203316525Y-110166632D01*
X203523368Y-110373475D01*
X203766589Y-110535990D01*
X204036842Y-110647932D01*
X204323740Y-110705000D01*
X204616260Y-110705000D01*
X204903158Y-110647932D01*
X205173411Y-110535990D01*
X205416632Y-110373475D01*
X205623475Y-110166632D01*
X205785990Y-109923411D01*
X205897932Y-109653158D01*
X205955000Y-109366260D01*
X205955000Y-109073740D01*
X205897932Y-108786842D01*
X205785990Y-108516589D01*
X205623475Y-108273368D01*
X205416632Y-108066525D01*
X205242240Y-107950000D01*
X205416632Y-107833475D01*
X205623475Y-107626632D01*
X205785990Y-107383411D01*
X205897932Y-107113158D01*
X205955000Y-106826260D01*
X205955000Y-106533740D01*
X205897932Y-106246842D01*
X205785990Y-105976589D01*
X205623475Y-105733368D01*
X205416632Y-105526525D01*
X205173411Y-105364010D01*
X204903158Y-105252068D01*
X204616260Y-105195000D01*
X204323740Y-105195000D01*
X204036842Y-105252068D01*
X203766589Y-105364010D01*
X203523368Y-105526525D01*
X203316525Y-105733368D01*
X203200000Y-105907760D01*
X203083475Y-105733368D01*
X202876632Y-105526525D01*
X202633411Y-105364010D01*
X202363158Y-105252068D01*
X202076260Y-105195000D01*
X201783740Y-105195000D01*
X201496842Y-105252068D01*
X201226589Y-105364010D01*
X200983368Y-105526525D01*
X200776525Y-105733368D01*
X200660000Y-105907760D01*
X200543475Y-105733368D01*
X200336632Y-105526525D01*
X200093411Y-105364010D01*
X199823158Y-105252068D01*
X199536260Y-105195000D01*
X199243740Y-105195000D01*
X198956842Y-105252068D01*
X198686589Y-105364010D01*
X198443368Y-105526525D01*
X198236525Y-105733368D01*
X198120000Y-105907760D01*
X198003475Y-105733368D01*
X197796632Y-105526525D01*
X197553411Y-105364010D01*
X197283158Y-105252068D01*
X196996260Y-105195000D01*
X196703740Y-105195000D01*
X196416842Y-105252068D01*
X196146589Y-105364010D01*
X195903368Y-105526525D01*
X195696525Y-105733368D01*
X195580000Y-105907760D01*
X195463475Y-105733368D01*
X195256632Y-105526525D01*
X195013411Y-105364010D01*
X194743158Y-105252068D01*
X194456260Y-105195000D01*
X194163740Y-105195000D01*
X193876842Y-105252068D01*
X193606589Y-105364010D01*
X193363368Y-105526525D01*
X193156525Y-105733368D01*
X193040000Y-105907760D01*
X192923475Y-105733368D01*
X192716632Y-105526525D01*
X192473411Y-105364010D01*
X192203158Y-105252068D01*
X191916260Y-105195000D01*
X191623740Y-105195000D01*
X191336842Y-105252068D01*
X191066589Y-105364010D01*
X190823368Y-105526525D01*
X190616525Y-105733368D01*
X190500000Y-105907760D01*
X190383475Y-105733368D01*
X190176632Y-105526525D01*
X189933411Y-105364010D01*
X189663158Y-105252068D01*
X189376260Y-105195000D01*
X189083740Y-105195000D01*
X188796842Y-105252068D01*
X188526589Y-105364010D01*
X188283368Y-105526525D01*
X188076525Y-105733368D01*
X187960000Y-105907760D01*
X187843475Y-105733368D01*
X187636632Y-105526525D01*
X187393411Y-105364010D01*
X187123158Y-105252068D01*
X186836260Y-105195000D01*
X186543740Y-105195000D01*
X186256842Y-105252068D01*
X185986589Y-105364010D01*
X185743368Y-105526525D01*
X185536525Y-105733368D01*
X185420000Y-105907760D01*
X185303475Y-105733368D01*
X185096632Y-105526525D01*
X184853411Y-105364010D01*
X184583158Y-105252068D01*
X184296260Y-105195000D01*
X184003740Y-105195000D01*
X183716842Y-105252068D01*
X183446589Y-105364010D01*
X183203368Y-105526525D01*
X182996525Y-105733368D01*
X182834010Y-105976589D01*
X182722068Y-106246842D01*
X182665000Y-106533740D01*
X182665000Y-106826260D01*
X182722068Y-107113158D01*
X182834010Y-107383411D01*
X182996525Y-107626632D01*
X183128380Y-107758487D01*
X183055820Y-107780498D01*
X182945506Y-107839463D01*
X182848815Y-107918815D01*
X182769463Y-108015506D01*
X182710498Y-108125820D01*
X182674188Y-108245518D01*
X182661928Y-108370000D01*
X169418000Y-108370000D01*
X169418000Y-107521224D01*
X170026381Y-107521224D01*
X170158317Y-107816312D01*
X170499045Y-107987159D01*
X170866557Y-108088250D01*
X171246729Y-108115701D01*
X171624951Y-108068457D01*
X171986690Y-107948333D01*
X172233683Y-107816312D01*
X172365619Y-107521224D01*
X171196000Y-106351605D01*
X170026381Y-107521224D01*
X169418000Y-107521224D01*
X169418000Y-106957670D01*
X169419667Y-106962690D01*
X169551688Y-107209683D01*
X169846776Y-107341619D01*
X171016395Y-106172000D01*
X171375605Y-106172000D01*
X172545224Y-107341619D01*
X172840312Y-107209683D01*
X173011159Y-106868955D01*
X173112250Y-106501443D01*
X173139701Y-106121271D01*
X173092457Y-105743049D01*
X172972333Y-105381310D01*
X172840312Y-105134317D01*
X172545224Y-105002381D01*
X171375605Y-106172000D01*
X171016395Y-106172000D01*
X169846776Y-105002381D01*
X169551688Y-105134317D01*
X169418000Y-105400937D01*
X169418000Y-104822776D01*
X170026381Y-104822776D01*
X171196000Y-105992395D01*
X172316395Y-104872000D01*
X174337928Y-104872000D01*
X174337928Y-107472000D01*
X174350188Y-107596482D01*
X174386498Y-107716180D01*
X174445463Y-107826494D01*
X174524815Y-107923185D01*
X174621506Y-108002537D01*
X174731820Y-108061502D01*
X174851518Y-108097812D01*
X174976000Y-108110072D01*
X177576000Y-108110072D01*
X177700482Y-108097812D01*
X177820180Y-108061502D01*
X177930494Y-108002537D01*
X178027185Y-107923185D01*
X178106537Y-107826494D01*
X178165502Y-107716180D01*
X178201812Y-107596482D01*
X178214072Y-107472000D01*
X178214072Y-104872000D01*
X178201812Y-104747518D01*
X178165502Y-104627820D01*
X178106537Y-104517506D01*
X178027185Y-104420815D01*
X177930494Y-104341463D01*
X177820180Y-104282498D01*
X177700482Y-104246188D01*
X177576000Y-104233928D01*
X174976000Y-104233928D01*
X174851518Y-104246188D01*
X174731820Y-104282498D01*
X174621506Y-104341463D01*
X174524815Y-104420815D01*
X174445463Y-104517506D01*
X174386498Y-104627820D01*
X174350188Y-104747518D01*
X174337928Y-104872000D01*
X172316395Y-104872000D01*
X172365619Y-104822776D01*
X172233683Y-104527688D01*
X171892955Y-104356841D01*
X171525443Y-104255750D01*
X171145271Y-104228299D01*
X170767049Y-104275543D01*
X170405310Y-104395667D01*
X170158317Y-104527688D01*
X170026381Y-104822776D01*
X169418000Y-104822776D01*
X169418000Y-102260000D01*
X208755723Y-102260000D01*
X208807197Y-102265047D01*
%TD*%
M02*
